<?xml version="1.0" encoding="UTF-8" standalone="no"?><svg xmlns="http://www.w3.org/2000/svg" xmlns:xlink="http://www.w3.org/1999/xlink" contentScriptType="application/ecmascript" contentStyleType="text/css" height="213px" preserveAspectRatio="none" style="width:632px;height:213px;" version="1.1" viewBox="0 0 632 213" width="632px" zoomAndPan="magnify"><defs><filter height="300%" id="f1a7sg0zp3hfoh" width="300%" x="-1" y="-1"><feGaussianBlur result="blurOut" stdDeviation="2.0"/><feColorMatrix in="blurOut" result="blurOut2" type="matrix" values="0 0 0 0 0 0 0 0 0 0 0 0 0 0 0 0 0 0 .4 0"/><feOffset dx="4.0" dy="4.0" in="blurOut2" result="blurOut3"/><feBlend in="SourceGraphic" in2="blurOut3" mode="normal"/></filter></defs><g><!--MD5=[a6107363210efd665be7d2b0bb56cd18]
class AbstractBlockSet--><rect fill="#FEFECE" filter="url(#f1a7sg0zp3hfoh)" height="86.4141" id="AbstractBlockSet" style="stroke: #A80036; stroke-width: 1.5;" width="615" x="6" y="116"/><ellipse cx="256.25" cy="132" fill="#A9DCDF" rx="11" ry="11" style="stroke: #A80036; stroke-width: 1.0;"/><path d="M256.3594,127.3438 L255.2031,132.4219 L257.5313,132.4219 L256.3594,127.3438 Z M254.875,125.1094 L257.8594,125.1094 L261.2188,137.5 L258.7656,137.5 L258,134.4375 L254.7188,134.4375 L253.9688,137.5 L251.5313,137.5 L254.875,125.1094 Z "/><text fill="#000000" font-family="sans-serif" font-size="12" font-style="italic" lengthAdjust="spacingAndGlyphs" textLength="106" x="276.75" y="136.1543">AbstractBlockSet</text><line style="stroke: #A80036; stroke-width: 1.5;" x1="7" x2="620" y1="148" y2="148"/><line style="stroke: #A80036; stroke-width: 1.5;" x1="7" x2="620" y1="156" y2="156"/><ellipse cx="17" cy="167" fill="#84BE84" rx="3" ry="3" style="stroke: #038048; stroke-width: 1.0;"/><text fill="#000000" font-family="sans-serif" font-size="11" font-style="italic" lengthAdjust="spacingAndGlyphs" textLength="589" x="26" y="170.2104">Setup(owner:IPlayer, field:AbstractField, input:IInputManager, sound:ISoundManager, fallLevel:int) : void</text><ellipse cx="17" cy="179.8047" fill="#84BE84" rx="3" ry="3" style="stroke: #038048; stroke-width: 1.0;"/><text fill="#000000" font-family="sans-serif" font-size="11" font-style="italic" lengthAdjust="spacingAndGlyphs" textLength="136" x="26" y="183.0151">CenterPos() : Vector2Int</text><ellipse cx="17" cy="192.6094" fill="#84BE84" rx="3" ry="3" style="stroke: #038048; stroke-width: 1.0;"/><text fill="#000000" font-family="sans-serif" font-size="11" font-style="italic" lengthAdjust="spacingAndGlyphs" textLength="78" x="26" y="195.8198">RotStep() : int</text><!--MD5=[83b3cf3d23d77c6f1e1b5291a241bc2a]
class MonoBehaviour--><rect fill="#FEFECE" filter="url(#f1a7sg0zp3hfoh)" height="48" id="MonoBehaviour" style="stroke: #A80036; stroke-width: 1.5;" width="128" x="249.5" y="8"/><ellipse cx="264.5" cy="24" fill="#ADD1B2" rx="11" ry="11" style="stroke: #A80036; stroke-width: 1.0;"/><path d="M267.4688,29.6406 Q266.8906,29.9375 266.25,30.0781 Q265.6094,30.2344 264.9063,30.2344 Q262.4063,30.2344 261.0781,28.5938 Q259.7656,26.9375 259.7656,23.8125 Q259.7656,20.6875 261.0781,19.0313 Q262.4063,17.375 264.9063,17.375 Q265.6094,17.375 266.25,17.5313 Q266.9063,17.6875 267.4688,17.9844 L267.4688,20.7031 Q266.8438,20.125 266.25,19.8594 Q265.6563,19.5781 265.0313,19.5781 Q263.6875,19.5781 263,20.6563 Q262.3125,21.7188 262.3125,23.8125 Q262.3125,25.9063 263,26.9844 Q263.6875,28.0469 265.0313,28.0469 Q265.6563,28.0469 266.25,27.7813 Q266.8438,27.5 267.4688,26.9219 L267.4688,29.6406 Z "/><text fill="#000000" font-family="sans-serif" font-size="12" lengthAdjust="spacingAndGlyphs" textLength="96" x="278.5" y="28.1543">MonoBehaviour</text><line style="stroke: #A80036; stroke-width: 1.5;" x1="250.5" x2="376.5" y1="40" y2="40"/><line style="stroke: #A80036; stroke-width: 1.5;" x1="250.5" x2="376.5" y1="48" y2="48"/><!--MD5=[65921c214188211803dc57fc263cc23c]
reverse link MonoBehaviour to AbstractBlockSet--><path d="M313.5,76.27 C313.5,89.12 313.5,103.17 313.5,115.94 " fill="none" id="MonoBehaviour&lt;-AbstractBlockSet" style="stroke: #A80036; stroke-width: 1.0;"/><polygon fill="none" points="306.5,76.22,313.5,56.22,320.5,76.22,306.5,76.22" style="stroke: #A80036; stroke-width: 1.0;"/><!--MD5=[d116149a493f5bbb7c9006994e20cb15]
@startuml
abstract class AbstractBlockSet {
    + {abstract} Setup(owner:IPlayer, field:AbstractField, input:IInputManager, sound:ISoundManager, fallLevel:int) : void
    + {abstract} CenterPos() : Vector2Int
    + {abstract} RotStep() : int
}
MonoBehaviour <|- - AbstractBlockSet
@enduml

PlantUML version 1.2020.02(Sun Mar 01 10:22:07 GMT 2020)
(GPL source distribution)
Java Runtime: OpenJDK Runtime Environment
JVM: OpenJDK 64-Bit Server VM
Java Version: 11.0.9+11-Ubuntu-0ubuntu1
Operating System: Linux
Default Encoding: ANSI_X3.4-1968
Language: en
Country: US
--></g></svg>