<?xml version="1.0" encoding="UTF-8" standalone="no"?><svg xmlns="http://www.w3.org/2000/svg" xmlns:xlink="http://www.w3.org/1999/xlink" contentScriptType="application/ecmascript" contentStyleType="text/css" height="226px" preserveAspectRatio="none" style="width:1267px;height:226px;" version="1.1" viewBox="0 0 1267 226" width="1267px" zoomAndPan="magnify"><defs><filter height="300%" id="f1vhylnhjobqae" width="300%" x="-1" y="-1"><feGaussianBlur result="blurOut" stdDeviation="2.0"/><feColorMatrix in="blurOut" result="blurOut2" type="matrix" values="0 0 0 0 0 0 0 0 0 0 0 0 0 0 0 0 0 0 .4 0"/><feOffset dx="4.0" dy="4.0" in="blurOut2" result="blurOut3"/><feBlend in="SourceGraphic" in2="blurOut3" mode="normal"/></filter></defs><g><!--MD5=[d13a83a75d1ec61fceb66fefb5a2964f]
cluster UnityEngine--><polygon fill="#FFFFFF" filter="url(#f1vhylnhjobqae)" points="462.5,24,561.5,24,568.5,46.2969,622.5,46.2969,622.5,123,462.5,123,462.5,24" style="stroke: #000000; stroke-width: 1.5;"/><line style="stroke: #000000; stroke-width: 1.5;" x1="462.5" x2="568.5" y1="46.2969" y2="46.2969"/><text fill="#000000" font-family="sans-serif" font-size="14" font-weight="bold" lengthAdjust="spacingAndGlyphs" textLength="93" x="466.5" y="38.9951">UnityEngine</text><!--MD5=[cbc521fcaf3492f4faf3fc97db40cdfb]
class UnityEngine.MonoBehaviour--><rect fill="#FEFECE" filter="url(#f1vhylnhjobqae)" height="48" id="UnityEngine.MonoBehaviour" style="stroke: #A80036; stroke-width: 1.5;" width="128" x="478.5" y="59"/><ellipse cx="493.5" cy="75" fill="#ADD1B2" rx="11" ry="11" style="stroke: #A80036; stroke-width: 1.0;"/><path d="M496.4688,80.6406 Q495.8906,80.9375 495.25,81.0781 Q494.6094,81.2344 493.9063,81.2344 Q491.4063,81.2344 490.0781,79.5938 Q488.7656,77.9375 488.7656,74.8125 Q488.7656,71.6875 490.0781,70.0313 Q491.4063,68.375 493.9063,68.375 Q494.6094,68.375 495.25,68.5313 Q495.9063,68.6875 496.4688,68.9844 L496.4688,71.7031 Q495.8438,71.125 495.25,70.8594 Q494.6563,70.5781 494.0313,70.5781 Q492.6875,70.5781 492,71.6563 Q491.3125,72.7188 491.3125,74.8125 Q491.3125,76.9063 492,77.9844 Q492.6875,79.0469 494.0313,79.0469 Q494.6563,79.0469 495.25,78.7813 Q495.8438,78.5 496.4688,77.9219 L496.4688,80.6406 Z "/><text fill="#000000" font-family="sans-serif" font-size="12" lengthAdjust="spacingAndGlyphs" textLength="96" x="507.5" y="79.1543">MonoBehaviour</text><line style="stroke: #A80036; stroke-width: 1.5;" x1="479.5" x2="605.5" y1="91" y2="91"/><line style="stroke: #A80036; stroke-width: 1.5;" x1="479.5" x2="605.5" y1="99" y2="99"/><!--MD5=[82d9c97a467af7c0b2c072e754b85475]
class GameController--><rect fill="#FEFECE" filter="url(#f1vhylnhjobqae)" height="48" id="GameController" style="stroke: #A80036; stroke-width: 1.5;" width="129" x="6" y="167"/><ellipse cx="21" cy="183" fill="#ADD1B2" rx="11" ry="11" style="stroke: #A80036; stroke-width: 1.0;"/><path d="M23.9688,188.6406 Q23.3906,188.9375 22.75,189.0781 Q22.1094,189.2344 21.4063,189.2344 Q18.9063,189.2344 17.5781,187.5938 Q16.2656,185.9375 16.2656,182.8125 Q16.2656,179.6875 17.5781,178.0313 Q18.9063,176.375 21.4063,176.375 Q22.1094,176.375 22.75,176.5313 Q23.4063,176.6875 23.9688,176.9844 L23.9688,179.7031 Q23.3438,179.125 22.75,178.8594 Q22.1563,178.5781 21.5313,178.5781 Q20.1875,178.5781 19.5,179.6563 Q18.8125,180.7188 18.8125,182.8125 Q18.8125,184.9063 19.5,185.9844 Q20.1875,187.0469 21.5313,187.0469 Q22.1563,187.0469 22.75,186.7813 Q23.3438,186.5 23.9688,185.9219 L23.9688,188.6406 Z "/><text fill="#000000" font-family="sans-serif" font-size="12" lengthAdjust="spacingAndGlyphs" textLength="97" x="35" y="187.1543">GameController</text><line style="stroke: #A80036; stroke-width: 1.5;" x1="7" x2="134" y1="199" y2="199"/><line style="stroke: #A80036; stroke-width: 1.5;" x1="7" x2="134" y1="207" y2="207"/><!--MD5=[f31abd274b6031e8a029f6b8179e8434]
class BlockSet--><rect fill="#FEFECE" filter="url(#f1vhylnhjobqae)" height="48" id="BlockSet" style="stroke: #A80036; stroke-width: 1.5;" width="86" x="170.5" y="167"/><ellipse cx="185.5" cy="183" fill="#ADD1B2" rx="11" ry="11" style="stroke: #A80036; stroke-width: 1.0;"/><path d="M188.4688,188.6406 Q187.8906,188.9375 187.25,189.0781 Q186.6094,189.2344 185.9063,189.2344 Q183.4063,189.2344 182.0781,187.5938 Q180.7656,185.9375 180.7656,182.8125 Q180.7656,179.6875 182.0781,178.0313 Q183.4063,176.375 185.9063,176.375 Q186.6094,176.375 187.25,176.5313 Q187.9063,176.6875 188.4688,176.9844 L188.4688,179.7031 Q187.8438,179.125 187.25,178.8594 Q186.6563,178.5781 186.0313,178.5781 Q184.6875,178.5781 184,179.6563 Q183.3125,180.7188 183.3125,182.8125 Q183.3125,184.9063 184,185.9844 Q184.6875,187.0469 186.0313,187.0469 Q186.6563,187.0469 187.25,186.7813 Q187.8438,186.5 188.4688,185.9219 L188.4688,188.6406 Z "/><text fill="#000000" font-family="sans-serif" font-size="12" lengthAdjust="spacingAndGlyphs" textLength="54" x="199.5" y="187.1543">BlockSet</text><line style="stroke: #A80036; stroke-width: 1.5;" x1="171.5" x2="255.5" y1="199" y2="199"/><line style="stroke: #A80036; stroke-width: 1.5;" x1="171.5" x2="255.5" y1="207" y2="207"/><!--MD5=[68a0c021ad4fbab63794e91c3c368f48]
class Block--><rect fill="#FEFECE" filter="url(#f1vhylnhjobqae)" height="48" id="Block" style="stroke: #A80036; stroke-width: 1.5;" width="65" x="292" y="167"/><ellipse cx="307" cy="183" fill="#ADD1B2" rx="11" ry="11" style="stroke: #A80036; stroke-width: 1.0;"/><path d="M309.9688,188.6406 Q309.3906,188.9375 308.75,189.0781 Q308.1094,189.2344 307.4063,189.2344 Q304.9063,189.2344 303.5781,187.5938 Q302.2656,185.9375 302.2656,182.8125 Q302.2656,179.6875 303.5781,178.0313 Q304.9063,176.375 307.4063,176.375 Q308.1094,176.375 308.75,176.5313 Q309.4063,176.6875 309.9688,176.9844 L309.9688,179.7031 Q309.3438,179.125 308.75,178.8594 Q308.1563,178.5781 307.5313,178.5781 Q306.1875,178.5781 305.5,179.6563 Q304.8125,180.7188 304.8125,182.8125 Q304.8125,184.9063 305.5,185.9844 Q306.1875,187.0469 307.5313,187.0469 Q308.1563,187.0469 308.75,186.7813 Q309.3438,186.5 309.9688,185.9219 L309.9688,188.6406 Z "/><text fill="#000000" font-family="sans-serif" font-size="12" lengthAdjust="spacingAndGlyphs" textLength="33" x="321" y="187.1543">Block</text><line style="stroke: #A80036; stroke-width: 1.5;" x1="293" x2="356" y1="199" y2="199"/><line style="stroke: #A80036; stroke-width: 1.5;" x1="293" x2="356" y1="207" y2="207"/><!--MD5=[d9427b671d7d049aff2d6f2fe36a13b3]
class Field--><rect fill="#FEFECE" filter="url(#f1vhylnhjobqae)" height="48" id="Field" style="stroke: #A80036; stroke-width: 1.5;" width="61" x="392" y="167"/><ellipse cx="407" cy="183" fill="#ADD1B2" rx="11" ry="11" style="stroke: #A80036; stroke-width: 1.0;"/><path d="M409.9688,188.6406 Q409.3906,188.9375 408.75,189.0781 Q408.1094,189.2344 407.4063,189.2344 Q404.9063,189.2344 403.5781,187.5938 Q402.2656,185.9375 402.2656,182.8125 Q402.2656,179.6875 403.5781,178.0313 Q404.9063,176.375 407.4063,176.375 Q408.1094,176.375 408.75,176.5313 Q409.4063,176.6875 409.9688,176.9844 L409.9688,179.7031 Q409.3438,179.125 408.75,178.8594 Q408.1563,178.5781 407.5313,178.5781 Q406.1875,178.5781 405.5,179.6563 Q404.8125,180.7188 404.8125,182.8125 Q404.8125,184.9063 405.5,185.9844 Q406.1875,187.0469 407.5313,187.0469 Q408.1563,187.0469 408.75,186.7813 Q409.3438,186.5 409.9688,185.9219 L409.9688,188.6406 Z "/><text fill="#000000" font-family="sans-serif" font-size="12" lengthAdjust="spacingAndGlyphs" textLength="29" x="421" y="187.1543">Field</text><line style="stroke: #A80036; stroke-width: 1.5;" x1="393" x2="452" y1="199" y2="199"/><line style="stroke: #A80036; stroke-width: 1.5;" x1="393" x2="452" y1="207" y2="207"/><!--MD5=[48ba5eb5f0de0a5244422e917b163e97]
class StatusPanel--><rect fill="#FEFECE" filter="url(#f1vhylnhjobqae)" height="48" id="StatusPanel" style="stroke: #A80036; stroke-width: 1.5;" width="108" x="488.5" y="167"/><ellipse cx="503.5" cy="183" fill="#ADD1B2" rx="11" ry="11" style="stroke: #A80036; stroke-width: 1.0;"/><path d="M506.4688,188.6406 Q505.8906,188.9375 505.25,189.0781 Q504.6094,189.2344 503.9063,189.2344 Q501.4063,189.2344 500.0781,187.5938 Q498.7656,185.9375 498.7656,182.8125 Q498.7656,179.6875 500.0781,178.0313 Q501.4063,176.375 503.9063,176.375 Q504.6094,176.375 505.25,176.5313 Q505.9063,176.6875 506.4688,176.9844 L506.4688,179.7031 Q505.8438,179.125 505.25,178.8594 Q504.6563,178.5781 504.0313,178.5781 Q502.6875,178.5781 502,179.6563 Q501.3125,180.7188 501.3125,182.8125 Q501.3125,184.9063 502,185.9844 Q502.6875,187.0469 504.0313,187.0469 Q504.6563,187.0469 505.25,186.7813 Q505.8438,186.5 506.4688,185.9219 L506.4688,188.6406 Z "/><text fill="#000000" font-family="sans-serif" font-size="12" lengthAdjust="spacingAndGlyphs" textLength="76" x="517.5" y="187.1543">StatusPanel</text><line style="stroke: #A80036; stroke-width: 1.5;" x1="489.5" x2="595.5" y1="199" y2="199"/><line style="stroke: #A80036; stroke-width: 1.5;" x1="489.5" x2="595.5" y1="207" y2="207"/><!--MD5=[313835e2384f4c5003f55ee5fc6febf5]
class InputManager--><rect fill="#FEFECE" filter="url(#f1vhylnhjobqae)" height="48" id="InputManager" style="stroke: #A80036; stroke-width: 1.5;" width="119" x="632" y="167"/><ellipse cx="647" cy="183" fill="#ADD1B2" rx="11" ry="11" style="stroke: #A80036; stroke-width: 1.0;"/><path d="M649.9688,188.6406 Q649.3906,188.9375 648.75,189.0781 Q648.1094,189.2344 647.4063,189.2344 Q644.9063,189.2344 643.5781,187.5938 Q642.2656,185.9375 642.2656,182.8125 Q642.2656,179.6875 643.5781,178.0313 Q644.9063,176.375 647.4063,176.375 Q648.1094,176.375 648.75,176.5313 Q649.4063,176.6875 649.9688,176.9844 L649.9688,179.7031 Q649.3438,179.125 648.75,178.8594 Q648.1563,178.5781 647.5313,178.5781 Q646.1875,178.5781 645.5,179.6563 Q644.8125,180.7188 644.8125,182.8125 Q644.8125,184.9063 645.5,185.9844 Q646.1875,187.0469 647.5313,187.0469 Q648.1563,187.0469 648.75,186.7813 Q649.3438,186.5 649.9688,185.9219 L649.9688,188.6406 Z "/><text fill="#000000" font-family="sans-serif" font-size="12" lengthAdjust="spacingAndGlyphs" textLength="87" x="661" y="187.1543">InputManager</text><line style="stroke: #A80036; stroke-width: 1.5;" x1="633" x2="750" y1="199" y2="199"/><line style="stroke: #A80036; stroke-width: 1.5;" x1="633" x2="750" y1="207" y2="207"/><!--MD5=[4a39f741ad6768ca388f24f8e4e7f8ee]
class StateGameBoot--><rect fill="#FEFECE" filter="url(#f1vhylnhjobqae)" height="48" id="StateGameBoot" style="stroke: #A80036; stroke-width: 1.5;" width="131" x="786" y="167"/><ellipse cx="801" cy="183" fill="#ADD1B2" rx="11" ry="11" style="stroke: #A80036; stroke-width: 1.0;"/><path d="M803.9688,188.6406 Q803.3906,188.9375 802.75,189.0781 Q802.1094,189.2344 801.4063,189.2344 Q798.9063,189.2344 797.5781,187.5938 Q796.2656,185.9375 796.2656,182.8125 Q796.2656,179.6875 797.5781,178.0313 Q798.9063,176.375 801.4063,176.375 Q802.1094,176.375 802.75,176.5313 Q803.4063,176.6875 803.9688,176.9844 L803.9688,179.7031 Q803.3438,179.125 802.75,178.8594 Q802.1563,178.5781 801.5313,178.5781 Q800.1875,178.5781 799.5,179.6563 Q798.8125,180.7188 798.8125,182.8125 Q798.8125,184.9063 799.5,185.9844 Q800.1875,187.0469 801.5313,187.0469 Q802.1563,187.0469 802.75,186.7813 Q803.3438,186.5 803.9688,185.9219 L803.9688,188.6406 Z "/><text fill="#000000" font-family="sans-serif" font-size="12" lengthAdjust="spacingAndGlyphs" textLength="99" x="815" y="187.1543">StateGameBoot</text><line style="stroke: #A80036; stroke-width: 1.5;" x1="787" x2="916" y1="199" y2="199"/><line style="stroke: #A80036; stroke-width: 1.5;" x1="787" x2="916" y1="207" y2="207"/><!--MD5=[3078c6b64450c3e35776cb40b1f331d8]
class StateGameMain--><rect fill="#FEFECE" filter="url(#f1vhylnhjobqae)" height="48" id="StateGameMain" style="stroke: #A80036; stroke-width: 1.5;" width="131" x="952" y="167"/><ellipse cx="967" cy="183" fill="#ADD1B2" rx="11" ry="11" style="stroke: #A80036; stroke-width: 1.0;"/><path d="M969.9688,188.6406 Q969.3906,188.9375 968.75,189.0781 Q968.1094,189.2344 967.4063,189.2344 Q964.9063,189.2344 963.5781,187.5938 Q962.2656,185.9375 962.2656,182.8125 Q962.2656,179.6875 963.5781,178.0313 Q964.9063,176.375 967.4063,176.375 Q968.1094,176.375 968.75,176.5313 Q969.4063,176.6875 969.9688,176.9844 L969.9688,179.7031 Q969.3438,179.125 968.75,178.8594 Q968.1563,178.5781 967.5313,178.5781 Q966.1875,178.5781 965.5,179.6563 Q964.8125,180.7188 964.8125,182.8125 Q964.8125,184.9063 965.5,185.9844 Q966.1875,187.0469 967.5313,187.0469 Q968.1563,187.0469 968.75,186.7813 Q969.3438,186.5 969.9688,185.9219 L969.9688,188.6406 Z "/><text fill="#000000" font-family="sans-serif" font-size="12" lengthAdjust="spacingAndGlyphs" textLength="99" x="981" y="187.1543">StateGameMain</text><line style="stroke: #A80036; stroke-width: 1.5;" x1="953" x2="1082" y1="199" y2="199"/><line style="stroke: #A80036; stroke-width: 1.5;" x1="953" x2="1082" y1="207" y2="207"/><!--MD5=[f432f6a74f838366b59e77c4bae35570]
class StateGameFinish--><rect fill="#FEFECE" filter="url(#f1vhylnhjobqae)" height="48" id="StateGameFinish" style="stroke: #A80036; stroke-width: 1.5;" width="138" x="1118.5" y="167"/><ellipse cx="1133.5" cy="183" fill="#ADD1B2" rx="11" ry="11" style="stroke: #A80036; stroke-width: 1.0;"/><path d="M1136.4688,188.6406 Q1135.8906,188.9375 1135.25,189.0781 Q1134.6094,189.2344 1133.9063,189.2344 Q1131.4063,189.2344 1130.0781,187.5938 Q1128.7656,185.9375 1128.7656,182.8125 Q1128.7656,179.6875 1130.0781,178.0313 Q1131.4063,176.375 1133.9063,176.375 Q1134.6094,176.375 1135.25,176.5313 Q1135.9063,176.6875 1136.4688,176.9844 L1136.4688,179.7031 Q1135.8438,179.125 1135.25,178.8594 Q1134.6563,178.5781 1134.0313,178.5781 Q1132.6875,178.5781 1132,179.6563 Q1131.3125,180.7188 1131.3125,182.8125 Q1131.3125,184.9063 1132,185.9844 Q1132.6875,187.0469 1134.0313,187.0469 Q1134.6563,187.0469 1135.25,186.7813 Q1135.8438,186.5 1136.4688,185.9219 L1136.4688,188.6406 Z "/><text fill="#000000" font-family="sans-serif" font-size="12" lengthAdjust="spacingAndGlyphs" textLength="106" x="1147.5" y="187.1543">StateGameFinish</text><line style="stroke: #A80036; stroke-width: 1.5;" x1="1119.5" x2="1255.5" y1="199" y2="199"/><line style="stroke: #A80036; stroke-width: 1.5;" x1="1119.5" x2="1255.5" y1="207" y2="207"/><!--MD5=[2e357a080b8f7a4ab7196ccc3f69a8fc]
reverse link UnityEngine.MonoBehaviour to GameController--><path d="M458.7,100.23 C379.48,115.94 257.46,141.14 152.5,167 C146.9,168.38 141.1,169.87 135.3,171.41 " fill="none" id="UnityEngine.MonoBehaviour&lt;-GameController" style="stroke: #A80036; stroke-width: 1.0;"/><polygon fill="none" points="457.4,93.35,478.38,96.34,460.11,107.08,457.4,93.35" style="stroke: #A80036; stroke-width: 1.0;"/><!--MD5=[d4071c991e16cd78f7414ca0ea5a5d66]
reverse link UnityEngine.MonoBehaviour to BlockSet--><path d="M458.79,108.51 C405.73,124.4 335.78,145.98 274.5,167 C268.72,168.98 262.66,171.15 256.7,173.34 " fill="none" id="UnityEngine.MonoBehaviour&lt;-BlockSet" style="stroke: #A80036; stroke-width: 1.0;"/><polygon fill="none" points="457.09,101.71,478.25,102.71,461.08,115.13,457.09,101.71" style="stroke: #A80036; stroke-width: 1.0;"/><!--MD5=[fc792918620ea94a5d4f5037d3583d32]
reverse link UnityEngine.MonoBehaviour to Block--><path d="M477.19,115.76 C437.61,135 388.83,158.72 357.21,174.09 " fill="none" id="UnityEngine.MonoBehaviour&lt;-Block" style="stroke: #A80036; stroke-width: 1.0;"/><polygon fill="none" points="474.15,109.45,495.2,107,480.27,122.04,474.15,109.45" style="stroke: #A80036; stroke-width: 1.0;"/><!--MD5=[ecdcb0c3e257cc8d8bab1f060072183e]
reverse link UnityEngine.MonoBehaviour to Field--><path d="M501.36,120.34 C483.99,135.68 464.28,153.1 448.9,166.68 " fill="none" id="UnityEngine.MonoBehaviour&lt;-Field" style="stroke: #A80036; stroke-width: 1.0;"/><polygon fill="none" points="496.84,114.99,516.46,107,506.11,125.49,496.84,114.99" style="stroke: #A80036; stroke-width: 1.0;"/><!--MD5=[c1780b56cdc4807e8b08c9f935d7132f]
reverse link UnityEngine.MonoBehaviour to StatusPanel--><path d="M542.5,127.02 C542.5,140.58 542.5,155.04 542.5,166.68 " fill="none" id="UnityEngine.MonoBehaviour&lt;-StatusPanel" style="stroke: #A80036; stroke-width: 1.0;"/><polygon fill="none" points="535.5,127,542.5,107,549.5,127,535.5,127" style="stroke: #A80036; stroke-width: 1.0;"/><!--MD5=[5152a96f30c47c89030e90dedc50d3bb]
reverse link UnityEngine.MonoBehaviour to InputManager--><path d="M591.34,118.75 C613.53,134.53 639.19,152.78 658.98,166.86 " fill="none" id="UnityEngine.MonoBehaviour&lt;-InputManager" style="stroke: #A80036; stroke-width: 1.0;"/><polygon fill="none" points="587.07,124.3,574.83,107,595.19,112.89,587.07,124.3" style="stroke: #A80036; stroke-width: 1.0;"/><!--MD5=[059d62d87cc4055210ae8ad1713c1cf1]
reverse link UnityEngine.MonoBehaviour to StateGameBoot--><path d="M625.47,112.46 C675.81,129.73 739.15,151.46 785.96,167.52 " fill="none" id="UnityEngine.MonoBehaviour&lt;-StateGameBoot" style="stroke: #A80036; stroke-width: 1.0;"/><polygon fill="none" points="623.17,119.07,606.52,105.96,627.71,105.83,623.17,119.07" style="stroke: #A80036; stroke-width: 1.0;"/><!--MD5=[972566ae976fec80db4be80eb28a7b91]
reverse link UnityEngine.MonoBehaviour to StateGameMain--><path d="M626.36,100.2 C705.97,115.94 828.82,141.19 934.5,167 C940.17,168.38 946.03,169.88 951.9,171.42 " fill="none" id="UnityEngine.MonoBehaviour&lt;-StateGameMain" style="stroke: #A80036; stroke-width: 1.0;"/><polygon fill="none" points="624.87,107.04,606.6,96.31,627.57,93.3,624.87,107.04" style="stroke: #A80036; stroke-width: 1.0;"/><!--MD5=[1e227836d80b944ede6b97f23eb923dc]
reverse link UnityEngine.MonoBehaviour to StateGameFinish--><path d="M626.58,93.56 C736.24,106.7 933.78,132.67 1100.5,167 C1106.31,168.2 1112.32,169.55 1118.33,170.97 " fill="none" id="UnityEngine.MonoBehaviour&lt;-StateGameFinish" style="stroke: #A80036; stroke-width: 1.0;"/><polygon fill="none" points="625.54,100.49,606.5,91.18,627.19,86.58,625.54,100.49" style="stroke: #A80036; stroke-width: 1.0;"/><!--MD5=[713f31ae7e33529e3ecd4bc699158a2d]
@startuml

UnityEngine.MonoBehaviour <|- - GameController
UnityEngine.MonoBehaviour <|- - BlockSet
UnityEngine.MonoBehaviour <|- - Block
UnityEngine.MonoBehaviour <|- - Field
UnityEngine.MonoBehaviour <|- - StatusPanel
UnityEngine.MonoBehaviour <|- - InputManager

UnityEngine.MonoBehaviour <|- - StateGameBoot
UnityEngine.MonoBehaviour <|- - StateGameMain
UnityEngine.MonoBehaviour <|- - StateGameFinish
@enduml

PlantUML version 1.2020.02(Sun Mar 01 10:22:07 GMT 2020)
(GPL source distribution)
Java Runtime: OpenJDK Runtime Environment
JVM: OpenJDK 64-Bit Server VM
Java Version: 11.0.9+11-Ubuntu-0ubuntu1
Operating System: Linux
Default Encoding: ANSI_X3.4-1968
Language: en
Country: US
--></g></svg>