<?xml version="1.0" encoding="UTF-8" standalone="no"?><svg xmlns="http://www.w3.org/2000/svg" xmlns:xlink="http://www.w3.org/1999/xlink" contentScriptType="application/ecmascript" contentStyleType="text/css" height="226px" preserveAspectRatio="none" style="width:1593px;height:226px;" version="1.1" viewBox="0 0 1593 226" width="1593px" zoomAndPan="magnify"><defs><filter height="300%" id="flnkm0mjvjc5p" width="300%" x="-1" y="-1"><feGaussianBlur result="blurOut" stdDeviation="2.0"/><feColorMatrix in="blurOut" result="blurOut2" type="matrix" values="0 0 0 0 0 0 0 0 0 0 0 0 0 0 0 0 0 0 .4 0"/><feOffset dx="4.0" dy="4.0" in="blurOut2" result="blurOut3"/><feBlend in="SourceGraphic" in2="blurOut3" mode="normal"/></filter></defs><g><!--MD5=[d13a83a75d1ec61fceb66fefb5a2964f]
cluster UnityEngine--><polygon fill="#FFFFFF" filter="url(#flnkm0mjvjc5p)" points="727,24,826,24,833,46.2969,887,46.2969,887,123,727,123,727,24" style="stroke: #000000; stroke-width: 1.5;"/><line style="stroke: #000000; stroke-width: 1.5;" x1="727" x2="833" y1="46.2969" y2="46.2969"/><text fill="#000000" font-family="sans-serif" font-size="14" font-weight="bold" lengthAdjust="spacingAndGlyphs" textLength="93" x="731" y="38.9951">UnityEngine</text><!--MD5=[cbc521fcaf3492f4faf3fc97db40cdfb]
class UnityEngine.MonoBehaviour--><rect fill="#FEFECE" filter="url(#flnkm0mjvjc5p)" height="48" id="UnityEngine.MonoBehaviour" style="stroke: #A80036; stroke-width: 1.5;" width="128" x="743" y="59"/><ellipse cx="758" cy="75" fill="#ADD1B2" rx="11" ry="11" style="stroke: #A80036; stroke-width: 1.0;"/><path d="M760.9688,80.6406 Q760.3906,80.9375 759.75,81.0781 Q759.1094,81.2344 758.4063,81.2344 Q755.9063,81.2344 754.5781,79.5938 Q753.2656,77.9375 753.2656,74.8125 Q753.2656,71.6875 754.5781,70.0313 Q755.9063,68.375 758.4063,68.375 Q759.1094,68.375 759.75,68.5313 Q760.4063,68.6875 760.9688,68.9844 L760.9688,71.7031 Q760.3438,71.125 759.75,70.8594 Q759.1563,70.5781 758.5313,70.5781 Q757.1875,70.5781 756.5,71.6563 Q755.8125,72.7188 755.8125,74.8125 Q755.8125,76.9063 756.5,77.9844 Q757.1875,79.0469 758.5313,79.0469 Q759.1563,79.0469 759.75,78.7813 Q760.3438,78.5 760.9688,77.9219 L760.9688,80.6406 Z "/><text fill="#000000" font-family="sans-serif" font-size="12" lengthAdjust="spacingAndGlyphs" textLength="96" x="772" y="79.1543">MonoBehaviour</text><line style="stroke: #A80036; stroke-width: 1.5;" x1="744" x2="870" y1="91" y2="91"/><line style="stroke: #A80036; stroke-width: 1.5;" x1="744" x2="870" y1="99" y2="99"/><!--MD5=[1ccf88b84f217b1b30fe294299e2e1d6]
class AbstractField--><rect fill="#FEFECE" filter="url(#flnkm0mjvjc5p)" height="48" id="AbstractField" style="stroke: #A80036; stroke-width: 1.5;" width="114" x="6" y="167"/><ellipse cx="21" cy="183" fill="#ADD1B2" rx="11" ry="11" style="stroke: #A80036; stroke-width: 1.0;"/><path d="M23.9688,188.6406 Q23.3906,188.9375 22.75,189.0781 Q22.1094,189.2344 21.4063,189.2344 Q18.9063,189.2344 17.5781,187.5938 Q16.2656,185.9375 16.2656,182.8125 Q16.2656,179.6875 17.5781,178.0313 Q18.9063,176.375 21.4063,176.375 Q22.1094,176.375 22.75,176.5313 Q23.4063,176.6875 23.9688,176.9844 L23.9688,179.7031 Q23.3438,179.125 22.75,178.8594 Q22.1563,178.5781 21.5313,178.5781 Q20.1875,178.5781 19.5,179.6563 Q18.8125,180.7188 18.8125,182.8125 Q18.8125,184.9063 19.5,185.9844 Q20.1875,187.0469 21.5313,187.0469 Q22.1563,187.0469 22.75,186.7813 Q23.3438,186.5 23.9688,185.9219 L23.9688,188.6406 Z "/><text fill="#000000" font-family="sans-serif" font-size="12" lengthAdjust="spacingAndGlyphs" textLength="82" x="35" y="187.1543">AbstractField</text><line style="stroke: #A80036; stroke-width: 1.5;" x1="7" x2="119" y1="199" y2="199"/><line style="stroke: #A80036; stroke-width: 1.5;" x1="7" x2="119" y1="207" y2="207"/><!--MD5=[a6107363210efd665be7d2b0bb56cd18]
class AbstractBlockSet--><rect fill="#FEFECE" filter="url(#flnkm0mjvjc5p)" height="48" id="AbstractBlockSet" style="stroke: #A80036; stroke-width: 1.5;" width="139" x="155.5" y="167"/><ellipse cx="170.5" cy="183" fill="#ADD1B2" rx="11" ry="11" style="stroke: #A80036; stroke-width: 1.0;"/><path d="M173.4688,188.6406 Q172.8906,188.9375 172.25,189.0781 Q171.6094,189.2344 170.9063,189.2344 Q168.4063,189.2344 167.0781,187.5938 Q165.7656,185.9375 165.7656,182.8125 Q165.7656,179.6875 167.0781,178.0313 Q168.4063,176.375 170.9063,176.375 Q171.6094,176.375 172.25,176.5313 Q172.9063,176.6875 173.4688,176.9844 L173.4688,179.7031 Q172.8438,179.125 172.25,178.8594 Q171.6563,178.5781 171.0313,178.5781 Q169.6875,178.5781 169,179.6563 Q168.3125,180.7188 168.3125,182.8125 Q168.3125,184.9063 169,185.9844 Q169.6875,187.0469 171.0313,187.0469 Q171.6563,187.0469 172.25,186.7813 Q172.8438,186.5 173.4688,185.9219 L173.4688,188.6406 Z "/><text fill="#000000" font-family="sans-serif" font-size="12" lengthAdjust="spacingAndGlyphs" textLength="107" x="184.5" y="187.1543">AbstractBlockSet</text><line style="stroke: #A80036; stroke-width: 1.5;" x1="156.5" x2="293.5" y1="199" y2="199"/><line style="stroke: #A80036; stroke-width: 1.5;" x1="156.5" x2="293.5" y1="207" y2="207"/><!--MD5=[b5be1ff950ebddaf02f10067d2d07139]
class AbstractStateGameMain--><rect fill="#FEFECE" filter="url(#flnkm0mjvjc5p)" height="48" id="AbstractStateGameMain" style="stroke: #A80036; stroke-width: 1.5;" width="184" x="330" y="167"/><ellipse cx="345" cy="183" fill="#ADD1B2" rx="11" ry="11" style="stroke: #A80036; stroke-width: 1.0;"/><path d="M347.9688,188.6406 Q347.3906,188.9375 346.75,189.0781 Q346.1094,189.2344 345.4063,189.2344 Q342.9063,189.2344 341.5781,187.5938 Q340.2656,185.9375 340.2656,182.8125 Q340.2656,179.6875 341.5781,178.0313 Q342.9063,176.375 345.4063,176.375 Q346.1094,176.375 346.75,176.5313 Q347.4063,176.6875 347.9688,176.9844 L347.9688,179.7031 Q347.3438,179.125 346.75,178.8594 Q346.1563,178.5781 345.5313,178.5781 Q344.1875,178.5781 343.5,179.6563 Q342.8125,180.7188 342.8125,182.8125 Q342.8125,184.9063 343.5,185.9844 Q344.1875,187.0469 345.5313,187.0469 Q346.1563,187.0469 346.75,186.7813 Q347.3438,186.5 347.9688,185.9219 L347.9688,188.6406 Z "/><text fill="#000000" font-family="sans-serif" font-size="12" lengthAdjust="spacingAndGlyphs" textLength="152" x="359" y="187.1543">AbstractStateGameMain</text><line style="stroke: #A80036; stroke-width: 1.5;" x1="331" x2="513" y1="199" y2="199"/><line style="stroke: #A80036; stroke-width: 1.5;" x1="331" x2="513" y1="207" y2="207"/><!--MD5=[82d9c97a467af7c0b2c072e754b85475]
class GameController--><rect fill="#FEFECE" filter="url(#flnkm0mjvjc5p)" height="48" id="GameController" style="stroke: #A80036; stroke-width: 1.5;" width="129" x="549.5" y="167"/><ellipse cx="564.5" cy="183" fill="#ADD1B2" rx="11" ry="11" style="stroke: #A80036; stroke-width: 1.0;"/><path d="M567.4688,188.6406 Q566.8906,188.9375 566.25,189.0781 Q565.6094,189.2344 564.9063,189.2344 Q562.4063,189.2344 561.0781,187.5938 Q559.7656,185.9375 559.7656,182.8125 Q559.7656,179.6875 561.0781,178.0313 Q562.4063,176.375 564.9063,176.375 Q565.6094,176.375 566.25,176.5313 Q566.9063,176.6875 567.4688,176.9844 L567.4688,179.7031 Q566.8438,179.125 566.25,178.8594 Q565.6563,178.5781 565.0313,178.5781 Q563.6875,178.5781 563,179.6563 Q562.3125,180.7188 562.3125,182.8125 Q562.3125,184.9063 563,185.9844 Q563.6875,187.0469 565.0313,187.0469 Q565.6563,187.0469 566.25,186.7813 Q566.8438,186.5 567.4688,185.9219 L567.4688,188.6406 Z "/><text fill="#000000" font-family="sans-serif" font-size="12" lengthAdjust="spacingAndGlyphs" textLength="97" x="578.5" y="187.1543">GameController</text><line style="stroke: #A80036; stroke-width: 1.5;" x1="550.5" x2="677.5" y1="199" y2="199"/><line style="stroke: #A80036; stroke-width: 1.5;" x1="550.5" x2="677.5" y1="207" y2="207"/><!--MD5=[68a0c021ad4fbab63794e91c3c368f48]
class Block--><rect fill="#FEFECE" filter="url(#flnkm0mjvjc5p)" height="48" id="Block" style="stroke: #A80036; stroke-width: 1.5;" width="65" x="713.5" y="167"/><ellipse cx="728.5" cy="183" fill="#ADD1B2" rx="11" ry="11" style="stroke: #A80036; stroke-width: 1.0;"/><path d="M731.4688,188.6406 Q730.8906,188.9375 730.25,189.0781 Q729.6094,189.2344 728.9063,189.2344 Q726.4063,189.2344 725.0781,187.5938 Q723.7656,185.9375 723.7656,182.8125 Q723.7656,179.6875 725.0781,178.0313 Q726.4063,176.375 728.9063,176.375 Q729.6094,176.375 730.25,176.5313 Q730.9063,176.6875 731.4688,176.9844 L731.4688,179.7031 Q730.8438,179.125 730.25,178.8594 Q729.6563,178.5781 729.0313,178.5781 Q727.6875,178.5781 727,179.6563 Q726.3125,180.7188 726.3125,182.8125 Q726.3125,184.9063 727,185.9844 Q727.6875,187.0469 729.0313,187.0469 Q729.6563,187.0469 730.25,186.7813 Q730.8438,186.5 731.4688,185.9219 L731.4688,188.6406 Z "/><text fill="#000000" font-family="sans-serif" font-size="12" lengthAdjust="spacingAndGlyphs" textLength="33" x="742.5" y="187.1543">Block</text><line style="stroke: #A80036; stroke-width: 1.5;" x1="714.5" x2="777.5" y1="199" y2="199"/><line style="stroke: #A80036; stroke-width: 1.5;" x1="714.5" x2="777.5" y1="207" y2="207"/><!--MD5=[48ba5eb5f0de0a5244422e917b163e97]
class StatusPanel--><rect fill="#FEFECE" filter="url(#flnkm0mjvjc5p)" height="48" id="StatusPanel" style="stroke: #A80036; stroke-width: 1.5;" width="108" x="814" y="167"/><ellipse cx="829" cy="183" fill="#ADD1B2" rx="11" ry="11" style="stroke: #A80036; stroke-width: 1.0;"/><path d="M831.9688,188.6406 Q831.3906,188.9375 830.75,189.0781 Q830.1094,189.2344 829.4063,189.2344 Q826.9063,189.2344 825.5781,187.5938 Q824.2656,185.9375 824.2656,182.8125 Q824.2656,179.6875 825.5781,178.0313 Q826.9063,176.375 829.4063,176.375 Q830.1094,176.375 830.75,176.5313 Q831.4063,176.6875 831.9688,176.9844 L831.9688,179.7031 Q831.3438,179.125 830.75,178.8594 Q830.1563,178.5781 829.5313,178.5781 Q828.1875,178.5781 827.5,179.6563 Q826.8125,180.7188 826.8125,182.8125 Q826.8125,184.9063 827.5,185.9844 Q828.1875,187.0469 829.5313,187.0469 Q830.1563,187.0469 830.75,186.7813 Q831.3438,186.5 831.9688,185.9219 L831.9688,188.6406 Z "/><text fill="#000000" font-family="sans-serif" font-size="12" lengthAdjust="spacingAndGlyphs" textLength="76" x="843" y="187.1543">StatusPanel</text><line style="stroke: #A80036; stroke-width: 1.5;" x1="815" x2="921" y1="199" y2="199"/><line style="stroke: #A80036; stroke-width: 1.5;" x1="815" x2="921" y1="207" y2="207"/><!--MD5=[313835e2384f4c5003f55ee5fc6febf5]
class InputManager--><rect fill="#FEFECE" filter="url(#flnkm0mjvjc5p)" height="48" id="InputManager" style="stroke: #A80036; stroke-width: 1.5;" width="119" x="957.5" y="167"/><ellipse cx="972.5" cy="183" fill="#ADD1B2" rx="11" ry="11" style="stroke: #A80036; stroke-width: 1.0;"/><path d="M975.4688,188.6406 Q974.8906,188.9375 974.25,189.0781 Q973.6094,189.2344 972.9063,189.2344 Q970.4063,189.2344 969.0781,187.5938 Q967.7656,185.9375 967.7656,182.8125 Q967.7656,179.6875 969.0781,178.0313 Q970.4063,176.375 972.9063,176.375 Q973.6094,176.375 974.25,176.5313 Q974.9063,176.6875 975.4688,176.9844 L975.4688,179.7031 Q974.8438,179.125 974.25,178.8594 Q973.6563,178.5781 973.0313,178.5781 Q971.6875,178.5781 971,179.6563 Q970.3125,180.7188 970.3125,182.8125 Q970.3125,184.9063 971,185.9844 Q971.6875,187.0469 973.0313,187.0469 Q973.6563,187.0469 974.25,186.7813 Q974.8438,186.5 975.4688,185.9219 L975.4688,188.6406 Z "/><text fill="#000000" font-family="sans-serif" font-size="12" lengthAdjust="spacingAndGlyphs" textLength="87" x="986.5" y="187.1543">InputManager</text><line style="stroke: #A80036; stroke-width: 1.5;" x1="958.5" x2="1075.5" y1="199" y2="199"/><line style="stroke: #A80036; stroke-width: 1.5;" x1="958.5" x2="1075.5" y1="207" y2="207"/><!--MD5=[4a39f741ad6768ca388f24f8e4e7f8ee]
class StateGameBoot--><rect fill="#FEFECE" filter="url(#flnkm0mjvjc5p)" height="48" id="StateGameBoot" style="stroke: #A80036; stroke-width: 1.5;" width="131" x="1111.5" y="167"/><ellipse cx="1126.5" cy="183" fill="#ADD1B2" rx="11" ry="11" style="stroke: #A80036; stroke-width: 1.0;"/><path d="M1129.4688,188.6406 Q1128.8906,188.9375 1128.25,189.0781 Q1127.6094,189.2344 1126.9063,189.2344 Q1124.4063,189.2344 1123.0781,187.5938 Q1121.7656,185.9375 1121.7656,182.8125 Q1121.7656,179.6875 1123.0781,178.0313 Q1124.4063,176.375 1126.9063,176.375 Q1127.6094,176.375 1128.25,176.5313 Q1128.9063,176.6875 1129.4688,176.9844 L1129.4688,179.7031 Q1128.8438,179.125 1128.25,178.8594 Q1127.6563,178.5781 1127.0313,178.5781 Q1125.6875,178.5781 1125,179.6563 Q1124.3125,180.7188 1124.3125,182.8125 Q1124.3125,184.9063 1125,185.9844 Q1125.6875,187.0469 1127.0313,187.0469 Q1127.6563,187.0469 1128.25,186.7813 Q1128.8438,186.5 1129.4688,185.9219 L1129.4688,188.6406 Z "/><text fill="#000000" font-family="sans-serif" font-size="12" lengthAdjust="spacingAndGlyphs" textLength="99" x="1140.5" y="187.1543">StateGameBoot</text><line style="stroke: #A80036; stroke-width: 1.5;" x1="1112.5" x2="1241.5" y1="199" y2="199"/><line style="stroke: #A80036; stroke-width: 1.5;" x1="1112.5" x2="1241.5" y1="207" y2="207"/><!--MD5=[3078c6b64450c3e35776cb40b1f331d8]
class StateGameMain--><rect fill="#FEFECE" filter="url(#flnkm0mjvjc5p)" height="48" id="StateGameMain" style="stroke: #A80036; stroke-width: 1.5;" width="131" x="1277.5" y="167"/><ellipse cx="1292.5" cy="183" fill="#ADD1B2" rx="11" ry="11" style="stroke: #A80036; stroke-width: 1.0;"/><path d="M1295.4688,188.6406 Q1294.8906,188.9375 1294.25,189.0781 Q1293.6094,189.2344 1292.9063,189.2344 Q1290.4063,189.2344 1289.0781,187.5938 Q1287.7656,185.9375 1287.7656,182.8125 Q1287.7656,179.6875 1289.0781,178.0313 Q1290.4063,176.375 1292.9063,176.375 Q1293.6094,176.375 1294.25,176.5313 Q1294.9063,176.6875 1295.4688,176.9844 L1295.4688,179.7031 Q1294.8438,179.125 1294.25,178.8594 Q1293.6563,178.5781 1293.0313,178.5781 Q1291.6875,178.5781 1291,179.6563 Q1290.3125,180.7188 1290.3125,182.8125 Q1290.3125,184.9063 1291,185.9844 Q1291.6875,187.0469 1293.0313,187.0469 Q1293.6563,187.0469 1294.25,186.7813 Q1294.8438,186.5 1295.4688,185.9219 L1295.4688,188.6406 Z "/><text fill="#000000" font-family="sans-serif" font-size="12" lengthAdjust="spacingAndGlyphs" textLength="99" x="1306.5" y="187.1543">StateGameMain</text><line style="stroke: #A80036; stroke-width: 1.5;" x1="1278.5" x2="1407.5" y1="199" y2="199"/><line style="stroke: #A80036; stroke-width: 1.5;" x1="1278.5" x2="1407.5" y1="207" y2="207"/><!--MD5=[f432f6a74f838366b59e77c4bae35570]
class StateGameFinish--><rect fill="#FEFECE" filter="url(#flnkm0mjvjc5p)" height="48" id="StateGameFinish" style="stroke: #A80036; stroke-width: 1.5;" width="138" x="1444" y="167"/><ellipse cx="1459" cy="183" fill="#ADD1B2" rx="11" ry="11" style="stroke: #A80036; stroke-width: 1.0;"/><path d="M1461.9688,188.6406 Q1461.3906,188.9375 1460.75,189.0781 Q1460.1094,189.2344 1459.4063,189.2344 Q1456.9063,189.2344 1455.5781,187.5938 Q1454.2656,185.9375 1454.2656,182.8125 Q1454.2656,179.6875 1455.5781,178.0313 Q1456.9063,176.375 1459.4063,176.375 Q1460.1094,176.375 1460.75,176.5313 Q1461.4063,176.6875 1461.9688,176.9844 L1461.9688,179.7031 Q1461.3438,179.125 1460.75,178.8594 Q1460.1563,178.5781 1459.5313,178.5781 Q1458.1875,178.5781 1457.5,179.6563 Q1456.8125,180.7188 1456.8125,182.8125 Q1456.8125,184.9063 1457.5,185.9844 Q1458.1875,187.0469 1459.5313,187.0469 Q1460.1563,187.0469 1460.75,186.7813 Q1461.3438,186.5 1461.9688,185.9219 L1461.9688,188.6406 Z "/><text fill="#000000" font-family="sans-serif" font-size="12" lengthAdjust="spacingAndGlyphs" textLength="106" x="1473" y="187.1543">StateGameFinish</text><line style="stroke: #A80036; stroke-width: 1.5;" x1="1445" x2="1581" y1="199" y2="199"/><line style="stroke: #A80036; stroke-width: 1.5;" x1="1445" x2="1581" y1="207" y2="207"/><!--MD5=[383b3246e3e66742b48353a22f447bbf]
reverse link UnityEngine.MonoBehaviour to AbstractField--><path d="M722.57,89.74 C594.91,99.47 345.62,122.64 138,167 C132.14,168.25 126.08,169.75 120.06,171.38 " fill="none" id="UnityEngine.MonoBehaviour&lt;-AbstractField" style="stroke: #A80036; stroke-width: 1.0;"/><polygon fill="none" points="722.27,82.74,742.74,88.23,723.31,96.7,722.27,82.74" style="stroke: #A80036; stroke-width: 1.0;"/><!--MD5=[561dbb3433c25441cedc8f56c3c93b9e]
reverse link UnityEngine.MonoBehaviour to AbstractBlockSet--><path d="M722.96,95.67 C624.12,109.96 455.34,136.1 312,167 C306.35,168.22 300.51,169.56 294.67,170.98 " fill="none" id="UnityEngine.MonoBehaviour&lt;-AbstractBlockSet" style="stroke: #A80036; stroke-width: 1.0;"/><polygon fill="none" points="722.17,88.72,742.96,92.81,724.15,102.58,722.17,88.72" style="stroke: #A80036; stroke-width: 1.0;"/><!--MD5=[32bcbb04fb2cead6094bd89b5aef4da9]
reverse link UnityEngine.MonoBehaviour to AbstractStateGameMain--><path d="M723.4,107.02 C658.94,124.77 570.19,149.2 505.7,166.95 " fill="none" id="UnityEngine.MonoBehaviour&lt;-AbstractStateGameMain" style="stroke: #A80036; stroke-width: 1.0;"/><polygon fill="none" points="721.85,100.18,742.99,101.62,725.57,113.68,721.85,100.18" style="stroke: #A80036; stroke-width: 1.0;"/><!--MD5=[2e357a080b8f7a4ab7196ccc3f69a8fc]
reverse link UnityEngine.MonoBehaviour to GameController--><path d="M747.53,116.66 C717.95,132.91 682.9,152.16 656.13,166.86 " fill="none" id="UnityEngine.MonoBehaviour&lt;-GameController" style="stroke: #A80036; stroke-width: 1.0;"/><polygon fill="none" points="744.22,110.49,765.12,107,750.96,122.76,744.22,110.49" style="stroke: #A80036; stroke-width: 1.0;"/><!--MD5=[fc792918620ea94a5d4f5037d3583d32]
reverse link UnityEngine.MonoBehaviour to Block--><path d="M783.63,124.61 C775.44,138.85 766.52,154.35 759.42,166.68 " fill="none" id="UnityEngine.MonoBehaviour&lt;-Block" style="stroke: #A80036; stroke-width: 1.0;"/><polygon fill="none" points="777.72,120.84,793.76,107,789.86,127.83,777.72,120.84" style="stroke: #A80036; stroke-width: 1.0;"/><!--MD5=[c1780b56cdc4807e8b08c9f935d7132f]
reverse link UnityEngine.MonoBehaviour to StatusPanel--><path d="M830.37,124.61 C838.56,138.85 847.48,154.35 854.58,166.68 " fill="none" id="UnityEngine.MonoBehaviour&lt;-StatusPanel" style="stroke: #A80036; stroke-width: 1.0;"/><polygon fill="none" points="824.14,127.83,820.24,107,836.28,120.84,824.14,127.83" style="stroke: #A80036; stroke-width: 1.0;"/><!--MD5=[5152a96f30c47c89030e90dedc50d3bb]
reverse link UnityEngine.MonoBehaviour to InputManager--><path d="M870.79,116.2 C903.17,132.54 941.76,152.02 971.16,166.86 " fill="none" id="UnityEngine.MonoBehaviour&lt;-InputManager" style="stroke: #A80036; stroke-width: 1.0;"/><polygon fill="none" points="867.27,122.26,852.57,107,873.58,109.76,867.27,122.26" style="stroke: #A80036; stroke-width: 1.0;"/><!--MD5=[059d62d87cc4055210ae8ad1713c1cf1]
reverse link UnityEngine.MonoBehaviour to StateGameBoot--><path d="M890.44,107.9 C957.24,127.04 1049.64,153.51 1111.27,171.17 " fill="none" id="UnityEngine.MonoBehaviour&lt;-StateGameBoot" style="stroke: #A80036; stroke-width: 1.0;"/><polygon fill="none" points="888.33,114.58,871.03,102.34,892.18,101.12,888.33,114.58" style="stroke: #A80036; stroke-width: 1.0;"/><!--MD5=[972566ae976fec80db4be80eb28a7b91]
reverse link UnityEngine.MonoBehaviour to StateGameMain--><path d="M891.09,97.1 C982.38,111.86 1132.27,137.66 1260,167 C1265.68,168.31 1271.56,169.75 1277.44,171.25 " fill="none" id="UnityEngine.MonoBehaviour&lt;-StateGameMain" style="stroke: #A80036; stroke-width: 1.0;"/><polygon fill="none" points="889.77,103.98,871.13,93.9,891.99,90.16,889.77,103.98" style="stroke: #A80036; stroke-width: 1.0;"/><!--MD5=[1e227836d80b944ede6b97f23eb923dc]
reverse link UnityEngine.MonoBehaviour to StateGameFinish--><path d="M891.16,91.91 C1010.76,103.91 1236.43,129.39 1426,167 C1431.82,168.16 1437.83,169.47 1443.85,170.88 " fill="none" id="UnityEngine.MonoBehaviour&lt;-StateGameFinish" style="stroke: #A80036; stroke-width: 1.0;"/><polygon fill="none" points="890.36,98.86,871.15,89.93,891.74,84.93,890.36,98.86" style="stroke: #A80036; stroke-width: 1.0;"/><!--MD5=[2baa954525902cb7607ede120bcdd447]
@startuml

UnityEngine.MonoBehaviour <|- - AbstractField
UnityEngine.MonoBehaviour <|- - AbstractBlockSet
UnityEngine.MonoBehaviour <|- - AbstractStateGameMain

UnityEngine.MonoBehaviour <|- - GameController
UnityEngine.MonoBehaviour <|- - Block
UnityEngine.MonoBehaviour <|- - StatusPanel
UnityEngine.MonoBehaviour <|- - InputManager

UnityEngine.MonoBehaviour <|- - StateGameBoot
UnityEngine.MonoBehaviour <|- - StateGameMain
UnityEngine.MonoBehaviour <|- - StateGameFinish
@enduml

PlantUML version 1.2020.02(Sun Mar 01 10:22:07 GMT 2020)
(GPL source distribution)
Java Runtime: OpenJDK Runtime Environment
JVM: OpenJDK 64-Bit Server VM
Java Version: 11.0.9+11-Ubuntu-0ubuntu1
Operating System: Linux
Default Encoding: ANSI_X3.4-1968
Language: en
Country: US
--></g></svg>