<?xml version="1.0" encoding="UTF-8" standalone="no"?><svg xmlns="http://www.w3.org/2000/svg" xmlns:xlink="http://www.w3.org/1999/xlink" contentScriptType="application/ecmascript" contentStyleType="text/css" height="411px" preserveAspectRatio="none" style="width:1314px;height:411px;" version="1.1" viewBox="0 0 1314 411" width="1314px" zoomAndPan="magnify"><defs><filter height="300%" id="f1t3wks4c6xmhh" width="300%" x="-1" y="-1"><feGaussianBlur result="blurOut" stdDeviation="2.0"/><feColorMatrix in="blurOut" result="blurOut2" type="matrix" values="0 0 0 0 0 0 0 0 0 0 0 0 0 0 0 0 0 0 .4 0"/><feOffset dx="4.0" dy="4.0" in="blurOut2" result="blurOut3"/><feBlend in="SourceGraphic" in2="blurOut3" mode="normal"/></filter></defs><g><!--MD5=[2cb47ba637a0d19583e6199456f6ad0b]
class Player--><rect fill="#FEFECE" filter="url(#f1t3wks4c6xmhh)" height="176.0469" id="Player" style="stroke: #A80036; stroke-width: 1.5;" width="762" x="381.72" y="116"/><ellipse cx="739.47" cy="132" fill="#ADD1B2" rx="11" ry="11" style="stroke: #A80036; stroke-width: 1.0;"/><path d="M742.4388,137.6406 Q741.8606,137.9375 741.22,138.0781 Q740.5794,138.2344 739.8763,138.2344 Q737.3763,138.2344 736.0481,136.5938 Q734.7356,134.9375 734.7356,131.8125 Q734.7356,128.6875 736.0481,127.0313 Q737.3763,125.375 739.8763,125.375 Q740.5794,125.375 741.22,125.5313 Q741.8763,125.6875 742.4388,125.9844 L742.4388,128.7031 Q741.8138,128.125 741.22,127.8594 Q740.6263,127.5781 740.0013,127.5781 Q738.6575,127.5781 737.97,128.6563 Q737.2825,129.7188 737.2825,131.8125 Q737.2825,133.9063 737.97,134.9844 Q738.6575,136.0469 740.0013,136.0469 Q740.6263,136.0469 741.22,135.7813 Q741.8138,135.5 742.4388,134.9219 L742.4388,137.6406 Z "/><text fill="#000000" font-family="sans-serif" font-size="12" lengthAdjust="spacingAndGlyphs" textLength="38" x="759.97" y="136.1543">Player</text><line style="stroke: #A80036; stroke-width: 1.5;" x1="382.72" x2="1142.72" y1="148" y2="148"/><rect fill="none" height="6" style="stroke: #C82930; stroke-width: 1.0;" width="6" x="389.72" y="156"/><text fill="#000000" font-family="sans-serif" font-size="11" lengthAdjust="spacingAndGlyphs" textLength="113" x="401.72" y="162.2104">_currentBlockId : int</text><rect fill="none" height="6" style="stroke: #C82930; stroke-width: 1.0;" width="6" x="389.72" y="168.8047"/><text fill="#000000" font-family="sans-serif" font-size="11" lengthAdjust="spacingAndGlyphs" textLength="68" x="401.72" y="175.0151">_alive : bool</text><line style="stroke: #A80036; stroke-width: 1.5;" x1="382.72" x2="1142.72" y1="181.6094" y2="181.6094"/><ellipse cx="392.72" cy="192.6094" fill="#84BE84" rx="3" ry="3" style="stroke: #038048; stroke-width: 1.0;"/><text fill="#000000" font-family="sans-serif" font-size="11" lengthAdjust="spacingAndGlyphs" textLength="736" x="401.72" y="195.8198">Setup(fieldPrefab:AbstractField, blockSetOptions:AbstractBlockSet[], sound:ISoundManager, levelController:LevelController) : void</text><ellipse cx="392.72" cy="205.4141" fill="#84BE84" rx="3" ry="3" style="stroke: #038048; stroke-width: 1.0;"/><text fill="#000000" font-family="sans-serif" font-size="11" lengthAdjust="spacingAndGlyphs" textLength="272" x="401.72" y="208.6245">SetStatusPanel(statusPanel:IStatusPanel) : void</text><ellipse cx="392.72" cy="218.2188" fill="#84BE84" rx="3" ry="3" style="stroke: #038048; stroke-width: 1.0;"/><text fill="#000000" font-family="sans-serif" font-size="11" lengthAdjust="spacingAndGlyphs" textLength="283" x="401.72" y="221.4292">StartGame(parent:AbstractStateGameMain) : void</text><ellipse cx="392.72" cy="231.0234" fill="#84BE84" rx="3" ry="3" style="stroke: #038048; stroke-width: 1.0;"/><text fill="#000000" font-family="sans-serif" font-size="11" lengthAdjust="spacingAndGlyphs" textLength="80" x="401.72" y="234.2339">IsAlive() : bool</text><ellipse cx="392.72" cy="243.8281" fill="#84BE84" rx="3" ry="3" style="stroke: #038048; stroke-width: 1.0;"/><text fill="#000000" font-family="sans-serif" font-size="11" lengthAdjust="spacingAndGlyphs" textLength="72" x="401.72" y="247.0386">Dead() : void</text><ellipse cx="392.72" cy="256.6328" fill="#84BE84" rx="3" ry="3" style="stroke: #038048; stroke-width: 1.0;"/><text fill="#000000" font-family="sans-serif" font-size="11" lengthAdjust="spacingAndGlyphs" textLength="180" x="401.72" y="259.8433">BlockSetHasBeenPlaced() : void</text><ellipse cx="392.72" cy="269.4375" fill="#84BE84" rx="3" ry="3" style="stroke: #038048; stroke-width: 1.0;"/><text fill="#000000" font-family="sans-serif" font-size="11" lengthAdjust="spacingAndGlyphs" textLength="118" x="401.72" y="272.6479">PullNextBlock() : void</text><ellipse cx="392.72" cy="282.2422" fill="#84BE84" rx="3" ry="3" style="stroke: #038048; stroke-width: 1.0;"/><text fill="#000000" font-family="sans-serif" font-size="11" lengthAdjust="spacingAndGlyphs" textLength="120" x="401.72" y="285.4526">Observe() : (int, int)[]</text><!--MD5=[e644022de7dea015dd09463c37421447]
class List`1--><rect fill="#FEFECE" filter="url(#f1t3wks4c6xmhh)" height="48" id="List`1" style="stroke: #A80036; stroke-width: 1.5;" width="78" x="59.72" y="352"/><ellipse cx="74.72" cy="368" fill="#ADD1B2" rx="11" ry="11" style="stroke: #A80036; stroke-width: 1.0;"/><path d="M77.6888,373.6406 Q77.1106,373.9375 76.47,374.0781 Q75.8294,374.2344 75.1263,374.2344 Q72.6263,374.2344 71.2981,372.5938 Q69.9856,370.9375 69.9856,367.8125 Q69.9856,364.6875 71.2981,363.0313 Q72.6263,361.375 75.1263,361.375 Q75.8294,361.375 76.47,361.5313 Q77.1263,361.6875 77.6888,361.9844 L77.6888,364.7031 Q77.0638,364.125 76.47,363.8594 Q75.8763,363.5781 75.2513,363.5781 Q73.9075,363.5781 73.22,364.6563 Q72.5325,365.7188 72.5325,367.8125 Q72.5325,369.9063 73.22,370.9844 Q73.9075,372.0469 75.2513,372.0469 Q75.8763,372.0469 76.47,371.7813 Q77.0638,371.5 77.6888,370.9219 L77.6888,373.6406 Z "/><text fill="#000000" font-family="sans-serif" font-size="12" lengthAdjust="spacingAndGlyphs" textLength="35" x="88.72" y="372.1543">List`1</text><rect fill="#FFFFFF" height="15.9688" style="stroke: #000000; stroke-width: 1.0; stroke-dasharray: 2.0,2.0;" width="9" x="131.72" y="349"/><text fill="#000000" font-family="sans-serif" font-size="12" font-style="italic" lengthAdjust="spacingAndGlyphs" textLength="7" x="132.72" y="361.1387">T</text><line style="stroke: #A80036; stroke-width: 1.5;" x1="60.72" x2="136.72" y1="384" y2="384"/><line style="stroke: #A80036; stroke-width: 1.5;" x1="60.72" x2="136.72" y1="392" y2="392"/><!--MD5=[83b3cf3d23d77c6f1e1b5291a241bc2a]
class MonoBehaviour--><rect fill="#FEFECE" filter="url(#f1t3wks4c6xmhh)" height="48" id="MonoBehaviour" style="stroke: #A80036; stroke-width: 1.5;" width="128" x="630.72" y="8"/><ellipse cx="645.72" cy="24" fill="#ADD1B2" rx="11" ry="11" style="stroke: #A80036; stroke-width: 1.0;"/><path d="M648.6888,29.6406 Q648.1106,29.9375 647.47,30.0781 Q646.8294,30.2344 646.1263,30.2344 Q643.6263,30.2344 642.2981,28.5938 Q640.9856,26.9375 640.9856,23.8125 Q640.9856,20.6875 642.2981,19.0313 Q643.6263,17.375 646.1263,17.375 Q646.8294,17.375 647.47,17.5313 Q648.1263,17.6875 648.6888,17.9844 L648.6888,20.7031 Q648.0638,20.125 647.47,19.8594 Q646.8763,19.5781 646.2513,19.5781 Q644.9075,19.5781 644.22,20.6563 Q643.5325,21.7188 643.5325,23.8125 Q643.5325,25.9063 644.22,26.9844 Q644.9075,28.0469 646.2513,28.0469 Q646.8763,28.0469 647.47,27.7813 Q648.0638,27.5 648.6888,26.9219 L648.6888,29.6406 Z "/><text fill="#000000" font-family="sans-serif" font-size="12" lengthAdjust="spacingAndGlyphs" textLength="96" x="659.72" y="28.1543">MonoBehaviour</text><line style="stroke: #A80036; stroke-width: 1.5;" x1="631.72" x2="757.72" y1="40" y2="40"/><line style="stroke: #A80036; stroke-width: 1.5;" x1="631.72" x2="757.72" y1="48" y2="48"/><!--MD5=[b18d62399d5bda014f91482f369a9d15]
class IPlayer--><rect fill="#FEFECE" filter="url(#f1t3wks4c6xmhh)" height="48" id="IPlayer" style="stroke: #A80036; stroke-width: 1.5;" width="73" x="794.22" y="8"/><ellipse cx="809.22" cy="24" fill="#ADD1B2" rx="11" ry="11" style="stroke: #A80036; stroke-width: 1.0;"/><path d="M812.1888,29.6406 Q811.6106,29.9375 810.97,30.0781 Q810.3294,30.2344 809.6263,30.2344 Q807.1263,30.2344 805.7981,28.5938 Q804.4856,26.9375 804.4856,23.8125 Q804.4856,20.6875 805.7981,19.0313 Q807.1263,17.375 809.6263,17.375 Q810.3294,17.375 810.97,17.5313 Q811.6263,17.6875 812.1888,17.9844 L812.1888,20.7031 Q811.5638,20.125 810.97,19.8594 Q810.3763,19.5781 809.7513,19.5781 Q808.4075,19.5781 807.72,20.6563 Q807.0325,21.7188 807.0325,23.8125 Q807.0325,25.9063 807.72,26.9844 Q808.4075,28.0469 809.7513,28.0469 Q810.3763,28.0469 810.97,27.7813 Q811.5638,27.5 812.1888,26.9219 L812.1888,29.6406 Z "/><text fill="#000000" font-family="sans-serif" font-size="12" lengthAdjust="spacingAndGlyphs" textLength="41" x="823.22" y="28.1543">IPlayer</text><line style="stroke: #A80036; stroke-width: 1.5;" x1="795.22" x2="866.22" y1="40" y2="40"/><line style="stroke: #A80036; stroke-width: 1.5;" x1="795.22" x2="866.22" y1="48" y2="48"/><!--MD5=[313835e2384f4c5003f55ee5fc6febf5]
class InputManager--><rect fill="#FEFECE" filter="url(#f1t3wks4c6xmhh)" height="48" id="InputManager" style="stroke: #A80036; stroke-width: 1.5;" width="119" x="173.22" y="352"/><ellipse cx="188.22" cy="368" fill="#ADD1B2" rx="11" ry="11" style="stroke: #A80036; stroke-width: 1.0;"/><path d="M191.1888,373.6406 Q190.6106,373.9375 189.97,374.0781 Q189.3294,374.2344 188.6263,374.2344 Q186.1263,374.2344 184.7981,372.5938 Q183.4856,370.9375 183.4856,367.8125 Q183.4856,364.6875 184.7981,363.0313 Q186.1263,361.375 188.6263,361.375 Q189.3294,361.375 189.97,361.5313 Q190.6263,361.6875 191.1888,361.9844 L191.1888,364.7031 Q190.5638,364.125 189.97,363.8594 Q189.3763,363.5781 188.7513,363.5781 Q187.4075,363.5781 186.72,364.6563 Q186.0325,365.7188 186.0325,367.8125 Q186.0325,369.9063 186.72,370.9844 Q187.4075,372.0469 188.7513,372.0469 Q189.3763,372.0469 189.97,371.7813 Q190.5638,371.5 191.1888,370.9219 L191.1888,373.6406 Z "/><text fill="#000000" font-family="sans-serif" font-size="12" lengthAdjust="spacingAndGlyphs" textLength="87" x="202.22" y="372.1543">InputManager</text><line style="stroke: #A80036; stroke-width: 1.5;" x1="174.22" x2="291.22" y1="384" y2="384"/><line style="stroke: #A80036; stroke-width: 1.5;" x1="174.22" x2="291.22" y1="392" y2="392"/><!--MD5=[1dcb072468b0d7732dfb17a5d7634985]
class AudioSource--><rect fill="#FEFECE" filter="url(#f1t3wks4c6xmhh)" height="48" id="AudioSource" style="stroke: #A80036; stroke-width: 1.5;" width="111" x="327.22" y="352"/><ellipse cx="342.22" cy="368" fill="#ADD1B2" rx="11" ry="11" style="stroke: #A80036; stroke-width: 1.0;"/><path d="M345.1888,373.6406 Q344.6106,373.9375 343.97,374.0781 Q343.3294,374.2344 342.6263,374.2344 Q340.1263,374.2344 338.7981,372.5938 Q337.4856,370.9375 337.4856,367.8125 Q337.4856,364.6875 338.7981,363.0313 Q340.1263,361.375 342.6263,361.375 Q343.3294,361.375 343.97,361.5313 Q344.6263,361.6875 345.1888,361.9844 L345.1888,364.7031 Q344.5638,364.125 343.97,363.8594 Q343.3763,363.5781 342.7513,363.5781 Q341.4075,363.5781 340.72,364.6563 Q340.0325,365.7188 340.0325,367.8125 Q340.0325,369.9063 340.72,370.9844 Q341.4075,372.0469 342.7513,372.0469 Q343.3763,372.0469 343.97,371.7813 Q344.5638,371.5 345.1888,370.9219 L345.1888,373.6406 Z "/><text fill="#000000" font-family="sans-serif" font-size="12" lengthAdjust="spacingAndGlyphs" textLength="79" x="356.22" y="372.1543">AudioSource</text><line style="stroke: #A80036; stroke-width: 1.5;" x1="328.22" x2="437.22" y1="384" y2="384"/><line style="stroke: #A80036; stroke-width: 1.5;" x1="328.22" x2="437.22" y1="392" y2="392"/><!--MD5=[b5be1ff950ebddaf02f10067d2d07139]
class AbstractStateGameMain--><rect fill="#FEFECE" filter="url(#f1t3wks4c6xmhh)" height="48" id="AbstractStateGameMain" style="stroke: #A80036; stroke-width: 1.5;" width="184" x="473.72" y="352"/><ellipse cx="488.72" cy="368" fill="#ADD1B2" rx="11" ry="11" style="stroke: #A80036; stroke-width: 1.0;"/><path d="M491.6888,373.6406 Q491.1106,373.9375 490.47,374.0781 Q489.8294,374.2344 489.1263,374.2344 Q486.6263,374.2344 485.2981,372.5938 Q483.9856,370.9375 483.9856,367.8125 Q483.9856,364.6875 485.2981,363.0313 Q486.6263,361.375 489.1263,361.375 Q489.8294,361.375 490.47,361.5313 Q491.1263,361.6875 491.6888,361.9844 L491.6888,364.7031 Q491.0638,364.125 490.47,363.8594 Q489.8763,363.5781 489.2513,363.5781 Q487.9075,363.5781 487.22,364.6563 Q486.5325,365.7188 486.5325,367.8125 Q486.5325,369.9063 487.22,370.9844 Q487.9075,372.0469 489.2513,372.0469 Q489.8763,372.0469 490.47,371.7813 Q491.0638,371.5 491.6888,370.9219 L491.6888,373.6406 Z "/><text fill="#000000" font-family="sans-serif" font-size="12" lengthAdjust="spacingAndGlyphs" textLength="152" x="502.72" y="372.1543">AbstractStateGameMain</text><line style="stroke: #A80036; stroke-width: 1.5;" x1="474.72" x2="656.72" y1="384" y2="384"/><line style="stroke: #A80036; stroke-width: 1.5;" x1="474.72" x2="656.72" y1="392" y2="392"/><!--MD5=[1ccf88b84f217b1b30fe294299e2e1d6]
class AbstractField--><rect fill="#FEFECE" filter="url(#f1t3wks4c6xmhh)" height="48" id="AbstractField" style="stroke: #A80036; stroke-width: 1.5;" width="114" x="1178.72" y="180"/><ellipse cx="1193.72" cy="196" fill="#ADD1B2" rx="11" ry="11" style="stroke: #A80036; stroke-width: 1.0;"/><path d="M1196.6888,201.6406 Q1196.1106,201.9375 1195.47,202.0781 Q1194.8294,202.2344 1194.1263,202.2344 Q1191.6263,202.2344 1190.2981,200.5938 Q1188.9856,198.9375 1188.9856,195.8125 Q1188.9856,192.6875 1190.2981,191.0313 Q1191.6263,189.375 1194.1263,189.375 Q1194.8294,189.375 1195.47,189.5313 Q1196.1263,189.6875 1196.6888,189.9844 L1196.6888,192.7031 Q1196.0638,192.125 1195.47,191.8594 Q1194.8763,191.5781 1194.2513,191.5781 Q1192.9075,191.5781 1192.22,192.6563 Q1191.5325,193.7188 1191.5325,195.8125 Q1191.5325,197.9063 1192.22,198.9844 Q1192.9075,200.0469 1194.2513,200.0469 Q1194.8763,200.0469 1195.47,199.7813 Q1196.0638,199.5 1196.6888,198.9219 L1196.6888,201.6406 Z "/><text fill="#000000" font-family="sans-serif" font-size="12" lengthAdjust="spacingAndGlyphs" textLength="82" x="1207.72" y="200.1543">AbstractField</text><line style="stroke: #A80036; stroke-width: 1.5;" x1="1179.72" x2="1291.72" y1="212" y2="212"/><line style="stroke: #A80036; stroke-width: 1.5;" x1="1179.72" x2="1291.72" y1="220" y2="220"/><!--MD5=[a6107363210efd665be7d2b0bb56cd18]
class AbstractBlockSet--><rect fill="#FEFECE" filter="url(#f1t3wks4c6xmhh)" height="48" id="AbstractBlockSet" style="stroke: #A80036; stroke-width: 1.5;" width="139" x="693.22" y="352"/><ellipse cx="708.22" cy="368" fill="#ADD1B2" rx="11" ry="11" style="stroke: #A80036; stroke-width: 1.0;"/><path d="M711.1888,373.6406 Q710.6106,373.9375 709.97,374.0781 Q709.3294,374.2344 708.6263,374.2344 Q706.1263,374.2344 704.7981,372.5938 Q703.4856,370.9375 703.4856,367.8125 Q703.4856,364.6875 704.7981,363.0313 Q706.1263,361.375 708.6263,361.375 Q709.3294,361.375 709.97,361.5313 Q710.6263,361.6875 711.1888,361.9844 L711.1888,364.7031 Q710.5638,364.125 709.97,363.8594 Q709.3763,363.5781 708.7513,363.5781 Q707.4075,363.5781 706.72,364.6563 Q706.0325,365.7188 706.0325,367.8125 Q706.0325,369.9063 706.72,370.9844 Q707.4075,372.0469 708.7513,372.0469 Q709.3763,372.0469 709.97,371.7813 Q710.5638,371.5 711.1888,370.9219 L711.1888,373.6406 Z "/><text fill="#000000" font-family="sans-serif" font-size="12" lengthAdjust="spacingAndGlyphs" textLength="107" x="722.22" y="372.1543">AbstractBlockSet</text><line style="stroke: #A80036; stroke-width: 1.5;" x1="694.22" x2="831.22" y1="384" y2="384"/><line style="stroke: #A80036; stroke-width: 1.5;" x1="694.22" x2="831.22" y1="392" y2="392"/><!--MD5=[8c9676452f7135a1f2c4480e47e2543f]
class ISoundManager--><rect fill="#FEFECE" filter="url(#f1t3wks4c6xmhh)" height="48" id="ISoundManager" style="stroke: #A80036; stroke-width: 1.5;" width="130" x="867.72" y="352"/><ellipse cx="882.72" cy="368" fill="#ADD1B2" rx="11" ry="11" style="stroke: #A80036; stroke-width: 1.0;"/><path d="M885.6888,373.6406 Q885.1106,373.9375 884.47,374.0781 Q883.8294,374.2344 883.1263,374.2344 Q880.6263,374.2344 879.2981,372.5938 Q877.9856,370.9375 877.9856,367.8125 Q877.9856,364.6875 879.2981,363.0313 Q880.6263,361.375 883.1263,361.375 Q883.8294,361.375 884.47,361.5313 Q885.1263,361.6875 885.6888,361.9844 L885.6888,364.7031 Q885.0638,364.125 884.47,363.8594 Q883.8763,363.5781 883.2513,363.5781 Q881.9075,363.5781 881.22,364.6563 Q880.5325,365.7188 880.5325,367.8125 Q880.5325,369.9063 881.22,370.9844 Q881.9075,372.0469 883.2513,372.0469 Q883.8763,372.0469 884.47,371.7813 Q885.0638,371.5 885.6888,370.9219 L885.6888,373.6406 Z "/><text fill="#000000" font-family="sans-serif" font-size="12" lengthAdjust="spacingAndGlyphs" textLength="98" x="896.72" y="372.1543">ISoundManager</text><line style="stroke: #A80036; stroke-width: 1.5;" x1="868.72" x2="996.72" y1="384" y2="384"/><line style="stroke: #A80036; stroke-width: 1.5;" x1="868.72" x2="996.72" y1="392" y2="392"/><!--MD5=[43b448aa6991420ebb63cd35d4907f6f]
class LevelController--><rect fill="#FEFECE" filter="url(#f1t3wks4c6xmhh)" height="48" id="LevelController" style="stroke: #A80036; stroke-width: 1.5;" width="124" x="1032.72" y="352"/><ellipse cx="1047.72" cy="368" fill="#ADD1B2" rx="11" ry="11" style="stroke: #A80036; stroke-width: 1.0;"/><path d="M1050.6888,373.6406 Q1050.1106,373.9375 1049.47,374.0781 Q1048.8294,374.2344 1048.1263,374.2344 Q1045.6263,374.2344 1044.2981,372.5938 Q1042.9856,370.9375 1042.9856,367.8125 Q1042.9856,364.6875 1044.2981,363.0313 Q1045.6263,361.375 1048.1263,361.375 Q1048.8294,361.375 1049.47,361.5313 Q1050.1263,361.6875 1050.6888,361.9844 L1050.6888,364.7031 Q1050.0638,364.125 1049.47,363.8594 Q1048.8763,363.5781 1048.2513,363.5781 Q1046.9075,363.5781 1046.22,364.6563 Q1045.5325,365.7188 1045.5325,367.8125 Q1045.5325,369.9063 1046.22,370.9844 Q1046.9075,372.0469 1048.2513,372.0469 Q1048.8763,372.0469 1049.47,371.7813 Q1050.0638,371.5 1050.6888,370.9219 L1050.6888,373.6406 Z "/><text fill="#000000" font-family="sans-serif" font-size="12" lengthAdjust="spacingAndGlyphs" textLength="92" x="1061.72" y="372.1543">LevelController</text><line style="stroke: #A80036; stroke-width: 1.5;" x1="1033.72" x2="1155.72" y1="384" y2="384"/><line style="stroke: #A80036; stroke-width: 1.5;" x1="1033.72" x2="1155.72" y1="392" y2="392"/><!--MD5=[3aa12d24251992f604663c9d4e05f1f1]
class IStatusPanel--><rect fill="#FEFECE" filter="url(#f1t3wks4c6xmhh)" height="48" id="IStatusPanel" style="stroke: #A80036; stroke-width: 1.5;" width="111" x="1192.22" y="352"/><ellipse cx="1207.22" cy="368" fill="#ADD1B2" rx="11" ry="11" style="stroke: #A80036; stroke-width: 1.0;"/><path d="M1210.1888,373.6406 Q1209.6106,373.9375 1208.97,374.0781 Q1208.3294,374.2344 1207.6263,374.2344 Q1205.1263,374.2344 1203.7981,372.5938 Q1202.4856,370.9375 1202.4856,367.8125 Q1202.4856,364.6875 1203.7981,363.0313 Q1205.1263,361.375 1207.6263,361.375 Q1208.3294,361.375 1208.97,361.5313 Q1209.6263,361.6875 1210.1888,361.9844 L1210.1888,364.7031 Q1209.5638,364.125 1208.97,363.8594 Q1208.3763,363.5781 1207.7513,363.5781 Q1206.4075,363.5781 1205.72,364.6563 Q1205.0325,365.7188 1205.0325,367.8125 Q1205.0325,369.9063 1205.72,370.9844 Q1206.4075,372.0469 1207.7513,372.0469 Q1208.3763,372.0469 1208.97,371.7813 Q1209.5638,371.5 1210.1888,370.9219 L1210.1888,373.6406 Z "/><text fill="#000000" font-family="sans-serif" font-size="12" lengthAdjust="spacingAndGlyphs" textLength="79" x="1221.22" y="372.1543">IStatusPanel</text><line style="stroke: #A80036; stroke-width: 1.5;" x1="1193.22" x2="1302.22" y1="384" y2="384"/><line style="stroke: #A80036; stroke-width: 1.5;" x1="1193.22" x2="1302.22" y1="392" y2="392"/><!--MD5=[9e7bca581b594119b79d4e5100fca2bf]
reverse link MonoBehaviour to Player--><path d="M711.47,74.88 C716.48,87.4 722.16,101.61 727.88,115.9 " fill="none" id="MonoBehaviour&lt;-Player" style="stroke: #A80036; stroke-width: 1.0;"/><polygon fill="none" points="704.96,77.45,704.03,56.28,717.96,72.25,704.96,77.45" style="stroke: #A80036; stroke-width: 1.0;"/><!--MD5=[d3c480dfccacc840aa943bfb802a3f4a]
reverse link IPlayer to Player--><path d="M813.96,74.88 C808.96,87.4 803.27,101.61 797.56,115.9 " fill="none" id="IPlayer&lt;-Player" style="stroke: #A80036; stroke-width: 1.0;"/><polygon fill="none" points="807.48,72.25,821.41,56.28,820.48,77.45,807.48,72.25" style="stroke: #A80036; stroke-width: 1.0;"/><!--MD5=[47017d3433df94811832e17d8e66abb9]
link Player to InputManager--><path d="M491.12,292.12 C418.68,315.35 346.9,338.38 297.44,354.24 " fill="none" id="Player-&gt;InputManager" style="stroke: #A80036; stroke-width: 1.0;"/><polygon fill="#A80036" points="292.43,355.85,302.2183,356.9401,297.1958,354.3375,299.7984,349.3149,292.43,355.85" style="stroke: #A80036; stroke-width: 1.0;"/><text fill="#000000" font-family="sans-serif" font-size="13" lengthAdjust="spacingAndGlyphs" textLength="39" x="280.9357" y="340.9226">_input</text><!--MD5=[e46a3f3d89ea442d17c5fa80262601cb]
link Player to AudioSource--><path d="M567.99,292.12 C520.68,313.28 473.76,334.27 438.97,349.83 " fill="none" id="Player-&gt;AudioSource" style="stroke: #A80036; stroke-width: 1.0;"/><polygon fill="#A80036" points="434.36,351.9,444.2088,351.8685,438.9225,349.8547,440.9364,344.5685,434.36,351.9" style="stroke: #A80036; stroke-width: 1.0;"/><text fill="#000000" font-family="sans-serif" font-size="13" lengthAdjust="spacingAndGlyphs" textLength="88" x="348.3178" y="340.8864">_soundCollide</text><!--MD5=[56368ec06563ad1fde136a7ba7d2ea4c]
link Player to AbstractStateGameMain--><path d="M661.62,292.24 C637.91,312.7 614.39,333 596.59,348.36 " fill="none" id="Player-&gt;AbstractStateGameMain" style="stroke: #A80036; stroke-width: 1.0;"/><polygon fill="#A80036" points="592.64,351.76,602.0712,348.9223,596.4302,348.499,596.8536,342.858,592.64,351.76" style="stroke: #A80036; stroke-width: 1.0;"/><text fill="#000000" font-family="sans-serif" font-size="13" lengthAdjust="spacingAndGlyphs" textLength="49" x="544.2299" y="341.1065">_parent</text><!--MD5=[b1c6ccf028d858a30a4698c1284bc337]
link Player to AbstractField--><path d="M1155.1054,241.3065 C1155.1054,241.3065 1168.91,236.07 1175.3,233.41 " fill="none" id="Player-AbstractField" style="stroke: #A80036; stroke-width: 1.0;"/><polygon fill="#A80036" points="1187.6,228.12,1177.7518,228.0057,1183.0077,230.0975,1180.9159,235.3534,1187.6,228.12" style="stroke: #A80036; stroke-width: 1.0;"/><line style="stroke: #A80036; stroke-width: 1.0;" x1="1183.0077" x2="1175.66" y1="230.0975" y2="233.26"/><polygon fill="#FFFFFF" points="1143.8,245.33,1150.7939,247.0867,1155.1054,241.3065,1148.1115,239.5498,1143.8,245.33" style="stroke: #A80036; stroke-width: 1.0;"/><text fill="#000000" font-family="sans-serif" font-size="13" lengthAdjust="spacingAndGlyphs" textLength="33" x="1138.8489" y="247.9105">_field</text><!--MD5=[b1c6ccf028d858a30a4698c1284bc337]
link Player to AbstractField--><path d="M1143.8,162.67 C1156.8,167.1 1169.81,172.14 1182.81,177.77 " fill="none" id="Player-&gt;AbstractField" style="stroke: #A80036; stroke-width: 1.0;"/><polygon fill="#A80036" points="1187.6,179.88,1180.9686,172.5982,1183.0222,177.8692,1177.7512,179.9228,1187.6,179.88" style="stroke: #A80036; stroke-width: 1.0;"/><text fill="#000000" font-family="sans-serif" font-size="13" lengthAdjust="spacingAndGlyphs" textLength="29" x="1142.5536" y="168.8613">Field</text><!--MD5=[ce082444a8afb4dc6d75857333d416ac]
link Player to AbstractBlockSet--><path d="M762.72,292.49 C762.72,312.05 762.72,331.44 762.72,346.5 " fill="none" id="Player-&gt;AbstractBlockSet" style="stroke: #A80036; stroke-width: 1.0;"/><polygon fill="#A80036" points="762.72,351.85,766.72,342.85,762.72,346.85,758.72,342.85,762.72,351.85" style="stroke: #A80036; stroke-width: 1.0;"/><text fill="#000000" font-family="sans-serif" font-size="13" lengthAdjust="spacingAndGlyphs" textLength="87" x="664.5731" y="340.8236">_currentBlock</text><!--MD5=[88631ca17caa8422e45ff0172ec7932c]
link Player to ISoundManager--><path d="M850.21,292.49 C870.46,312.74 890.52,332.8 905.79,348.07 " fill="none" id="Player-&gt;ISoundManager" style="stroke: #A80036; stroke-width: 1.0;"/><polygon fill="#A80036" points="909.57,351.85,906.0345,342.6576,906.0345,348.3145,900.3776,348.3145,909.57,351.85" style="stroke: #A80036; stroke-width: 1.0;"/><text fill="#000000" font-family="sans-serif" font-size="13" lengthAdjust="spacingAndGlyphs" textLength="46" x="851.7441" y="340.8236">_sound</text><!--MD5=[89461973223a6d260cbcf44c1ad45a0f]
link Player to List`1--><path d="M381.5,288.31 C306.12,307.3 227.99,328.81 155.72,352 C151.46,353.37 147.08,354.9 142.72,356.51 " fill="none" id="Player-&gt;List`1" style="stroke: #A80036; stroke-width: 1.0;"/><polygon fill="#A80036" points="138,358.28,147.833,358.839,142.6769,356.5119,145.004,351.3558,138,358.28" style="stroke: #A80036; stroke-width: 1.0;"/><text fill="#000000" font-family="sans-serif" font-size="13" lengthAdjust="spacingAndGlyphs" textLength="117" x="10.1888" y="341.198">_reservation&lt;int&gt;</text><!--MD5=[2201110a66a2d7ec99b39f47233826eb]
link Player to LevelController--><path d="M933.09,292.24 C974.05,313.21 1014.65,334 1044.91,349.5 " fill="none" id="Player-&gt;LevelController" style="stroke: #A80036; stroke-width: 1.0;"/><polygon fill="#A80036" points="1049.68,351.94,1043.4969,344.2739,1045.2309,349.6584,1039.8464,351.3924,1049.68,351.94" style="stroke: #A80036; stroke-width: 1.0;"/><text fill="#000000" font-family="sans-serif" font-size="13" lengthAdjust="spacingAndGlyphs" textLength="98" x="968.975" y="340.8748">_levelController</text><!--MD5=[af33301a9b39769fcad236e730cbc314]
link Player to IStatusPanel--><path d="M998.51,292.12 C1068.37,316.57 1138.97,340.8 1187.18,356.68 " fill="none" id="Player-&gt;IStatusPanel" style="stroke: #A80036; stroke-width: 1.0;"/><polygon fill="#A80036" points="1192.07,358.29,1184.7848,351.6624,1187.3237,356.7174,1182.2687,359.2564,1192.07,358.29" style="stroke: #A80036; stroke-width: 1.0;"/><text fill="#000000" font-family="sans-serif" font-size="13" lengthAdjust="spacingAndGlyphs" textLength="82" x="1141.2594" y="340.9067">_statusPanel</text><!--MD5=[af33301a9b39769fcad236e730cbc314]
link Player to IStatusPanel--><path d="M1024.75,292.12 C1085.65,313.49 1144.91,334.68 1187.08,350.29 " fill="none" id="Player-&gt;IStatusPanel-1" style="stroke: #A80036; stroke-width: 1.0;"/><polygon fill="#A80036" points="1191.88,352.07,1184.8391,345.1834,1187.1937,350.3269,1182.0501,352.6815,1191.88,352.07" style="stroke: #A80036; stroke-width: 1.0;"/><text fill="#000000" font-family="sans-serif" font-size="13" lengthAdjust="spacingAndGlyphs" textLength="77" x="1187.4366" y="341.1">StatusPanel</text><!--MD5=[0cf39cfef39f1e859d601a654ec4967a]
@startuml
class Player {
    - _currentBlockId : int
    - _alive : bool
    + Setup(fieldPrefab:AbstractField, blockSetOptions:AbstractBlockSet[], sound:ISoundManager, levelController:LevelController) : void
    + SetStatusPanel(statusPanel:IStatusPanel) : void
    + StartGame(parent:AbstractStateGameMain) : void
    + IsAlive() : bool
    + Dead() : void
    + BlockSetHasBeenPlaced() : void
    + PullNextBlock() : void
    + Observe() : (int, int)[]
}
class "List`1"<T> {
}
MonoBehaviour <|- - Player
IPlayer <|- - Player
Player - -> "_input" InputManager
Player - -> "_soundCollide" AudioSource
Player - -> "_parent" AbstractStateGameMain
Player o-> "_field" AbstractField
Player - -> "_currentBlock" AbstractBlockSet
Player - -> "_sound" ISoundManager
Player - -> "_reservation<int>" "List`1"
Player - -> "_levelController" LevelController
Player - -> "_statusPanel" IStatusPanel
Player - -> "Field" AbstractField
Player - -> "StatusPanel" IStatusPanel
@enduml

PlantUML version 1.2020.02(Sun Mar 01 10:22:07 GMT 2020)
(GPL source distribution)
Java Runtime: OpenJDK Runtime Environment
JVM: OpenJDK 64-Bit Server VM
Java Version: 11.0.9+11-Ubuntu-0ubuntu1
Operating System: Linux
Default Encoding: ANSI_X3.4-1968
Language: en
Country: US
--></g></svg>