<?xml version="1.0" encoding="UTF-8" standalone="no"?><svg xmlns="http://www.w3.org/2000/svg" xmlns:xlink="http://www.w3.org/1999/xlink" contentScriptType="application/ecmascript" contentStyleType="text/css" height="493px" preserveAspectRatio="none" style="width:466px;height:493px;" version="1.1" viewBox="0 0 466 493" width="466px" zoomAndPan="magnify"><defs><filter height="300%" id="fxusf6dczcodn" width="300%" x="-1" y="-1"><feGaussianBlur result="blurOut" stdDeviation="2.0"/><feColorMatrix in="blurOut" result="blurOut2" type="matrix" values="0 0 0 0 0 0 0 0 0 0 0 0 0 0 0 0 0 0 .4 0"/><feOffset dx="4.0" dy="4.0" in="blurOut2" result="blurOut3"/><feBlend in="SourceGraphic" in2="blurOut3" mode="normal"/></filter></defs><g><rect fill="#FFFFFF" filter="url(#fxusf6dczcodn)" height="176.3984" style="stroke: #A80036; stroke-width: 1.0;" width="10" x="81.5" y="69.4297"/><rect fill="#FFFFFF" filter="url(#fxusf6dczcodn)" height="28" style="stroke: #A80036; stroke-width: 1.0;" width="10" x="86.5" y="106.5625"/><rect fill="#FFFFFF" filter="url(#fxusf6dczcodn)" height="160.3984" style="stroke: #A80036; stroke-width: 1.0;" width="10" x="81.5" y="274.9609"/><rect fill="#FFFFFF" filter="url(#fxusf6dczcodn)" height="28" style="stroke: #A80036; stroke-width: 1.0;" width="10" x="86.5" y="312.0938"/><rect fill="#FFFFFF" filter="url(#fxusf6dczcodn)" height="30" style="stroke: #A80036; stroke-width: 1.0;" width="10" x="274.5" y="194.8281"/><rect fill="#FFFFFF" filter="url(#fxusf6dczcodn)" height="14" style="stroke: #A80036; stroke-width: 1.0;" width="10" x="377" y="400.3594"/><rect fill="#FFFFFF" filter="url(#fxusf6dczcodn)" height="76.2656" style="stroke: #000000; stroke-width: 2.0;" width="306" x="13" y="156.5625"/><rect fill="#FFFFFF" filter="url(#fxusf6dczcodn)" height="60.2656" style="stroke: #000000; stroke-width: 2.0;" width="442" x="13" y="362.0938"/><line style="stroke: #A80036; stroke-width: 1.0; stroke-dasharray: 5.0,5.0;" x1="86" x2="86" y1="38.2969" y2="453.3594"/><line style="stroke: #A80036; stroke-width: 1.0; stroke-dasharray: 5.0,5.0;" x1="279" x2="279" y1="38.2969" y2="453.3594"/><line style="stroke: #A80036; stroke-width: 1.0; stroke-dasharray: 5.0,5.0;" x1="382" x2="382" y1="38.2969" y2="453.3594"/><rect fill="#FEFECE" filter="url(#fxusf6dczcodn)" height="30.2969" style="stroke: #A80036; stroke-width: 1.5;" width="123" x="23" y="3"/><text fill="#000000" font-family="sans-serif" font-size="14" lengthAdjust="spacingAndGlyphs" textLength="109" x="30" y="22.9951">StateGameMain</text><rect fill="#FEFECE" filter="url(#fxusf6dczcodn)" height="30.2969" style="stroke: #A80036; stroke-width: 1.5;" width="123" x="23" y="452.3594"/><text fill="#000000" font-family="sans-serif" font-size="14" lengthAdjust="spacingAndGlyphs" textLength="109" x="30" y="472.3545">StateGameMain</text><rect fill="#FEFECE" filter="url(#fxusf6dczcodn)" height="30.2969" style="stroke: #A80036; stroke-width: 1.5;" width="55" x="250" y="3"/><text fill="#000000" font-family="sans-serif" font-size="14" lengthAdjust="spacingAndGlyphs" textLength="41" x="257" y="22.9951">Player</text><rect fill="#FEFECE" filter="url(#fxusf6dczcodn)" height="30.2969" style="stroke: #A80036; stroke-width: 1.5;" width="55" x="250" y="452.3594"/><text fill="#000000" font-family="sans-serif" font-size="14" lengthAdjust="spacingAndGlyphs" textLength="41" x="257" y="472.3545">Player</text><rect fill="#FEFECE" filter="url(#fxusf6dczcodn)" height="30.2969" style="stroke: #A80036; stroke-width: 1.5;" width="122" x="319" y="3"/><text fill="#000000" font-family="sans-serif" font-size="14" lengthAdjust="spacingAndGlyphs" textLength="108" x="326" y="22.9951">GameController</text><rect fill="#FEFECE" filter="url(#fxusf6dczcodn)" height="30.2969" style="stroke: #A80036; stroke-width: 1.5;" width="122" x="319" y="452.3594"/><text fill="#000000" font-family="sans-serif" font-size="14" lengthAdjust="spacingAndGlyphs" textLength="108" x="326" y="472.3545">GameController</text><rect fill="#FFFFFF" filter="url(#fxusf6dczcodn)" height="176.3984" style="stroke: #A80036; stroke-width: 1.0;" width="10" x="81.5" y="69.4297"/><rect fill="#FFFFFF" filter="url(#fxusf6dczcodn)" height="28" style="stroke: #A80036; stroke-width: 1.0;" width="10" x="86.5" y="106.5625"/><rect fill="#FFFFFF" filter="url(#fxusf6dczcodn)" height="160.3984" style="stroke: #A80036; stroke-width: 1.0;" width="10" x="81.5" y="274.9609"/><rect fill="#FFFFFF" filter="url(#fxusf6dczcodn)" height="28" style="stroke: #A80036; stroke-width: 1.0;" width="10" x="86.5" y="312.0938"/><rect fill="#FFFFFF" filter="url(#fxusf6dczcodn)" height="30" style="stroke: #A80036; stroke-width: 1.0;" width="10" x="274.5" y="194.8281"/><rect fill="#FFFFFF" filter="url(#fxusf6dczcodn)" height="14" style="stroke: #A80036; stroke-width: 1.0;" width="10" x="377" y="400.3594"/><polygon fill="#A80036" points="69.5,65.4297,79.5,69.4297,69.5,73.4297,73.5,69.4297" style="stroke: #A80036; stroke-width: 1.0;"/><line style="stroke: #A80036; stroke-width: 1.0;" x1="3" x2="75.5" y1="69.4297" y2="69.4297"/><text fill="#000000" font-family="sans-serif" font-size="13" lengthAdjust="spacingAndGlyphs" textLength="38" x="10" y="64.3638">Setup</text><line style="stroke: #A80036; stroke-width: 1.0;" x1="96.5" x2="138.5" y1="98.5625" y2="98.5625"/><line style="stroke: #A80036; stroke-width: 1.0;" x1="138.5" x2="138.5" y1="98.5625" y2="111.5625"/><line style="stroke: #A80036; stroke-width: 1.0;" x1="97.5" x2="138.5" y1="111.5625" y2="111.5625"/><polygon fill="#A80036" points="107.5,107.5625,97.5,111.5625,107.5,115.5625,103.5,111.5625" style="stroke: #A80036; stroke-width: 1.0;"/><text fill="#000000" font-family="sans-serif" font-size="13" lengthAdjust="spacingAndGlyphs" textLength="169" x="103.5" y="93.4966">プレイヤーの一覧を保持する</text><path d="M13,156.5625 L90,156.5625 L90,163.5625 L80,173.5625 L13,173.5625 L13,156.5625 " fill="#EEEEEE" style="stroke: #000000; stroke-width: 1.0;"/><rect fill="none" height="76.2656" style="stroke: #000000; stroke-width: 2.0;" width="306" x="13" y="156.5625"/><text fill="#000000" font-family="sans-serif" font-size="13" font-weight="bold" lengthAdjust="spacingAndGlyphs" textLength="32" x="28" y="169.6294">loop</text><text fill="#000000" font-family="sans-serif" font-size="11" font-weight="bold" lengthAdjust="spacingAndGlyphs" textLength="120" x="105" y="168.7729">[プレイヤーごとに実行]</text><polygon fill="#A80036" points="262.5,190.8281,272.5,194.8281,262.5,198.8281,266.5,194.8281" style="stroke: #A80036; stroke-width: 1.0;"/><line style="stroke: #A80036; stroke-width: 1.0;" x1="91.5" x2="268.5" y1="194.8281" y2="194.8281"/><text fill="#000000" font-family="sans-serif" font-size="13" lengthAdjust="spacingAndGlyphs" textLength="71" x="98.5" y="189.7622">StartGame</text><polygon fill="#A80036" points="14,241.8281,4,245.8281,14,249.8281,10,245.8281" style="stroke: #A80036; stroke-width: 1.0;"/><line style="stroke: #A80036; stroke-width: 1.0; stroke-dasharray: 2.0,2.0;" x1="8" x2="85.5" y1="245.8281" y2="245.8281"/><polygon fill="#A80036" points="102.5,270.9609,92.5,274.9609,102.5,278.9609,98.5,274.9609" style="stroke: #A80036; stroke-width: 1.0;"/><line style="stroke: #A80036; stroke-width: 1.0;" x1="96.5" x2="278.5" y1="274.9609" y2="274.9609"/><text fill="#000000" font-family="sans-serif" font-size="13" lengthAdjust="spacingAndGlyphs" textLength="108" x="108.5" y="269.895">PlayerGameOver</text><line style="stroke: #A80036; stroke-width: 1.0;" x1="96.5" x2="138.5" y1="304.0938" y2="304.0938"/><line style="stroke: #A80036; stroke-width: 1.0;" x1="138.5" x2="138.5" y1="304.0938" y2="317.0938"/><line style="stroke: #A80036; stroke-width: 1.0;" x1="97.5" x2="138.5" y1="317.0938" y2="317.0938"/><polygon fill="#A80036" points="107.5,313.0938,97.5,317.0938,107.5,321.0938,103.5,317.0938" style="stroke: #A80036; stroke-width: 1.0;"/><text fill="#000000" font-family="sans-serif" font-size="13" lengthAdjust="spacingAndGlyphs" textLength="169" x="103.5" y="299.0278">GetNumberOfAlivingPlayer</text><path d="M13,362.0938 L83,362.0938 L83,369.0938 L73,379.0938 L13,379.0938 L13,362.0938 " fill="#EEEEEE" style="stroke: #000000; stroke-width: 1.0;"/><rect fill="none" height="60.2656" style="stroke: #000000; stroke-width: 2.0;" width="442" x="13" y="362.0938"/><text fill="#000000" font-family="sans-serif" font-size="13" font-weight="bold" lengthAdjust="spacingAndGlyphs" textLength="25" x="28" y="375.1606">opt</text><text fill="#000000" font-family="sans-serif" font-size="11" font-weight="bold" lengthAdjust="spacingAndGlyphs" textLength="164" x="98" y="374.3042">[残りプレイヤーが一人になった]</text><polygon fill="#A80036" points="365,396.3594,375,400.3594,365,404.3594,369,400.3594" style="stroke: #A80036; stroke-width: 1.0;"/><line style="stroke: #A80036; stroke-width: 1.0;" x1="91.5" x2="371" y1="400.3594" y2="400.3594"/><text fill="#000000" font-family="sans-serif" font-size="13" lengthAdjust="spacingAndGlyphs" textLength="75" x="98.5" y="395.2935">FinishGame</text><polygon fill="#A80036" points="102.5,410.3594,92.5,414.3594,102.5,418.3594,98.5,414.3594" style="stroke: #A80036; stroke-width: 1.0;"/><line style="stroke: #A80036; stroke-width: 1.0; stroke-dasharray: 2.0,2.0;" x1="96.5" x2="381" y1="414.3594" y2="414.3594"/><polygon fill="#A80036" points="267.5,431.3594,277.5,435.3594,267.5,439.3594,271.5,435.3594" style="stroke: #A80036; stroke-width: 1.0;"/><line style="stroke: #A80036; stroke-width: 1.0; stroke-dasharray: 2.0,2.0;" x1="86.5" x2="273.5" y1="435.3594" y2="435.3594"/><!--MD5=[7e4b13a73ccfe963ae6eab46c8152968]
@startuml


[-> StateGameMain : Setup
activate StateGameMain
    StateGameMain -> StateGameMain : プレイヤーの一覧を保持する
    activate StateGameMain
    deactivate StateGameMain
    loop プレイヤーごとに実行
        StateGameMain -> Player : StartGame
        activate Player
        deactivate Player
    end
    [<- - StateGameMain
deactivate StateGameMain

Player -> StateGameMain : PlayerGameOver
activate StateGameMain
    StateGameMain -> StateGameMain : GetNumberOfAlivingPlayer
    activate StateGameMain
    deactivate StateGameMain
    opt 残りプレイヤーが一人になった
        StateGameMain -> GameController : FinishGame
        activate GameController
            StateGameMain <- - GameController
        deactivate GameController
    end
    Player <- - StateGameMain
deactivate StateGameMain

@enduml

PlantUML version 1.2020.02(Sun Mar 01 10:22:07 GMT 2020)
(GPL source distribution)
Java Runtime: OpenJDK Runtime Environment
JVM: OpenJDK 64-Bit Server VM
Java Version: 11.0.9+11-Ubuntu-0ubuntu1
Operating System: Linux
Default Encoding: ANSI_X3.4-1968
Language: en
Country: US
--></g></svg>