<?xml version="1.0" encoding="UTF-8" standalone="no"?><svg xmlns="http://www.w3.org/2000/svg" xmlns:xlink="http://www.w3.org/1999/xlink" contentScriptType="application/ecmascript" contentStyleType="text/css" height="594px" preserveAspectRatio="none" style="width:459px;height:594px;" version="1.1" viewBox="0 0 459 594" width="459px" zoomAndPan="magnify"><defs><filter height="300%" id="fhps06ytxyb83" width="300%" x="-1" y="-1"><feGaussianBlur result="blurOut" stdDeviation="2.0"/><feColorMatrix in="blurOut" result="blurOut2" type="matrix" values="0 0 0 0 0 0 0 0 0 0 0 0 0 0 0 0 0 0 .4 0"/><feOffset dx="4.0" dy="4.0" in="blurOut2" result="blurOut3"/><feBlend in="SourceGraphic" in2="blurOut3" mode="normal"/></filter></defs><g><rect fill="#FFFFFF" filter="url(#fhps06ytxyb83)" height="86.1328" style="stroke: #A80036; stroke-width: 1.0;" width="10" x="237" y="69.4297"/><rect fill="#FFFFFF" filter="url(#fhps06ytxyb83)" height="28" style="stroke: #A80036; stroke-width: 1.0;" width="10" x="242" y="106.5625"/><rect fill="#FFFFFF" filter="url(#fhps06ytxyb83)" height="29.1328" style="stroke: #A80036; stroke-width: 1.0;" width="10" x="237" y="184.6953"/><rect fill="#FFFFFF" filter="url(#fhps06ytxyb83)" height="29.1328" style="stroke: #A80036; stroke-width: 1.0;" width="10" x="237" y="242.9609"/><rect fill="#FFFFFF" filter="url(#fhps06ytxyb83)" height="234.5313" style="stroke: #A80036; stroke-width: 1.0;" width="10" x="237" y="301.2266"/><rect fill="#FFFFFF" filter="url(#fhps06ytxyb83)" height="28" style="stroke: #A80036; stroke-width: 1.0;" width="10" x="242" y="383.4922"/><rect fill="#FFFFFF" filter="url(#fhps06ytxyb83)" height="28" style="stroke: #A80036; stroke-width: 1.0;" width="10" x="242" y="479.7578"/><rect fill="#FFFFFF" filter="url(#fhps06ytxyb83)" height="31.1328" style="stroke: #000000; stroke-width: 2.0;" width="306" x="6" y="316.2266"/><rect fill="#FFFFFF" filter="url(#fhps06ytxyb83)" height="89.2656" style="stroke: #000000; stroke-width: 2.0;" width="276" x="172" y="433.4922"/><line style="stroke: #A80036; stroke-width: 1.0; stroke-dasharray: 5.0,5.0;" x1="242" x2="242" y1="38.2969" y2="553.7578"/><rect fill="#FEFECE" filter="url(#fhps06ytxyb83)" height="30.2969" style="stroke: #A80036; stroke-width: 1.5;" width="116" x="182" y="3"/><text fill="#000000" font-family="sans-serif" font-size="14" lengthAdjust="spacingAndGlyphs" textLength="102" x="189" y="22.9951">LevelController</text><rect fill="#FEFECE" filter="url(#fhps06ytxyb83)" height="30.2969" style="stroke: #A80036; stroke-width: 1.5;" width="116" x="182" y="552.7578"/><text fill="#000000" font-family="sans-serif" font-size="14" lengthAdjust="spacingAndGlyphs" textLength="102" x="189" y="572.7529">LevelController</text><rect fill="#FFFFFF" filter="url(#fhps06ytxyb83)" height="86.1328" style="stroke: #A80036; stroke-width: 1.0;" width="10" x="237" y="69.4297"/><rect fill="#FFFFFF" filter="url(#fhps06ytxyb83)" height="28" style="stroke: #A80036; stroke-width: 1.0;" width="10" x="242" y="106.5625"/><rect fill="#FFFFFF" filter="url(#fhps06ytxyb83)" height="29.1328" style="stroke: #A80036; stroke-width: 1.0;" width="10" x="237" y="184.6953"/><rect fill="#FFFFFF" filter="url(#fhps06ytxyb83)" height="29.1328" style="stroke: #A80036; stroke-width: 1.0;" width="10" x="237" y="242.9609"/><rect fill="#FFFFFF" filter="url(#fhps06ytxyb83)" height="234.5313" style="stroke: #A80036; stroke-width: 1.0;" width="10" x="237" y="301.2266"/><rect fill="#FFFFFF" filter="url(#fhps06ytxyb83)" height="28" style="stroke: #A80036; stroke-width: 1.0;" width="10" x="242" y="383.4922"/><rect fill="#FFFFFF" filter="url(#fhps06ytxyb83)" height="28" style="stroke: #A80036; stroke-width: 1.0;" width="10" x="242" y="479.7578"/><polygon fill="#A80036" points="225,65.4297,235,69.4297,225,73.4297,229,69.4297" style="stroke: #A80036; stroke-width: 1.0;"/><line style="stroke: #A80036; stroke-width: 1.0;" x1="3" x2="231" y1="69.4297" y2="69.4297"/><text fill="#000000" font-family="sans-serif" font-size="13" lengthAdjust="spacingAndGlyphs" textLength="95" x="10" y="64.3638">LevelController</text><line style="stroke: #A80036; stroke-width: 1.0;" x1="252" x2="294" y1="98.5625" y2="98.5625"/><line style="stroke: #A80036; stroke-width: 1.0;" x1="294" x2="294" y1="98.5625" y2="111.5625"/><line style="stroke: #A80036; stroke-width: 1.0;" x1="253" x2="294" y1="111.5625" y2="111.5625"/><polygon fill="#A80036" points="263,107.5625,253,111.5625,263,115.5625,259,111.5625" style="stroke: #A80036; stroke-width: 1.0;"/><text fill="#000000" font-family="sans-serif" font-size="13" lengthAdjust="spacingAndGlyphs" textLength="130" x="259" y="93.4966">内部状態を初期化する</text><polygon fill="#A80036" points="14,151.5625,4,155.5625,14,159.5625,10,155.5625" style="stroke: #A80036; stroke-width: 1.0;"/><line style="stroke: #A80036; stroke-width: 1.0; stroke-dasharray: 2.0,2.0;" x1="8" x2="241" y1="155.5625" y2="155.5625"/><polygon fill="#A80036" points="225,180.6953,235,184.6953,225,188.6953,229,184.6953" style="stroke: #A80036; stroke-width: 1.0;"/><line style="stroke: #A80036; stroke-width: 1.0;" x1="3" x2="231" y1="184.6953" y2="184.6953"/><text fill="#000000" font-family="sans-serif" font-size="13" lengthAdjust="spacingAndGlyphs" textLength="127" x="10" y="179.6294">CurrentDisplayLevel</text><polygon fill="#A80036" points="14,209.8281,4,213.8281,14,217.8281,10,213.8281" style="stroke: #A80036; stroke-width: 1.0;"/><line style="stroke: #A80036; stroke-width: 1.0; stroke-dasharray: 2.0,2.0;" x1="8" x2="241" y1="213.8281" y2="213.8281"/><text fill="#000000" font-family="sans-serif" font-size="13" lengthAdjust="spacingAndGlyphs" textLength="182" x="20" y="208.7622">画面に表示するレベル値を返す</text><polygon fill="#A80036" points="225,238.9609,235,242.9609,225,246.9609,229,242.9609" style="stroke: #A80036; stroke-width: 1.0;"/><line style="stroke: #A80036; stroke-width: 1.0;" x1="3" x2="231" y1="242.9609" y2="242.9609"/><text fill="#000000" font-family="sans-serif" font-size="13" lengthAdjust="spacingAndGlyphs" textLength="102" x="10" y="237.895">CurrentFallLevel</text><polygon fill="#A80036" points="14,268.0938,4,272.0938,14,276.0938,10,272.0938" style="stroke: #A80036; stroke-width: 1.0;"/><line style="stroke: #A80036; stroke-width: 1.0; stroke-dasharray: 2.0,2.0;" x1="8" x2="241" y1="272.0938" y2="272.0938"/><text fill="#000000" font-family="sans-serif" font-size="13" lengthAdjust="spacingAndGlyphs" textLength="208" x="20" y="267.0278">１マス落下する時の時間間隔を返す</text><polygon fill="#A80036" points="225,297.2266,235,301.2266,225,305.2266,229,301.2266" style="stroke: #A80036; stroke-width: 1.0;"/><line style="stroke: #A80036; stroke-width: 1.0;" x1="3" x2="231" y1="301.2266" y2="301.2266"/><text fill="#000000" font-family="sans-serif" font-size="13" lengthAdjust="spacingAndGlyphs" textLength="160" x="10" y="296.1606">NextBlockHasBeenPulled</text><path d="M6,316.2266 L76,316.2266 L76,323.2266 L66,333.2266 L6,333.2266 L6,316.2266 " fill="#EEEEEE" style="stroke: #000000; stroke-width: 1.0;"/><rect fill="none" height="31.1328" style="stroke: #000000; stroke-width: 2.0;" width="306" x="6" y="316.2266"/><text fill="#000000" font-family="sans-serif" font-size="13" font-weight="bold" lengthAdjust="spacingAndGlyphs" textLength="25" x="21" y="329.2935">opt</text><text fill="#000000" font-family="sans-serif" font-size="11" font-weight="bold" lengthAdjust="spacingAndGlyphs" textLength="142" x="91" y="328.437">[落下速度が十分に早い場合]</text><polygon fill="#A80036" points="14,335.3594,4,339.3594,14,343.3594,10,339.3594" style="stroke: #A80036; stroke-width: 1.0;"/><line style="stroke: #A80036; stroke-width: 1.0; stroke-dasharray: 2.0,2.0;" x1="8" x2="236" y1="339.3594" y2="339.3594"/><line style="stroke: #A80036; stroke-width: 1.0;" x1="252" x2="294" y1="375.4922" y2="375.4922"/><line style="stroke: #A80036; stroke-width: 1.0;" x1="294" x2="294" y1="375.4922" y2="388.4922"/><line style="stroke: #A80036; stroke-width: 1.0;" x1="253" x2="294" y1="388.4922" y2="388.4922"/><polygon fill="#A80036" points="263,384.4922,253,388.4922,263,392.4922,259,388.4922" style="stroke: #A80036; stroke-width: 1.0;"/><text fill="#000000" font-family="sans-serif" font-size="13" lengthAdjust="spacingAndGlyphs" textLength="130" x="259" y="370.4263">設置済み回数を増やす</text><path d="M172,433.4922 L242,433.4922 L242,440.4922 L232,450.4922 L172,450.4922 L172,433.4922 " fill="#EEEEEE" style="stroke: #000000; stroke-width: 1.0;"/><rect fill="none" height="89.2656" style="stroke: #000000; stroke-width: 2.0;" width="276" x="172" y="433.4922"/><text fill="#000000" font-family="sans-serif" font-size="13" font-weight="bold" lengthAdjust="spacingAndGlyphs" textLength="25" x="187" y="446.5591">opt</text><text fill="#000000" font-family="sans-serif" font-size="11" font-weight="bold" lengthAdjust="spacingAndGlyphs" textLength="186" x="257" y="445.7026">[設置済み回数が一定基準に到達した]</text><line style="stroke: #A80036; stroke-width: 1.0;" x1="252" x2="294" y1="471.7578" y2="471.7578"/><line style="stroke: #A80036; stroke-width: 1.0;" x1="294" x2="294" y1="471.7578" y2="484.7578"/><line style="stroke: #A80036; stroke-width: 1.0;" x1="253" x2="294" y1="484.7578" y2="484.7578"/><polygon fill="#A80036" points="263,480.7578,253,484.7578,263,488.7578,259,484.7578" style="stroke: #A80036; stroke-width: 1.0;"/><text fill="#000000" font-family="sans-serif" font-size="13" lengthAdjust="spacingAndGlyphs" textLength="104" x="259" y="466.6919">落下速度を上げる</text><polygon fill="#A80036" points="14,531.7578,4,535.7578,14,539.7578,10,535.7578" style="stroke: #A80036; stroke-width: 1.0;"/><line style="stroke: #A80036; stroke-width: 1.0; stroke-dasharray: 2.0,2.0;" x1="8" x2="241" y1="535.7578" y2="535.7578"/><!--MD5=[053bfb20a3ae0dfa473b34503c6f9f06]
@startuml

[-> LevelController : LevelController
activate LevelController
    LevelController -> LevelController : 内部状態を初期化する
    activate LevelController
    deactivate LevelController
    [<- - LevelController
deactivate LevelController

[-> LevelController : CurrentDisplayLevel
activate LevelController
    [<- - LevelController : 画面に表示するレベル値を返す
deactivate LevelController

[-> LevelController : CurrentFallLevel
activate LevelController
    [<- - LevelController : １マス落下する時の時間間隔を返す
deactivate LevelController

[-> LevelController : NextBlockHasBeenPulled
activate LevelController
    opt 落下速度が十分に早い場合
        [<- - LevelController
    end
    LevelController -> LevelController : 設置済み回数を増やす
    activate LevelController
    deactivate LevelController
    opt 設置済み回数が一定基準に到達した
        LevelController -> LevelController : 落下速度を上げる
        activate LevelController
        deactivate LevelController
    end
    [<- - LevelController
deactivate LevelController


@enduml

PlantUML version 1.2020.02(Sun Mar 01 10:22:07 GMT 2020)
(GPL source distribution)
Java Runtime: OpenJDK Runtime Environment
JVM: OpenJDK 64-Bit Server VM
Java Version: 11.0.9+11-Ubuntu-0ubuntu1
Operating System: Linux
Default Encoding: ANSI_X3.4-1968
Language: en
Country: US
--></g></svg>