<?xml version="1.0" encoding="UTF-8" standalone="no"?><svg xmlns="http://www.w3.org/2000/svg" xmlns:xlink="http://www.w3.org/1999/xlink" contentScriptType="application/ecmascript" contentStyleType="text/css" height="1083px" preserveAspectRatio="none" style="width:770px;height:1083px;" version="1.1" viewBox="0 0 770 1083" width="770px" zoomAndPan="magnify"><defs><filter height="300%" id="ftl67c374ifci" width="300%" x="-1" y="-1"><feGaussianBlur result="blurOut" stdDeviation="2.0"/><feColorMatrix in="blurOut" result="blurOut2" type="matrix" values="0 0 0 0 0 0 0 0 0 0 0 0 0 0 0 0 0 0 .4 0"/><feOffset dx="4.0" dy="4.0" in="blurOut2" result="blurOut3"/><feBlend in="SourceGraphic" in2="blurOut3" mode="normal"/></filter></defs><g><rect fill="#FFFFFF" filter="url(#ftl67c374ifci)" height="86.1328" style="stroke: #A80036; stroke-width: 1.0;" width="10" x="97" y="69.4297"/><rect fill="#FFFFFF" filter="url(#ftl67c374ifci)" height="28" style="stroke: #A80036; stroke-width: 1.0;" width="10" x="102" y="106.5625"/><rect fill="#FFFFFF" filter="url(#ftl67c374ifci)" height="335.0625" style="stroke: #A80036; stroke-width: 1.0;" width="10" x="97" y="184.6953"/><rect fill="#FFFFFF" filter="url(#ftl67c374ifci)" height="260.7969" style="stroke: #A80036; stroke-width: 1.0;" width="10" x="97" y="548.8906"/><rect fill="#FFFFFF" filter="url(#ftl67c374ifci)" height="186.5313" style="stroke: #A80036; stroke-width: 1.0;" width="10" x="97" y="838.8203"/><rect fill="#FFFFFF" filter="url(#ftl67c374ifci)" height="14" style="stroke: #A80036; stroke-width: 1.0;" width="10" x="254" y="237.9609"/><rect fill="#FFFFFF" filter="url(#ftl67c374ifci)" height="14" style="stroke: #A80036; stroke-width: 1.0;" width="10" x="254" y="441.625"/><rect fill="#FFFFFF" filter="url(#ftl67c374ifci)" height="14" style="stroke: #A80036; stroke-width: 1.0;" width="10" x="254" y="731.5547"/><rect fill="#FFFFFF" filter="url(#ftl67c374ifci)" height="14" style="stroke: #A80036; stroke-width: 1.0;" width="10" x="412" y="288.0938"/><rect fill="#FFFFFF" filter="url(#ftl67c374ifci)" height="14" style="stroke: #A80036; stroke-width: 1.0;" width="10" x="412" y="491.7578"/><rect fill="#FFFFFF" filter="url(#ftl67c374ifci)" height="14" style="stroke: #A80036; stroke-width: 1.0;" width="10" x="412" y="578.0234"/><rect fill="#FFFFFF" filter="url(#ftl67c374ifci)" height="14" style="stroke: #A80036; stroke-width: 1.0;" width="10" x="412" y="867.9531"/><rect fill="#FFFFFF" filter="url(#ftl67c374ifci)" height="14" style="stroke: #A80036; stroke-width: 1.0;" width="10" x="549.5" y="331.2266"/><rect fill="#FFFFFF" filter="url(#ftl67c374ifci)" height="14" style="stroke: #A80036; stroke-width: 1.0;" width="10" x="549.5" y="621.1563"/><rect fill="#FFFFFF" filter="url(#ftl67c374ifci)" height="14" style="stroke: #A80036; stroke-width: 1.0;" width="10" x="549.5" y="781.6875"/><rect fill="#FFFFFF" filter="url(#ftl67c374ifci)" height="14" style="stroke: #A80036; stroke-width: 1.0;" width="10" x="549.5" y="911.0859"/><rect fill="#FFFFFF" filter="url(#ftl67c374ifci)" height="14" style="stroke: #A80036; stroke-width: 1.0;" width="10" x="690.5" y="374.3594"/><rect fill="#FFFFFF" filter="url(#ftl67c374ifci)" height="14" style="stroke: #A80036; stroke-width: 1.0;" width="10" x="690.5" y="664.2891"/><rect fill="#FFFFFF" filter="url(#ftl67c374ifci)" height="14" style="stroke: #A80036; stroke-width: 1.0;" width="10" x="690.5" y="954.2188"/><rect fill="#FFFFFF" filter="url(#ftl67c374ifci)" height="14" style="stroke: #A80036; stroke-width: 1.0;" width="10" x="690.5" y="997.3516"/><rect fill="#FFFFFF" filter="url(#ftl67c374ifci)" height="60.2656" style="stroke: #000000; stroke-width: 2.0;" width="595" x="29" y="199.6953"/><rect fill="#FFFFFF" filter="url(#ftl67c374ifci)" height="60.2656" style="stroke: #000000; stroke-width: 2.0;" width="324" x="29" y="403.3594"/><rect fill="#FFFFFF" filter="url(#ftl67c374ifci)" height="60.2656" style="stroke: #000000; stroke-width: 2.0;" width="324" x="29" y="693.2891"/><line style="stroke: #A80036; stroke-width: 1.0; stroke-dasharray: 5.0,5.0;" x1="102" x2="102" y1="38.2969" y2="1043.3516"/><line style="stroke: #A80036; stroke-width: 1.0; stroke-dasharray: 5.0,5.0;" x1="259" x2="259" y1="38.2969" y2="1043.3516"/><line style="stroke: #A80036; stroke-width: 1.0; stroke-dasharray: 5.0,5.0;" x1="417" x2="417" y1="38.2969" y2="1043.3516"/><line style="stroke: #A80036; stroke-width: 1.0; stroke-dasharray: 5.0,5.0;" x1="554" x2="554" y1="38.2969" y2="1043.3516"/><line style="stroke: #A80036; stroke-width: 1.0; stroke-dasharray: 5.0,5.0;" x1="695" x2="695" y1="38.2969" y2="1043.3516"/><rect fill="#FEFECE" filter="url(#ftl67c374ifci)" height="30.2969" style="stroke: #A80036; stroke-width: 1.5;" width="122" x="39" y="3"/><text fill="#000000" font-family="sans-serif" font-size="14" lengthAdjust="spacingAndGlyphs" textLength="108" x="46" y="22.9951">GameController</text><rect fill="#FEFECE" filter="url(#ftl67c374ifci)" height="30.2969" style="stroke: #A80036; stroke-width: 1.5;" width="122" x="39" y="1042.3516"/><text fill="#000000" font-family="sans-serif" font-size="14" lengthAdjust="spacingAndGlyphs" textLength="108" x="46" y="1062.3467">GameController</text><rect fill="#FEFECE" filter="url(#ftl67c374ifci)" height="30.2969" style="stroke: #A80036; stroke-width: 1.5;" width="164" x="175" y="3"/><text fill="#000000" font-family="sans-serif" font-size="14" lengthAdjust="spacingAndGlyphs" textLength="150" x="182" y="22.9951">PlayerAndStatusPanel</text><rect fill="#FEFECE" filter="url(#ftl67c374ifci)" height="30.2969" style="stroke: #A80036; stroke-width: 1.5;" width="164" x="175" y="1042.3516"/><text fill="#000000" font-family="sans-serif" font-size="14" lengthAdjust="spacingAndGlyphs" textLength="150" x="182" y="1062.3467">PlayerAndStatusPanel</text><rect fill="#FEFECE" filter="url(#ftl67c374ifci)" height="30.2969" style="stroke: #A80036; stroke-width: 1.5;" width="124" x="353" y="3"/><text fill="#000000" font-family="sans-serif" font-size="14" lengthAdjust="spacingAndGlyphs" textLength="110" x="360" y="22.9951">StateGameBoot</text><rect fill="#FEFECE" filter="url(#ftl67c374ifci)" height="30.2969" style="stroke: #A80036; stroke-width: 1.5;" width="124" x="353" y="1042.3516"/><text fill="#000000" font-family="sans-serif" font-size="14" lengthAdjust="spacingAndGlyphs" textLength="110" x="360" y="1062.3467">StateGameBoot</text><rect fill="#FEFECE" filter="url(#ftl67c374ifci)" height="30.2969" style="stroke: #A80036; stroke-width: 1.5;" width="123" x="491" y="3"/><text fill="#000000" font-family="sans-serif" font-size="14" lengthAdjust="spacingAndGlyphs" textLength="109" x="498" y="22.9951">StateGameMain</text><rect fill="#FEFECE" filter="url(#ftl67c374ifci)" height="30.2969" style="stroke: #A80036; stroke-width: 1.5;" width="123" x="491" y="1042.3516"/><text fill="#000000" font-family="sans-serif" font-size="14" lengthAdjust="spacingAndGlyphs" textLength="109" x="498" y="1062.3467">StateGameMain</text><rect fill="#FEFECE" filter="url(#ftl67c374ifci)" height="30.2969" style="stroke: #A80036; stroke-width: 1.5;" width="131" x="628" y="3"/><text fill="#000000" font-family="sans-serif" font-size="14" lengthAdjust="spacingAndGlyphs" textLength="117" x="635" y="22.9951">StateGameFinish</text><rect fill="#FEFECE" filter="url(#ftl67c374ifci)" height="30.2969" style="stroke: #A80036; stroke-width: 1.5;" width="131" x="628" y="1042.3516"/><text fill="#000000" font-family="sans-serif" font-size="14" lengthAdjust="spacingAndGlyphs" textLength="117" x="635" y="1062.3467">StateGameFinish</text><rect fill="#FFFFFF" filter="url(#ftl67c374ifci)" height="86.1328" style="stroke: #A80036; stroke-width: 1.0;" width="10" x="97" y="69.4297"/><rect fill="#FFFFFF" filter="url(#ftl67c374ifci)" height="28" style="stroke: #A80036; stroke-width: 1.0;" width="10" x="102" y="106.5625"/><rect fill="#FFFFFF" filter="url(#ftl67c374ifci)" height="335.0625" style="stroke: #A80036; stroke-width: 1.0;" width="10" x="97" y="184.6953"/><rect fill="#FFFFFF" filter="url(#ftl67c374ifci)" height="260.7969" style="stroke: #A80036; stroke-width: 1.0;" width="10" x="97" y="548.8906"/><rect fill="#FFFFFF" filter="url(#ftl67c374ifci)" height="186.5313" style="stroke: #A80036; stroke-width: 1.0;" width="10" x="97" y="838.8203"/><rect fill="#FFFFFF" filter="url(#ftl67c374ifci)" height="14" style="stroke: #A80036; stroke-width: 1.0;" width="10" x="254" y="237.9609"/><rect fill="#FFFFFF" filter="url(#ftl67c374ifci)" height="14" style="stroke: #A80036; stroke-width: 1.0;" width="10" x="254" y="441.625"/><rect fill="#FFFFFF" filter="url(#ftl67c374ifci)" height="14" style="stroke: #A80036; stroke-width: 1.0;" width="10" x="254" y="731.5547"/><rect fill="#FFFFFF" filter="url(#ftl67c374ifci)" height="14" style="stroke: #A80036; stroke-width: 1.0;" width="10" x="412" y="288.0938"/><rect fill="#FFFFFF" filter="url(#ftl67c374ifci)" height="14" style="stroke: #A80036; stroke-width: 1.0;" width="10" x="412" y="491.7578"/><rect fill="#FFFFFF" filter="url(#ftl67c374ifci)" height="14" style="stroke: #A80036; stroke-width: 1.0;" width="10" x="412" y="578.0234"/><rect fill="#FFFFFF" filter="url(#ftl67c374ifci)" height="14" style="stroke: #A80036; stroke-width: 1.0;" width="10" x="412" y="867.9531"/><rect fill="#FFFFFF" filter="url(#ftl67c374ifci)" height="14" style="stroke: #A80036; stroke-width: 1.0;" width="10" x="549.5" y="331.2266"/><rect fill="#FFFFFF" filter="url(#ftl67c374ifci)" height="14" style="stroke: #A80036; stroke-width: 1.0;" width="10" x="549.5" y="621.1563"/><rect fill="#FFFFFF" filter="url(#ftl67c374ifci)" height="14" style="stroke: #A80036; stroke-width: 1.0;" width="10" x="549.5" y="781.6875"/><rect fill="#FFFFFF" filter="url(#ftl67c374ifci)" height="14" style="stroke: #A80036; stroke-width: 1.0;" width="10" x="549.5" y="911.0859"/><rect fill="#FFFFFF" filter="url(#ftl67c374ifci)" height="14" style="stroke: #A80036; stroke-width: 1.0;" width="10" x="690.5" y="374.3594"/><rect fill="#FFFFFF" filter="url(#ftl67c374ifci)" height="14" style="stroke: #A80036; stroke-width: 1.0;" width="10" x="690.5" y="664.2891"/><rect fill="#FFFFFF" filter="url(#ftl67c374ifci)" height="14" style="stroke: #A80036; stroke-width: 1.0;" width="10" x="690.5" y="954.2188"/><rect fill="#FFFFFF" filter="url(#ftl67c374ifci)" height="14" style="stroke: #A80036; stroke-width: 1.0;" width="10" x="690.5" y="997.3516"/><polygon fill="#A80036" points="85,65.4297,95,69.4297,85,73.4297,89,69.4297" style="stroke: #A80036; stroke-width: 1.0;"/><line style="stroke: #A80036; stroke-width: 1.0;" x1="3" x2="91" y1="69.4297" y2="69.4297"/><text fill="#000000" font-family="sans-serif" font-size="13" lengthAdjust="spacingAndGlyphs" textLength="32" x="10" y="64.3638">Start</text><line style="stroke: #A80036; stroke-width: 1.0;" x1="112" x2="154" y1="98.5625" y2="98.5625"/><line style="stroke: #A80036; stroke-width: 1.0;" x1="154" x2="154" y1="98.5625" y2="111.5625"/><line style="stroke: #A80036; stroke-width: 1.0;" x1="113" x2="154" y1="111.5625" y2="111.5625"/><polygon fill="#A80036" points="123,107.5625,113,111.5625,123,115.5625,119,111.5625" style="stroke: #A80036; stroke-width: 1.0;"/><text fill="#000000" font-family="sans-serif" font-size="13" lengthAdjust="spacingAndGlyphs" textLength="69" x="119" y="93.4966">BootGame</text><polygon fill="#A80036" points="14,151.5625,4,155.5625,14,159.5625,10,155.5625" style="stroke: #A80036; stroke-width: 1.0;"/><line style="stroke: #A80036; stroke-width: 1.0; stroke-dasharray: 2.0,2.0;" x1="8" x2="101" y1="155.5625" y2="155.5625"/><polygon fill="#A80036" points="85,180.6953,95,184.6953,85,188.6953,89,184.6953" style="stroke: #A80036; stroke-width: 1.0;"/><line style="stroke: #A80036; stroke-width: 1.0;" x1="3" x2="91" y1="184.6953" y2="184.6953"/><text fill="#000000" font-family="sans-serif" font-size="13" lengthAdjust="spacingAndGlyphs" textLength="69" x="10" y="179.6294">BootGame</text><path d="M29,199.6953 L106,199.6953 L106,206.6953 L96,216.6953 L29,216.6953 L29,199.6953 " fill="#EEEEEE" style="stroke: #000000; stroke-width: 1.0;"/><rect fill="none" height="60.2656" style="stroke: #000000; stroke-width: 2.0;" width="595" x="29" y="199.6953"/><text fill="#000000" font-family="sans-serif" font-size="13" font-weight="bold" lengthAdjust="spacingAndGlyphs" textLength="32" x="44" y="212.7622">loop</text><text fill="#000000" font-family="sans-serif" font-size="11" font-weight="bold" lengthAdjust="spacingAndGlyphs" textLength="498" x="121" y="211.9058">[プレイヤーごとに実行、Player のインスタンスとStatusPanel のインスタンスとを関連付ける]</text><polygon fill="#A80036" points="242,233.9609,252,237.9609,242,241.9609,246,237.9609" style="stroke: #A80036; stroke-width: 1.0;"/><line style="stroke: #A80036; stroke-width: 1.0;" x1="107" x2="248" y1="237.9609" y2="237.9609"/><text fill="#000000" font-family="sans-serif" font-size="13" lengthAdjust="spacingAndGlyphs" textLength="30" x="114" y="232.895">Pack</text><polygon fill="#A80036" points="118,247.9609,108,251.9609,118,255.9609,114,251.9609" style="stroke: #A80036; stroke-width: 1.0;"/><line style="stroke: #A80036; stroke-width: 1.0;" x1="112" x2="258" y1="251.9609" y2="251.9609"/><polygon fill="#A80036" points="400,284.0938,410,288.0938,400,292.0938,404,288.0938" style="stroke: #A80036; stroke-width: 1.0;"/><line style="stroke: #A80036; stroke-width: 1.0;" x1="107" x2="406" y1="288.0938" y2="288.0938"/><text fill="#000000" font-family="sans-serif" font-size="13" lengthAdjust="spacingAndGlyphs" textLength="179" x="114" y="283.0278">gameObject.SetActive(true)</text><polygon fill="#A80036" points="118,298.0938,108,302.0938,118,306.0938,114,302.0938" style="stroke: #A80036; stroke-width: 1.0;"/><line style="stroke: #A80036; stroke-width: 1.0; stroke-dasharray: 2.0,2.0;" x1="112" x2="416" y1="302.0938" y2="302.0938"/><polygon fill="#A80036" points="537.5,327.2266,547.5,331.2266,537.5,335.2266,541.5,331.2266" style="stroke: #A80036; stroke-width: 1.0;"/><line style="stroke: #A80036; stroke-width: 1.0;" x1="107" x2="543.5" y1="331.2266" y2="331.2266"/><text fill="#000000" font-family="sans-serif" font-size="13" lengthAdjust="spacingAndGlyphs" textLength="183" x="114" y="326.1606">gameObject.SetActive(false)</text><polygon fill="#A80036" points="118,341.2266,108,345.2266,118,349.2266,114,345.2266" style="stroke: #A80036; stroke-width: 1.0;"/><line style="stroke: #A80036; stroke-width: 1.0; stroke-dasharray: 2.0,2.0;" x1="112" x2="553.5" y1="345.2266" y2="345.2266"/><polygon fill="#A80036" points="678.5,370.3594,688.5,374.3594,678.5,378.3594,682.5,374.3594" style="stroke: #A80036; stroke-width: 1.0;"/><line style="stroke: #A80036; stroke-width: 1.0;" x1="107" x2="684.5" y1="374.3594" y2="374.3594"/><text fill="#000000" font-family="sans-serif" font-size="13" lengthAdjust="spacingAndGlyphs" textLength="183" x="114" y="369.2935">gameObject.SetActive(false)</text><polygon fill="#A80036" points="118,384.3594,108,388.3594,118,392.3594,114,388.3594" style="stroke: #A80036; stroke-width: 1.0;"/><line style="stroke: #A80036; stroke-width: 1.0; stroke-dasharray: 2.0,2.0;" x1="112" x2="694.5" y1="388.3594" y2="388.3594"/><path d="M29,403.3594 L106,403.3594 L106,410.3594 L96,420.3594 L29,420.3594 L29,403.3594 " fill="#EEEEEE" style="stroke: #000000; stroke-width: 1.0;"/><rect fill="none" height="60.2656" style="stroke: #000000; stroke-width: 2.0;" width="324" x="29" y="403.3594"/><text fill="#000000" font-family="sans-serif" font-size="13" font-weight="bold" lengthAdjust="spacingAndGlyphs" textLength="32" x="44" y="416.4263">loop</text><text fill="#000000" font-family="sans-serif" font-size="11" font-weight="bold" lengthAdjust="spacingAndGlyphs" textLength="142" x="121" y="415.5698">[プレイヤーのリストを生成]</text><polygon fill="#A80036" points="242,437.625,252,441.625,242,445.625,246,441.625" style="stroke: #A80036; stroke-width: 1.0;"/><line style="stroke: #A80036; stroke-width: 1.0;" x1="107" x2="248" y1="441.625" y2="441.625"/><text fill="#000000" font-family="sans-serif" font-size="13" lengthAdjust="spacingAndGlyphs" textLength="93" x="114" y="436.5591">PlayerInstance</text><polygon fill="#A80036" points="118,451.625,108,455.625,118,459.625,114,455.625" style="stroke: #A80036; stroke-width: 1.0;"/><line style="stroke: #A80036; stroke-width: 1.0;" x1="112" x2="258" y1="455.625" y2="455.625"/><polygon fill="#A80036" points="400,487.7578,410,491.7578,400,495.7578,404,491.7578" style="stroke: #A80036; stroke-width: 1.0;"/><line style="stroke: #A80036; stroke-width: 1.0;" x1="107" x2="406" y1="491.7578" y2="491.7578"/><text fill="#000000" font-family="sans-serif" font-size="13" lengthAdjust="spacingAndGlyphs" textLength="38" x="114" y="486.6919">Setup</text><polygon fill="#A80036" points="118,501.7578,108,505.7578,118,509.7578,114,505.7578" style="stroke: #A80036; stroke-width: 1.0;"/><line style="stroke: #A80036; stroke-width: 1.0; stroke-dasharray: 2.0,2.0;" x1="112" x2="416" y1="505.7578" y2="505.7578"/><polygon fill="#A80036" points="14,515.7578,4,519.7578,14,523.7578,10,519.7578" style="stroke: #A80036; stroke-width: 1.0;"/><line style="stroke: #A80036; stroke-width: 1.0; stroke-dasharray: 2.0,2.0;" x1="8" x2="101" y1="519.7578" y2="519.7578"/><polygon fill="#A80036" points="85,544.8906,95,548.8906,85,552.8906,89,548.8906" style="stroke: #A80036; stroke-width: 1.0;"/><line style="stroke: #A80036; stroke-width: 1.0;" x1="3" x2="91" y1="548.8906" y2="548.8906"/><text fill="#000000" font-family="sans-serif" font-size="13" lengthAdjust="spacingAndGlyphs" textLength="63" x="10" y="543.8247">RunGame</text><polygon fill="#A80036" points="400,574.0234,410,578.0234,400,582.0234,404,578.0234" style="stroke: #A80036; stroke-width: 1.0;"/><line style="stroke: #A80036; stroke-width: 1.0;" x1="107" x2="406" y1="578.0234" y2="578.0234"/><text fill="#000000" font-family="sans-serif" font-size="13" lengthAdjust="spacingAndGlyphs" textLength="183" x="114" y="572.9575">gameObject.SetActive(false)</text><polygon fill="#A80036" points="118,588.0234,108,592.0234,118,596.0234,114,592.0234" style="stroke: #A80036; stroke-width: 1.0;"/><line style="stroke: #A80036; stroke-width: 1.0; stroke-dasharray: 2.0,2.0;" x1="112" x2="416" y1="592.0234" y2="592.0234"/><polygon fill="#A80036" points="537.5,617.1563,547.5,621.1563,537.5,625.1563,541.5,621.1563" style="stroke: #A80036; stroke-width: 1.0;"/><line style="stroke: #A80036; stroke-width: 1.0;" x1="107" x2="543.5" y1="621.1563" y2="621.1563"/><text fill="#000000" font-family="sans-serif" font-size="13" lengthAdjust="spacingAndGlyphs" textLength="179" x="114" y="616.0903">gameObject.SetActive(true)</text><polygon fill="#A80036" points="118,631.1563,108,635.1563,118,639.1563,114,635.1563" style="stroke: #A80036; stroke-width: 1.0;"/><line style="stroke: #A80036; stroke-width: 1.0; stroke-dasharray: 2.0,2.0;" x1="112" x2="553.5" y1="635.1563" y2="635.1563"/><polygon fill="#A80036" points="678.5,660.2891,688.5,664.2891,678.5,668.2891,682.5,664.2891" style="stroke: #A80036; stroke-width: 1.0;"/><line style="stroke: #A80036; stroke-width: 1.0;" x1="107" x2="684.5" y1="664.2891" y2="664.2891"/><text fill="#000000" font-family="sans-serif" font-size="13" lengthAdjust="spacingAndGlyphs" textLength="183" x="114" y="659.2231">gameObject.SetActive(false)</text><polygon fill="#A80036" points="118,674.2891,108,678.2891,118,682.2891,114,678.2891" style="stroke: #A80036; stroke-width: 1.0;"/><line style="stroke: #A80036; stroke-width: 1.0; stroke-dasharray: 2.0,2.0;" x1="112" x2="694.5" y1="678.2891" y2="678.2891"/><path d="M29,693.2891 L106,693.2891 L106,700.2891 L96,710.2891 L29,710.2891 L29,693.2891 " fill="#EEEEEE" style="stroke: #000000; stroke-width: 1.0;"/><rect fill="none" height="60.2656" style="stroke: #000000; stroke-width: 2.0;" width="324" x="29" y="693.2891"/><text fill="#000000" font-family="sans-serif" font-size="13" font-weight="bold" lengthAdjust="spacingAndGlyphs" textLength="32" x="44" y="706.356">loop</text><text fill="#000000" font-family="sans-serif" font-size="11" font-weight="bold" lengthAdjust="spacingAndGlyphs" textLength="142" x="121" y="705.4995">[プレイヤーのリストを生成]</text><polygon fill="#A80036" points="242,727.5547,252,731.5547,242,735.5547,246,731.5547" style="stroke: #A80036; stroke-width: 1.0;"/><line style="stroke: #A80036; stroke-width: 1.0;" x1="107" x2="248" y1="731.5547" y2="731.5547"/><text fill="#000000" font-family="sans-serif" font-size="13" lengthAdjust="spacingAndGlyphs" textLength="93" x="114" y="726.4888">PlayerInstance</text><polygon fill="#A80036" points="118,741.5547,108,745.5547,118,749.5547,114,745.5547" style="stroke: #A80036; stroke-width: 1.0;"/><line style="stroke: #A80036; stroke-width: 1.0;" x1="112" x2="258" y1="745.5547" y2="745.5547"/><polygon fill="#A80036" points="537.5,777.6875,547.5,781.6875,537.5,785.6875,541.5,781.6875" style="stroke: #A80036; stroke-width: 1.0;"/><line style="stroke: #A80036; stroke-width: 1.0;" x1="107" x2="543.5" y1="781.6875" y2="781.6875"/><text fill="#000000" font-family="sans-serif" font-size="13" lengthAdjust="spacingAndGlyphs" textLength="38" x="114" y="776.6216">Setup</text><polygon fill="#A80036" points="118,791.6875,108,795.6875,118,799.6875,114,795.6875" style="stroke: #A80036; stroke-width: 1.0;"/><line style="stroke: #A80036; stroke-width: 1.0; stroke-dasharray: 2.0,2.0;" x1="112" x2="553.5" y1="795.6875" y2="795.6875"/><polygon fill="#A80036" points="14,805.6875,4,809.6875,14,813.6875,10,809.6875" style="stroke: #A80036; stroke-width: 1.0;"/><line style="stroke: #A80036; stroke-width: 1.0; stroke-dasharray: 2.0,2.0;" x1="8" x2="101" y1="809.6875" y2="809.6875"/><polygon fill="#A80036" points="85,834.8203,95,838.8203,85,842.8203,89,838.8203" style="stroke: #A80036; stroke-width: 1.0;"/><line style="stroke: #A80036; stroke-width: 1.0;" x1="3" x2="91" y1="838.8203" y2="838.8203"/><text fill="#000000" font-family="sans-serif" font-size="13" lengthAdjust="spacingAndGlyphs" textLength="75" x="10" y="833.7544">FinishGame</text><polygon fill="#A80036" points="400,863.9531,410,867.9531,400,871.9531,404,867.9531" style="stroke: #A80036; stroke-width: 1.0;"/><line style="stroke: #A80036; stroke-width: 1.0;" x1="107" x2="406" y1="867.9531" y2="867.9531"/><text fill="#000000" font-family="sans-serif" font-size="13" lengthAdjust="spacingAndGlyphs" textLength="183" x="114" y="862.8872">gameObject.SetActive(false)</text><polygon fill="#A80036" points="118,877.9531,108,881.9531,118,885.9531,114,881.9531" style="stroke: #A80036; stroke-width: 1.0;"/><line style="stroke: #A80036; stroke-width: 1.0; stroke-dasharray: 2.0,2.0;" x1="112" x2="416" y1="881.9531" y2="881.9531"/><polygon fill="#A80036" points="537.5,907.0859,547.5,911.0859,537.5,915.0859,541.5,911.0859" style="stroke: #A80036; stroke-width: 1.0;"/><line style="stroke: #A80036; stroke-width: 1.0;" x1="107" x2="543.5" y1="911.0859" y2="911.0859"/><text fill="#000000" font-family="sans-serif" font-size="13" lengthAdjust="spacingAndGlyphs" textLength="183" x="114" y="906.02">gameObject.SetActive(false)</text><polygon fill="#A80036" points="118,921.0859,108,925.0859,118,929.0859,114,925.0859" style="stroke: #A80036; stroke-width: 1.0;"/><line style="stroke: #A80036; stroke-width: 1.0; stroke-dasharray: 2.0,2.0;" x1="112" x2="553.5" y1="925.0859" y2="925.0859"/><polygon fill="#A80036" points="678.5,950.2188,688.5,954.2188,678.5,958.2188,682.5,954.2188" style="stroke: #A80036; stroke-width: 1.0;"/><line style="stroke: #A80036; stroke-width: 1.0;" x1="107" x2="684.5" y1="954.2188" y2="954.2188"/><text fill="#000000" font-family="sans-serif" font-size="13" lengthAdjust="spacingAndGlyphs" textLength="179" x="114" y="949.1528">gameObject.SetActive(true)</text><polygon fill="#A80036" points="118,964.2188,108,968.2188,118,972.2188,114,968.2188" style="stroke: #A80036; stroke-width: 1.0;"/><line style="stroke: #A80036; stroke-width: 1.0; stroke-dasharray: 2.0,2.0;" x1="112" x2="694.5" y1="968.2188" y2="968.2188"/><polygon fill="#A80036" points="678.5,993.3516,688.5,997.3516,678.5,1001.3516,682.5,997.3516" style="stroke: #A80036; stroke-width: 1.0;"/><line style="stroke: #A80036; stroke-width: 1.0;" x1="107" x2="684.5" y1="997.3516" y2="997.3516"/><text fill="#000000" font-family="sans-serif" font-size="13" lengthAdjust="spacingAndGlyphs" textLength="38" x="114" y="992.2856">Setup</text><polygon fill="#A80036" points="118,1007.3516,108,1011.3516,118,1015.3516,114,1011.3516" style="stroke: #A80036; stroke-width: 1.0;"/><line style="stroke: #A80036; stroke-width: 1.0; stroke-dasharray: 2.0,2.0;" x1="112" x2="694.5" y1="1011.3516" y2="1011.3516"/><polygon fill="#A80036" points="14,1021.3516,4,1025.3516,14,1029.3516,10,1025.3516" style="stroke: #A80036; stroke-width: 1.0;"/><line style="stroke: #A80036; stroke-width: 1.0; stroke-dasharray: 2.0,2.0;" x1="8" x2="101" y1="1025.3516" y2="1025.3516"/><!--MD5=[6779331a3360f1b55bc89f091dd6ddad]
@startuml

[-> GameController : Start
activate GameController
    GameController -> GameController : BootGame
    activate GameController
    deactivate GameController
[<- - GameController
deactivate GameController

[-> GameController : BootGame
activate GameController
    loop プレイヤーごとに実行、Player のインスタンスとStatusPanel のインスタンスとを関連付ける
        GameController -> PlayerAndStatusPanel : Pack
        activate PlayerAndStatusPanel
            GameController <- PlayerAndStatusPanel
        deactivate PlayerAndStatusPanel
    end
    GameController -> StateGameBoot : gameObject.SetActive(true)
    activate StateGameBoot
        GameController <- - StateGameBoot
    deactivate StateGameBoot
    GameController -> StateGameMain : gameObject.SetActive(false)
    activate StateGameMain
        GameController <- - StateGameMain
    deactivate StateGameMain
    GameController -> StateGameFinish : gameObject.SetActive(false)
    activate StateGameFinish
        GameController <- - StateGameFinish
    deactivate StateGameFinish
    loop プレイヤーのリストを生成
        GameController -> PlayerAndStatusPanel : PlayerInstance
        activate PlayerAndStatusPanel
            GameController <- PlayerAndStatusPanel
        deactivate PlayerAndStatusPanel
    end
    GameController -> StateGameBoot : Setup
    activate StateGameBoot
        GameController <- - StateGameBoot
    deactivate StateGameBoot
[<- - GameController
deactivate GameController

[-> GameController : RunGame
activate GameController
    GameController -> StateGameBoot : gameObject.SetActive(false)
    activate StateGameBoot
        GameController <- - StateGameBoot
    deactivate StateGameBoot
    GameController -> StateGameMain : gameObject.SetActive(true)
    activate StateGameMain
        GameController <- - StateGameMain
    deactivate StateGameMain
    GameController -> StateGameFinish : gameObject.SetActive(false)
    activate StateGameFinish
        GameController <- - StateGameFinish
    deactivate StateGameFinish

    loop プレイヤーのリストを生成
        GameController -> PlayerAndStatusPanel : PlayerInstance
        activate PlayerAndStatusPanel
            GameController <- PlayerAndStatusPanel
        deactivate PlayerAndStatusPanel
    end
    GameController -> StateGameMain : Setup
    activate StateGameMain
        GameController <- - StateGameMain
    deactivate StateGameMain
[<- - GameController
deactivate GameController

[-> GameController : FinishGame
activate GameController
    GameController -> StateGameBoot : gameObject.SetActive(false)
    activate StateGameBoot
        GameController <- - StateGameBoot
    deactivate StateGameBoot
    GameController -> StateGameMain : gameObject.SetActive(false)
    activate StateGameMain
        GameController <- - StateGameMain
    deactivate StateGameMain
    GameController -> StateGameFinish : gameObject.SetActive(true)
    activate StateGameFinish
        GameController <- - StateGameFinish
    deactivate StateGameFinish

    GameController -> StateGameFinish : Setup
    activate StateGameFinish
        GameController <- - StateGameFinish
    deactivate StateGameFinish
[<- - GameController
deactivate GameController

@enduml

PlantUML version 1.2020.02(Sun Mar 01 10:22:07 GMT 2020)
(GPL source distribution)
Java Runtime: OpenJDK Runtime Environment
JVM: OpenJDK 64-Bit Server VM
Java Version: 11.0.9+11-Ubuntu-0ubuntu1
Operating System: Linux
Default Encoding: ANSI_X3.4-1968
Language: en
Country: US
--></g></svg>