<?xml version="1.0" encoding="UTF-8" standalone="no"?><svg xmlns="http://www.w3.org/2000/svg" xmlns:xlink="http://www.w3.org/1999/xlink" contentScriptType="application/ecmascript" contentStyleType="text/css" height="782px" preserveAspectRatio="none" style="width:525px;height:782px;" version="1.1" viewBox="0 0 525 782" width="525px" zoomAndPan="magnify"><defs><filter height="300%" id="fjesq1erelbkr" width="300%" x="-1" y="-1"><feGaussianBlur result="blurOut" stdDeviation="2.0"/><feColorMatrix in="blurOut" result="blurOut2" type="matrix" values="0 0 0 0 0 0 0 0 0 0 0 0 0 0 0 0 0 0 .4 0"/><feOffset dx="4.0" dy="4.0" in="blurOut2" result="blurOut3"/><feBlend in="SourceGraphic" in2="blurOut3" mode="normal"/></filter></defs><g><rect fill="#FFFFFF" filter="url(#fjesq1erelbkr)" height="86.1328" style="stroke: #A80036; stroke-width: 1.0;" width="10" x="144" y="69.4297"/><rect fill="#FFFFFF" filter="url(#fjesq1erelbkr)" height="28" style="stroke: #A80036; stroke-width: 1.0;" width="10" x="149" y="106.5625"/><rect fill="#FFFFFF" filter="url(#fjesq1erelbkr)" height="158.2656" style="stroke: #A80036; stroke-width: 1.0;" width="10" x="144" y="184.6953"/><rect fill="#FFFFFF" filter="url(#fjesq1erelbkr)" height="28" style="stroke: #A80036; stroke-width: 1.0;" width="10" x="149" y="221.8281"/><rect fill="#FFFFFF" filter="url(#fjesq1erelbkr)" height="28" style="stroke: #A80036; stroke-width: 1.0;" width="10" x="149" y="293.9609"/><rect fill="#FFFFFF" filter="url(#fjesq1erelbkr)" height="158.2656" style="stroke: #A80036; stroke-width: 1.0;" width="10" x="144" y="372.0938"/><rect fill="#FFFFFF" filter="url(#fjesq1erelbkr)" height="28" style="stroke: #A80036; stroke-width: 1.0;" width="10" x="149" y="409.2266"/><rect fill="#FFFFFF" filter="url(#fjesq1erelbkr)" height="28" style="stroke: #A80036; stroke-width: 1.0;" width="10" x="149" y="481.3594"/><rect fill="#FFFFFF" filter="url(#fjesq1erelbkr)" height="164.5313" style="stroke: #A80036; stroke-width: 1.0;" width="10" x="144" y="559.4922"/><rect fill="#FFFFFF" filter="url(#fjesq1erelbkr)" height="14" style="stroke: #A80036; stroke-width: 1.0;" width="10" x="428" y="636.8906"/><rect fill="#FFFFFF" filter="url(#fjesq1erelbkr)" height="14" style="stroke: #A80036; stroke-width: 1.0;" width="10" x="428" y="682.0234"/><rect fill="#FFFFFF" filter="url(#fjesq1erelbkr)" height="136.5313" style="stroke: #000000; stroke-width: 2.0;" width="435.5" x="79" y="574.4922"/><rect fill="#FFFFFF" filter="url(#fjesq1erelbkr)" height="105.3984" style="stroke: #000000; stroke-width: 2.0;" width="415.5" x="89" y="598.625"/><rect fill="#FFFFFF" height="45.1328" style="stroke: none; stroke-width: 1.0;" width="415.5" x="89" y="658.8906"/><line style="stroke: #A80036; stroke-width: 1.0; stroke-dasharray: 5.0,5.0;" x1="149" x2="149" y1="38.2969" y2="742.0234"/><line style="stroke: #A80036; stroke-width: 1.0; stroke-dasharray: 5.0,5.0;" x1="432.5" x2="432.5" y1="38.2969" y2="742.0234"/><rect fill="#FEFECE" filter="url(#fjesq1erelbkr)" height="30.2969" style="stroke: #A80036; stroke-width: 1.5;" width="96" x="99" y="3"/><text fill="#000000" font-family="sans-serif" font-size="14" lengthAdjust="spacingAndGlyphs" textLength="82" x="106" y="22.9951">StatusPanel</text><rect fill="#FEFECE" filter="url(#fjesq1erelbkr)" height="30.2969" style="stroke: #A80036; stroke-width: 1.5;" width="96" x="99" y="741.0234"/><text fill="#000000" font-family="sans-serif" font-size="14" lengthAdjust="spacingAndGlyphs" textLength="82" x="106" y="761.0186">StatusPanel</text><rect fill="#FEFECE" filter="url(#fjesq1erelbkr)" height="30.2969" style="stroke: #A80036; stroke-width: 1.5;" width="119" x="371.5" y="3"/><text fill="#000000" font-family="sans-serif" font-size="14" lengthAdjust="spacingAndGlyphs" textLength="105" x="378.5" y="22.9951">ReservationList</text><rect fill="#FEFECE" filter="url(#fjesq1erelbkr)" height="30.2969" style="stroke: #A80036; stroke-width: 1.5;" width="119" x="371.5" y="741.0234"/><text fill="#000000" font-family="sans-serif" font-size="14" lengthAdjust="spacingAndGlyphs" textLength="105" x="378.5" y="761.0186">ReservationList</text><rect fill="#FFFFFF" filter="url(#fjesq1erelbkr)" height="86.1328" style="stroke: #A80036; stroke-width: 1.0;" width="10" x="144" y="69.4297"/><rect fill="#FFFFFF" filter="url(#fjesq1erelbkr)" height="28" style="stroke: #A80036; stroke-width: 1.0;" width="10" x="149" y="106.5625"/><rect fill="#FFFFFF" filter="url(#fjesq1erelbkr)" height="158.2656" style="stroke: #A80036; stroke-width: 1.0;" width="10" x="144" y="184.6953"/><rect fill="#FFFFFF" filter="url(#fjesq1erelbkr)" height="28" style="stroke: #A80036; stroke-width: 1.0;" width="10" x="149" y="221.8281"/><rect fill="#FFFFFF" filter="url(#fjesq1erelbkr)" height="28" style="stroke: #A80036; stroke-width: 1.0;" width="10" x="149" y="293.9609"/><rect fill="#FFFFFF" filter="url(#fjesq1erelbkr)" height="158.2656" style="stroke: #A80036; stroke-width: 1.0;" width="10" x="144" y="372.0938"/><rect fill="#FFFFFF" filter="url(#fjesq1erelbkr)" height="28" style="stroke: #A80036; stroke-width: 1.0;" width="10" x="149" y="409.2266"/><rect fill="#FFFFFF" filter="url(#fjesq1erelbkr)" height="28" style="stroke: #A80036; stroke-width: 1.0;" width="10" x="149" y="481.3594"/><rect fill="#FFFFFF" filter="url(#fjesq1erelbkr)" height="164.5313" style="stroke: #A80036; stroke-width: 1.0;" width="10" x="144" y="559.4922"/><rect fill="#FFFFFF" filter="url(#fjesq1erelbkr)" height="14" style="stroke: #A80036; stroke-width: 1.0;" width="10" x="428" y="636.8906"/><rect fill="#FFFFFF" filter="url(#fjesq1erelbkr)" height="14" style="stroke: #A80036; stroke-width: 1.0;" width="10" x="428" y="682.0234"/><polygon fill="#A80036" points="132,65.4297,142,69.4297,132,73.4297,136,69.4297" style="stroke: #A80036; stroke-width: 1.0;"/><line style="stroke: #A80036; stroke-width: 1.0;" x1="3" x2="138" y1="69.4297" y2="69.4297"/><text fill="#000000" font-family="sans-serif" font-size="13" lengthAdjust="spacingAndGlyphs" textLength="118" x="10" y="64.3638">UpdateScoreLabel</text><line style="stroke: #A80036; stroke-width: 1.0;" x1="159" x2="201" y1="98.5625" y2="98.5625"/><line style="stroke: #A80036; stroke-width: 1.0;" x1="201" x2="201" y1="98.5625" y2="111.5625"/><line style="stroke: #A80036; stroke-width: 1.0;" x1="160" x2="201" y1="111.5625" y2="111.5625"/><polygon fill="#A80036" points="170,107.5625,160,111.5625,170,115.5625,166,111.5625" style="stroke: #A80036; stroke-width: 1.0;"/><text fill="#000000" font-family="sans-serif" font-size="13" lengthAdjust="spacingAndGlyphs" textLength="104" x="166" y="93.4966">ラベルを更新する</text><polygon fill="#A80036" points="14,151.5625,4,155.5625,14,159.5625,10,155.5625" style="stroke: #A80036; stroke-width: 1.0;"/><line style="stroke: #A80036; stroke-width: 1.0; stroke-dasharray: 2.0,2.0;" x1="8" x2="148" y1="155.5625" y2="155.5625"/><polygon fill="#A80036" points="132,180.6953,142,184.6953,132,188.6953,136,184.6953" style="stroke: #A80036; stroke-width: 1.0;"/><line style="stroke: #A80036; stroke-width: 1.0;" x1="3" x2="138" y1="184.6953" y2="184.6953"/><text fill="#000000" font-family="sans-serif" font-size="13" lengthAdjust="spacingAndGlyphs" textLength="73" x="10" y="179.6294">ResetScore</text><line style="stroke: #A80036; stroke-width: 1.0;" x1="159" x2="201" y1="213.8281" y2="213.8281"/><line style="stroke: #A80036; stroke-width: 1.0;" x1="201" x2="201" y1="213.8281" y2="226.8281"/><line style="stroke: #A80036; stroke-width: 1.0;" x1="160" x2="201" y1="226.8281" y2="226.8281"/><polygon fill="#A80036" points="170,222.8281,160,226.8281,170,230.8281,166,226.8281" style="stroke: #A80036; stroke-width: 1.0;"/><text fill="#000000" font-family="sans-serif" font-size="13" lengthAdjust="spacingAndGlyphs" textLength="99" x="166" y="208.7622">スコアを0にする</text><line style="stroke: #A80036; stroke-width: 1.0;" x1="159" x2="201" y1="285.9609" y2="285.9609"/><line style="stroke: #A80036; stroke-width: 1.0;" x1="201" x2="201" y1="285.9609" y2="298.9609"/><line style="stroke: #A80036; stroke-width: 1.0;" x1="160" x2="201" y1="298.9609" y2="298.9609"/><polygon fill="#A80036" points="170,294.9609,160,298.9609,170,302.9609,166,298.9609" style="stroke: #A80036; stroke-width: 1.0;"/><text fill="#000000" font-family="sans-serif" font-size="13" lengthAdjust="spacingAndGlyphs" textLength="118" x="166" y="280.895">UpdateScoreLabel</text><polygon fill="#A80036" points="14,338.9609,4,342.9609,14,346.9609,10,342.9609" style="stroke: #A80036; stroke-width: 1.0;"/><line style="stroke: #A80036; stroke-width: 1.0; stroke-dasharray: 2.0,2.0;" x1="8" x2="148" y1="342.9609" y2="342.9609"/><polygon fill="#A80036" points="132,368.0938,142,372.0938,132,376.0938,136,372.0938" style="stroke: #A80036; stroke-width: 1.0;"/><line style="stroke: #A80036; stroke-width: 1.0;" x1="3" x2="138" y1="372.0938" y2="372.0938"/><text fill="#000000" font-family="sans-serif" font-size="13" lengthAdjust="spacingAndGlyphs" textLength="73" x="10" y="367.0278">ResetScore</text><line style="stroke: #A80036; stroke-width: 1.0;" x1="159" x2="201" y1="401.2266" y2="401.2266"/><line style="stroke: #A80036; stroke-width: 1.0;" x1="201" x2="201" y1="401.2266" y2="414.2266"/><line style="stroke: #A80036; stroke-width: 1.0;" x1="160" x2="201" y1="414.2266" y2="414.2266"/><polygon fill="#A80036" points="170,410.2266,160,414.2266,170,418.2266,166,414.2266" style="stroke: #A80036; stroke-width: 1.0;"/><text fill="#000000" font-family="sans-serif" font-size="13" lengthAdjust="spacingAndGlyphs" textLength="260" x="166" y="396.1606">消したラインの数に応じてスコアを加算する</text><line style="stroke: #A80036; stroke-width: 1.0;" x1="159" x2="201" y1="473.3594" y2="473.3594"/><line style="stroke: #A80036; stroke-width: 1.0;" x1="201" x2="201" y1="473.3594" y2="486.3594"/><line style="stroke: #A80036; stroke-width: 1.0;" x1="160" x2="201" y1="486.3594" y2="486.3594"/><polygon fill="#A80036" points="170,482.3594,160,486.3594,170,490.3594,166,486.3594" style="stroke: #A80036; stroke-width: 1.0;"/><text fill="#000000" font-family="sans-serif" font-size="13" lengthAdjust="spacingAndGlyphs" textLength="118" x="166" y="468.2935">UpdateScoreLabel</text><polygon fill="#A80036" points="14,526.3594,4,530.3594,14,534.3594,10,530.3594" style="stroke: #A80036; stroke-width: 1.0;"/><line style="stroke: #A80036; stroke-width: 1.0; stroke-dasharray: 2.0,2.0;" x1="8" x2="148" y1="530.3594" y2="530.3594"/><polygon fill="#A80036" points="132,555.4922,142,559.4922,132,563.4922,136,559.4922" style="stroke: #A80036; stroke-width: 1.0;"/><line style="stroke: #A80036; stroke-width: 1.0;" x1="3" x2="138" y1="559.4922" y2="559.4922"/><text fill="#000000" font-family="sans-serif" font-size="13" lengthAdjust="spacingAndGlyphs" textLength="122" x="10" y="554.4263">UpdateReservation</text><path d="M79,574.4922 L156,574.4922 L156,581.4922 L146,591.4922 L79,591.4922 L79,574.4922 " fill="#EEEEEE" style="stroke: #000000; stroke-width: 1.0;"/><rect fill="none" height="136.5313" style="stroke: #000000; stroke-width: 2.0;" width="435.5" x="79" y="574.4922"/><text fill="#000000" font-family="sans-serif" font-size="13" font-weight="bold" lengthAdjust="spacingAndGlyphs" textLength="32" x="94" y="587.5591">loop</text><text fill="#000000" font-family="sans-serif" font-size="11" font-weight="bold" lengthAdjust="spacingAndGlyphs" textLength="164" x="171" y="586.7026">[ブロック予告欄ごとに実行する]</text><path d="M89,598.625 L153,598.625 L153,605.625 L143,615.625 L89,615.625 L89,598.625 " fill="#EEEEEE" style="stroke: #000000; stroke-width: 1.0;"/><rect fill="none" height="105.3984" style="stroke: #000000; stroke-width: 2.0;" width="415.5" x="89" y="598.625"/><text fill="#000000" font-family="sans-serif" font-size="13" font-weight="bold" lengthAdjust="spacingAndGlyphs" textLength="19" x="104" y="611.6919">alt</text><text fill="#000000" font-family="sans-serif" font-size="11" font-weight="bold" lengthAdjust="spacingAndGlyphs" textLength="175" x="168" y="610.8354">[ブロック予告情報が存在している]</text><polygon fill="#A80036" points="416,632.8906,426,636.8906,416,640.8906,420,636.8906" style="stroke: #A80036; stroke-width: 1.0;"/><line style="stroke: #A80036; stroke-width: 1.0;" x1="154" x2="422" y1="636.8906" y2="636.8906"/><text fill="#000000" font-family="sans-serif" font-size="13" lengthAdjust="spacingAndGlyphs" textLength="121" x="161" y="631.8247">SetId(ブロック種別)</text><polygon fill="#A80036" points="165,646.8906,155,650.8906,165,654.8906,161,650.8906" style="stroke: #A80036; stroke-width: 1.0;"/><line style="stroke: #A80036; stroke-width: 1.0; stroke-dasharray: 2.0,2.0;" x1="159" x2="432" y1="650.8906" y2="650.8906"/><line style="stroke: #000000; stroke-width: 1.0; stroke-dasharray: 2.0,2.0;" x1="89" x2="504.5" y1="659.8906" y2="659.8906"/><polygon fill="#A80036" points="416,678.0234,426,682.0234,416,686.0234,420,682.0234" style="stroke: #A80036; stroke-width: 1.0;"/><line style="stroke: #A80036; stroke-width: 1.0;" x1="154" x2="422" y1="682.0234" y2="682.0234"/><text fill="#000000" font-family="sans-serif" font-size="13" lengthAdjust="spacingAndGlyphs" textLength="108" x="161" y="676.9575">SetId(無効な番号)</text><polygon fill="#A80036" points="165,692.0234,155,696.0234,165,700.0234,161,696.0234" style="stroke: #A80036; stroke-width: 1.0;"/><line style="stroke: #A80036; stroke-width: 1.0; stroke-dasharray: 2.0,2.0;" x1="159" x2="432" y1="696.0234" y2="696.0234"/><polygon fill="#A80036" points="14,720.0234,4,724.0234,14,728.0234,10,724.0234" style="stroke: #A80036; stroke-width: 1.0;"/><line style="stroke: #A80036; stroke-width: 1.0; stroke-dasharray: 2.0,2.0;" x1="8" x2="148" y1="724.0234" y2="724.0234"/><!--MD5=[34e9a0a3a71c7572a6dee09ddf2ab21b]
@startuml


[-> StatusPanel : UpdateScoreLabel
activate StatusPanel
    StatusPanel -> StatusPanel : ラベルを更新する
    activate StatusPanel
    deactivate StatusPanel
    [<- - StatusPanel
deactivate StatusPanel

[-> StatusPanel : ResetScore
activate StatusPanel
    StatusPanel -> StatusPanel : スコアを0にする
    activate StatusPanel
    deactivate StatusPanel
    StatusPanel -> StatusPanel : UpdateScoreLabel
    activate StatusPanel
    deactivate StatusPanel
    [<- - StatusPanel
deactivate StatusPanel

[-> StatusPanel : ResetScore
activate StatusPanel
    StatusPanel -> StatusPanel : 消したラインの数に応じてスコアを加算する
    activate StatusPanel
    deactivate StatusPanel
    StatusPanel -> StatusPanel : UpdateScoreLabel
    activate StatusPanel
    deactivate StatusPanel
    [<- - StatusPanel
deactivate StatusPanel

[-> StatusPanel : UpdateReservation
activate StatusPanel
    loop ブロック予告欄ごとに実行する
        alt ブロック予告情報が存在している
            StatusPanel -> ReservationList : SetId(ブロック種別)
            activate ReservationList
                StatusPanel <- - ReservationList
            deactivate ReservationList
        else
            StatusPanel -> ReservationList : SetId(無効な番号)
            activate ReservationList
                StatusPanel <- - ReservationList
            deactivate ReservationList
        end
    end
    [<- - StatusPanel
deactivate StatusPanel

@enduml

PlantUML version 1.2020.02(Sun Mar 01 10:22:07 GMT 2020)
(GPL source distribution)
Java Runtime: OpenJDK Runtime Environment
JVM: OpenJDK 64-Bit Server VM
Java Version: 11.0.9+11-Ubuntu-0ubuntu1
Operating System: Linux
Default Encoding: ANSI_X3.4-1968
Language: en
Country: US
--></g></svg>