<?xml version="1.0" encoding="UTF-8" standalone="no"?><svg xmlns="http://www.w3.org/2000/svg" xmlns:xlink="http://www.w3.org/1999/xlink" contentScriptType="application/ecmascript" contentStyleType="text/css" height="860px" preserveAspectRatio="none" style="width:667px;height:860px;" version="1.1" viewBox="0 0 667 860" width="667px" zoomAndPan="magnify"><defs><filter height="300%" id="fdmsegdc41sr8" width="300%" x="-1" y="-1"><feGaussianBlur result="blurOut" stdDeviation="2.0"/><feColorMatrix in="blurOut" result="blurOut2" type="matrix" values="0 0 0 0 0 0 0 0 0 0 0 0 0 0 0 0 0 0 .4 0"/><feOffset dx="4.0" dy="4.0" in="blurOut2" result="blurOut3"/><feBlend in="SourceGraphic" in2="blurOut3" mode="normal"/></filter></defs><g><rect fill="#FFFFFF" filter="url(#fdmsegdc41sr8)" height="86.1328" style="stroke: #A80036; stroke-width: 1.0;" width="10" x="97" y="69.4297"/><rect fill="#FFFFFF" filter="url(#fdmsegdc41sr8)" height="28" style="stroke: #A80036; stroke-width: 1.0;" width="10" x="102" y="106.5625"/><rect fill="#FFFFFF" filter="url(#fdmsegdc41sr8)" height="186.5313" style="stroke: #A80036; stroke-width: 1.0;" width="10" x="97" y="184.6953"/><rect fill="#FFFFFF" filter="url(#fdmsegdc41sr8)" height="186.5313" style="stroke: #A80036; stroke-width: 1.0;" width="10" x="97" y="400.3594"/><rect fill="#FFFFFF" filter="url(#fdmsegdc41sr8)" height="186.5313" style="stroke: #A80036; stroke-width: 1.0;" width="10" x="97" y="616.0234"/><rect fill="#FFFFFF" filter="url(#fdmsegdc41sr8)" height="14" style="stroke: #A80036; stroke-width: 1.0;" width="10" x="309" y="213.8281"/><rect fill="#FFFFFF" filter="url(#fdmsegdc41sr8)" height="14" style="stroke: #A80036; stroke-width: 1.0;" width="10" x="309" y="343.2266"/><rect fill="#FFFFFF" filter="url(#fdmsegdc41sr8)" height="14" style="stroke: #A80036; stroke-width: 1.0;" width="10" x="309" y="429.4922"/><rect fill="#FFFFFF" filter="url(#fdmsegdc41sr8)" height="14" style="stroke: #A80036; stroke-width: 1.0;" width="10" x="309" y="645.1563"/><rect fill="#FFFFFF" filter="url(#fdmsegdc41sr8)" height="14" style="stroke: #A80036; stroke-width: 1.0;" width="10" x="446.5" y="256.9609"/><rect fill="#FFFFFF" filter="url(#fdmsegdc41sr8)" height="14" style="stroke: #A80036; stroke-width: 1.0;" width="10" x="446.5" y="472.625"/><rect fill="#FFFFFF" filter="url(#fdmsegdc41sr8)" height="14" style="stroke: #A80036; stroke-width: 1.0;" width="10" x="446.5" y="558.8906"/><rect fill="#FFFFFF" filter="url(#fdmsegdc41sr8)" height="14" style="stroke: #A80036; stroke-width: 1.0;" width="10" x="446.5" y="688.2891"/><rect fill="#FFFFFF" filter="url(#fdmsegdc41sr8)" height="14" style="stroke: #A80036; stroke-width: 1.0;" width="10" x="587.5" y="300.0938"/><rect fill="#FFFFFF" filter="url(#fdmsegdc41sr8)" height="14" style="stroke: #A80036; stroke-width: 1.0;" width="10" x="587.5" y="515.7578"/><rect fill="#FFFFFF" filter="url(#fdmsegdc41sr8)" height="14" style="stroke: #A80036; stroke-width: 1.0;" width="10" x="587.5" y="731.4219"/><rect fill="#FFFFFF" filter="url(#fdmsegdc41sr8)" height="14" style="stroke: #A80036; stroke-width: 1.0;" width="10" x="587.5" y="774.5547"/><line style="stroke: #A80036; stroke-width: 1.0; stroke-dasharray: 5.0,5.0;" x1="102" x2="102" y1="38.2969" y2="820.5547"/><line style="stroke: #A80036; stroke-width: 1.0; stroke-dasharray: 5.0,5.0;" x1="314" x2="314" y1="38.2969" y2="820.5547"/><line style="stroke: #A80036; stroke-width: 1.0; stroke-dasharray: 5.0,5.0;" x1="451" x2="451" y1="38.2969" y2="820.5547"/><line style="stroke: #A80036; stroke-width: 1.0; stroke-dasharray: 5.0,5.0;" x1="592" x2="592" y1="38.2969" y2="820.5547"/><rect fill="#FEFECE" filter="url(#fdmsegdc41sr8)" height="30.2969" style="stroke: #A80036; stroke-width: 1.5;" width="122" x="39" y="3"/><text fill="#000000" font-family="sans-serif" font-size="14" lengthAdjust="spacingAndGlyphs" textLength="108" x="46" y="22.9951">GameController</text><rect fill="#FEFECE" filter="url(#fdmsegdc41sr8)" height="30.2969" style="stroke: #A80036; stroke-width: 1.5;" width="122" x="39" y="819.5547"/><text fill="#000000" font-family="sans-serif" font-size="14" lengthAdjust="spacingAndGlyphs" textLength="108" x="46" y="839.5498">GameController</text><rect fill="#FEFECE" filter="url(#fdmsegdc41sr8)" height="30.2969" style="stroke: #A80036; stroke-width: 1.5;" width="124" x="250" y="3"/><text fill="#000000" font-family="sans-serif" font-size="14" lengthAdjust="spacingAndGlyphs" textLength="110" x="257" y="22.9951">StateGameBoot</text><rect fill="#FEFECE" filter="url(#fdmsegdc41sr8)" height="30.2969" style="stroke: #A80036; stroke-width: 1.5;" width="124" x="250" y="819.5547"/><text fill="#000000" font-family="sans-serif" font-size="14" lengthAdjust="spacingAndGlyphs" textLength="110" x="257" y="839.5498">StateGameBoot</text><rect fill="#FEFECE" filter="url(#fdmsegdc41sr8)" height="30.2969" style="stroke: #A80036; stroke-width: 1.5;" width="123" x="388" y="3"/><text fill="#000000" font-family="sans-serif" font-size="14" lengthAdjust="spacingAndGlyphs" textLength="109" x="395" y="22.9951">StateGameMain</text><rect fill="#FEFECE" filter="url(#fdmsegdc41sr8)" height="30.2969" style="stroke: #A80036; stroke-width: 1.5;" width="123" x="388" y="819.5547"/><text fill="#000000" font-family="sans-serif" font-size="14" lengthAdjust="spacingAndGlyphs" textLength="109" x="395" y="839.5498">StateGameMain</text><rect fill="#FEFECE" filter="url(#fdmsegdc41sr8)" height="30.2969" style="stroke: #A80036; stroke-width: 1.5;" width="131" x="525" y="3"/><text fill="#000000" font-family="sans-serif" font-size="14" lengthAdjust="spacingAndGlyphs" textLength="117" x="532" y="22.9951">StateGameFinish</text><rect fill="#FEFECE" filter="url(#fdmsegdc41sr8)" height="30.2969" style="stroke: #A80036; stroke-width: 1.5;" width="131" x="525" y="819.5547"/><text fill="#000000" font-family="sans-serif" font-size="14" lengthAdjust="spacingAndGlyphs" textLength="117" x="532" y="839.5498">StateGameFinish</text><rect fill="#FFFFFF" filter="url(#fdmsegdc41sr8)" height="86.1328" style="stroke: #A80036; stroke-width: 1.0;" width="10" x="97" y="69.4297"/><rect fill="#FFFFFF" filter="url(#fdmsegdc41sr8)" height="28" style="stroke: #A80036; stroke-width: 1.0;" width="10" x="102" y="106.5625"/><rect fill="#FFFFFF" filter="url(#fdmsegdc41sr8)" height="186.5313" style="stroke: #A80036; stroke-width: 1.0;" width="10" x="97" y="184.6953"/><rect fill="#FFFFFF" filter="url(#fdmsegdc41sr8)" height="186.5313" style="stroke: #A80036; stroke-width: 1.0;" width="10" x="97" y="400.3594"/><rect fill="#FFFFFF" filter="url(#fdmsegdc41sr8)" height="186.5313" style="stroke: #A80036; stroke-width: 1.0;" width="10" x="97" y="616.0234"/><rect fill="#FFFFFF" filter="url(#fdmsegdc41sr8)" height="14" style="stroke: #A80036; stroke-width: 1.0;" width="10" x="309" y="213.8281"/><rect fill="#FFFFFF" filter="url(#fdmsegdc41sr8)" height="14" style="stroke: #A80036; stroke-width: 1.0;" width="10" x="309" y="343.2266"/><rect fill="#FFFFFF" filter="url(#fdmsegdc41sr8)" height="14" style="stroke: #A80036; stroke-width: 1.0;" width="10" x="309" y="429.4922"/><rect fill="#FFFFFF" filter="url(#fdmsegdc41sr8)" height="14" style="stroke: #A80036; stroke-width: 1.0;" width="10" x="309" y="645.1563"/><rect fill="#FFFFFF" filter="url(#fdmsegdc41sr8)" height="14" style="stroke: #A80036; stroke-width: 1.0;" width="10" x="446.5" y="256.9609"/><rect fill="#FFFFFF" filter="url(#fdmsegdc41sr8)" height="14" style="stroke: #A80036; stroke-width: 1.0;" width="10" x="446.5" y="472.625"/><rect fill="#FFFFFF" filter="url(#fdmsegdc41sr8)" height="14" style="stroke: #A80036; stroke-width: 1.0;" width="10" x="446.5" y="558.8906"/><rect fill="#FFFFFF" filter="url(#fdmsegdc41sr8)" height="14" style="stroke: #A80036; stroke-width: 1.0;" width="10" x="446.5" y="688.2891"/><rect fill="#FFFFFF" filter="url(#fdmsegdc41sr8)" height="14" style="stroke: #A80036; stroke-width: 1.0;" width="10" x="587.5" y="300.0938"/><rect fill="#FFFFFF" filter="url(#fdmsegdc41sr8)" height="14" style="stroke: #A80036; stroke-width: 1.0;" width="10" x="587.5" y="515.7578"/><rect fill="#FFFFFF" filter="url(#fdmsegdc41sr8)" height="14" style="stroke: #A80036; stroke-width: 1.0;" width="10" x="587.5" y="731.4219"/><rect fill="#FFFFFF" filter="url(#fdmsegdc41sr8)" height="14" style="stroke: #A80036; stroke-width: 1.0;" width="10" x="587.5" y="774.5547"/><polygon fill="#A80036" points="85,65.4297,95,69.4297,85,73.4297,89,69.4297" style="stroke: #A80036; stroke-width: 1.0;"/><line style="stroke: #A80036; stroke-width: 1.0;" x1="3" x2="91" y1="69.4297" y2="69.4297"/><text fill="#000000" font-family="sans-serif" font-size="13" lengthAdjust="spacingAndGlyphs" textLength="32" x="10" y="64.3638">Start</text><line style="stroke: #A80036; stroke-width: 1.0;" x1="112" x2="154" y1="98.5625" y2="98.5625"/><line style="stroke: #A80036; stroke-width: 1.0;" x1="154" x2="154" y1="98.5625" y2="111.5625"/><line style="stroke: #A80036; stroke-width: 1.0;" x1="113" x2="154" y1="111.5625" y2="111.5625"/><polygon fill="#A80036" points="123,107.5625,113,111.5625,123,115.5625,119,111.5625" style="stroke: #A80036; stroke-width: 1.0;"/><text fill="#000000" font-family="sans-serif" font-size="13" lengthAdjust="spacingAndGlyphs" textLength="69" x="119" y="93.4966">BootGame</text><polygon fill="#A80036" points="14,151.5625,4,155.5625,14,159.5625,10,155.5625" style="stroke: #A80036; stroke-width: 1.0;"/><line style="stroke: #A80036; stroke-width: 1.0; stroke-dasharray: 2.0,2.0;" x1="8" x2="101" y1="155.5625" y2="155.5625"/><polygon fill="#A80036" points="85,180.6953,95,184.6953,85,188.6953,89,184.6953" style="stroke: #A80036; stroke-width: 1.0;"/><line style="stroke: #A80036; stroke-width: 1.0;" x1="3" x2="91" y1="184.6953" y2="184.6953"/><text fill="#000000" font-family="sans-serif" font-size="13" lengthAdjust="spacingAndGlyphs" textLength="69" x="10" y="179.6294">BootGame</text><polygon fill="#A80036" points="297,209.8281,307,213.8281,297,217.8281,301,213.8281" style="stroke: #A80036; stroke-width: 1.0;"/><line style="stroke: #A80036; stroke-width: 1.0;" x1="107" x2="303" y1="213.8281" y2="213.8281"/><text fill="#000000" font-family="sans-serif" font-size="13" lengthAdjust="spacingAndGlyphs" textLength="179" x="114" y="208.7622">gameObject.SetActive(true)</text><polygon fill="#A80036" points="118,223.8281,108,227.8281,118,231.8281,114,227.8281" style="stroke: #A80036; stroke-width: 1.0;"/><line style="stroke: #A80036; stroke-width: 1.0; stroke-dasharray: 2.0,2.0;" x1="112" x2="313" y1="227.8281" y2="227.8281"/><polygon fill="#A80036" points="434.5,252.9609,444.5,256.9609,434.5,260.9609,438.5,256.9609" style="stroke: #A80036; stroke-width: 1.0;"/><line style="stroke: #A80036; stroke-width: 1.0;" x1="107" x2="440.5" y1="256.9609" y2="256.9609"/><text fill="#000000" font-family="sans-serif" font-size="13" lengthAdjust="spacingAndGlyphs" textLength="183" x="114" y="251.895">gameObject.SetActive(false)</text><polygon fill="#A80036" points="118,266.9609,108,270.9609,118,274.9609,114,270.9609" style="stroke: #A80036; stroke-width: 1.0;"/><line style="stroke: #A80036; stroke-width: 1.0; stroke-dasharray: 2.0,2.0;" x1="112" x2="450.5" y1="270.9609" y2="270.9609"/><polygon fill="#A80036" points="575.5,296.0938,585.5,300.0938,575.5,304.0938,579.5,300.0938" style="stroke: #A80036; stroke-width: 1.0;"/><line style="stroke: #A80036; stroke-width: 1.0;" x1="107" x2="581.5" y1="300.0938" y2="300.0938"/><text fill="#000000" font-family="sans-serif" font-size="13" lengthAdjust="spacingAndGlyphs" textLength="183" x="114" y="295.0278">gameObject.SetActive(false)</text><polygon fill="#A80036" points="118,310.0938,108,314.0938,118,318.0938,114,314.0938" style="stroke: #A80036; stroke-width: 1.0;"/><line style="stroke: #A80036; stroke-width: 1.0; stroke-dasharray: 2.0,2.0;" x1="112" x2="591.5" y1="314.0938" y2="314.0938"/><polygon fill="#A80036" points="297,339.2266,307,343.2266,297,347.2266,301,343.2266" style="stroke: #A80036; stroke-width: 1.0;"/><line style="stroke: #A80036; stroke-width: 1.0;" x1="107" x2="303" y1="343.2266" y2="343.2266"/><text fill="#000000" font-family="sans-serif" font-size="13" lengthAdjust="spacingAndGlyphs" textLength="38" x="114" y="338.1606">Setup</text><polygon fill="#A80036" points="118,353.2266,108,357.2266,118,361.2266,114,357.2266" style="stroke: #A80036; stroke-width: 1.0;"/><line style="stroke: #A80036; stroke-width: 1.0; stroke-dasharray: 2.0,2.0;" x1="112" x2="313" y1="357.2266" y2="357.2266"/><polygon fill="#A80036" points="14,367.2266,4,371.2266,14,375.2266,10,371.2266" style="stroke: #A80036; stroke-width: 1.0;"/><line style="stroke: #A80036; stroke-width: 1.0; stroke-dasharray: 2.0,2.0;" x1="8" x2="101" y1="371.2266" y2="371.2266"/><polygon fill="#A80036" points="85,396.3594,95,400.3594,85,404.3594,89,400.3594" style="stroke: #A80036; stroke-width: 1.0;"/><line style="stroke: #A80036; stroke-width: 1.0;" x1="3" x2="91" y1="400.3594" y2="400.3594"/><text fill="#000000" font-family="sans-serif" font-size="13" lengthAdjust="spacingAndGlyphs" textLength="63" x="10" y="395.2935">RunGame</text><polygon fill="#A80036" points="297,425.4922,307,429.4922,297,433.4922,301,429.4922" style="stroke: #A80036; stroke-width: 1.0;"/><line style="stroke: #A80036; stroke-width: 1.0;" x1="107" x2="303" y1="429.4922" y2="429.4922"/><text fill="#000000" font-family="sans-serif" font-size="13" lengthAdjust="spacingAndGlyphs" textLength="183" x="114" y="424.4263">gameObject.SetActive(false)</text><polygon fill="#A80036" points="118,439.4922,108,443.4922,118,447.4922,114,443.4922" style="stroke: #A80036; stroke-width: 1.0;"/><line style="stroke: #A80036; stroke-width: 1.0; stroke-dasharray: 2.0,2.0;" x1="112" x2="313" y1="443.4922" y2="443.4922"/><polygon fill="#A80036" points="434.5,468.625,444.5,472.625,434.5,476.625,438.5,472.625" style="stroke: #A80036; stroke-width: 1.0;"/><line style="stroke: #A80036; stroke-width: 1.0;" x1="107" x2="440.5" y1="472.625" y2="472.625"/><text fill="#000000" font-family="sans-serif" font-size="13" lengthAdjust="spacingAndGlyphs" textLength="179" x="114" y="467.5591">gameObject.SetActive(true)</text><polygon fill="#A80036" points="118,482.625,108,486.625,118,490.625,114,486.625" style="stroke: #A80036; stroke-width: 1.0;"/><line style="stroke: #A80036; stroke-width: 1.0; stroke-dasharray: 2.0,2.0;" x1="112" x2="450.5" y1="486.625" y2="486.625"/><polygon fill="#A80036" points="575.5,511.7578,585.5,515.7578,575.5,519.7578,579.5,515.7578" style="stroke: #A80036; stroke-width: 1.0;"/><line style="stroke: #A80036; stroke-width: 1.0;" x1="107" x2="581.5" y1="515.7578" y2="515.7578"/><text fill="#000000" font-family="sans-serif" font-size="13" lengthAdjust="spacingAndGlyphs" textLength="183" x="114" y="510.6919">gameObject.SetActive(false)</text><polygon fill="#A80036" points="118,525.7578,108,529.7578,118,533.7578,114,529.7578" style="stroke: #A80036; stroke-width: 1.0;"/><line style="stroke: #A80036; stroke-width: 1.0; stroke-dasharray: 2.0,2.0;" x1="112" x2="591.5" y1="529.7578" y2="529.7578"/><polygon fill="#A80036" points="434.5,554.8906,444.5,558.8906,434.5,562.8906,438.5,558.8906" style="stroke: #A80036; stroke-width: 1.0;"/><line style="stroke: #A80036; stroke-width: 1.0;" x1="107" x2="440.5" y1="558.8906" y2="558.8906"/><text fill="#000000" font-family="sans-serif" font-size="13" lengthAdjust="spacingAndGlyphs" textLength="38" x="114" y="553.8247">Setup</text><polygon fill="#A80036" points="118,568.8906,108,572.8906,118,576.8906,114,572.8906" style="stroke: #A80036; stroke-width: 1.0;"/><line style="stroke: #A80036; stroke-width: 1.0; stroke-dasharray: 2.0,2.0;" x1="112" x2="450.5" y1="572.8906" y2="572.8906"/><polygon fill="#A80036" points="14,582.8906,4,586.8906,14,590.8906,10,586.8906" style="stroke: #A80036; stroke-width: 1.0;"/><line style="stroke: #A80036; stroke-width: 1.0; stroke-dasharray: 2.0,2.0;" x1="8" x2="101" y1="586.8906" y2="586.8906"/><polygon fill="#A80036" points="85,612.0234,95,616.0234,85,620.0234,89,616.0234" style="stroke: #A80036; stroke-width: 1.0;"/><line style="stroke: #A80036; stroke-width: 1.0;" x1="3" x2="91" y1="616.0234" y2="616.0234"/><text fill="#000000" font-family="sans-serif" font-size="13" lengthAdjust="spacingAndGlyphs" textLength="75" x="10" y="610.9575">FinishGame</text><polygon fill="#A80036" points="297,641.1563,307,645.1563,297,649.1563,301,645.1563" style="stroke: #A80036; stroke-width: 1.0;"/><line style="stroke: #A80036; stroke-width: 1.0;" x1="107" x2="303" y1="645.1563" y2="645.1563"/><text fill="#000000" font-family="sans-serif" font-size="13" lengthAdjust="spacingAndGlyphs" textLength="183" x="114" y="640.0903">gameObject.SetActive(false)</text><polygon fill="#A80036" points="118,655.1563,108,659.1563,118,663.1563,114,659.1563" style="stroke: #A80036; stroke-width: 1.0;"/><line style="stroke: #A80036; stroke-width: 1.0; stroke-dasharray: 2.0,2.0;" x1="112" x2="313" y1="659.1563" y2="659.1563"/><polygon fill="#A80036" points="434.5,684.2891,444.5,688.2891,434.5,692.2891,438.5,688.2891" style="stroke: #A80036; stroke-width: 1.0;"/><line style="stroke: #A80036; stroke-width: 1.0;" x1="107" x2="440.5" y1="688.2891" y2="688.2891"/><text fill="#000000" font-family="sans-serif" font-size="13" lengthAdjust="spacingAndGlyphs" textLength="183" x="114" y="683.2231">gameObject.SetActive(false)</text><polygon fill="#A80036" points="118,698.2891,108,702.2891,118,706.2891,114,702.2891" style="stroke: #A80036; stroke-width: 1.0;"/><line style="stroke: #A80036; stroke-width: 1.0; stroke-dasharray: 2.0,2.0;" x1="112" x2="450.5" y1="702.2891" y2="702.2891"/><polygon fill="#A80036" points="575.5,727.4219,585.5,731.4219,575.5,735.4219,579.5,731.4219" style="stroke: #A80036; stroke-width: 1.0;"/><line style="stroke: #A80036; stroke-width: 1.0;" x1="107" x2="581.5" y1="731.4219" y2="731.4219"/><text fill="#000000" font-family="sans-serif" font-size="13" lengthAdjust="spacingAndGlyphs" textLength="179" x="114" y="726.356">gameObject.SetActive(true)</text><polygon fill="#A80036" points="118,741.4219,108,745.4219,118,749.4219,114,745.4219" style="stroke: #A80036; stroke-width: 1.0;"/><line style="stroke: #A80036; stroke-width: 1.0; stroke-dasharray: 2.0,2.0;" x1="112" x2="591.5" y1="745.4219" y2="745.4219"/><polygon fill="#A80036" points="575.5,770.5547,585.5,774.5547,575.5,778.5547,579.5,774.5547" style="stroke: #A80036; stroke-width: 1.0;"/><line style="stroke: #A80036; stroke-width: 1.0;" x1="107" x2="581.5" y1="774.5547" y2="774.5547"/><text fill="#000000" font-family="sans-serif" font-size="13" lengthAdjust="spacingAndGlyphs" textLength="38" x="114" y="769.4888">Setup</text><polygon fill="#A80036" points="118,784.5547,108,788.5547,118,792.5547,114,788.5547" style="stroke: #A80036; stroke-width: 1.0;"/><line style="stroke: #A80036; stroke-width: 1.0; stroke-dasharray: 2.0,2.0;" x1="112" x2="591.5" y1="788.5547" y2="788.5547"/><polygon fill="#A80036" points="14,798.5547,4,802.5547,14,806.5547,10,802.5547" style="stroke: #A80036; stroke-width: 1.0;"/><line style="stroke: #A80036; stroke-width: 1.0; stroke-dasharray: 2.0,2.0;" x1="8" x2="101" y1="802.5547" y2="802.5547"/><!--MD5=[6eb3ece5311006092c2436bf6b48d65e]
@startuml

[-> GameController : Start
activate GameController
    GameController -> GameController : BootGame
    activate GameController
    deactivate GameController
[<- - GameController
deactivate GameController

[-> GameController : BootGame
activate GameController
    GameController -> StateGameBoot : gameObject.SetActive(true)
    activate StateGameBoot
        GameController <- - StateGameBoot
    deactivate StateGameBoot
    GameController -> StateGameMain : gameObject.SetActive(false)
    activate StateGameMain
        GameController <- - StateGameMain
    deactivate StateGameMain
    GameController -> StateGameFinish : gameObject.SetActive(false)
    activate StateGameFinish
        GameController <- - StateGameFinish
    deactivate StateGameFinish

    GameController -> StateGameBoot : Setup
    activate StateGameBoot
        GameController <- - StateGameBoot
    deactivate StateGameBoot
[<- - GameController
deactivate GameController

[-> GameController : RunGame
activate GameController
    GameController -> StateGameBoot : gameObject.SetActive(false)
    activate StateGameBoot
        GameController <- - StateGameBoot
    deactivate StateGameBoot
    GameController -> StateGameMain : gameObject.SetActive(true)
    activate StateGameMain
        GameController <- - StateGameMain
    deactivate StateGameMain
    GameController -> StateGameFinish : gameObject.SetActive(false)
    activate StateGameFinish
        GameController <- - StateGameFinish
    deactivate StateGameFinish

    GameController -> StateGameMain : Setup
    activate StateGameMain
        GameController <- - StateGameMain
    deactivate StateGameMain
[<- - GameController
deactivate GameController

[-> GameController : FinishGame
activate GameController
    GameController -> StateGameBoot : gameObject.SetActive(false)
    activate StateGameBoot
        GameController <- - StateGameBoot
    deactivate StateGameBoot
    GameController -> StateGameMain : gameObject.SetActive(false)
    activate StateGameMain
        GameController <- - StateGameMain
    deactivate StateGameMain
    GameController -> StateGameFinish : gameObject.SetActive(true)
    activate StateGameFinish
        GameController <- - StateGameFinish
    deactivate StateGameFinish

    GameController -> StateGameFinish : Setup
    activate StateGameFinish
        GameController <- - StateGameFinish
    deactivate StateGameFinish
[<- - GameController
deactivate GameController

@enduml

PlantUML version 1.2020.02(Sun Mar 01 10:22:07 GMT 2020)
(GPL source distribution)
Java Runtime: OpenJDK Runtime Environment
JVM: OpenJDK 64-Bit Server VM
Java Version: 11.0.9+11-Ubuntu-0ubuntu1
Operating System: Linux
Default Encoding: ANSI_X3.4-1968
Language: en
Country: US
--></g></svg>