<?xml version="1.0" encoding="UTF-8" standalone="no"?><svg xmlns="http://www.w3.org/2000/svg" xmlns:xlink="http://www.w3.org/1999/xlink" contentScriptType="application/ecmascript" contentStyleType="text/css" height="920px" preserveAspectRatio="none" style="width:867px;height:920px;" version="1.1" viewBox="0 0 867 920" width="867px" zoomAndPan="magnify"><defs><filter height="300%" id="f17evnygx94o39" width="300%" x="-1" y="-1"><feGaussianBlur result="blurOut" stdDeviation="2.0"/><feColorMatrix in="blurOut" result="blurOut2" type="matrix" values="0 0 0 0 0 0 0 0 0 0 0 0 0 0 0 0 0 0 .4 0"/><feOffset dx="4.0" dy="4.0" in="blurOut2" result="blurOut3"/><feBlend in="SourceGraphic" in2="blurOut3" mode="normal"/></filter></defs><g><rect fill="#FFFFFF" filter="url(#f17evnygx94o39)" height="201.3984" style="stroke: #A80036; stroke-width: 1.0;" width="10" x="108" y="69.4297"/><rect fill="#FFFFFF" filter="url(#f17evnygx94o39)" height="28" style="stroke: #A80036; stroke-width: 1.0;" width="10" x="113" y="106.5625"/><rect fill="#FFFFFF" filter="url(#f17evnygx94o39)" height="28" style="stroke: #A80036; stroke-width: 1.0;" width="10" x="113" y="178.6953"/><rect fill="#FFFFFF" filter="url(#f17evnygx94o39)" height="86.1328" style="stroke: #A80036; stroke-width: 1.0;" width="10" x="108" y="299.9609"/><rect fill="#FFFFFF" filter="url(#f17evnygx94o39)" height="28" style="stroke: #A80036; stroke-width: 1.0;" width="10" x="113" y="337.0938"/><rect fill="#FFFFFF" filter="url(#f17evnygx94o39)" height="29.1328" style="stroke: #A80036; stroke-width: 1.0;" width="10" x="108" y="415.2266"/><rect fill="#FFFFFF" filter="url(#f17evnygx94o39)" height="230.6641" style="stroke: #A80036; stroke-width: 1.0;" width="10" x="108" y="473.4922"/><rect fill="#FFFFFF" filter="url(#f17evnygx94o39)" height="28" style="stroke: #A80036; stroke-width: 1.0;" width="10" x="113" y="510.625"/><rect fill="#FFFFFF" filter="url(#f17evnygx94o39)" height="129.2656" style="stroke: #A80036; stroke-width: 1.0;" width="10" x="108" y="733.2891"/><rect fill="#FFFFFF" filter="url(#f17evnygx94o39)" height="28" style="stroke: #A80036; stroke-width: 1.0;" width="10" x="113" y="770.4219"/><rect fill="#FFFFFF" filter="url(#f17evnygx94o39)" height="14" style="stroke: #A80036; stroke-width: 1.0;" width="10" x="455" y="242.8281"/><rect fill="#FFFFFF" filter="url(#f17evnygx94o39)" height="72.2656" style="stroke: #A80036; stroke-width: 1.0;" width="10" x="566" y="574.7578"/><rect fill="#FFFFFF" filter="url(#f17evnygx94o39)" height="14" style="stroke: #A80036; stroke-width: 1.0;" width="10" x="678.5" y="603.8906"/><rect fill="#FFFFFF" filter="url(#f17evnygx94o39)" height="14" style="stroke: #A80036; stroke-width: 1.0;" width="10" x="678.5" y="676.1563"/><rect fill="#FFFFFF" filter="url(#f17evnygx94o39)" height="14" style="stroke: #A80036; stroke-width: 1.0;" width="10" x="791.5" y="834.5547"/><line style="stroke: #A80036; stroke-width: 1.0; stroke-dasharray: 5.0,5.0;" x1="112.5" x2="112.5" y1="38.2969" y2="880.5547"/><line style="stroke: #A80036; stroke-width: 1.0; stroke-dasharray: 5.0,5.0;" x1="460" x2="460" y1="38.2969" y2="880.5547"/><line style="stroke: #A80036; stroke-width: 1.0; stroke-dasharray: 5.0,5.0;" x1="571" x2="571" y1="38.2969" y2="880.5547"/><line style="stroke: #A80036; stroke-width: 1.0; stroke-dasharray: 5.0,5.0;" x1="683" x2="683" y1="38.2969" y2="880.5547"/><line style="stroke: #A80036; stroke-width: 1.0; stroke-dasharray: 5.0,5.0;" x1="796" x2="796" y1="38.2969" y2="880.5547"/><rect fill="#FEFECE" filter="url(#f17evnygx94o39)" height="30.2969" style="stroke: #A80036; stroke-width: 1.5;" width="55" x="83.5" y="3"/><text fill="#000000" font-family="sans-serif" font-size="14" lengthAdjust="spacingAndGlyphs" textLength="41" x="90.5" y="22.9951">Player</text><rect fill="#FEFECE" filter="url(#f17evnygx94o39)" height="30.2969" style="stroke: #A80036; stroke-width: 1.5;" width="55" x="83.5" y="879.5547"/><text fill="#000000" font-family="sans-serif" font-size="14" lengthAdjust="spacingAndGlyphs" textLength="41" x="90.5" y="899.5498">Player</text><rect fill="#FEFECE" filter="url(#f17evnygx94o39)" height="30.2969" style="stroke: #A80036; stroke-width: 1.5;" width="46" x="435" y="3"/><text fill="#000000" font-family="sans-serif" font-size="14" lengthAdjust="spacingAndGlyphs" textLength="32" x="442" y="22.9951">Field</text><rect fill="#FEFECE" filter="url(#f17evnygx94o39)" height="30.2969" style="stroke: #A80036; stroke-width: 1.5;" width="46" x="435" y="879.5547"/><text fill="#000000" font-family="sans-serif" font-size="14" lengthAdjust="spacingAndGlyphs" textLength="32" x="442" y="899.5498">Field</text><rect fill="#FEFECE" filter="url(#f17evnygx94o39)" height="30.2969" style="stroke: #A80036; stroke-width: 1.5;" width="122" x="508" y="3"/><text fill="#000000" font-family="sans-serif" font-size="14" lengthAdjust="spacingAndGlyphs" textLength="108" x="515" y="22.9951">MonoBehaviour</text><rect fill="#FEFECE" filter="url(#f17evnygx94o39)" height="30.2969" style="stroke: #A80036; stroke-width: 1.5;" width="122" x="508" y="879.5547"/><text fill="#000000" font-family="sans-serif" font-size="14" lengthAdjust="spacingAndGlyphs" textLength="108" x="515" y="899.5498">MonoBehaviour</text><rect fill="#FEFECE" filter="url(#f17evnygx94o39)" height="30.2969" style="stroke: #A80036; stroke-width: 1.5;" width="75" x="644" y="3"/><text fill="#000000" font-family="sans-serif" font-size="14" lengthAdjust="spacingAndGlyphs" textLength="61" x="651" y="22.9951">BlockSet</text><rect fill="#FEFECE" filter="url(#f17evnygx94o39)" height="30.2969" style="stroke: #A80036; stroke-width: 1.5;" width="75" x="644" y="879.5547"/><text fill="#000000" font-family="sans-serif" font-size="14" lengthAdjust="spacingAndGlyphs" textLength="61" x="651" y="899.5498">BlockSet</text><rect fill="#FEFECE" filter="url(#f17evnygx94o39)" height="30.2969" style="stroke: #A80036; stroke-width: 1.5;" width="123" x="733" y="3"/><text fill="#000000" font-family="sans-serif" font-size="14" lengthAdjust="spacingAndGlyphs" textLength="109" x="740" y="22.9951">StateGameMain</text><rect fill="#FEFECE" filter="url(#f17evnygx94o39)" height="30.2969" style="stroke: #A80036; stroke-width: 1.5;" width="123" x="733" y="879.5547"/><text fill="#000000" font-family="sans-serif" font-size="14" lengthAdjust="spacingAndGlyphs" textLength="109" x="740" y="899.5498">StateGameMain</text><rect fill="#FFFFFF" filter="url(#f17evnygx94o39)" height="201.3984" style="stroke: #A80036; stroke-width: 1.0;" width="10" x="108" y="69.4297"/><rect fill="#FFFFFF" filter="url(#f17evnygx94o39)" height="28" style="stroke: #A80036; stroke-width: 1.0;" width="10" x="113" y="106.5625"/><rect fill="#FFFFFF" filter="url(#f17evnygx94o39)" height="28" style="stroke: #A80036; stroke-width: 1.0;" width="10" x="113" y="178.6953"/><rect fill="#FFFFFF" filter="url(#f17evnygx94o39)" height="86.1328" style="stroke: #A80036; stroke-width: 1.0;" width="10" x="108" y="299.9609"/><rect fill="#FFFFFF" filter="url(#f17evnygx94o39)" height="28" style="stroke: #A80036; stroke-width: 1.0;" width="10" x="113" y="337.0938"/><rect fill="#FFFFFF" filter="url(#f17evnygx94o39)" height="29.1328" style="stroke: #A80036; stroke-width: 1.0;" width="10" x="108" y="415.2266"/><rect fill="#FFFFFF" filter="url(#f17evnygx94o39)" height="230.6641" style="stroke: #A80036; stroke-width: 1.0;" width="10" x="108" y="473.4922"/><rect fill="#FFFFFF" filter="url(#f17evnygx94o39)" height="28" style="stroke: #A80036; stroke-width: 1.0;" width="10" x="113" y="510.625"/><rect fill="#FFFFFF" filter="url(#f17evnygx94o39)" height="129.2656" style="stroke: #A80036; stroke-width: 1.0;" width="10" x="108" y="733.2891"/><rect fill="#FFFFFF" filter="url(#f17evnygx94o39)" height="28" style="stroke: #A80036; stroke-width: 1.0;" width="10" x="113" y="770.4219"/><rect fill="#FFFFFF" filter="url(#f17evnygx94o39)" height="14" style="stroke: #A80036; stroke-width: 1.0;" width="10" x="455" y="242.8281"/><rect fill="#FFFFFF" filter="url(#f17evnygx94o39)" height="72.2656" style="stroke: #A80036; stroke-width: 1.0;" width="10" x="566" y="574.7578"/><rect fill="#FFFFFF" filter="url(#f17evnygx94o39)" height="14" style="stroke: #A80036; stroke-width: 1.0;" width="10" x="678.5" y="603.8906"/><rect fill="#FFFFFF" filter="url(#f17evnygx94o39)" height="14" style="stroke: #A80036; stroke-width: 1.0;" width="10" x="678.5" y="676.1563"/><rect fill="#FFFFFF" filter="url(#f17evnygx94o39)" height="14" style="stroke: #A80036; stroke-width: 1.0;" width="10" x="791.5" y="834.5547"/><polygon fill="#A80036" points="96,65.4297,106,69.4297,96,73.4297,100,69.4297" style="stroke: #A80036; stroke-width: 1.0;"/><line style="stroke: #A80036; stroke-width: 1.0;" x1="3" x2="102" y1="69.4297" y2="69.4297"/><text fill="#000000" font-family="sans-serif" font-size="13" lengthAdjust="spacingAndGlyphs" textLength="38" x="10" y="64.3638">Setup</text><line style="stroke: #A80036; stroke-width: 1.0;" x1="123" x2="165" y1="98.5625" y2="98.5625"/><line style="stroke: #A80036; stroke-width: 1.0;" x1="165" x2="165" y1="98.5625" y2="111.5625"/><line style="stroke: #A80036; stroke-width: 1.0;" x1="124" x2="165" y1="111.5625" y2="111.5625"/><polygon fill="#A80036" points="134,107.5625,124,111.5625,134,115.5625,130,111.5625" style="stroke: #A80036; stroke-width: 1.0;"/><text fill="#000000" font-family="sans-serif" font-size="13" lengthAdjust="spacingAndGlyphs" textLength="143" x="130" y="93.4966">生存フラグを有効にする</text><line style="stroke: #A80036; stroke-width: 1.0;" x1="123" x2="165" y1="170.6953" y2="170.6953"/><line style="stroke: #A80036; stroke-width: 1.0;" x1="165" x2="165" y1="170.6953" y2="183.6953"/><line style="stroke: #A80036; stroke-width: 1.0;" x1="124" x2="165" y1="183.6953" y2="183.6953"/><polygon fill="#A80036" points="134,179.6953,124,183.6953,134,187.6953,130,183.6953" style="stroke: #A80036; stroke-width: 1.0;"/><text fill="#000000" font-family="sans-serif" font-size="13" lengthAdjust="spacingAndGlyphs" textLength="182" x="130" y="165.6294">ブロック群の選択肢を保持する</text><polygon fill="#A80036" points="443,238.8281,453,242.8281,443,246.8281,447,242.8281" style="stroke: #A80036; stroke-width: 1.0;"/><line style="stroke: #A80036; stroke-width: 1.0;" x1="118" x2="449" y1="242.8281" y2="242.8281"/><text fill="#000000" font-family="sans-serif" font-size="13" lengthAdjust="spacingAndGlyphs" textLength="65" x="125" y="237.7622">ResetField</text><polygon fill="#A80036" points="129,252.8281,119,256.8281,129,260.8281,125,256.8281" style="stroke: #A80036; stroke-width: 1.0;"/><line style="stroke: #A80036; stroke-width: 1.0; stroke-dasharray: 2.0,2.0;" x1="123" x2="459" y1="256.8281" y2="256.8281"/><polygon fill="#A80036" points="14,266.8281,4,270.8281,14,274.8281,10,270.8281" style="stroke: #A80036; stroke-width: 1.0;"/><line style="stroke: #A80036; stroke-width: 1.0; stroke-dasharray: 2.0,2.0;" x1="8" x2="112" y1="270.8281" y2="270.8281"/><polygon fill="#A80036" points="96,295.9609,106,299.9609,96,303.9609,100,299.9609" style="stroke: #A80036; stroke-width: 1.0;"/><line style="stroke: #A80036; stroke-width: 1.0;" x1="3" x2="102" y1="299.9609" y2="299.9609"/><text fill="#000000" font-family="sans-serif" font-size="13" lengthAdjust="spacingAndGlyphs" textLength="71" x="10" y="294.895">StartGame</text><line style="stroke: #A80036; stroke-width: 1.0;" x1="123" x2="165" y1="329.0938" y2="329.0938"/><line style="stroke: #A80036; stroke-width: 1.0;" x1="165" x2="165" y1="329.0938" y2="342.0938"/><line style="stroke: #A80036; stroke-width: 1.0;" x1="124" x2="165" y1="342.0938" y2="342.0938"/><polygon fill="#A80036" points="134,338.0938,124,342.0938,134,346.0938,130,342.0938" style="stroke: #A80036; stroke-width: 1.0;"/><text fill="#000000" font-family="sans-serif" font-size="13" lengthAdjust="spacingAndGlyphs" textLength="86" x="130" y="324.0278">PullNextBlock</text><polygon fill="#A80036" points="14,382.0938,4,386.0938,14,390.0938,10,386.0938" style="stroke: #A80036; stroke-width: 1.0;"/><line style="stroke: #A80036; stroke-width: 1.0; stroke-dasharray: 2.0,2.0;" x1="8" x2="112" y1="386.0938" y2="386.0938"/><polygon fill="#A80036" points="96,411.2266,106,415.2266,96,419.2266,100,415.2266" style="stroke: #A80036; stroke-width: 1.0;"/><line style="stroke: #A80036; stroke-width: 1.0;" x1="3" x2="102" y1="415.2266" y2="415.2266"/><text fill="#000000" font-family="sans-serif" font-size="13" lengthAdjust="spacingAndGlyphs" textLength="40" x="10" y="410.1606">IsAlive</text><polygon fill="#A80036" points="14,440.3594,4,444.3594,14,448.3594,10,444.3594" style="stroke: #A80036; stroke-width: 1.0;"/><line style="stroke: #A80036; stroke-width: 1.0; stroke-dasharray: 2.0,2.0;" x1="8" x2="112" y1="444.3594" y2="444.3594"/><text fill="#000000" font-family="sans-serif" font-size="13" lengthAdjust="spacingAndGlyphs" textLength="65" x="20" y="439.2935">生存フラグ</text><polygon fill="#A80036" points="96,469.4922,106,473.4922,96,477.4922,100,473.4922" style="stroke: #A80036; stroke-width: 1.0;"/><line style="stroke: #A80036; stroke-width: 1.0;" x1="3" x2="102" y1="473.4922" y2="473.4922"/><text fill="#000000" font-family="sans-serif" font-size="13" lengthAdjust="spacingAndGlyphs" textLength="86" x="10" y="468.4263">PullNextBlock</text><line style="stroke: #A80036; stroke-width: 1.0;" x1="123" x2="165" y1="502.625" y2="502.625"/><line style="stroke: #A80036; stroke-width: 1.0;" x1="165" x2="165" y1="502.625" y2="515.625"/><line style="stroke: #A80036; stroke-width: 1.0;" x1="124" x2="165" y1="515.625" y2="515.625"/><polygon fill="#A80036" points="134,511.625,124,515.625,134,519.625,130,515.625" style="stroke: #A80036; stroke-width: 1.0;"/><text fill="#000000" font-family="sans-serif" font-size="13" lengthAdjust="spacingAndGlyphs" textLength="323" x="130" y="497.5591">_blockSetOptions からブロックをランダムに選択する</text><polygon fill="#A80036" points="554,570.7578,564,574.7578,554,578.7578,558,574.7578" style="stroke: #A80036; stroke-width: 1.0;"/><line style="stroke: #A80036; stroke-width: 1.0;" x1="118" x2="560" y1="574.7578" y2="574.7578"/><text fill="#000000" font-family="sans-serif" font-size="13" lengthAdjust="spacingAndGlyphs" textLength="68" x="125" y="569.6919">Instantiate</text><polygon fill="#A80036" points="666.5,599.8906,676.5,603.8906,666.5,607.8906,670.5,603.8906" style="stroke: #A80036; stroke-width: 1.0;"/><line style="stroke: #A80036; stroke-width: 1.0;" x1="576" x2="672.5" y1="603.8906" y2="603.8906"/><text fill="#000000" font-family="sans-serif" font-size="13" lengthAdjust="spacingAndGlyphs" textLength="41" x="583" y="598.8247">create</text><polygon fill="#A80036" points="587,613.8906,577,617.8906,587,621.8906,583,617.8906" style="stroke: #A80036; stroke-width: 1.0;"/><line style="stroke: #A80036; stroke-width: 1.0; stroke-dasharray: 2.0,2.0;" x1="581" x2="682.5" y1="617.8906" y2="617.8906"/><polygon fill="#A80036" points="129,643.0234,119,647.0234,129,651.0234,125,647.0234" style="stroke: #A80036; stroke-width: 1.0;"/><line style="stroke: #A80036; stroke-width: 1.0; stroke-dasharray: 2.0,2.0;" x1="123" x2="570" y1="647.0234" y2="647.0234"/><text fill="#000000" font-family="sans-serif" font-size="13" lengthAdjust="spacingAndGlyphs" textLength="424" x="135" y="641.9575">生成されたBlockSet クラスのインスタンスを_currentBlock に保持する</text><polygon fill="#A80036" points="666.5,672.1563,676.5,676.1563,666.5,680.1563,670.5,676.1563" style="stroke: #A80036; stroke-width: 1.0;"/><line style="stroke: #A80036; stroke-width: 1.0;" x1="118" x2="672.5" y1="676.1563" y2="676.1563"/><text fill="#000000" font-family="sans-serif" font-size="13" lengthAdjust="spacingAndGlyphs" textLength="38" x="125" y="671.0903">Setup</text><polygon fill="#A80036" points="129,686.1563,119,690.1563,129,694.1563,125,690.1563" style="stroke: #A80036; stroke-width: 1.0;"/><line style="stroke: #A80036; stroke-width: 1.0; stroke-dasharray: 2.0,2.0;" x1="123" x2="682.5" y1="690.1563" y2="690.1563"/><polygon fill="#A80036" points="14,700.1563,4,704.1563,14,708.1563,10,704.1563" style="stroke: #A80036; stroke-width: 1.0;"/><line style="stroke: #A80036; stroke-width: 1.0; stroke-dasharray: 2.0,2.0;" x1="8" x2="112" y1="704.1563" y2="704.1563"/><polygon fill="#A80036" points="96,729.2891,106,733.2891,96,737.2891,100,733.2891" style="stroke: #A80036; stroke-width: 1.0;"/><line style="stroke: #A80036; stroke-width: 1.0;" x1="3" x2="102" y1="733.2891" y2="733.2891"/><text fill="#000000" font-family="sans-serif" font-size="13" lengthAdjust="spacingAndGlyphs" textLength="44" x="10" y="728.2231">Dead()</text><line style="stroke: #A80036; stroke-width: 1.0;" x1="123" x2="165" y1="762.4219" y2="762.4219"/><line style="stroke: #A80036; stroke-width: 1.0;" x1="165" x2="165" y1="762.4219" y2="775.4219"/><line style="stroke: #A80036; stroke-width: 1.0;" x1="124" x2="165" y1="775.4219" y2="775.4219"/><polygon fill="#A80036" points="134,771.4219,124,775.4219,134,779.4219,130,775.4219" style="stroke: #A80036; stroke-width: 1.0;"/><text fill="#000000" font-family="sans-serif" font-size="13" lengthAdjust="spacingAndGlyphs" textLength="143" x="130" y="757.356">生存フラグを無効にする</text><polygon fill="#A80036" points="779.5,830.5547,789.5,834.5547,779.5,838.5547,783.5,834.5547" style="stroke: #A80036; stroke-width: 1.0;"/><line style="stroke: #A80036; stroke-width: 1.0;" x1="118" x2="785.5" y1="834.5547" y2="834.5547"/><text fill="#000000" font-family="sans-serif" font-size="13" lengthAdjust="spacingAndGlyphs" textLength="108" x="125" y="829.4888">PlayerGameOver</text><polygon fill="#A80036" points="129,844.5547,119,848.5547,129,852.5547,125,848.5547" style="stroke: #A80036; stroke-width: 1.0;"/><line style="stroke: #A80036; stroke-width: 1.0; stroke-dasharray: 2.0,2.0;" x1="123" x2="795.5" y1="848.5547" y2="848.5547"/><polygon fill="#A80036" points="14,858.5547,4,862.5547,14,866.5547,10,862.5547" style="stroke: #A80036; stroke-width: 1.0;"/><line style="stroke: #A80036; stroke-width: 1.0; stroke-dasharray: 2.0,2.0;" x1="8" x2="112" y1="862.5547" y2="862.5547"/><!--MD5=[9a010e57acae4dfe71a0eaff9a74e717]
@startuml

[-> Player : Setup
activate Player
    Player -> Player : 生存フラグを有効にする
    activate Player
    deactivate Player
    Player -> Player : ブロック群の選択肢を保持する
    activate Player
    deactivate Player
    Player -> Field : ResetField
    activate Field
        Player <- - Field
    deactivate Field
    [<- - Player
deactivate Player

[-> Player : StartGame
activate Player
    Player -> Player : PullNextBlock
    activate Player
    deactivate Player
    [<- - Player
deactivate Player

[-> Player : IsAlive
activate Player
    [<- - Player : 生存フラグ
deactivate Player


[-> Player : PullNextBlock
activate Player
    Player -> Player : _blockSetOptions からブロックをランダムに選択する
    activate Player
    deactivate Player
    Player -> MonoBehaviour : Instantiate
    activate MonoBehaviour
        MonoBehaviour -> BlockSet : create
        activate BlockSet
            MonoBehaviour <- - BlockSet
        deactivate BlockSet
        Player <- - MonoBehaviour : 生成されたBlockSet クラスのインスタンスを_currentBlock に保持する
    deactivate MonoBehaviour
    Player -> BlockSet : Setup
    activate BlockSet
        Player <- - BlockSet
    deactivate BlockSet
    [<- - Player
deactivate Player

[-> Player : Dead()
activate Player
    Player -> Player : 生存フラグを無効にする
    activate Player
    deactivate Player
    Player -> StateGameMain : PlayerGameOver
    activate StateGameMain
        Player <- - StateGameMain
    deactivate StateGameMain
    [<- - Player
deactivate Player


@enduml

PlantUML version 1.2020.02(Sun Mar 01 10:22:07 GMT 2020)
(GPL source distribution)
Java Runtime: OpenJDK Runtime Environment
JVM: OpenJDK 64-Bit Server VM
Java Version: 11.0.9+11-Ubuntu-0ubuntu1
Operating System: Linux
Default Encoding: ANSI_X3.4-1968
Language: en
Country: US
--></g></svg>