<?xml version="1.0" encoding="UTF-8" standalone="no"?><svg xmlns="http://www.w3.org/2000/svg" xmlns:xlink="http://www.w3.org/1999/xlink" contentScriptType="application/ecmascript" contentStyleType="text/css" height="1022px" preserveAspectRatio="none" style="width:1011px;height:1022px;" version="1.1" viewBox="0 0 1011 1022" width="1011px" zoomAndPan="magnify"><defs><filter height="300%" id="f1r7tz31v5z1q" width="300%" x="-1" y="-1"><feGaussianBlur result="blurOut" stdDeviation="2.0"/><feColorMatrix in="blurOut" result="blurOut2" type="matrix" values="0 0 0 0 0 0 0 0 0 0 0 0 0 0 0 0 0 0 .4 0"/><feOffset dx="4.0" dy="4.0" in="blurOut2" result="blurOut3"/><feBlend in="SourceGraphic" in2="blurOut3" mode="normal"/></filter></defs><g><rect fill="#FFFFFF" filter="url(#f1r7tz31v5z1q)" height="302.7969" style="stroke: #A80036; stroke-width: 1.0;" width="10" x="108" y="69.4297"/><rect fill="#FFFFFF" filter="url(#f1r7tz31v5z1q)" height="28" style="stroke: #A80036; stroke-width: 1.0;" width="10" x="113" y="106.5625"/><rect fill="#FFFFFF" filter="url(#f1r7tz31v5z1q)" height="28" style="stroke: #A80036; stroke-width: 1.0;" width="10" x="113" y="178.6953"/><rect fill="#FFFFFF" filter="url(#f1r7tz31v5z1q)" height="86.1328" style="stroke: #A80036; stroke-width: 1.0;" width="10" x="108" y="401.3594"/><rect fill="#FFFFFF" filter="url(#f1r7tz31v5z1q)" height="28" style="stroke: #A80036; stroke-width: 1.0;" width="10" x="113" y="438.4922"/><rect fill="#FFFFFF" filter="url(#f1r7tz31v5z1q)" height="29.1328" style="stroke: #A80036; stroke-width: 1.0;" width="10" x="108" y="516.625"/><rect fill="#FFFFFF" filter="url(#f1r7tz31v5z1q)" height="230.6641" style="stroke: #A80036; stroke-width: 1.0;" width="10" x="108" y="574.8906"/><rect fill="#FFFFFF" filter="url(#f1r7tz31v5z1q)" height="28" style="stroke: #A80036; stroke-width: 1.0;" width="10" x="113" y="612.0234"/><rect fill="#FFFFFF" filter="url(#f1r7tz31v5z1q)" height="129.2656" style="stroke: #A80036; stroke-width: 1.0;" width="10" x="108" y="834.6875"/><rect fill="#FFFFFF" filter="url(#f1r7tz31v5z1q)" height="28" style="stroke: #A80036; stroke-width: 1.0;" width="10" x="113" y="871.8203"/><rect fill="#FFFFFF" filter="url(#f1r7tz31v5z1q)" height="72.2656" style="stroke: #A80036; stroke-width: 1.0;" width="10" x="593" y="242.8281"/><rect fill="#FFFFFF" filter="url(#f1r7tz31v5z1q)" height="72.2656" style="stroke: #A80036; stroke-width: 1.0;" width="10" x="593" y="676.1563"/><rect fill="#FFFFFF" filter="url(#f1r7tz31v5z1q)" height="14" style="stroke: #A80036; stroke-width: 1.0;" width="10" x="719.5" y="271.9609"/><rect fill="#FFFFFF" filter="url(#f1r7tz31v5z1q)" height="14" style="stroke: #A80036; stroke-width: 1.0;" width="10" x="719.5" y="344.2266"/><rect fill="#FFFFFF" filter="url(#f1r7tz31v5z1q)" height="14" style="stroke: #A80036; stroke-width: 1.0;" width="10" x="822.5" y="705.2891"/><rect fill="#FFFFFF" filter="url(#f1r7tz31v5z1q)" height="14" style="stroke: #A80036; stroke-width: 1.0;" width="10" x="822.5" y="777.5547"/><rect fill="#FFFFFF" filter="url(#f1r7tz31v5z1q)" height="14" style="stroke: #A80036; stroke-width: 1.0;" width="10" x="935.5" y="935.9531"/><line style="stroke: #A80036; stroke-width: 1.0; stroke-dasharray: 5.0,5.0;" x1="112.5" x2="112.5" y1="38.2969" y2="981.9531"/><line style="stroke: #A80036; stroke-width: 1.0; stroke-dasharray: 5.0,5.0;" x1="598" x2="598" y1="38.2969" y2="981.9531"/><line style="stroke: #A80036; stroke-width: 1.0; stroke-dasharray: 5.0,5.0;" x1="724" x2="724" y1="38.2969" y2="981.9531"/><line style="stroke: #A80036; stroke-width: 1.0; stroke-dasharray: 5.0,5.0;" x1="827" x2="827" y1="38.2969" y2="981.9531"/><line style="stroke: #A80036; stroke-width: 1.0; stroke-dasharray: 5.0,5.0;" x1="940" x2="940" y1="38.2969" y2="981.9531"/><rect fill="#FEFECE" filter="url(#f1r7tz31v5z1q)" height="30.2969" style="stroke: #A80036; stroke-width: 1.5;" width="55" x="83.5" y="3"/><text fill="#000000" font-family="sans-serif" font-size="14" lengthAdjust="spacingAndGlyphs" textLength="41" x="90.5" y="22.9951">Player</text><rect fill="#FEFECE" filter="url(#f1r7tz31v5z1q)" height="30.2969" style="stroke: #A80036; stroke-width: 1.5;" width="55" x="83.5" y="980.9531"/><text fill="#000000" font-family="sans-serif" font-size="14" lengthAdjust="spacingAndGlyphs" textLength="41" x="90.5" y="1000.9482">Player</text><rect fill="#FEFECE" filter="url(#f1r7tz31v5z1q)" height="30.2969" style="stroke: #A80036; stroke-width: 1.5;" width="122" x="535" y="3"/><text fill="#000000" font-family="sans-serif" font-size="14" lengthAdjust="spacingAndGlyphs" textLength="108" x="542" y="22.9951">MonoBehaviour</text><rect fill="#FEFECE" filter="url(#f1r7tz31v5z1q)" height="30.2969" style="stroke: #A80036; stroke-width: 1.5;" width="122" x="535" y="980.9531"/><text fill="#000000" font-family="sans-serif" font-size="14" lengthAdjust="spacingAndGlyphs" textLength="108" x="542" y="1000.9482">MonoBehaviour</text><rect fill="#FEFECE" filter="url(#f1r7tz31v5z1q)" height="30.2969" style="stroke: #A80036; stroke-width: 1.5;" width="103" x="671" y="3"/><text fill="#000000" font-family="sans-serif" font-size="14" lengthAdjust="spacingAndGlyphs" textLength="89" x="678" y="22.9951">AbstractField</text><rect fill="#FEFECE" filter="url(#f1r7tz31v5z1q)" height="30.2969" style="stroke: #A80036; stroke-width: 1.5;" width="103" x="671" y="980.9531"/><text fill="#000000" font-family="sans-serif" font-size="14" lengthAdjust="spacingAndGlyphs" textLength="89" x="678" y="1000.9482">AbstractField</text><rect fill="#FEFECE" filter="url(#f1r7tz31v5z1q)" height="30.2969" style="stroke: #A80036; stroke-width: 1.5;" width="75" x="788" y="3"/><text fill="#000000" font-family="sans-serif" font-size="14" lengthAdjust="spacingAndGlyphs" textLength="61" x="795" y="22.9951">BlockSet</text><rect fill="#FEFECE" filter="url(#f1r7tz31v5z1q)" height="30.2969" style="stroke: #A80036; stroke-width: 1.5;" width="75" x="788" y="980.9531"/><text fill="#000000" font-family="sans-serif" font-size="14" lengthAdjust="spacingAndGlyphs" textLength="61" x="795" y="1000.9482">BlockSet</text><rect fill="#FEFECE" filter="url(#f1r7tz31v5z1q)" height="30.2969" style="stroke: #A80036; stroke-width: 1.5;" width="123" x="877" y="3"/><text fill="#000000" font-family="sans-serif" font-size="14" lengthAdjust="spacingAndGlyphs" textLength="109" x="884" y="22.9951">StateGameMain</text><rect fill="#FEFECE" filter="url(#f1r7tz31v5z1q)" height="30.2969" style="stroke: #A80036; stroke-width: 1.5;" width="123" x="877" y="980.9531"/><text fill="#000000" font-family="sans-serif" font-size="14" lengthAdjust="spacingAndGlyphs" textLength="109" x="884" y="1000.9482">StateGameMain</text><rect fill="#FFFFFF" filter="url(#f1r7tz31v5z1q)" height="302.7969" style="stroke: #A80036; stroke-width: 1.0;" width="10" x="108" y="69.4297"/><rect fill="#FFFFFF" filter="url(#f1r7tz31v5z1q)" height="28" style="stroke: #A80036; stroke-width: 1.0;" width="10" x="113" y="106.5625"/><rect fill="#FFFFFF" filter="url(#f1r7tz31v5z1q)" height="28" style="stroke: #A80036; stroke-width: 1.0;" width="10" x="113" y="178.6953"/><rect fill="#FFFFFF" filter="url(#f1r7tz31v5z1q)" height="86.1328" style="stroke: #A80036; stroke-width: 1.0;" width="10" x="108" y="401.3594"/><rect fill="#FFFFFF" filter="url(#f1r7tz31v5z1q)" height="28" style="stroke: #A80036; stroke-width: 1.0;" width="10" x="113" y="438.4922"/><rect fill="#FFFFFF" filter="url(#f1r7tz31v5z1q)" height="29.1328" style="stroke: #A80036; stroke-width: 1.0;" width="10" x="108" y="516.625"/><rect fill="#FFFFFF" filter="url(#f1r7tz31v5z1q)" height="230.6641" style="stroke: #A80036; stroke-width: 1.0;" width="10" x="108" y="574.8906"/><rect fill="#FFFFFF" filter="url(#f1r7tz31v5z1q)" height="28" style="stroke: #A80036; stroke-width: 1.0;" width="10" x="113" y="612.0234"/><rect fill="#FFFFFF" filter="url(#f1r7tz31v5z1q)" height="129.2656" style="stroke: #A80036; stroke-width: 1.0;" width="10" x="108" y="834.6875"/><rect fill="#FFFFFF" filter="url(#f1r7tz31v5z1q)" height="28" style="stroke: #A80036; stroke-width: 1.0;" width="10" x="113" y="871.8203"/><rect fill="#FFFFFF" filter="url(#f1r7tz31v5z1q)" height="72.2656" style="stroke: #A80036; stroke-width: 1.0;" width="10" x="593" y="242.8281"/><rect fill="#FFFFFF" filter="url(#f1r7tz31v5z1q)" height="72.2656" style="stroke: #A80036; stroke-width: 1.0;" width="10" x="593" y="676.1563"/><rect fill="#FFFFFF" filter="url(#f1r7tz31v5z1q)" height="14" style="stroke: #A80036; stroke-width: 1.0;" width="10" x="719.5" y="271.9609"/><rect fill="#FFFFFF" filter="url(#f1r7tz31v5z1q)" height="14" style="stroke: #A80036; stroke-width: 1.0;" width="10" x="719.5" y="344.2266"/><rect fill="#FFFFFF" filter="url(#f1r7tz31v5z1q)" height="14" style="stroke: #A80036; stroke-width: 1.0;" width="10" x="822.5" y="705.2891"/><rect fill="#FFFFFF" filter="url(#f1r7tz31v5z1q)" height="14" style="stroke: #A80036; stroke-width: 1.0;" width="10" x="822.5" y="777.5547"/><rect fill="#FFFFFF" filter="url(#f1r7tz31v5z1q)" height="14" style="stroke: #A80036; stroke-width: 1.0;" width="10" x="935.5" y="935.9531"/><polygon fill="#A80036" points="96,65.4297,106,69.4297,96,73.4297,100,69.4297" style="stroke: #A80036; stroke-width: 1.0;"/><line style="stroke: #A80036; stroke-width: 1.0;" x1="3" x2="102" y1="69.4297" y2="69.4297"/><text fill="#000000" font-family="sans-serif" font-size="13" lengthAdjust="spacingAndGlyphs" textLength="38" x="10" y="64.3638">Setup</text><line style="stroke: #A80036; stroke-width: 1.0;" x1="123" x2="165" y1="98.5625" y2="98.5625"/><line style="stroke: #A80036; stroke-width: 1.0;" x1="165" x2="165" y1="98.5625" y2="111.5625"/><line style="stroke: #A80036; stroke-width: 1.0;" x1="124" x2="165" y1="111.5625" y2="111.5625"/><polygon fill="#A80036" points="134,107.5625,124,111.5625,134,115.5625,130,111.5625" style="stroke: #A80036; stroke-width: 1.0;"/><text fill="#000000" font-family="sans-serif" font-size="13" lengthAdjust="spacingAndGlyphs" textLength="143" x="130" y="93.4966">生存フラグを有効にする</text><line style="stroke: #A80036; stroke-width: 1.0;" x1="123" x2="165" y1="170.6953" y2="170.6953"/><line style="stroke: #A80036; stroke-width: 1.0;" x1="165" x2="165" y1="170.6953" y2="183.6953"/><line style="stroke: #A80036; stroke-width: 1.0;" x1="124" x2="165" y1="183.6953" y2="183.6953"/><polygon fill="#A80036" points="134,179.6953,124,183.6953,134,187.6953,130,183.6953" style="stroke: #A80036; stroke-width: 1.0;"/><text fill="#000000" font-family="sans-serif" font-size="13" lengthAdjust="spacingAndGlyphs" textLength="182" x="130" y="165.6294">ブロック群の選択肢を保持する</text><polygon fill="#A80036" points="581,238.8281,591,242.8281,581,246.8281,585,242.8281" style="stroke: #A80036; stroke-width: 1.0;"/><line style="stroke: #A80036; stroke-width: 1.0;" x1="118" x2="587" y1="242.8281" y2="242.8281"/><text fill="#000000" font-family="sans-serif" font-size="13" lengthAdjust="spacingAndGlyphs" textLength="68" x="125" y="237.7622">Instantiate</text><polygon fill="#A80036" points="707.5,267.9609,717.5,271.9609,707.5,275.9609,711.5,271.9609" style="stroke: #A80036; stroke-width: 1.0;"/><line style="stroke: #A80036; stroke-width: 1.0;" x1="603" x2="713.5" y1="271.9609" y2="271.9609"/><text fill="#000000" font-family="sans-serif" font-size="13" lengthAdjust="spacingAndGlyphs" textLength="41" x="610" y="266.895">create</text><polygon fill="#A80036" points="614,281.9609,604,285.9609,614,289.9609,610,285.9609" style="stroke: #A80036; stroke-width: 1.0;"/><line style="stroke: #A80036; stroke-width: 1.0; stroke-dasharray: 2.0,2.0;" x1="608" x2="723.5" y1="285.9609" y2="285.9609"/><polygon fill="#A80036" points="129,311.0938,119,315.0938,129,319.0938,125,315.0938" style="stroke: #A80036; stroke-width: 1.0;"/><line style="stroke: #A80036; stroke-width: 1.0; stroke-dasharray: 2.0,2.0;" x1="123" x2="597" y1="315.0938" y2="315.0938"/><text fill="#000000" font-family="sans-serif" font-size="13" lengthAdjust="spacingAndGlyphs" textLength="451" x="135" y="310.0278">生成されたAbstractField クラスのインスタンスを_currentBlock に保持する</text><polygon fill="#A80036" points="707.5,340.2266,717.5,344.2266,707.5,348.2266,711.5,344.2266" style="stroke: #A80036; stroke-width: 1.0;"/><line style="stroke: #A80036; stroke-width: 1.0;" x1="118" x2="713.5" y1="344.2266" y2="344.2266"/><text fill="#000000" font-family="sans-serif" font-size="13" lengthAdjust="spacingAndGlyphs" textLength="65" x="125" y="339.1606">ResetField</text><polygon fill="#A80036" points="129,354.2266,119,358.2266,129,362.2266,125,358.2266" style="stroke: #A80036; stroke-width: 1.0;"/><line style="stroke: #A80036; stroke-width: 1.0; stroke-dasharray: 2.0,2.0;" x1="123" x2="723.5" y1="358.2266" y2="358.2266"/><polygon fill="#A80036" points="14,368.2266,4,372.2266,14,376.2266,10,372.2266" style="stroke: #A80036; stroke-width: 1.0;"/><line style="stroke: #A80036; stroke-width: 1.0; stroke-dasharray: 2.0,2.0;" x1="8" x2="112" y1="372.2266" y2="372.2266"/><polygon fill="#A80036" points="96,397.3594,106,401.3594,96,405.3594,100,401.3594" style="stroke: #A80036; stroke-width: 1.0;"/><line style="stroke: #A80036; stroke-width: 1.0;" x1="3" x2="102" y1="401.3594" y2="401.3594"/><text fill="#000000" font-family="sans-serif" font-size="13" lengthAdjust="spacingAndGlyphs" textLength="71" x="10" y="396.2935">StartGame</text><line style="stroke: #A80036; stroke-width: 1.0;" x1="123" x2="165" y1="430.4922" y2="430.4922"/><line style="stroke: #A80036; stroke-width: 1.0;" x1="165" x2="165" y1="430.4922" y2="443.4922"/><line style="stroke: #A80036; stroke-width: 1.0;" x1="124" x2="165" y1="443.4922" y2="443.4922"/><polygon fill="#A80036" points="134,439.4922,124,443.4922,134,447.4922,130,443.4922" style="stroke: #A80036; stroke-width: 1.0;"/><text fill="#000000" font-family="sans-serif" font-size="13" lengthAdjust="spacingAndGlyphs" textLength="86" x="130" y="425.4263">PullNextBlock</text><polygon fill="#A80036" points="14,483.4922,4,487.4922,14,491.4922,10,487.4922" style="stroke: #A80036; stroke-width: 1.0;"/><line style="stroke: #A80036; stroke-width: 1.0; stroke-dasharray: 2.0,2.0;" x1="8" x2="112" y1="487.4922" y2="487.4922"/><polygon fill="#A80036" points="96,512.625,106,516.625,96,520.625,100,516.625" style="stroke: #A80036; stroke-width: 1.0;"/><line style="stroke: #A80036; stroke-width: 1.0;" x1="3" x2="102" y1="516.625" y2="516.625"/><text fill="#000000" font-family="sans-serif" font-size="13" lengthAdjust="spacingAndGlyphs" textLength="40" x="10" y="511.5591">IsAlive</text><polygon fill="#A80036" points="14,541.7578,4,545.7578,14,549.7578,10,545.7578" style="stroke: #A80036; stroke-width: 1.0;"/><line style="stroke: #A80036; stroke-width: 1.0; stroke-dasharray: 2.0,2.0;" x1="8" x2="112" y1="545.7578" y2="545.7578"/><text fill="#000000" font-family="sans-serif" font-size="13" lengthAdjust="spacingAndGlyphs" textLength="65" x="20" y="540.6919">生存フラグ</text><polygon fill="#A80036" points="96,570.8906,106,574.8906,96,578.8906,100,574.8906" style="stroke: #A80036; stroke-width: 1.0;"/><line style="stroke: #A80036; stroke-width: 1.0;" x1="3" x2="102" y1="574.8906" y2="574.8906"/><text fill="#000000" font-family="sans-serif" font-size="13" lengthAdjust="spacingAndGlyphs" textLength="86" x="10" y="569.8247">PullNextBlock</text><line style="stroke: #A80036; stroke-width: 1.0;" x1="123" x2="165" y1="604.0234" y2="604.0234"/><line style="stroke: #A80036; stroke-width: 1.0;" x1="165" x2="165" y1="604.0234" y2="617.0234"/><line style="stroke: #A80036; stroke-width: 1.0;" x1="124" x2="165" y1="617.0234" y2="617.0234"/><polygon fill="#A80036" points="134,613.0234,124,617.0234,134,621.0234,130,617.0234" style="stroke: #A80036; stroke-width: 1.0;"/><text fill="#000000" font-family="sans-serif" font-size="13" lengthAdjust="spacingAndGlyphs" textLength="323" x="130" y="598.9575">_blockSetOptions からブロックをランダムに選択する</text><polygon fill="#A80036" points="581,672.1563,591,676.1563,581,680.1563,585,676.1563" style="stroke: #A80036; stroke-width: 1.0;"/><line style="stroke: #A80036; stroke-width: 1.0;" x1="118" x2="587" y1="676.1563" y2="676.1563"/><text fill="#000000" font-family="sans-serif" font-size="13" lengthAdjust="spacingAndGlyphs" textLength="68" x="125" y="671.0903">Instantiate</text><polygon fill="#A80036" points="810.5,701.2891,820.5,705.2891,810.5,709.2891,814.5,705.2891" style="stroke: #A80036; stroke-width: 1.0;"/><line style="stroke: #A80036; stroke-width: 1.0;" x1="603" x2="816.5" y1="705.2891" y2="705.2891"/><text fill="#000000" font-family="sans-serif" font-size="13" lengthAdjust="spacingAndGlyphs" textLength="41" x="610" y="700.2231">create</text><polygon fill="#A80036" points="614,715.2891,604,719.2891,614,723.2891,610,719.2891" style="stroke: #A80036; stroke-width: 1.0;"/><line style="stroke: #A80036; stroke-width: 1.0; stroke-dasharray: 2.0,2.0;" x1="608" x2="826.5" y1="719.2891" y2="719.2891"/><polygon fill="#A80036" points="129,744.4219,119,748.4219,129,752.4219,125,748.4219" style="stroke: #A80036; stroke-width: 1.0;"/><line style="stroke: #A80036; stroke-width: 1.0; stroke-dasharray: 2.0,2.0;" x1="123" x2="597" y1="748.4219" y2="748.4219"/><text fill="#000000" font-family="sans-serif" font-size="13" lengthAdjust="spacingAndGlyphs" textLength="424" x="135" y="743.356">生成されたBlockSet クラスのインスタンスを_currentBlock に保持する</text><polygon fill="#A80036" points="810.5,773.5547,820.5,777.5547,810.5,781.5547,814.5,777.5547" style="stroke: #A80036; stroke-width: 1.0;"/><line style="stroke: #A80036; stroke-width: 1.0;" x1="118" x2="816.5" y1="777.5547" y2="777.5547"/><text fill="#000000" font-family="sans-serif" font-size="13" lengthAdjust="spacingAndGlyphs" textLength="38" x="125" y="772.4888">Setup</text><polygon fill="#A80036" points="129,787.5547,119,791.5547,129,795.5547,125,791.5547" style="stroke: #A80036; stroke-width: 1.0;"/><line style="stroke: #A80036; stroke-width: 1.0; stroke-dasharray: 2.0,2.0;" x1="123" x2="826.5" y1="791.5547" y2="791.5547"/><polygon fill="#A80036" points="14,801.5547,4,805.5547,14,809.5547,10,805.5547" style="stroke: #A80036; stroke-width: 1.0;"/><line style="stroke: #A80036; stroke-width: 1.0; stroke-dasharray: 2.0,2.0;" x1="8" x2="112" y1="805.5547" y2="805.5547"/><polygon fill="#A80036" points="96,830.6875,106,834.6875,96,838.6875,100,834.6875" style="stroke: #A80036; stroke-width: 1.0;"/><line style="stroke: #A80036; stroke-width: 1.0;" x1="3" x2="102" y1="834.6875" y2="834.6875"/><text fill="#000000" font-family="sans-serif" font-size="13" lengthAdjust="spacingAndGlyphs" textLength="44" x="10" y="829.6216">Dead()</text><line style="stroke: #A80036; stroke-width: 1.0;" x1="123" x2="165" y1="863.8203" y2="863.8203"/><line style="stroke: #A80036; stroke-width: 1.0;" x1="165" x2="165" y1="863.8203" y2="876.8203"/><line style="stroke: #A80036; stroke-width: 1.0;" x1="124" x2="165" y1="876.8203" y2="876.8203"/><polygon fill="#A80036" points="134,872.8203,124,876.8203,134,880.8203,130,876.8203" style="stroke: #A80036; stroke-width: 1.0;"/><text fill="#000000" font-family="sans-serif" font-size="13" lengthAdjust="spacingAndGlyphs" textLength="143" x="130" y="858.7544">生存フラグを無効にする</text><polygon fill="#A80036" points="923.5,931.9531,933.5,935.9531,923.5,939.9531,927.5,935.9531" style="stroke: #A80036; stroke-width: 1.0;"/><line style="stroke: #A80036; stroke-width: 1.0;" x1="118" x2="929.5" y1="935.9531" y2="935.9531"/><text fill="#000000" font-family="sans-serif" font-size="13" lengthAdjust="spacingAndGlyphs" textLength="108" x="125" y="930.8872">PlayerGameOver</text><polygon fill="#A80036" points="129,945.9531,119,949.9531,129,953.9531,125,949.9531" style="stroke: #A80036; stroke-width: 1.0;"/><line style="stroke: #A80036; stroke-width: 1.0; stroke-dasharray: 2.0,2.0;" x1="123" x2="939.5" y1="949.9531" y2="949.9531"/><polygon fill="#A80036" points="14,959.9531,4,963.9531,14,967.9531,10,963.9531" style="stroke: #A80036; stroke-width: 1.0;"/><line style="stroke: #A80036; stroke-width: 1.0; stroke-dasharray: 2.0,2.0;" x1="8" x2="112" y1="963.9531" y2="963.9531"/><!--MD5=[c2315e24eb131494b726939391be3862]
@startuml

[-> Player : Setup
activate Player
    Player -> Player : 生存フラグを有効にする
    activate Player
    deactivate Player
    Player -> Player : ブロック群の選択肢を保持する
    activate Player
    deactivate Player
    Player -> MonoBehaviour : Instantiate
    activate MonoBehaviour
        MonoBehaviour -> AbstractField : create
        activate AbstractField
            MonoBehaviour <- - AbstractField
        deactivate AbstractField
        Player <- - MonoBehaviour : 生成されたAbstractField クラスのインスタンスを_currentBlock に保持する
    deactivate MonoBehaviour
    Player -> AbstractField : ResetField
    activate AbstractField
        Player <- - AbstractField
    deactivate AbstractField
    [<- - Player
deactivate Player

[-> Player : StartGame
activate Player
    Player -> Player : PullNextBlock
    activate Player
    deactivate Player
    [<- - Player
deactivate Player

[-> Player : IsAlive
activate Player
    [<- - Player : 生存フラグ
deactivate Player


[-> Player : PullNextBlock
activate Player
    Player -> Player : _blockSetOptions からブロックをランダムに選択する
    activate Player
    deactivate Player
    Player -> MonoBehaviour : Instantiate
    activate MonoBehaviour
        MonoBehaviour -> BlockSet : create
        activate BlockSet
            MonoBehaviour <- - BlockSet
        deactivate BlockSet
        Player <- - MonoBehaviour : 生成されたBlockSet クラスのインスタンスを_currentBlock に保持する
    deactivate MonoBehaviour
    Player -> BlockSet : Setup
    activate BlockSet
        Player <- - BlockSet
    deactivate BlockSet
    [<- - Player
deactivate Player

[-> Player : Dead()
activate Player
    Player -> Player : 生存フラグを無効にする
    activate Player
    deactivate Player
    Player -> StateGameMain : PlayerGameOver
    activate StateGameMain
        Player <- - StateGameMain
    deactivate StateGameMain
    [<- - Player
deactivate Player


@enduml

PlantUML version 1.2020.02(Sun Mar 01 10:22:07 GMT 2020)
(GPL source distribution)
Java Runtime: OpenJDK Runtime Environment
JVM: OpenJDK 64-Bit Server VM
Java Version: 11.0.9+11-Ubuntu-0ubuntu1
Operating System: Linux
Default Encoding: ANSI_X3.4-1968
Language: en
Country: US
--></g></svg>