<?xml version="1.0" encoding="UTF-8" standalone="no"?><svg xmlns="http://www.w3.org/2000/svg" xmlns:xlink="http://www.w3.org/1999/xlink" contentScriptType="application/ecmascript" contentStyleType="text/css" height="1151px" preserveAspectRatio="none" style="width:1245px;height:1151px;" version="1.1" viewBox="0 0 1245 1151" width="1245px" zoomAndPan="magnify"><defs><filter height="300%" id="fq0cxhukrfkcz" width="300%" x="-1" y="-1"><feGaussianBlur result="blurOut" stdDeviation="2.0"/><feColorMatrix in="blurOut" result="blurOut2" type="matrix" values="0 0 0 0 0 0 0 0 0 0 0 0 0 0 0 0 0 0 .4 0"/><feOffset dx="4.0" dy="4.0" in="blurOut2" result="blurOut3"/><feBlend in="SourceGraphic" in2="blurOut3" mode="normal"/></filter></defs><g><rect fill="#FFFFFF" filter="url(#fq0cxhukrfkcz)" height="302.7969" style="stroke: #A80036; stroke-width: 1.0;" width="10" x="178" y="69.4297"/><rect fill="#FFFFFF" filter="url(#fq0cxhukrfkcz)" height="28" style="stroke: #A80036; stroke-width: 1.0;" width="10" x="183" y="106.5625"/><rect fill="#FFFFFF" filter="url(#fq0cxhukrfkcz)" height="28" style="stroke: #A80036; stroke-width: 1.0;" width="10" x="183" y="178.6953"/><rect fill="#FFFFFF" filter="url(#fq0cxhukrfkcz)" height="86.1328" style="stroke: #A80036; stroke-width: 1.0;" width="10" x="178" y="401.3594"/><rect fill="#FFFFFF" filter="url(#fq0cxhukrfkcz)" height="28" style="stroke: #A80036; stroke-width: 1.0;" width="10" x="183" y="438.4922"/><rect fill="#FFFFFF" filter="url(#fq0cxhukrfkcz)" height="29.1328" style="stroke: #A80036; stroke-width: 1.0;" width="10" x="178" y="516.625"/><rect fill="#FFFFFF" filter="url(#fq0cxhukrfkcz)" height="100.2656" style="stroke: #A80036; stroke-width: 1.0;" width="10" x="178" y="574.8906"/><rect fill="#FFFFFF" filter="url(#fq0cxhukrfkcz)" height="230.6641" style="stroke: #A80036; stroke-width: 1.0;" width="10" x="178" y="704.2891"/><rect fill="#FFFFFF" filter="url(#fq0cxhukrfkcz)" height="28" style="stroke: #A80036; stroke-width: 1.0;" width="10" x="183" y="741.4219"/><rect fill="#FFFFFF" filter="url(#fq0cxhukrfkcz)" height="129.2656" style="stroke: #A80036; stroke-width: 1.0;" width="10" x="178" y="964.0859"/><rect fill="#FFFFFF" filter="url(#fq0cxhukrfkcz)" height="28" style="stroke: #A80036; stroke-width: 1.0;" width="10" x="183" y="1001.2188"/><rect fill="#FFFFFF" filter="url(#fq0cxhukrfkcz)" height="72.2656" style="stroke: #A80036; stroke-width: 1.0;" width="10" x="663" y="242.8281"/><rect fill="#FFFFFF" filter="url(#fq0cxhukrfkcz)" height="72.2656" style="stroke: #A80036; stroke-width: 1.0;" width="10" x="663" y="805.5547"/><rect fill="#FFFFFF" filter="url(#fq0cxhukrfkcz)" height="14" style="stroke: #A80036; stroke-width: 1.0;" width="10" x="789.5" y="271.9609"/><rect fill="#FFFFFF" filter="url(#fq0cxhukrfkcz)" height="14" style="stroke: #A80036; stroke-width: 1.0;" width="10" x="789.5" y="344.2266"/><rect fill="#FFFFFF" filter="url(#fq0cxhukrfkcz)" height="57.1328" style="stroke: #A80036; stroke-width: 1.0;" width="10" x="905" y="604.0234"/><rect fill="#FFFFFF" filter="url(#fq0cxhukrfkcz)" height="14" style="stroke: #A80036; stroke-width: 1.0;" width="10" x="1057" y="633.1563"/><rect fill="#FFFFFF" filter="url(#fq0cxhukrfkcz)" height="14" style="stroke: #A80036; stroke-width: 1.0;" width="10" x="1057" y="834.6875"/><rect fill="#FFFFFF" filter="url(#fq0cxhukrfkcz)" height="14" style="stroke: #A80036; stroke-width: 1.0;" width="10" x="1057" y="906.9531"/><rect fill="#FFFFFF" filter="url(#fq0cxhukrfkcz)" height="14" style="stroke: #A80036; stroke-width: 1.0;" width="10" x="1170" y="1065.3516"/><line style="stroke: #A80036; stroke-width: 1.0; stroke-dasharray: 5.0,5.0;" x1="182.5" x2="182.5" y1="38.2969" y2="1111.3516"/><line style="stroke: #A80036; stroke-width: 1.0; stroke-dasharray: 5.0,5.0;" x1="668" x2="668" y1="38.2969" y2="1111.3516"/><line style="stroke: #A80036; stroke-width: 1.0; stroke-dasharray: 5.0,5.0;" x1="794" x2="794" y1="38.2969" y2="1111.3516"/><line style="stroke: #A80036; stroke-width: 1.0; stroke-dasharray: 5.0,5.0;" x1="910" x2="910" y1="38.2969" y2="1111.3516"/><line style="stroke: #A80036; stroke-width: 1.0; stroke-dasharray: 5.0,5.0;" x1="1061.5" x2="1061.5" y1="38.2969" y2="1111.3516"/><line style="stroke: #A80036; stroke-width: 1.0; stroke-dasharray: 5.0,5.0;" x1="1174.5" x2="1174.5" y1="38.2969" y2="1111.3516"/><rect fill="#FEFECE" filter="url(#fq0cxhukrfkcz)" height="30.2969" style="stroke: #A80036; stroke-width: 1.5;" width="55" x="153.5" y="3"/><text fill="#000000" font-family="sans-serif" font-size="14" lengthAdjust="spacingAndGlyphs" textLength="41" x="160.5" y="22.9951">Player</text><rect fill="#FEFECE" filter="url(#fq0cxhukrfkcz)" height="30.2969" style="stroke: #A80036; stroke-width: 1.5;" width="55" x="153.5" y="1110.3516"/><text fill="#000000" font-family="sans-serif" font-size="14" lengthAdjust="spacingAndGlyphs" textLength="41" x="160.5" y="1130.3467">Player</text><rect fill="#FEFECE" filter="url(#fq0cxhukrfkcz)" height="30.2969" style="stroke: #A80036; stroke-width: 1.5;" width="122" x="605" y="3"/><text fill="#000000" font-family="sans-serif" font-size="14" lengthAdjust="spacingAndGlyphs" textLength="108" x="612" y="22.9951">MonoBehaviour</text><rect fill="#FEFECE" filter="url(#fq0cxhukrfkcz)" height="30.2969" style="stroke: #A80036; stroke-width: 1.5;" width="122" x="605" y="1110.3516"/><text fill="#000000" font-family="sans-serif" font-size="14" lengthAdjust="spacingAndGlyphs" textLength="108" x="612" y="1130.3467">MonoBehaviour</text><rect fill="#FEFECE" filter="url(#fq0cxhukrfkcz)" height="30.2969" style="stroke: #A80036; stroke-width: 1.5;" width="103" x="741" y="3"/><text fill="#000000" font-family="sans-serif" font-size="14" lengthAdjust="spacingAndGlyphs" textLength="89" x="748" y="22.9951">AbstractField</text><rect fill="#FEFECE" filter="url(#fq0cxhukrfkcz)" height="30.2969" style="stroke: #A80036; stroke-width: 1.5;" width="103" x="741" y="1110.3516"/><text fill="#000000" font-family="sans-serif" font-size="14" lengthAdjust="spacingAndGlyphs" textLength="89" x="748" y="1130.3467">AbstractField</text><rect fill="#FEFECE" filter="url(#fq0cxhukrfkcz)" height="30.2969" style="stroke: #A80036; stroke-width: 1.5;" width="100" x="858" y="3"/><text fill="#000000" font-family="sans-serif" font-size="14" lengthAdjust="spacingAndGlyphs" textLength="86" x="865" y="22.9951">GameObject</text><rect fill="#FEFECE" filter="url(#fq0cxhukrfkcz)" height="30.2969" style="stroke: #A80036; stroke-width: 1.5;" width="100" x="858" y="1110.3516"/><text fill="#000000" font-family="sans-serif" font-size="14" lengthAdjust="spacingAndGlyphs" textLength="86" x="865" y="1130.3467">GameObject</text><rect fill="#FEFECE" filter="url(#fq0cxhukrfkcz)" height="30.2969" style="stroke: #A80036; stroke-width: 1.5;" width="75" x="1022.5" y="3"/><text fill="#000000" font-family="sans-serif" font-size="14" lengthAdjust="spacingAndGlyphs" textLength="61" x="1029.5" y="22.9951">BlockSet</text><rect fill="#FEFECE" filter="url(#fq0cxhukrfkcz)" height="30.2969" style="stroke: #A80036; stroke-width: 1.5;" width="75" x="1022.5" y="1110.3516"/><text fill="#000000" font-family="sans-serif" font-size="14" lengthAdjust="spacingAndGlyphs" textLength="61" x="1029.5" y="1130.3467">BlockSet</text><rect fill="#FEFECE" filter="url(#fq0cxhukrfkcz)" height="30.2969" style="stroke: #A80036; stroke-width: 1.5;" width="123" x="1111.5" y="3"/><text fill="#000000" font-family="sans-serif" font-size="14" lengthAdjust="spacingAndGlyphs" textLength="109" x="1118.5" y="22.9951">StateGameMain</text><rect fill="#FEFECE" filter="url(#fq0cxhukrfkcz)" height="30.2969" style="stroke: #A80036; stroke-width: 1.5;" width="123" x="1111.5" y="1110.3516"/><text fill="#000000" font-family="sans-serif" font-size="14" lengthAdjust="spacingAndGlyphs" textLength="109" x="1118.5" y="1130.3467">StateGameMain</text><rect fill="#FFFFFF" filter="url(#fq0cxhukrfkcz)" height="302.7969" style="stroke: #A80036; stroke-width: 1.0;" width="10" x="178" y="69.4297"/><rect fill="#FFFFFF" filter="url(#fq0cxhukrfkcz)" height="28" style="stroke: #A80036; stroke-width: 1.0;" width="10" x="183" y="106.5625"/><rect fill="#FFFFFF" filter="url(#fq0cxhukrfkcz)" height="28" style="stroke: #A80036; stroke-width: 1.0;" width="10" x="183" y="178.6953"/><rect fill="#FFFFFF" filter="url(#fq0cxhukrfkcz)" height="86.1328" style="stroke: #A80036; stroke-width: 1.0;" width="10" x="178" y="401.3594"/><rect fill="#FFFFFF" filter="url(#fq0cxhukrfkcz)" height="28" style="stroke: #A80036; stroke-width: 1.0;" width="10" x="183" y="438.4922"/><rect fill="#FFFFFF" filter="url(#fq0cxhukrfkcz)" height="29.1328" style="stroke: #A80036; stroke-width: 1.0;" width="10" x="178" y="516.625"/><rect fill="#FFFFFF" filter="url(#fq0cxhukrfkcz)" height="100.2656" style="stroke: #A80036; stroke-width: 1.0;" width="10" x="178" y="574.8906"/><rect fill="#FFFFFF" filter="url(#fq0cxhukrfkcz)" height="230.6641" style="stroke: #A80036; stroke-width: 1.0;" width="10" x="178" y="704.2891"/><rect fill="#FFFFFF" filter="url(#fq0cxhukrfkcz)" height="28" style="stroke: #A80036; stroke-width: 1.0;" width="10" x="183" y="741.4219"/><rect fill="#FFFFFF" filter="url(#fq0cxhukrfkcz)" height="129.2656" style="stroke: #A80036; stroke-width: 1.0;" width="10" x="178" y="964.0859"/><rect fill="#FFFFFF" filter="url(#fq0cxhukrfkcz)" height="28" style="stroke: #A80036; stroke-width: 1.0;" width="10" x="183" y="1001.2188"/><rect fill="#FFFFFF" filter="url(#fq0cxhukrfkcz)" height="72.2656" style="stroke: #A80036; stroke-width: 1.0;" width="10" x="663" y="242.8281"/><rect fill="#FFFFFF" filter="url(#fq0cxhukrfkcz)" height="72.2656" style="stroke: #A80036; stroke-width: 1.0;" width="10" x="663" y="805.5547"/><rect fill="#FFFFFF" filter="url(#fq0cxhukrfkcz)" height="14" style="stroke: #A80036; stroke-width: 1.0;" width="10" x="789.5" y="271.9609"/><rect fill="#FFFFFF" filter="url(#fq0cxhukrfkcz)" height="14" style="stroke: #A80036; stroke-width: 1.0;" width="10" x="789.5" y="344.2266"/><rect fill="#FFFFFF" filter="url(#fq0cxhukrfkcz)" height="57.1328" style="stroke: #A80036; stroke-width: 1.0;" width="10" x="905" y="604.0234"/><rect fill="#FFFFFF" filter="url(#fq0cxhukrfkcz)" height="14" style="stroke: #A80036; stroke-width: 1.0;" width="10" x="1057" y="633.1563"/><rect fill="#FFFFFF" filter="url(#fq0cxhukrfkcz)" height="14" style="stroke: #A80036; stroke-width: 1.0;" width="10" x="1057" y="834.6875"/><rect fill="#FFFFFF" filter="url(#fq0cxhukrfkcz)" height="14" style="stroke: #A80036; stroke-width: 1.0;" width="10" x="1057" y="906.9531"/><rect fill="#FFFFFF" filter="url(#fq0cxhukrfkcz)" height="14" style="stroke: #A80036; stroke-width: 1.0;" width="10" x="1170" y="1065.3516"/><polygon fill="#A80036" points="166,65.4297,176,69.4297,166,73.4297,170,69.4297" style="stroke: #A80036; stroke-width: 1.0;"/><line style="stroke: #A80036; stroke-width: 1.0;" x1="3" x2="172" y1="69.4297" y2="69.4297"/><text fill="#000000" font-family="sans-serif" font-size="13" lengthAdjust="spacingAndGlyphs" textLength="38" x="10" y="64.3638">Setup</text><line style="stroke: #A80036; stroke-width: 1.0;" x1="193" x2="235" y1="98.5625" y2="98.5625"/><line style="stroke: #A80036; stroke-width: 1.0;" x1="235" x2="235" y1="98.5625" y2="111.5625"/><line style="stroke: #A80036; stroke-width: 1.0;" x1="194" x2="235" y1="111.5625" y2="111.5625"/><polygon fill="#A80036" points="204,107.5625,194,111.5625,204,115.5625,200,111.5625" style="stroke: #A80036; stroke-width: 1.0;"/><text fill="#000000" font-family="sans-serif" font-size="13" lengthAdjust="spacingAndGlyphs" textLength="143" x="200" y="93.4966">生存フラグを有効にする</text><line style="stroke: #A80036; stroke-width: 1.0;" x1="193" x2="235" y1="170.6953" y2="170.6953"/><line style="stroke: #A80036; stroke-width: 1.0;" x1="235" x2="235" y1="170.6953" y2="183.6953"/><line style="stroke: #A80036; stroke-width: 1.0;" x1="194" x2="235" y1="183.6953" y2="183.6953"/><polygon fill="#A80036" points="204,179.6953,194,183.6953,204,187.6953,200,183.6953" style="stroke: #A80036; stroke-width: 1.0;"/><text fill="#000000" font-family="sans-serif" font-size="13" lengthAdjust="spacingAndGlyphs" textLength="182" x="200" y="165.6294">ブロック群の選択肢を保持する</text><polygon fill="#A80036" points="651,238.8281,661,242.8281,651,246.8281,655,242.8281" style="stroke: #A80036; stroke-width: 1.0;"/><line style="stroke: #A80036; stroke-width: 1.0;" x1="188" x2="657" y1="242.8281" y2="242.8281"/><text fill="#000000" font-family="sans-serif" font-size="13" lengthAdjust="spacingAndGlyphs" textLength="68" x="195" y="237.7622">Instantiate</text><polygon fill="#A80036" points="777.5,267.9609,787.5,271.9609,777.5,275.9609,781.5,271.9609" style="stroke: #A80036; stroke-width: 1.0;"/><line style="stroke: #A80036; stroke-width: 1.0;" x1="673" x2="783.5" y1="271.9609" y2="271.9609"/><text fill="#000000" font-family="sans-serif" font-size="13" lengthAdjust="spacingAndGlyphs" textLength="41" x="680" y="266.895">create</text><polygon fill="#A80036" points="684,281.9609,674,285.9609,684,289.9609,680,285.9609" style="stroke: #A80036; stroke-width: 1.0;"/><line style="stroke: #A80036; stroke-width: 1.0; stroke-dasharray: 2.0,2.0;" x1="678" x2="793.5" y1="285.9609" y2="285.9609"/><polygon fill="#A80036" points="199,311.0938,189,315.0938,199,319.0938,195,315.0938" style="stroke: #A80036; stroke-width: 1.0;"/><line style="stroke: #A80036; stroke-width: 1.0; stroke-dasharray: 2.0,2.0;" x1="193" x2="667" y1="315.0938" y2="315.0938"/><text fill="#000000" font-family="sans-serif" font-size="13" lengthAdjust="spacingAndGlyphs" textLength="451" x="205" y="310.0278">生成されたAbstractField クラスのインスタンスを_currentBlock に保持する</text><polygon fill="#A80036" points="777.5,340.2266,787.5,344.2266,777.5,348.2266,781.5,344.2266" style="stroke: #A80036; stroke-width: 1.0;"/><line style="stroke: #A80036; stroke-width: 1.0;" x1="188" x2="783.5" y1="344.2266" y2="344.2266"/><text fill="#000000" font-family="sans-serif" font-size="13" lengthAdjust="spacingAndGlyphs" textLength="65" x="195" y="339.1606">ResetField</text><polygon fill="#A80036" points="199,354.2266,189,358.2266,199,362.2266,195,358.2266" style="stroke: #A80036; stroke-width: 1.0;"/><line style="stroke: #A80036; stroke-width: 1.0; stroke-dasharray: 2.0,2.0;" x1="193" x2="793.5" y1="358.2266" y2="358.2266"/><polygon fill="#A80036" points="14,368.2266,4,372.2266,14,376.2266,10,372.2266" style="stroke: #A80036; stroke-width: 1.0;"/><line style="stroke: #A80036; stroke-width: 1.0; stroke-dasharray: 2.0,2.0;" x1="8" x2="182" y1="372.2266" y2="372.2266"/><polygon fill="#A80036" points="166,397.3594,176,401.3594,166,405.3594,170,401.3594" style="stroke: #A80036; stroke-width: 1.0;"/><line style="stroke: #A80036; stroke-width: 1.0;" x1="3" x2="172" y1="401.3594" y2="401.3594"/><text fill="#000000" font-family="sans-serif" font-size="13" lengthAdjust="spacingAndGlyphs" textLength="71" x="10" y="396.2935">StartGame</text><line style="stroke: #A80036; stroke-width: 1.0;" x1="193" x2="235" y1="430.4922" y2="430.4922"/><line style="stroke: #A80036; stroke-width: 1.0;" x1="235" x2="235" y1="430.4922" y2="443.4922"/><line style="stroke: #A80036; stroke-width: 1.0;" x1="194" x2="235" y1="443.4922" y2="443.4922"/><polygon fill="#A80036" points="204,439.4922,194,443.4922,204,447.4922,200,443.4922" style="stroke: #A80036; stroke-width: 1.0;"/><text fill="#000000" font-family="sans-serif" font-size="13" lengthAdjust="spacingAndGlyphs" textLength="86" x="200" y="425.4263">PullNextBlock</text><polygon fill="#A80036" points="14,483.4922,4,487.4922,14,491.4922,10,487.4922" style="stroke: #A80036; stroke-width: 1.0;"/><line style="stroke: #A80036; stroke-width: 1.0; stroke-dasharray: 2.0,2.0;" x1="8" x2="182" y1="487.4922" y2="487.4922"/><polygon fill="#A80036" points="166,512.625,176,516.625,166,520.625,170,516.625" style="stroke: #A80036; stroke-width: 1.0;"/><line style="stroke: #A80036; stroke-width: 1.0;" x1="3" x2="172" y1="516.625" y2="516.625"/><text fill="#000000" font-family="sans-serif" font-size="13" lengthAdjust="spacingAndGlyphs" textLength="40" x="10" y="511.5591">IsAlive</text><polygon fill="#A80036" points="14,541.7578,4,545.7578,14,549.7578,10,545.7578" style="stroke: #A80036; stroke-width: 1.0;"/><line style="stroke: #A80036; stroke-width: 1.0; stroke-dasharray: 2.0,2.0;" x1="8" x2="182" y1="545.7578" y2="545.7578"/><text fill="#000000" font-family="sans-serif" font-size="13" lengthAdjust="spacingAndGlyphs" textLength="65" x="20" y="540.6919">生存フラグ</text><polygon fill="#A80036" points="166,570.8906,176,574.8906,166,578.8906,170,574.8906" style="stroke: #A80036; stroke-width: 1.0;"/><line style="stroke: #A80036; stroke-width: 1.0;" x1="3" x2="172" y1="574.8906" y2="574.8906"/><text fill="#000000" font-family="sans-serif" font-size="13" lengthAdjust="spacingAndGlyphs" textLength="156" x="10" y="569.8247">BlockSetHasBeenPlaced</text><polygon fill="#A80036" points="893,600.0234,903,604.0234,893,608.0234,897,604.0234" style="stroke: #A80036; stroke-width: 1.0;"/><line style="stroke: #A80036; stroke-width: 1.0;" x1="188" x2="899" y1="604.0234" y2="604.0234"/><text fill="#000000" font-family="sans-serif" font-size="13" lengthAdjust="spacingAndGlyphs" textLength="50" x="195" y="598.9575">Destroy</text><polygon fill="#A80036" points="1045,629.1563,1055,633.1563,1045,637.1563,1049,633.1563" style="stroke: #A80036; stroke-width: 1.0;"/><line style="stroke: #A80036; stroke-width: 1.0;" x1="915" x2="1051" y1="633.1563" y2="633.1563"/><text fill="#000000" font-family="sans-serif" font-size="13" lengthAdjust="spacingAndGlyphs" textLength="123" x="922" y="628.0903">GameObject を削除</text><polygon fill="#A80036" points="926,643.1563,916,647.1563,926,651.1563,922,647.1563" style="stroke: #A80036; stroke-width: 1.0;"/><line style="stroke: #A80036; stroke-width: 1.0; stroke-dasharray: 2.0,2.0;" x1="920" x2="1061" y1="647.1563" y2="647.1563"/><polygon fill="#A80036" points="199,657.1563,189,661.1563,199,665.1563,195,661.1563" style="stroke: #A80036; stroke-width: 1.0;"/><line style="stroke: #A80036; stroke-width: 1.0; stroke-dasharray: 2.0,2.0;" x1="193" x2="909" y1="661.1563" y2="661.1563"/><polygon fill="#A80036" points="14,671.1563,4,675.1563,14,679.1563,10,675.1563" style="stroke: #A80036; stroke-width: 1.0;"/><line style="stroke: #A80036; stroke-width: 1.0; stroke-dasharray: 2.0,2.0;" x1="8" x2="182" y1="675.1563" y2="675.1563"/><polygon fill="#A80036" points="166,700.2891,176,704.2891,166,708.2891,170,704.2891" style="stroke: #A80036; stroke-width: 1.0;"/><line style="stroke: #A80036; stroke-width: 1.0;" x1="3" x2="172" y1="704.2891" y2="704.2891"/><text fill="#000000" font-family="sans-serif" font-size="13" lengthAdjust="spacingAndGlyphs" textLength="86" x="10" y="699.2231">PullNextBlock</text><line style="stroke: #A80036; stroke-width: 1.0;" x1="193" x2="235" y1="733.4219" y2="733.4219"/><line style="stroke: #A80036; stroke-width: 1.0;" x1="235" x2="235" y1="733.4219" y2="746.4219"/><line style="stroke: #A80036; stroke-width: 1.0;" x1="194" x2="235" y1="746.4219" y2="746.4219"/><polygon fill="#A80036" points="204,742.4219,194,746.4219,204,750.4219,200,746.4219" style="stroke: #A80036; stroke-width: 1.0;"/><text fill="#000000" font-family="sans-serif" font-size="13" lengthAdjust="spacingAndGlyphs" textLength="323" x="200" y="728.356">_blockSetOptions からブロックをランダムに選択する</text><polygon fill="#A80036" points="651,801.5547,661,805.5547,651,809.5547,655,805.5547" style="stroke: #A80036; stroke-width: 1.0;"/><line style="stroke: #A80036; stroke-width: 1.0;" x1="188" x2="657" y1="805.5547" y2="805.5547"/><text fill="#000000" font-family="sans-serif" font-size="13" lengthAdjust="spacingAndGlyphs" textLength="68" x="195" y="800.4888">Instantiate</text><polygon fill="#A80036" points="1045,830.6875,1055,834.6875,1045,838.6875,1049,834.6875" style="stroke: #A80036; stroke-width: 1.0;"/><line style="stroke: #A80036; stroke-width: 1.0;" x1="673" x2="1051" y1="834.6875" y2="834.6875"/><text fill="#000000" font-family="sans-serif" font-size="13" lengthAdjust="spacingAndGlyphs" textLength="41" x="680" y="829.6216">create</text><polygon fill="#A80036" points="684,844.6875,674,848.6875,684,852.6875,680,848.6875" style="stroke: #A80036; stroke-width: 1.0;"/><line style="stroke: #A80036; stroke-width: 1.0; stroke-dasharray: 2.0,2.0;" x1="678" x2="1061" y1="848.6875" y2="848.6875"/><polygon fill="#A80036" points="199,873.8203,189,877.8203,199,881.8203,195,877.8203" style="stroke: #A80036; stroke-width: 1.0;"/><line style="stroke: #A80036; stroke-width: 1.0; stroke-dasharray: 2.0,2.0;" x1="193" x2="667" y1="877.8203" y2="877.8203"/><text fill="#000000" font-family="sans-serif" font-size="13" lengthAdjust="spacingAndGlyphs" textLength="424" x="205" y="872.7544">生成されたBlockSet クラスのインスタンスを_currentBlock に保持する</text><polygon fill="#A80036" points="1045,902.9531,1055,906.9531,1045,910.9531,1049,906.9531" style="stroke: #A80036; stroke-width: 1.0;"/><line style="stroke: #A80036; stroke-width: 1.0;" x1="188" x2="1051" y1="906.9531" y2="906.9531"/><text fill="#000000" font-family="sans-serif" font-size="13" lengthAdjust="spacingAndGlyphs" textLength="38" x="195" y="901.8872">Setup</text><polygon fill="#A80036" points="199,916.9531,189,920.9531,199,924.9531,195,920.9531" style="stroke: #A80036; stroke-width: 1.0;"/><line style="stroke: #A80036; stroke-width: 1.0; stroke-dasharray: 2.0,2.0;" x1="193" x2="1061" y1="920.9531" y2="920.9531"/><polygon fill="#A80036" points="14,930.9531,4,934.9531,14,938.9531,10,934.9531" style="stroke: #A80036; stroke-width: 1.0;"/><line style="stroke: #A80036; stroke-width: 1.0; stroke-dasharray: 2.0,2.0;" x1="8" x2="182" y1="934.9531" y2="934.9531"/><polygon fill="#A80036" points="166,960.0859,176,964.0859,166,968.0859,170,964.0859" style="stroke: #A80036; stroke-width: 1.0;"/><line style="stroke: #A80036; stroke-width: 1.0;" x1="3" x2="172" y1="964.0859" y2="964.0859"/><text fill="#000000" font-family="sans-serif" font-size="13" lengthAdjust="spacingAndGlyphs" textLength="44" x="10" y="959.02">Dead()</text><line style="stroke: #A80036; stroke-width: 1.0;" x1="193" x2="235" y1="993.2188" y2="993.2188"/><line style="stroke: #A80036; stroke-width: 1.0;" x1="235" x2="235" y1="993.2188" y2="1006.2188"/><line style="stroke: #A80036; stroke-width: 1.0;" x1="194" x2="235" y1="1006.2188" y2="1006.2188"/><polygon fill="#A80036" points="204,1002.2188,194,1006.2188,204,1010.2188,200,1006.2188" style="stroke: #A80036; stroke-width: 1.0;"/><text fill="#000000" font-family="sans-serif" font-size="13" lengthAdjust="spacingAndGlyphs" textLength="143" x="200" y="988.1528">生存フラグを無効にする</text><polygon fill="#A80036" points="1158,1061.3516,1168,1065.3516,1158,1069.3516,1162,1065.3516" style="stroke: #A80036; stroke-width: 1.0;"/><line style="stroke: #A80036; stroke-width: 1.0;" x1="188" x2="1164" y1="1065.3516" y2="1065.3516"/><text fill="#000000" font-family="sans-serif" font-size="13" lengthAdjust="spacingAndGlyphs" textLength="108" x="195" y="1060.2856">PlayerGameOver</text><polygon fill="#A80036" points="199,1075.3516,189,1079.3516,199,1083.3516,195,1079.3516" style="stroke: #A80036; stroke-width: 1.0;"/><line style="stroke: #A80036; stroke-width: 1.0; stroke-dasharray: 2.0,2.0;" x1="193" x2="1174" y1="1079.3516" y2="1079.3516"/><polygon fill="#A80036" points="14,1089.3516,4,1093.3516,14,1097.3516,10,1093.3516" style="stroke: #A80036; stroke-width: 1.0;"/><line style="stroke: #A80036; stroke-width: 1.0; stroke-dasharray: 2.0,2.0;" x1="8" x2="182" y1="1093.3516" y2="1093.3516"/><!--MD5=[853b4b84d8f1abd4efad5c7750f03e7b]
@startuml

[-> Player : Setup
activate Player
    Player -> Player : 生存フラグを有効にする
    activate Player
    deactivate Player
    Player -> Player : ブロック群の選択肢を保持する
    activate Player
    deactivate Player
    Player -> MonoBehaviour : Instantiate
    activate MonoBehaviour
        MonoBehaviour -> AbstractField : create
        activate AbstractField
            MonoBehaviour <- - AbstractField
        deactivate AbstractField
        Player <- - MonoBehaviour : 生成されたAbstractField クラスのインスタンスを_currentBlock に保持する
    deactivate MonoBehaviour
    Player -> AbstractField : ResetField
    activate AbstractField
        Player <- - AbstractField
    deactivate AbstractField
    [<- - Player
deactivate Player

[-> Player : StartGame
activate Player
    Player -> Player : PullNextBlock
    activate Player
    deactivate Player
    [<- - Player
deactivate Player

[-> Player : IsAlive
activate Player
    [<- - Player : 生存フラグ
deactivate Player

[-> Player : BlockSetHasBeenPlaced
activate Player
    Player -> GameObject : Destroy
    activate GameObject
        GameObject -> BlockSet : GameObject を削除
        activate BlockSet
            GameObject <- - BlockSet
        deactivate BlockSet
        Player <- - GameObject
    deactivate GameObject
    [<- - Player
deactivate Player

[-> Player : PullNextBlock
activate Player
    Player -> Player : _blockSetOptions からブロックをランダムに選択する
    activate Player
    deactivate Player
    Player -> MonoBehaviour : Instantiate
    activate MonoBehaviour
        MonoBehaviour -> BlockSet : create
        activate BlockSet
            MonoBehaviour <- - BlockSet
        deactivate BlockSet
        Player <- - MonoBehaviour : 生成されたBlockSet クラスのインスタンスを_currentBlock に保持する
    deactivate MonoBehaviour
    Player -> BlockSet : Setup
    activate BlockSet
        Player <- - BlockSet
    deactivate BlockSet
    [<- - Player
deactivate Player

[-> Player : Dead()
activate Player
    Player -> Player : 生存フラグを無効にする
    activate Player
    deactivate Player
    Player -> StateGameMain : PlayerGameOver
    activate StateGameMain
        Player <- - StateGameMain
    deactivate StateGameMain
    [<- - Player
deactivate Player


@enduml

PlantUML version 1.2020.02(Sun Mar 01 10:22:07 GMT 2020)
(GPL source distribution)
Java Runtime: OpenJDK Runtime Environment
JVM: OpenJDK 64-Bit Server VM
Java Version: 11.0.9+11-Ubuntu-0ubuntu1
Operating System: Linux
Default Encoding: ANSI_X3.4-1968
Language: en
Country: US
--></g></svg>