<?xml version="1.0" encoding="UTF-8" standalone="no"?><svg xmlns="http://www.w3.org/2000/svg" xmlns:xlink="http://www.w3.org/1999/xlink" contentScriptType="application/ecmascript" contentStyleType="text/css" height="1326px" preserveAspectRatio="none" style="width:1355px;height:1326px;" version="1.1" viewBox="0 0 1355 1326" width="1355px" zoomAndPan="magnify"><defs><filter height="300%" id="fm4g82s237d6p" width="300%" x="-1" y="-1"><feGaussianBlur result="blurOut" stdDeviation="2.0"/><feColorMatrix in="blurOut" result="blurOut2" type="matrix" values="0 0 0 0 0 0 0 0 0 0 0 0 0 0 0 0 0 0 .4 0"/><feOffset dx="4.0" dy="4.0" in="blurOut2" result="blurOut3"/><feBlend in="SourceGraphic" in2="blurOut3" mode="normal"/></filter></defs><g><rect fill="#FFFFFF" filter="url(#fm4g82s237d6p)" height="418.0625" style="stroke: #A80036; stroke-width: 1.0;" width="10" x="178" y="69.4297"/><rect fill="#FFFFFF" filter="url(#fm4g82s237d6p)" height="28" style="stroke: #A80036; stroke-width: 1.0;" width="10" x="183" y="106.5625"/><rect fill="#FFFFFF" filter="url(#fm4g82s237d6p)" height="28" style="stroke: #A80036; stroke-width: 1.0;" width="10" x="183" y="178.6953"/><rect fill="#FFFFFF" filter="url(#fm4g82s237d6p)" height="28" style="stroke: #A80036; stroke-width: 1.0;" width="10" x="183" y="395.3594"/><rect fill="#FFFFFF" filter="url(#fm4g82s237d6p)" height="86.1328" style="stroke: #A80036; stroke-width: 1.0;" width="10" x="178" y="516.625"/><rect fill="#FFFFFF" filter="url(#fm4g82s237d6p)" height="28" style="stroke: #A80036; stroke-width: 1.0;" width="10" x="183" y="553.7578"/><rect fill="#FFFFFF" filter="url(#fm4g82s237d6p)" height="29.1328" style="stroke: #A80036; stroke-width: 1.0;" width="10" x="178" y="631.8906"/><rect fill="#FFFFFF" filter="url(#fm4g82s237d6p)" height="100.2656" style="stroke: #A80036; stroke-width: 1.0;" width="10" x="178" y="690.1563"/><rect fill="#FFFFFF" filter="url(#fm4g82s237d6p)" height="289.7969" style="stroke: #A80036; stroke-width: 1.0;" width="10" x="178" y="819.5547"/><rect fill="#FFFFFF" filter="url(#fm4g82s237d6p)" height="28" style="stroke: #A80036; stroke-width: 1.0;" width="10" x="183" y="856.6875"/><rect fill="#FFFFFF" filter="url(#fm4g82s237d6p)" height="129.2656" style="stroke: #A80036; stroke-width: 1.0;" width="10" x="178" y="1138.4844"/><rect fill="#FFFFFF" filter="url(#fm4g82s237d6p)" height="28" style="stroke: #A80036; stroke-width: 1.0;" width="10" x="183" y="1175.6172"/><rect fill="#FFFFFF" filter="url(#fm4g82s237d6p)" height="72.2656" style="stroke: #A80036; stroke-width: 1.0;" width="10" x="663" y="242.8281"/><rect fill="#FFFFFF" filter="url(#fm4g82s237d6p)" height="72.2656" style="stroke: #A80036; stroke-width: 1.0;" width="10" x="663" y="979.9531"/><rect fill="#FFFFFF" filter="url(#fm4g82s237d6p)" height="14" style="stroke: #A80036; stroke-width: 1.0;" width="10" x="789.5" y="271.9609"/><rect fill="#FFFFFF" filter="url(#fm4g82s237d6p)" height="14" style="stroke: #A80036; stroke-width: 1.0;" width="10" x="789.5" y="344.2266"/><rect fill="#FFFFFF" filter="url(#fm4g82s237d6p)" height="14" style="stroke: #A80036; stroke-width: 1.0;" width="10" x="903" y="459.4922"/><rect fill="#FFFFFF" filter="url(#fm4g82s237d6p)" height="30" style="stroke: #A80036; stroke-width: 1.0;" width="10" x="903" y="920.8203"/><rect fill="#FFFFFF" filter="url(#fm4g82s237d6p)" height="57.1328" style="stroke: #A80036; stroke-width: 1.0;" width="10" x="1015" y="719.2891"/><rect fill="#FFFFFF" filter="url(#fm4g82s237d6p)" height="14" style="stroke: #A80036; stroke-width: 1.0;" width="10" x="1167" y="748.4219"/><rect fill="#FFFFFF" filter="url(#fm4g82s237d6p)" height="14" style="stroke: #A80036; stroke-width: 1.0;" width="10" x="1167" y="1009.0859"/><rect fill="#FFFFFF" filter="url(#fm4g82s237d6p)" height="14" style="stroke: #A80036; stroke-width: 1.0;" width="10" x="1167" y="1081.3516"/><rect fill="#FFFFFF" filter="url(#fm4g82s237d6p)" height="14" style="stroke: #A80036; stroke-width: 1.0;" width="10" x="1280" y="1239.75"/><line style="stroke: #A80036; stroke-width: 1.0; stroke-dasharray: 5.0,5.0;" x1="182.5" x2="182.5" y1="38.2969" y2="1285.75"/><line style="stroke: #A80036; stroke-width: 1.0; stroke-dasharray: 5.0,5.0;" x1="668" x2="668" y1="38.2969" y2="1285.75"/><line style="stroke: #A80036; stroke-width: 1.0; stroke-dasharray: 5.0,5.0;" x1="794" x2="794" y1="38.2969" y2="1285.75"/><line style="stroke: #A80036; stroke-width: 1.0; stroke-dasharray: 5.0,5.0;" x1="908" x2="908" y1="38.2969" y2="1285.75"/><line style="stroke: #A80036; stroke-width: 1.0; stroke-dasharray: 5.0,5.0;" x1="1020" x2="1020" y1="38.2969" y2="1285.75"/><line style="stroke: #A80036; stroke-width: 1.0; stroke-dasharray: 5.0,5.0;" x1="1171.5" x2="1171.5" y1="38.2969" y2="1285.75"/><line style="stroke: #A80036; stroke-width: 1.0; stroke-dasharray: 5.0,5.0;" x1="1284.5" x2="1284.5" y1="38.2969" y2="1285.75"/><rect fill="#FEFECE" filter="url(#fm4g82s237d6p)" height="30.2969" style="stroke: #A80036; stroke-width: 1.5;" width="55" x="153.5" y="3"/><text fill="#000000" font-family="sans-serif" font-size="14" lengthAdjust="spacingAndGlyphs" textLength="41" x="160.5" y="22.9951">Player</text><rect fill="#FEFECE" filter="url(#fm4g82s237d6p)" height="30.2969" style="stroke: #A80036; stroke-width: 1.5;" width="55" x="153.5" y="1284.75"/><text fill="#000000" font-family="sans-serif" font-size="14" lengthAdjust="spacingAndGlyphs" textLength="41" x="160.5" y="1304.7451">Player</text><rect fill="#FEFECE" filter="url(#fm4g82s237d6p)" height="30.2969" style="stroke: #A80036; stroke-width: 1.5;" width="122" x="605" y="3"/><text fill="#000000" font-family="sans-serif" font-size="14" lengthAdjust="spacingAndGlyphs" textLength="108" x="612" y="22.9951">MonoBehaviour</text><rect fill="#FEFECE" filter="url(#fm4g82s237d6p)" height="30.2969" style="stroke: #A80036; stroke-width: 1.5;" width="122" x="605" y="1284.75"/><text fill="#000000" font-family="sans-serif" font-size="14" lengthAdjust="spacingAndGlyphs" textLength="108" x="612" y="1304.7451">MonoBehaviour</text><rect fill="#FEFECE" filter="url(#fm4g82s237d6p)" height="30.2969" style="stroke: #A80036; stroke-width: 1.5;" width="103" x="741" y="3"/><text fill="#000000" font-family="sans-serif" font-size="14" lengthAdjust="spacingAndGlyphs" textLength="89" x="748" y="22.9951">AbstractField</text><rect fill="#FEFECE" filter="url(#fm4g82s237d6p)" height="30.2969" style="stroke: #A80036; stroke-width: 1.5;" width="103" x="741" y="1284.75"/><text fill="#000000" font-family="sans-serif" font-size="14" lengthAdjust="spacingAndGlyphs" textLength="89" x="748" y="1304.7451">AbstractField</text><rect fill="#FEFECE" filter="url(#fm4g82s237d6p)" height="30.2969" style="stroke: #A80036; stroke-width: 1.5;" width="96" x="858" y="3"/><text fill="#000000" font-family="sans-serif" font-size="14" lengthAdjust="spacingAndGlyphs" textLength="82" x="865" y="22.9951">StatusPanel</text><rect fill="#FEFECE" filter="url(#fm4g82s237d6p)" height="30.2969" style="stroke: #A80036; stroke-width: 1.5;" width="96" x="858" y="1284.75"/><text fill="#000000" font-family="sans-serif" font-size="14" lengthAdjust="spacingAndGlyphs" textLength="82" x="865" y="1304.7451">StatusPanel</text><rect fill="#FEFECE" filter="url(#fm4g82s237d6p)" height="30.2969" style="stroke: #A80036; stroke-width: 1.5;" width="100" x="968" y="3"/><text fill="#000000" font-family="sans-serif" font-size="14" lengthAdjust="spacingAndGlyphs" textLength="86" x="975" y="22.9951">GameObject</text><rect fill="#FEFECE" filter="url(#fm4g82s237d6p)" height="30.2969" style="stroke: #A80036; stroke-width: 1.5;" width="100" x="968" y="1284.75"/><text fill="#000000" font-family="sans-serif" font-size="14" lengthAdjust="spacingAndGlyphs" textLength="86" x="975" y="1304.7451">GameObject</text><rect fill="#FEFECE" filter="url(#fm4g82s237d6p)" height="30.2969" style="stroke: #A80036; stroke-width: 1.5;" width="75" x="1132.5" y="3"/><text fill="#000000" font-family="sans-serif" font-size="14" lengthAdjust="spacingAndGlyphs" textLength="61" x="1139.5" y="22.9951">BlockSet</text><rect fill="#FEFECE" filter="url(#fm4g82s237d6p)" height="30.2969" style="stroke: #A80036; stroke-width: 1.5;" width="75" x="1132.5" y="1284.75"/><text fill="#000000" font-family="sans-serif" font-size="14" lengthAdjust="spacingAndGlyphs" textLength="61" x="1139.5" y="1304.7451">BlockSet</text><rect fill="#FEFECE" filter="url(#fm4g82s237d6p)" height="30.2969" style="stroke: #A80036; stroke-width: 1.5;" width="123" x="1221.5" y="3"/><text fill="#000000" font-family="sans-serif" font-size="14" lengthAdjust="spacingAndGlyphs" textLength="109" x="1228.5" y="22.9951">StateGameMain</text><rect fill="#FEFECE" filter="url(#fm4g82s237d6p)" height="30.2969" style="stroke: #A80036; stroke-width: 1.5;" width="123" x="1221.5" y="1284.75"/><text fill="#000000" font-family="sans-serif" font-size="14" lengthAdjust="spacingAndGlyphs" textLength="109" x="1228.5" y="1304.7451">StateGameMain</text><rect fill="#FFFFFF" filter="url(#fm4g82s237d6p)" height="418.0625" style="stroke: #A80036; stroke-width: 1.0;" width="10" x="178" y="69.4297"/><rect fill="#FFFFFF" filter="url(#fm4g82s237d6p)" height="28" style="stroke: #A80036; stroke-width: 1.0;" width="10" x="183" y="106.5625"/><rect fill="#FFFFFF" filter="url(#fm4g82s237d6p)" height="28" style="stroke: #A80036; stroke-width: 1.0;" width="10" x="183" y="178.6953"/><rect fill="#FFFFFF" filter="url(#fm4g82s237d6p)" height="28" style="stroke: #A80036; stroke-width: 1.0;" width="10" x="183" y="395.3594"/><rect fill="#FFFFFF" filter="url(#fm4g82s237d6p)" height="86.1328" style="stroke: #A80036; stroke-width: 1.0;" width="10" x="178" y="516.625"/><rect fill="#FFFFFF" filter="url(#fm4g82s237d6p)" height="28" style="stroke: #A80036; stroke-width: 1.0;" width="10" x="183" y="553.7578"/><rect fill="#FFFFFF" filter="url(#fm4g82s237d6p)" height="29.1328" style="stroke: #A80036; stroke-width: 1.0;" width="10" x="178" y="631.8906"/><rect fill="#FFFFFF" filter="url(#fm4g82s237d6p)" height="100.2656" style="stroke: #A80036; stroke-width: 1.0;" width="10" x="178" y="690.1563"/><rect fill="#FFFFFF" filter="url(#fm4g82s237d6p)" height="289.7969" style="stroke: #A80036; stroke-width: 1.0;" width="10" x="178" y="819.5547"/><rect fill="#FFFFFF" filter="url(#fm4g82s237d6p)" height="28" style="stroke: #A80036; stroke-width: 1.0;" width="10" x="183" y="856.6875"/><rect fill="#FFFFFF" filter="url(#fm4g82s237d6p)" height="129.2656" style="stroke: #A80036; stroke-width: 1.0;" width="10" x="178" y="1138.4844"/><rect fill="#FFFFFF" filter="url(#fm4g82s237d6p)" height="28" style="stroke: #A80036; stroke-width: 1.0;" width="10" x="183" y="1175.6172"/><rect fill="#FFFFFF" filter="url(#fm4g82s237d6p)" height="72.2656" style="stroke: #A80036; stroke-width: 1.0;" width="10" x="663" y="242.8281"/><rect fill="#FFFFFF" filter="url(#fm4g82s237d6p)" height="72.2656" style="stroke: #A80036; stroke-width: 1.0;" width="10" x="663" y="979.9531"/><rect fill="#FFFFFF" filter="url(#fm4g82s237d6p)" height="14" style="stroke: #A80036; stroke-width: 1.0;" width="10" x="789.5" y="271.9609"/><rect fill="#FFFFFF" filter="url(#fm4g82s237d6p)" height="14" style="stroke: #A80036; stroke-width: 1.0;" width="10" x="789.5" y="344.2266"/><rect fill="#FFFFFF" filter="url(#fm4g82s237d6p)" height="14" style="stroke: #A80036; stroke-width: 1.0;" width="10" x="903" y="459.4922"/><rect fill="#FFFFFF" filter="url(#fm4g82s237d6p)" height="30" style="stroke: #A80036; stroke-width: 1.0;" width="10" x="903" y="920.8203"/><rect fill="#FFFFFF" filter="url(#fm4g82s237d6p)" height="57.1328" style="stroke: #A80036; stroke-width: 1.0;" width="10" x="1015" y="719.2891"/><rect fill="#FFFFFF" filter="url(#fm4g82s237d6p)" height="14" style="stroke: #A80036; stroke-width: 1.0;" width="10" x="1167" y="748.4219"/><rect fill="#FFFFFF" filter="url(#fm4g82s237d6p)" height="14" style="stroke: #A80036; stroke-width: 1.0;" width="10" x="1167" y="1009.0859"/><rect fill="#FFFFFF" filter="url(#fm4g82s237d6p)" height="14" style="stroke: #A80036; stroke-width: 1.0;" width="10" x="1167" y="1081.3516"/><rect fill="#FFFFFF" filter="url(#fm4g82s237d6p)" height="14" style="stroke: #A80036; stroke-width: 1.0;" width="10" x="1280" y="1239.75"/><polygon fill="#A80036" points="166,65.4297,176,69.4297,166,73.4297,170,69.4297" style="stroke: #A80036; stroke-width: 1.0;"/><line style="stroke: #A80036; stroke-width: 1.0;" x1="3" x2="172" y1="69.4297" y2="69.4297"/><text fill="#000000" font-family="sans-serif" font-size="13" lengthAdjust="spacingAndGlyphs" textLength="38" x="10" y="64.3638">Setup</text><line style="stroke: #A80036; stroke-width: 1.0;" x1="193" x2="235" y1="98.5625" y2="98.5625"/><line style="stroke: #A80036; stroke-width: 1.0;" x1="235" x2="235" y1="98.5625" y2="111.5625"/><line style="stroke: #A80036; stroke-width: 1.0;" x1="194" x2="235" y1="111.5625" y2="111.5625"/><polygon fill="#A80036" points="204,107.5625,194,111.5625,204,115.5625,200,111.5625" style="stroke: #A80036; stroke-width: 1.0;"/><text fill="#000000" font-family="sans-serif" font-size="13" lengthAdjust="spacingAndGlyphs" textLength="143" x="200" y="93.4966">生存フラグを有効にする</text><line style="stroke: #A80036; stroke-width: 1.0;" x1="193" x2="235" y1="170.6953" y2="170.6953"/><line style="stroke: #A80036; stroke-width: 1.0;" x1="235" x2="235" y1="170.6953" y2="183.6953"/><line style="stroke: #A80036; stroke-width: 1.0;" x1="194" x2="235" y1="183.6953" y2="183.6953"/><polygon fill="#A80036" points="204,179.6953,194,183.6953,204,187.6953,200,183.6953" style="stroke: #A80036; stroke-width: 1.0;"/><text fill="#000000" font-family="sans-serif" font-size="13" lengthAdjust="spacingAndGlyphs" textLength="182" x="200" y="165.6294">ブロック群の選択肢を保持する</text><polygon fill="#A80036" points="651,238.8281,661,242.8281,651,246.8281,655,242.8281" style="stroke: #A80036; stroke-width: 1.0;"/><line style="stroke: #A80036; stroke-width: 1.0;" x1="188" x2="657" y1="242.8281" y2="242.8281"/><text fill="#000000" font-family="sans-serif" font-size="13" lengthAdjust="spacingAndGlyphs" textLength="68" x="195" y="237.7622">Instantiate</text><polygon fill="#A80036" points="777.5,267.9609,787.5,271.9609,777.5,275.9609,781.5,271.9609" style="stroke: #A80036; stroke-width: 1.0;"/><line style="stroke: #A80036; stroke-width: 1.0;" x1="673" x2="783.5" y1="271.9609" y2="271.9609"/><text fill="#000000" font-family="sans-serif" font-size="13" lengthAdjust="spacingAndGlyphs" textLength="41" x="680" y="266.895">create</text><polygon fill="#A80036" points="684,281.9609,674,285.9609,684,289.9609,680,285.9609" style="stroke: #A80036; stroke-width: 1.0;"/><line style="stroke: #A80036; stroke-width: 1.0; stroke-dasharray: 2.0,2.0;" x1="678" x2="793.5" y1="285.9609" y2="285.9609"/><polygon fill="#A80036" points="199,311.0938,189,315.0938,199,319.0938,195,315.0938" style="stroke: #A80036; stroke-width: 1.0;"/><line style="stroke: #A80036; stroke-width: 1.0; stroke-dasharray: 2.0,2.0;" x1="193" x2="667" y1="315.0938" y2="315.0938"/><text fill="#000000" font-family="sans-serif" font-size="13" lengthAdjust="spacingAndGlyphs" textLength="451" x="205" y="310.0278">生成されたAbstractField クラスのインスタンスを_currentBlock に保持する</text><polygon fill="#A80036" points="777.5,340.2266,787.5,344.2266,777.5,348.2266,781.5,344.2266" style="stroke: #A80036; stroke-width: 1.0;"/><line style="stroke: #A80036; stroke-width: 1.0;" x1="188" x2="783.5" y1="344.2266" y2="344.2266"/><text fill="#000000" font-family="sans-serif" font-size="13" lengthAdjust="spacingAndGlyphs" textLength="65" x="195" y="339.1606">ResetField</text><polygon fill="#A80036" points="199,354.2266,189,358.2266,199,362.2266,195,358.2266" style="stroke: #A80036; stroke-width: 1.0;"/><line style="stroke: #A80036; stroke-width: 1.0; stroke-dasharray: 2.0,2.0;" x1="193" x2="793.5" y1="358.2266" y2="358.2266"/><line style="stroke: #A80036; stroke-width: 1.0;" x1="193" x2="235" y1="387.3594" y2="387.3594"/><line style="stroke: #A80036; stroke-width: 1.0;" x1="235" x2="235" y1="387.3594" y2="400.3594"/><line style="stroke: #A80036; stroke-width: 1.0;" x1="194" x2="235" y1="400.3594" y2="400.3594"/><polygon fill="#A80036" points="204,396.3594,194,400.3594,204,404.3594,200,400.3594" style="stroke: #A80036; stroke-width: 1.0;"/><text fill="#000000" font-family="sans-serif" font-size="13" lengthAdjust="spacingAndGlyphs" textLength="362" x="200" y="382.2935">_blockSetOptions からブロックの発生予定リストを生成する</text><polygon fill="#A80036" points="891,455.4922,901,459.4922,891,463.4922,895,459.4922" style="stroke: #A80036; stroke-width: 1.0;"/><line style="stroke: #A80036; stroke-width: 1.0;" x1="188" x2="897" y1="459.4922" y2="459.4922"/><text fill="#000000" font-family="sans-serif" font-size="13" lengthAdjust="spacingAndGlyphs" textLength="122" x="195" y="454.4263">UpdateReservation</text><polygon fill="#A80036" points="199,469.4922,189,473.4922,199,477.4922,195,473.4922" style="stroke: #A80036; stroke-width: 1.0;"/><line style="stroke: #A80036; stroke-width: 1.0; stroke-dasharray: 2.0,2.0;" x1="193" x2="907" y1="473.4922" y2="473.4922"/><polygon fill="#A80036" points="14,483.4922,4,487.4922,14,491.4922,10,487.4922" style="stroke: #A80036; stroke-width: 1.0;"/><line style="stroke: #A80036; stroke-width: 1.0; stroke-dasharray: 2.0,2.0;" x1="8" x2="182" y1="487.4922" y2="487.4922"/><polygon fill="#A80036" points="166,512.625,176,516.625,166,520.625,170,516.625" style="stroke: #A80036; stroke-width: 1.0;"/><line style="stroke: #A80036; stroke-width: 1.0;" x1="3" x2="172" y1="516.625" y2="516.625"/><text fill="#000000" font-family="sans-serif" font-size="13" lengthAdjust="spacingAndGlyphs" textLength="71" x="10" y="511.5591">StartGame</text><line style="stroke: #A80036; stroke-width: 1.0;" x1="193" x2="235" y1="545.7578" y2="545.7578"/><line style="stroke: #A80036; stroke-width: 1.0;" x1="235" x2="235" y1="545.7578" y2="558.7578"/><line style="stroke: #A80036; stroke-width: 1.0;" x1="194" x2="235" y1="558.7578" y2="558.7578"/><polygon fill="#A80036" points="204,554.7578,194,558.7578,204,562.7578,200,558.7578" style="stroke: #A80036; stroke-width: 1.0;"/><text fill="#000000" font-family="sans-serif" font-size="13" lengthAdjust="spacingAndGlyphs" textLength="86" x="200" y="540.6919">PullNextBlock</text><polygon fill="#A80036" points="14,598.7578,4,602.7578,14,606.7578,10,602.7578" style="stroke: #A80036; stroke-width: 1.0;"/><line style="stroke: #A80036; stroke-width: 1.0; stroke-dasharray: 2.0,2.0;" x1="8" x2="182" y1="602.7578" y2="602.7578"/><polygon fill="#A80036" points="166,627.8906,176,631.8906,166,635.8906,170,631.8906" style="stroke: #A80036; stroke-width: 1.0;"/><line style="stroke: #A80036; stroke-width: 1.0;" x1="3" x2="172" y1="631.8906" y2="631.8906"/><text fill="#000000" font-family="sans-serif" font-size="13" lengthAdjust="spacingAndGlyphs" textLength="40" x="10" y="626.8247">IsAlive</text><polygon fill="#A80036" points="14,657.0234,4,661.0234,14,665.0234,10,661.0234" style="stroke: #A80036; stroke-width: 1.0;"/><line style="stroke: #A80036; stroke-width: 1.0; stroke-dasharray: 2.0,2.0;" x1="8" x2="182" y1="661.0234" y2="661.0234"/><text fill="#000000" font-family="sans-serif" font-size="13" lengthAdjust="spacingAndGlyphs" textLength="65" x="20" y="655.9575">生存フラグ</text><polygon fill="#A80036" points="166,686.1563,176,690.1563,166,694.1563,170,690.1563" style="stroke: #A80036; stroke-width: 1.0;"/><line style="stroke: #A80036; stroke-width: 1.0;" x1="3" x2="172" y1="690.1563" y2="690.1563"/><text fill="#000000" font-family="sans-serif" font-size="13" lengthAdjust="spacingAndGlyphs" textLength="156" x="10" y="685.0903">BlockSetHasBeenPlaced</text><polygon fill="#A80036" points="1003,715.2891,1013,719.2891,1003,723.2891,1007,719.2891" style="stroke: #A80036; stroke-width: 1.0;"/><line style="stroke: #A80036; stroke-width: 1.0;" x1="188" x2="1009" y1="719.2891" y2="719.2891"/><text fill="#000000" font-family="sans-serif" font-size="13" lengthAdjust="spacingAndGlyphs" textLength="50" x="195" y="714.2231">Destroy</text><polygon fill="#A80036" points="1155,744.4219,1165,748.4219,1155,752.4219,1159,748.4219" style="stroke: #A80036; stroke-width: 1.0;"/><line style="stroke: #A80036; stroke-width: 1.0;" x1="1025" x2="1161" y1="748.4219" y2="748.4219"/><text fill="#000000" font-family="sans-serif" font-size="13" lengthAdjust="spacingAndGlyphs" textLength="123" x="1032" y="743.356">GameObject を削除</text><polygon fill="#A80036" points="1036,758.4219,1026,762.4219,1036,766.4219,1032,762.4219" style="stroke: #A80036; stroke-width: 1.0;"/><line style="stroke: #A80036; stroke-width: 1.0; stroke-dasharray: 2.0,2.0;" x1="1030" x2="1171" y1="762.4219" y2="762.4219"/><polygon fill="#A80036" points="199,772.4219,189,776.4219,199,780.4219,195,776.4219" style="stroke: #A80036; stroke-width: 1.0;"/><line style="stroke: #A80036; stroke-width: 1.0; stroke-dasharray: 2.0,2.0;" x1="193" x2="1019" y1="776.4219" y2="776.4219"/><polygon fill="#A80036" points="14,786.4219,4,790.4219,14,794.4219,10,790.4219" style="stroke: #A80036; stroke-width: 1.0;"/><line style="stroke: #A80036; stroke-width: 1.0; stroke-dasharray: 2.0,2.0;" x1="8" x2="182" y1="790.4219" y2="790.4219"/><polygon fill="#A80036" points="166,815.5547,176,819.5547,166,823.5547,170,819.5547" style="stroke: #A80036; stroke-width: 1.0;"/><line style="stroke: #A80036; stroke-width: 1.0;" x1="3" x2="172" y1="819.5547" y2="819.5547"/><text fill="#000000" font-family="sans-serif" font-size="13" lengthAdjust="spacingAndGlyphs" textLength="86" x="10" y="814.4888">PullNextBlock</text><line style="stroke: #A80036; stroke-width: 1.0;" x1="193" x2="235" y1="848.6875" y2="848.6875"/><line style="stroke: #A80036; stroke-width: 1.0;" x1="235" x2="235" y1="848.6875" y2="861.6875"/><line style="stroke: #A80036; stroke-width: 1.0;" x1="194" x2="235" y1="861.6875" y2="861.6875"/><polygon fill="#A80036" points="204,857.6875,194,861.6875,204,865.6875,200,861.6875" style="stroke: #A80036; stroke-width: 1.0;"/><text fill="#000000" font-family="sans-serif" font-size="13" lengthAdjust="spacingAndGlyphs" textLength="362" x="200" y="843.6216">_blockSetOptions からブロックの発生予定リストを生成する</text><polygon fill="#A80036" points="891,916.8203,901,920.8203,891,924.8203,895,920.8203" style="stroke: #A80036; stroke-width: 1.0;"/><line style="stroke: #A80036; stroke-width: 1.0;" x1="188" x2="897" y1="920.8203" y2="920.8203"/><text fill="#000000" font-family="sans-serif" font-size="13" lengthAdjust="spacingAndGlyphs" textLength="122" x="195" y="915.7544">UpdateReservation</text><polygon fill="#A80036" points="651,975.9531,661,979.9531,651,983.9531,655,979.9531" style="stroke: #A80036; stroke-width: 1.0;"/><line style="stroke: #A80036; stroke-width: 1.0;" x1="188" x2="657" y1="979.9531" y2="979.9531"/><text fill="#000000" font-family="sans-serif" font-size="13" lengthAdjust="spacingAndGlyphs" textLength="68" x="195" y="974.8872">Instantiate</text><polygon fill="#A80036" points="1155,1005.0859,1165,1009.0859,1155,1013.0859,1159,1009.0859" style="stroke: #A80036; stroke-width: 1.0;"/><line style="stroke: #A80036; stroke-width: 1.0;" x1="673" x2="1161" y1="1009.0859" y2="1009.0859"/><text fill="#000000" font-family="sans-serif" font-size="13" lengthAdjust="spacingAndGlyphs" textLength="41" x="680" y="1004.02">create</text><polygon fill="#A80036" points="684,1019.0859,674,1023.0859,684,1027.0859,680,1023.0859" style="stroke: #A80036; stroke-width: 1.0;"/><line style="stroke: #A80036; stroke-width: 1.0; stroke-dasharray: 2.0,2.0;" x1="678" x2="1171" y1="1023.0859" y2="1023.0859"/><polygon fill="#A80036" points="199,1048.2188,189,1052.2188,199,1056.2188,195,1052.2188" style="stroke: #A80036; stroke-width: 1.0;"/><line style="stroke: #A80036; stroke-width: 1.0; stroke-dasharray: 2.0,2.0;" x1="193" x2="667" y1="1052.2188" y2="1052.2188"/><text fill="#000000" font-family="sans-serif" font-size="13" lengthAdjust="spacingAndGlyphs" textLength="424" x="205" y="1047.1528">生成されたBlockSet クラスのインスタンスを_currentBlock に保持する</text><polygon fill="#A80036" points="1155,1077.3516,1165,1081.3516,1155,1085.3516,1159,1081.3516" style="stroke: #A80036; stroke-width: 1.0;"/><line style="stroke: #A80036; stroke-width: 1.0;" x1="188" x2="1161" y1="1081.3516" y2="1081.3516"/><text fill="#000000" font-family="sans-serif" font-size="13" lengthAdjust="spacingAndGlyphs" textLength="38" x="195" y="1076.2856">Setup</text><polygon fill="#A80036" points="199,1091.3516,189,1095.3516,199,1099.3516,195,1095.3516" style="stroke: #A80036; stroke-width: 1.0;"/><line style="stroke: #A80036; stroke-width: 1.0; stroke-dasharray: 2.0,2.0;" x1="193" x2="1171" y1="1095.3516" y2="1095.3516"/><polygon fill="#A80036" points="14,1105.3516,4,1109.3516,14,1113.3516,10,1109.3516" style="stroke: #A80036; stroke-width: 1.0;"/><line style="stroke: #A80036; stroke-width: 1.0; stroke-dasharray: 2.0,2.0;" x1="8" x2="182" y1="1109.3516" y2="1109.3516"/><polygon fill="#A80036" points="166,1134.4844,176,1138.4844,166,1142.4844,170,1138.4844" style="stroke: #A80036; stroke-width: 1.0;"/><line style="stroke: #A80036; stroke-width: 1.0;" x1="3" x2="172" y1="1138.4844" y2="1138.4844"/><text fill="#000000" font-family="sans-serif" font-size="13" lengthAdjust="spacingAndGlyphs" textLength="44" x="10" y="1133.4185">Dead()</text><line style="stroke: #A80036; stroke-width: 1.0;" x1="193" x2="235" y1="1167.6172" y2="1167.6172"/><line style="stroke: #A80036; stroke-width: 1.0;" x1="235" x2="235" y1="1167.6172" y2="1180.6172"/><line style="stroke: #A80036; stroke-width: 1.0;" x1="194" x2="235" y1="1180.6172" y2="1180.6172"/><polygon fill="#A80036" points="204,1176.6172,194,1180.6172,204,1184.6172,200,1180.6172" style="stroke: #A80036; stroke-width: 1.0;"/><text fill="#000000" font-family="sans-serif" font-size="13" lengthAdjust="spacingAndGlyphs" textLength="143" x="200" y="1162.5513">生存フラグを無効にする</text><polygon fill="#A80036" points="1268,1235.75,1278,1239.75,1268,1243.75,1272,1239.75" style="stroke: #A80036; stroke-width: 1.0;"/><line style="stroke: #A80036; stroke-width: 1.0;" x1="188" x2="1274" y1="1239.75" y2="1239.75"/><text fill="#000000" font-family="sans-serif" font-size="13" lengthAdjust="spacingAndGlyphs" textLength="108" x="195" y="1234.6841">PlayerGameOver</text><polygon fill="#A80036" points="199,1249.75,189,1253.75,199,1257.75,195,1253.75" style="stroke: #A80036; stroke-width: 1.0;"/><line style="stroke: #A80036; stroke-width: 1.0; stroke-dasharray: 2.0,2.0;" x1="193" x2="1284" y1="1253.75" y2="1253.75"/><polygon fill="#A80036" points="14,1263.75,4,1267.75,14,1271.75,10,1267.75" style="stroke: #A80036; stroke-width: 1.0;"/><line style="stroke: #A80036; stroke-width: 1.0; stroke-dasharray: 2.0,2.0;" x1="8" x2="182" y1="1267.75" y2="1267.75"/><!--MD5=[736b9e926d334636868b7a1ad0146217]
@startuml


[-> Player : Setup
activate Player
    Player -> Player : 生存フラグを有効にする
    activate Player
    deactivate Player
    Player -> Player : ブロック群の選択肢を保持する
    activate Player
    deactivate Player
    Player -> MonoBehaviour : Instantiate
    activate MonoBehaviour
        MonoBehaviour -> AbstractField : create
        activate AbstractField
            MonoBehaviour <- - AbstractField
        deactivate AbstractField
        Player <- - MonoBehaviour : 生成されたAbstractField クラスのインスタンスを_currentBlock に保持する
    deactivate MonoBehaviour
    Player -> AbstractField : ResetField
    activate AbstractField
        Player <- - AbstractField
    deactivate AbstractField
    Player -> Player : _blockSetOptions からブロックの発生予定リストを生成する
    activate Player
    deactivate Player
    Player -> StatusPanel : UpdateReservation
    activate StatusPanel
        Player <- - StatusPanel
    deactivate StatusPanel
    [<- - Player
deactivate Player

[-> Player : StartGame
activate Player
    Player -> Player : PullNextBlock
    activate Player
    deactivate Player
    [<- - Player
deactivate Player

[-> Player : IsAlive
activate Player
    [<- - Player : 生存フラグ
deactivate Player

[-> Player : BlockSetHasBeenPlaced
activate Player
    Player -> GameObject : Destroy
    activate GameObject
        GameObject -> BlockSet : GameObject を削除
        activate BlockSet
            GameObject <- - BlockSet
        deactivate BlockSet
        Player <- - GameObject
    deactivate GameObject
    [<- - Player
deactivate Player

[-> Player : PullNextBlock
activate Player
    Player -> Player : _blockSetOptions からブロックの発生予定リストを生成する
    activate Player
    deactivate Player
    Player -> StatusPanel : UpdateReservation
    activate StatusPanel
    deactivate StatusPanel
    Player -> MonoBehaviour : Instantiate
    activate MonoBehaviour
        MonoBehaviour -> BlockSet : create
        activate BlockSet
            MonoBehaviour <- - BlockSet
        deactivate BlockSet
        Player <- - MonoBehaviour : 生成されたBlockSet クラスのインスタンスを_currentBlock に保持する
    deactivate MonoBehaviour
    Player -> BlockSet : Setup
    activate BlockSet
        Player <- - BlockSet
    deactivate BlockSet
    [<- - Player
deactivate Player

[-> Player : Dead()
activate Player
    Player -> Player : 生存フラグを無効にする
    activate Player
    deactivate Player
    Player -> StateGameMain : PlayerGameOver
    activate StateGameMain
        Player <- - StateGameMain
    deactivate StateGameMain
    [<- - Player
deactivate Player


@enduml

PlantUML version 1.2020.02(Sun Mar 01 10:22:07 GMT 2020)
(GPL source distribution)
Java Runtime: OpenJDK Runtime Environment
JVM: OpenJDK 64-Bit Server VM
Java Version: 11.0.9+11-Ubuntu-0ubuntu1
Operating System: Linux
Default Encoding: ANSI_X3.4-1968
Language: en
Country: US
--></g></svg>