<?xml version="1.0" encoding="UTF-8" standalone="no"?><svg xmlns="http://www.w3.org/2000/svg" xmlns:xlink="http://www.w3.org/1999/xlink" contentScriptType="application/ecmascript" contentStyleType="text/css" height="710px" preserveAspectRatio="none" style="width:466px;height:710px;" version="1.1" viewBox="0 0 466 710" width="466px" zoomAndPan="magnify"><defs><filter height="300%" id="f1dj8fzp5l4pf4" width="300%" x="-1" y="-1"><feGaussianBlur result="blurOut" stdDeviation="2.0"/><feColorMatrix in="blurOut" result="blurOut2" type="matrix" values="0 0 0 0 0 0 0 0 0 0 0 0 0 0 0 0 0 0 .4 0"/><feOffset dx="4.0" dy="4.0" in="blurOut2" result="blurOut3"/><feBlend in="SourceGraphic" in2="blurOut3" mode="normal"/></filter></defs><g><rect fill="#FFFFFF" filter="url(#f1dj8fzp5l4pf4)" height="176.3984" style="stroke: #A80036; stroke-width: 1.0;" width="10" x="82" y="69.4297"/><rect fill="#FFFFFF" filter="url(#f1dj8fzp5l4pf4)" height="28" style="stroke: #A80036; stroke-width: 1.0;" width="10" x="87" y="196.8281"/><rect fill="#FFFFFF" filter="url(#f1dj8fzp5l4pf4)" height="376.7969" style="stroke: #A80036; stroke-width: 1.0;" width="10" x="82" y="274.9609"/><rect fill="#FFFFFF" filter="url(#f1dj8fzp5l4pf4)" height="28" style="stroke: #A80036; stroke-width: 1.0;" width="10" x="87" y="312.0938"/><rect fill="#FFFFFF" filter="url(#f1dj8fzp5l4pf4)" height="28" style="stroke: #A80036; stroke-width: 1.0;" width="10" x="87" y="408.3594"/><rect fill="#FFFFFF" filter="url(#f1dj8fzp5l4pf4)" height="28" style="stroke: #A80036; stroke-width: 1.0;" width="10" x="87" y="480.4922"/><rect fill="#FFFFFF" filter="url(#f1dj8fzp5l4pf4)" height="28" style="stroke: #A80036; stroke-width: 1.0;" width="10" x="87" y="559.625"/><rect fill="#FFFFFF" filter="url(#f1dj8fzp5l4pf4)" height="30" style="stroke: #A80036; stroke-width: 1.0;" width="10" x="289" y="122.6953"/><rect fill="#FFFFFF" filter="url(#f1dj8fzp5l4pf4)" height="14" style="stroke: #A80036; stroke-width: 1.0;" width="10" x="391.5" y="623.7578"/><rect fill="#FFFFFF" filter="url(#f1dj8fzp5l4pf4)" height="76.2656" style="stroke: #000000; stroke-width: 2.0;" width="320.5" x="13" y="84.4297"/><rect fill="#FFFFFF" filter="url(#f1dj8fzp5l4pf4)" height="161.3984" style="stroke: #000000; stroke-width: 2.0;" width="339" x="13" y="362.0938"/><line style="stroke: #A80036; stroke-width: 1.0; stroke-dasharray: 5.0,5.0;" x1="87" x2="87" y1="38.2969" y2="669.7578"/><line style="stroke: #A80036; stroke-width: 1.0; stroke-dasharray: 5.0,5.0;" x1="293.5" x2="293.5" y1="38.2969" y2="669.7578"/><line style="stroke: #A80036; stroke-width: 1.0; stroke-dasharray: 5.0,5.0;" x1="396.5" x2="396.5" y1="38.2969" y2="669.7578"/><rect fill="#FEFECE" filter="url(#f1dj8fzp5l4pf4)" height="30.2969" style="stroke: #A80036; stroke-width: 1.5;" width="124" x="23" y="3"/><text fill="#000000" font-family="sans-serif" font-size="14" lengthAdjust="spacingAndGlyphs" textLength="110" x="30" y="22.9951">StateGameBoot</text><rect fill="#FEFECE" filter="url(#f1dj8fzp5l4pf4)" height="30.2969" style="stroke: #A80036; stroke-width: 1.5;" width="124" x="23" y="668.7578"/><text fill="#000000" font-family="sans-serif" font-size="14" lengthAdjust="spacingAndGlyphs" textLength="110" x="30" y="688.7529">StateGameBoot</text><rect fill="#FEFECE" filter="url(#f1dj8fzp5l4pf4)" height="30.2969" style="stroke: #A80036; stroke-width: 1.5;" width="55" x="264.5" y="3"/><text fill="#000000" font-family="sans-serif" font-size="14" lengthAdjust="spacingAndGlyphs" textLength="41" x="271.5" y="22.9951">Player</text><rect fill="#FEFECE" filter="url(#f1dj8fzp5l4pf4)" height="30.2969" style="stroke: #A80036; stroke-width: 1.5;" width="55" x="264.5" y="668.7578"/><text fill="#000000" font-family="sans-serif" font-size="14" lengthAdjust="spacingAndGlyphs" textLength="41" x="271.5" y="688.7529">Player</text><rect fill="#FEFECE" filter="url(#f1dj8fzp5l4pf4)" height="30.2969" style="stroke: #A80036; stroke-width: 1.5;" width="122" x="333.5" y="3"/><text fill="#000000" font-family="sans-serif" font-size="14" lengthAdjust="spacingAndGlyphs" textLength="108" x="340.5" y="22.9951">GameController</text><rect fill="#FEFECE" filter="url(#f1dj8fzp5l4pf4)" height="30.2969" style="stroke: #A80036; stroke-width: 1.5;" width="122" x="333.5" y="668.7578"/><text fill="#000000" font-family="sans-serif" font-size="14" lengthAdjust="spacingAndGlyphs" textLength="108" x="340.5" y="688.7529">GameController</text><rect fill="#FFFFFF" filter="url(#f1dj8fzp5l4pf4)" height="176.3984" style="stroke: #A80036; stroke-width: 1.0;" width="10" x="82" y="69.4297"/><rect fill="#FFFFFF" filter="url(#f1dj8fzp5l4pf4)" height="28" style="stroke: #A80036; stroke-width: 1.0;" width="10" x="87" y="196.8281"/><rect fill="#FFFFFF" filter="url(#f1dj8fzp5l4pf4)" height="376.7969" style="stroke: #A80036; stroke-width: 1.0;" width="10" x="82" y="274.9609"/><rect fill="#FFFFFF" filter="url(#f1dj8fzp5l4pf4)" height="28" style="stroke: #A80036; stroke-width: 1.0;" width="10" x="87" y="312.0938"/><rect fill="#FFFFFF" filter="url(#f1dj8fzp5l4pf4)" height="28" style="stroke: #A80036; stroke-width: 1.0;" width="10" x="87" y="408.3594"/><rect fill="#FFFFFF" filter="url(#f1dj8fzp5l4pf4)" height="28" style="stroke: #A80036; stroke-width: 1.0;" width="10" x="87" y="480.4922"/><rect fill="#FFFFFF" filter="url(#f1dj8fzp5l4pf4)" height="28" style="stroke: #A80036; stroke-width: 1.0;" width="10" x="87" y="559.625"/><rect fill="#FFFFFF" filter="url(#f1dj8fzp5l4pf4)" height="30" style="stroke: #A80036; stroke-width: 1.0;" width="10" x="289" y="122.6953"/><rect fill="#FFFFFF" filter="url(#f1dj8fzp5l4pf4)" height="14" style="stroke: #A80036; stroke-width: 1.0;" width="10" x="391.5" y="623.7578"/><polygon fill="#A80036" points="70,65.4297,80,69.4297,70,73.4297,74,69.4297" style="stroke: #A80036; stroke-width: 1.0;"/><line style="stroke: #A80036; stroke-width: 1.0;" x1="3" x2="76" y1="69.4297" y2="69.4297"/><text fill="#000000" font-family="sans-serif" font-size="13" lengthAdjust="spacingAndGlyphs" textLength="38" x="10" y="64.3638">Setup</text><path d="M13,84.4297 L90,84.4297 L90,91.4297 L80,101.4297 L13,101.4297 L13,84.4297 " fill="#EEEEEE" style="stroke: #000000; stroke-width: 1.0;"/><rect fill="none" height="76.2656" style="stroke: #000000; stroke-width: 2.0;" width="320.5" x="13" y="84.4297"/><text fill="#000000" font-family="sans-serif" font-size="13" font-weight="bold" lengthAdjust="spacingAndGlyphs" textLength="32" x="28" y="97.4966">loop</text><text fill="#000000" font-family="sans-serif" font-size="11" font-weight="bold" lengthAdjust="spacingAndGlyphs" textLength="120" x="105" y="96.6401">[プレイヤーごとに実行]</text><polygon fill="#A80036" points="277,118.6953,287,122.6953,277,126.6953,281,122.6953" style="stroke: #A80036; stroke-width: 1.0;"/><line style="stroke: #A80036; stroke-width: 1.0;" x1="92" x2="283" y1="122.6953" y2="122.6953"/><text fill="#000000" font-family="sans-serif" font-size="13" lengthAdjust="spacingAndGlyphs" textLength="38" x="99" y="117.6294">Setup</text><line style="stroke: #A80036; stroke-width: 1.0;" x1="97" x2="139" y1="188.8281" y2="188.8281"/><line style="stroke: #A80036; stroke-width: 1.0;" x1="139" x2="139" y1="188.8281" y2="201.8281"/><line style="stroke: #A80036; stroke-width: 1.0;" x1="98" x2="139" y1="201.8281" y2="201.8281"/><polygon fill="#A80036" points="108,197.8281,98,201.8281,108,205.8281,104,201.8281" style="stroke: #A80036; stroke-width: 1.0;"/><text fill="#000000" font-family="sans-serif" font-size="13" lengthAdjust="spacingAndGlyphs" textLength="155" x="104" y="183.7622">StartCoroutine(CoRun())</text><polygon fill="#A80036" points="14,241.8281,4,245.8281,14,249.8281,10,245.8281" style="stroke: #A80036; stroke-width: 1.0;"/><line style="stroke: #A80036; stroke-width: 1.0; stroke-dasharray: 2.0,2.0;" x1="8" x2="86" y1="245.8281" y2="245.8281"/><polygon fill="#A80036" points="70,270.9609,80,274.9609,70,278.9609,74,274.9609" style="stroke: #A80036; stroke-width: 1.0;"/><line style="stroke: #A80036; stroke-width: 1.0;" x1="3" x2="76" y1="274.9609" y2="274.9609"/><text fill="#000000" font-family="sans-serif" font-size="13" lengthAdjust="spacingAndGlyphs" textLength="41" x="10" y="269.895">CoRun</text><line style="stroke: #A80036; stroke-width: 1.0;" x1="97" x2="139" y1="304.0938" y2="304.0938"/><line style="stroke: #A80036; stroke-width: 1.0;" x1="139" x2="139" y1="304.0938" y2="317.0938"/><line style="stroke: #A80036; stroke-width: 1.0;" x1="98" x2="139" y1="317.0938" y2="317.0938"/><polygon fill="#A80036" points="108,313.0938,98,317.0938,108,321.0938,104,317.0938" style="stroke: #A80036; stroke-width: 1.0;"/><text fill="#000000" font-family="sans-serif" font-size="13" lengthAdjust="spacingAndGlyphs" textLength="144" x="104" y="299.0278">ラベル(_counter)を表示</text><path d="M13,362.0938 L90,362.0938 L90,369.0938 L80,379.0938 L13,379.0938 L13,362.0938 " fill="#EEEEEE" style="stroke: #000000; stroke-width: 1.0;"/><rect fill="none" height="161.3984" style="stroke: #000000; stroke-width: 2.0;" width="339" x="13" y="362.0938"/><text fill="#000000" font-family="sans-serif" font-size="13" font-weight="bold" lengthAdjust="spacingAndGlyphs" textLength="32" x="28" y="375.1606">loop</text><text fill="#000000" font-family="sans-serif" font-size="11" font-weight="bold" lengthAdjust="spacingAndGlyphs" textLength="242" x="105" y="374.3042">[カウントダウンが完了するまで(_countMax)]</text><line style="stroke: #A80036; stroke-width: 1.0;" x1="97" x2="139" y1="400.3594" y2="400.3594"/><line style="stroke: #A80036; stroke-width: 1.0;" x1="139" x2="139" y1="400.3594" y2="413.3594"/><line style="stroke: #A80036; stroke-width: 1.0;" x1="98" x2="139" y1="413.3594" y2="413.3594"/><polygon fill="#A80036" points="108,409.3594,98,413.3594,108,417.3594,104,413.3594" style="stroke: #A80036; stroke-width: 1.0;"/><text fill="#000000" font-family="sans-serif" font-size="13" lengthAdjust="spacingAndGlyphs" textLength="183" x="104" y="395.2935">カウントダウン更新(_counter)</text><line style="stroke: #A80036; stroke-width: 1.0;" x1="97" x2="139" y1="472.4922" y2="472.4922"/><line style="stroke: #A80036; stroke-width: 1.0;" x1="139" x2="139" y1="472.4922" y2="485.4922"/><line style="stroke: #A80036; stroke-width: 1.0;" x1="98" x2="139" y1="485.4922" y2="485.4922"/><polygon fill="#A80036" points="108,481.4922,98,485.4922,108,489.4922,104,485.4922" style="stroke: #A80036; stroke-width: 1.0;"/><text fill="#000000" font-family="sans-serif" font-size="13" lengthAdjust="spacingAndGlyphs" textLength="137" x="104" y="467.4263">WaitForFixedUpdate()</text><line style="stroke: #A80036; stroke-width: 1.0;" x1="97" x2="139" y1="551.625" y2="551.625"/><line style="stroke: #A80036; stroke-width: 1.0;" x1="139" x2="139" y1="551.625" y2="564.625"/><line style="stroke: #A80036; stroke-width: 1.0;" x1="98" x2="139" y1="564.625" y2="564.625"/><polygon fill="#A80036" points="108,560.625,98,564.625,108,568.625,104,564.625" style="stroke: #A80036; stroke-width: 1.0;"/><text fill="#000000" font-family="sans-serif" font-size="13" lengthAdjust="spacingAndGlyphs" textLength="157" x="104" y="546.5591">ラベル(_counter)を非表示</text><polygon fill="#A80036" points="379.5,619.7578,389.5,623.7578,379.5,627.7578,383.5,623.7578" style="stroke: #A80036; stroke-width: 1.0;"/><line style="stroke: #A80036; stroke-width: 1.0;" x1="92" x2="385.5" y1="623.7578" y2="623.7578"/><text fill="#000000" font-family="sans-serif" font-size="13" lengthAdjust="spacingAndGlyphs" textLength="63" x="99" y="618.6919">RunGame</text><polygon fill="#A80036" points="103,633.7578,93,637.7578,103,641.7578,99,637.7578" style="stroke: #A80036; stroke-width: 1.0;"/><line style="stroke: #A80036; stroke-width: 1.0; stroke-dasharray: 2.0,2.0;" x1="97" x2="395.5" y1="637.7578" y2="637.7578"/><polygon fill="#A80036" points="14,647.7578,4,651.7578,14,655.7578,10,651.7578" style="stroke: #A80036; stroke-width: 1.0;"/><line style="stroke: #A80036; stroke-width: 1.0; stroke-dasharray: 2.0,2.0;" x1="8" x2="86" y1="651.7578" y2="651.7578"/><!--MD5=[a0d359557b7aceadb8047207af2ec55d]
@startuml

[-> StateGameBoot : Setup
activate StateGameBoot
    loop プレイヤーごとに実行
        StateGameBoot -> Player : Setup
        activate Player
        deactivate Player
    end
    StateGameBoot -> StateGameBoot : StartCoroutine(CoRun())
        activate StateGameBoot
        deactivate StateGameBoot
    [<- - StateGameBoot
deactivate StateGameBoot

[-> StateGameBoot : CoRun
activate StateGameBoot
    StateGameBoot -> StateGameBoot : ラベル(_counter)を表示
    activate StateGameBoot
    deactivate StateGameBoot
    loop カウントダウンが完了するまで(_countMax)
        StateGameBoot -> StateGameBoot : カウントダウン更新(_counter)
        activate StateGameBoot
        deactivate StateGameBoot
        StateGameBoot -> StateGameBoot : WaitForFixedUpdate()
        activate StateGameBoot
        deactivate StateGameBoot
    end
    StateGameBoot -> StateGameBoot : ラベル(_counter)を非表示
    activate StateGameBoot
    deactivate StateGameBoot
    StateGameBoot -> GameController : RunGame
    activate GameController
        StateGameBoot <- - GameController
    deactivate GameController
    [<- - StateGameBoot
deactivate StateGameBoot


@enduml

PlantUML version 1.2020.02(Sun Mar 01 10:22:07 GMT 2020)
(GPL source distribution)
Java Runtime: OpenJDK Runtime Environment
JVM: OpenJDK 64-Bit Server VM
Java Version: 11.0.9+11-Ubuntu-0ubuntu1
Operating System: Linux
Default Encoding: ANSI_X3.4-1968
Language: en
Country: US
--></g></svg>