<?xml version="1.0" encoding="UTF-8" standalone="no"?><svg xmlns="http://www.w3.org/2000/svg" xmlns:xlink="http://www.w3.org/1999/xlink" contentScriptType="application/ecmascript" contentStyleType="text/css" height="334px" preserveAspectRatio="none" style="width:282px;height:334px;" version="1.1" viewBox="0 0 282 334" width="282px" zoomAndPan="magnify"><defs><filter height="300%" id="f1x74tthdvrjwk" width="300%" x="-1" y="-1"><feGaussianBlur result="blurOut" stdDeviation="2.0"/><feColorMatrix in="blurOut" result="blurOut2" type="matrix" values="0 0 0 0 0 0 0 0 0 0 0 0 0 0 0 0 0 0 .4 0"/><feOffset dx="4.0" dy="4.0" in="blurOut2" result="blurOut3"/><feBlend in="SourceGraphic" in2="blurOut3" mode="normal"/></filter></defs><g><!--MD5=[f432f6a74f838366b59e77c4bae35570]
class StateGameFinish--><rect fill="#FEFECE" filter="url(#f1x74tthdvrjwk)" height="99.2188" id="StateGameFinish" style="stroke: #A80036; stroke-width: 1.5;" width="236" x="22.62" y="116"/><ellipse cx="83.37" cy="132" fill="#ADD1B2" rx="11" ry="11" style="stroke: #A80036; stroke-width: 1.0;"/><path d="M86.3388,137.6406 Q85.7606,137.9375 85.12,138.0781 Q84.4794,138.2344 83.7763,138.2344 Q81.2763,138.2344 79.9481,136.5938 Q78.6356,134.9375 78.6356,131.8125 Q78.6356,128.6875 79.9481,127.0313 Q81.2763,125.375 83.7763,125.375 Q84.4794,125.375 85.12,125.5313 Q85.7763,125.6875 86.3388,125.9844 L86.3388,128.7031 Q85.7138,128.125 85.12,127.8594 Q84.5263,127.5781 83.9013,127.5781 Q82.5575,127.5781 81.87,128.6563 Q81.1825,129.7188 81.1825,131.8125 Q81.1825,133.9063 81.87,134.9844 Q82.5575,136.0469 83.9013,136.0469 Q84.5263,136.0469 85.12,135.7813 Q85.7138,135.5 86.3388,134.9219 L86.3388,137.6406 Z "/><text fill="#000000" font-family="sans-serif" font-size="12" lengthAdjust="spacingAndGlyphs" textLength="106" x="103.87" y="136.1543">StateGameFinish</text><line style="stroke: #A80036; stroke-width: 1.5;" x1="23.62" x2="257.62" y1="148" y2="148"/><rect fill="none" height="6" style="stroke: #C82930; stroke-width: 1.0;" width="6" x="30.62" y="156"/><text fill="#000000" font-family="sans-serif" font-size="11" lengthAdjust="spacingAndGlyphs" textLength="127" x="42.62" y="162.2104">_waitMax : float = 2.0f</text><ellipse cx="33.62" cy="171.8047" fill="none" rx="3" ry="3" style="stroke: #038048; stroke-width: 1.0;"/><text fill="#000000" font-family="sans-serif" font-size="11" lengthAdjust="spacingAndGlyphs" textLength="118" x="42.62" y="175.0151">WaitMax : float «get»</text><line style="stroke: #A80036; stroke-width: 1.5;" x1="23.62" x2="257.62" y1="181.6094" y2="181.6094"/><ellipse cx="33.62" cy="192.6094" fill="#84BE84" rx="3" ry="3" style="stroke: #038048; stroke-width: 1.0;"/><text fill="#000000" font-family="sans-serif" font-size="11" lengthAdjust="spacingAndGlyphs" textLength="210" x="42.62" y="195.8198">Setup(parent:IGameController) : void</text><rect fill="#F24D5C" height="6" style="stroke: #C82930; stroke-width: 1.0;" width="6" x="30.62" y="202.4141"/><text fill="#000000" font-family="sans-serif" font-size="11" lengthAdjust="spacingAndGlyphs" textLength="126" x="42.62" y="208.6245">CoRun() : IEnumerator</text><!--MD5=[83b3cf3d23d77c6f1e1b5291a241bc2a]
class MonoBehaviour--><rect fill="#FEFECE" filter="url(#f1x74tthdvrjwk)" height="48" id="MonoBehaviour" style="stroke: #A80036; stroke-width: 1.5;" width="128" x="76.62" y="8"/><ellipse cx="91.62" cy="24" fill="#ADD1B2" rx="11" ry="11" style="stroke: #A80036; stroke-width: 1.0;"/><path d="M94.5888,29.6406 Q94.0106,29.9375 93.37,30.0781 Q92.7294,30.2344 92.0263,30.2344 Q89.5263,30.2344 88.1981,28.5938 Q86.8856,26.9375 86.8856,23.8125 Q86.8856,20.6875 88.1981,19.0313 Q89.5263,17.375 92.0263,17.375 Q92.7294,17.375 93.37,17.5313 Q94.0263,17.6875 94.5888,17.9844 L94.5888,20.7031 Q93.9638,20.125 93.37,19.8594 Q92.7763,19.5781 92.1513,19.5781 Q90.8075,19.5781 90.12,20.6563 Q89.4325,21.7188 89.4325,23.8125 Q89.4325,25.9063 90.12,26.9844 Q90.8075,28.0469 92.1513,28.0469 Q92.7763,28.0469 93.37,27.7813 Q93.9638,27.5 94.5888,26.9219 L94.5888,29.6406 Z "/><text fill="#000000" font-family="sans-serif" font-size="12" lengthAdjust="spacingAndGlyphs" textLength="96" x="105.62" y="28.1543">MonoBehaviour</text><line style="stroke: #A80036; stroke-width: 1.5;" x1="77.62" x2="203.62" y1="40" y2="40"/><line style="stroke: #A80036; stroke-width: 1.5;" x1="77.62" x2="203.62" y1="48" y2="48"/><!--MD5=[02a8746eb15ecbb4566dafa16ea4db73]
class Text--><rect fill="#FEFECE" filter="url(#f1x74tthdvrjwk)" height="48" id="Text" style="stroke: #A80036; stroke-width: 1.5;" width="58" x="46.62" y="275"/><ellipse cx="61.62" cy="291" fill="#ADD1B2" rx="11" ry="11" style="stroke: #A80036; stroke-width: 1.0;"/><path d="M64.5888,296.6406 Q64.0106,296.9375 63.37,297.0781 Q62.7294,297.2344 62.0263,297.2344 Q59.5263,297.2344 58.1981,295.5938 Q56.8856,293.9375 56.8856,290.8125 Q56.8856,287.6875 58.1981,286.0313 Q59.5263,284.375 62.0263,284.375 Q62.7294,284.375 63.37,284.5313 Q64.0263,284.6875 64.5888,284.9844 L64.5888,287.7031 Q63.9638,287.125 63.37,286.8594 Q62.7763,286.5781 62.1513,286.5781 Q60.8075,286.5781 60.12,287.6563 Q59.4325,288.7188 59.4325,290.8125 Q59.4325,292.9063 60.12,293.9844 Q60.8075,295.0469 62.1513,295.0469 Q62.7763,295.0469 63.37,294.7813 Q63.9638,294.5 64.5888,293.9219 L64.5888,296.6406 Z "/><text fill="#000000" font-family="sans-serif" font-size="12" lengthAdjust="spacingAndGlyphs" textLength="26" x="75.62" y="295.1543">Text</text><line style="stroke: #A80036; stroke-width: 1.5;" x1="47.62" x2="103.62" y1="307" y2="307"/><line style="stroke: #A80036; stroke-width: 1.5;" x1="47.62" x2="103.62" y1="315" y2="315"/><!--MD5=[3b9fec7f9d226106b53caed4fa4e6f62]
class IGameController--><rect fill="#FEFECE" filter="url(#f1x74tthdvrjwk)" height="48" id="IGameController" style="stroke: #A80036; stroke-width: 1.5;" width="132" x="139.62" y="275"/><ellipse cx="154.62" cy="291" fill="#ADD1B2" rx="11" ry="11" style="stroke: #A80036; stroke-width: 1.0;"/><path d="M157.5888,296.6406 Q157.0106,296.9375 156.37,297.0781 Q155.7294,297.2344 155.0263,297.2344 Q152.5263,297.2344 151.1981,295.5938 Q149.8856,293.9375 149.8856,290.8125 Q149.8856,287.6875 151.1981,286.0313 Q152.5263,284.375 155.0263,284.375 Q155.7294,284.375 156.37,284.5313 Q157.0263,284.6875 157.5888,284.9844 L157.5888,287.7031 Q156.9638,287.125 156.37,286.8594 Q155.7763,286.5781 155.1513,286.5781 Q153.8075,286.5781 153.12,287.6563 Q152.4325,288.7188 152.4325,290.8125 Q152.4325,292.9063 153.12,293.9844 Q153.8075,295.0469 155.1513,295.0469 Q155.7763,295.0469 156.37,294.7813 Q156.9638,294.5 157.5888,293.9219 L157.5888,296.6406 Z "/><text fill="#000000" font-family="sans-serif" font-size="12" lengthAdjust="spacingAndGlyphs" textLength="100" x="168.62" y="295.1543">IGameController</text><line style="stroke: #A80036; stroke-width: 1.5;" x1="140.62" x2="270.62" y1="307" y2="307"/><line style="stroke: #A80036; stroke-width: 1.5;" x1="140.62" x2="270.62" y1="315" y2="315"/><!--MD5=[eff29cb5f46a3eecee2a34789b7bc39b]
reverse link MonoBehaviour to StateGameFinish--><path d="M140.62,76.51 C140.62,89.14 140.62,103.01 140.62,115.93 " fill="none" id="MonoBehaviour&lt;-StateGameFinish" style="stroke: #A80036; stroke-width: 1.0;"/><polygon fill="none" points="133.62,76.21,140.62,56.21,147.62,76.21,133.62,76.21" style="stroke: #A80036; stroke-width: 1.0;"/><!--MD5=[44225af19a73ae670fbe8f69dc66eab6]
link StateGameFinish to Text--><path d="M116.6,215.09 C107.42,233.66 97.28,254.18 89.38,270.17 " fill="none" id="StateGameFinish-&gt;Text" style="stroke: #A80036; stroke-width: 1.0;"/><polygon fill="#A80036" points="87,274.98,94.5785,268.6899,89.2189,270.4993,87.4094,265.1397,87,274.98" style="stroke: #A80036; stroke-width: 1.0;"/><text fill="#000000" font-family="sans-serif" font-size="13" lengthAdjust="spacingAndGlyphs" textLength="66" x="15.4599" y="263.9869">_message</text><!--MD5=[733695c847752f0f37b3352879c7e482]
link StateGameFinish to IGameController--><path d="M164.64,215.09 C173.82,233.66 183.96,254.18 191.86,270.17 " fill="none" id="StateGameFinish-&gt;IGameController" style="stroke: #A80036; stroke-width: 1.0;"/><polygon fill="#A80036" points="194.24,274.98,193.8306,265.1397,192.0211,270.4993,186.6615,268.6899,194.24,274.98" style="stroke: #A80036; stroke-width: 1.0;"/><text fill="#000000" font-family="sans-serif" font-size="13" lengthAdjust="spacingAndGlyphs" textLength="49" x="136.0458" y="263.9869">_parent</text><!--MD5=[8c45cc0e38b2989b1830a09499c7ad5d]
@startuml
class StateGameFinish {
    - _waitMax : float = 2.0f
    + WaitMax : float <<get>>
    + Setup(parent:IGameController) : void
    - CoRun() : IEnumerator
}
MonoBehaviour <|- - StateGameFinish
StateGameFinish - -> "_message" Text
StateGameFinish - -> "_parent" IGameController
@enduml

PlantUML version 1.2020.02(Sun Mar 01 10:22:07 GMT 2020)
(GPL source distribution)
Java Runtime: OpenJDK Runtime Environment
JVM: OpenJDK 64-Bit Server VM
Java Version: 11.0.9+11-Ubuntu-0ubuntu1
Operating System: Linux
Default Encoding: ANSI_X3.4-1968
Language: en
Country: US
--></g></svg>