<?xml version="1.0" encoding="UTF-8" standalone="no"?><svg xmlns="http://www.w3.org/2000/svg" xmlns:xlink="http://www.w3.org/1999/xlink" contentScriptType="application/ecmascript" contentStyleType="text/css" height="303px" preserveAspectRatio="none" style="width:620px;height:303px;" version="1.1" viewBox="0 0 620 303" width="620px" zoomAndPan="magnify"><defs><filter height="300%" id="fhajjx0c0heej" width="300%" x="-1" y="-1"><feGaussianBlur result="blurOut" stdDeviation="2.0"/><feColorMatrix in="blurOut" result="blurOut2" type="matrix" values="0 0 0 0 0 0 0 0 0 0 0 0 0 0 0 0 0 0 .4 0"/><feOffset dx="4.0" dy="4.0" in="blurOut2" result="blurOut3"/><feBlend in="SourceGraphic" in2="blurOut3" mode="normal"/></filter></defs><g><!--MD5=[1ccf88b84f217b1b30fe294299e2e1d6]
class AbstractField--><rect fill="#FEFECE" filter="url(#fhajjx0c0heej)" height="176.0469" id="AbstractField" style="stroke: #A80036; stroke-width: 1.5;" width="603" x="6" y="116"/><ellipse cx="262.75" cy="132" fill="#A9DCDF" rx="11" ry="11" style="stroke: #A80036; stroke-width: 1.0;"/><path d="M262.8594,127.3438 L261.7031,132.4219 L264.0313,132.4219 L262.8594,127.3438 Z M261.375,125.1094 L264.3594,125.1094 L267.7188,137.5 L265.2656,137.5 L264.5,134.4375 L261.2188,134.4375 L260.4688,137.5 L258.0313,137.5 L261.375,125.1094 Z "/>
<text fill="#000000" font-family="sans-serif" font-size="12" font-style="italic" lengthAdjust="spacingAndGlyphs" textLength="81" x="283.25" y="136.1543">AbstractField</text><line style="stroke: #A80036; stroke-width: 1.5;" x1="7" x2="608" y1="148" y2="148"/><ellipse cx="17" cy="159" fill="none" rx="3" ry="3" style="stroke: #038048; stroke-width: 1.0;"/>
<text fill="#000000" font-family="sans-serif" font-size="11" lengthAdjust="spacingAndGlyphs" textLength="323" x="26" y="162.2104">«const» NumberOfFramesToStandByNextBlock : int = 30</text><ellipse cx="17" cy="171.8047" fill="none" rx="3" ry="3" style="stroke: #038048; stroke-width: 1.0;"/>
<text fill="#000000" font-family="sans-serif" font-size="11" lengthAdjust="spacingAndGlyphs" textLength="249" x="26" y="175.0151">«const» NumberOfFramesToSlide : int = 30</text><ellipse cx="17" cy="184.6094" fill="none" rx="3" ry="3" style="stroke: #038048; stroke-width: 1.0;"/>
<text fill="#000000" font-family="sans-serif" font-size="11" lengthAdjust="spacingAndGlyphs" textLength="262" x="26" y="187.8198">«const» NumberOfFramesToReduce : int = 30</text><line style="stroke: #A80036; stroke-width: 1.5;" x1="7" x2="608" y1="194.4141" y2="194.4141"/><ellipse cx="17" cy="205.4141" fill="#84BE84" rx="3" ry="3" style="stroke: #038048; stroke-width: 1.0;"/>
<text fill="#000000" font-family="sans-serif" font-size="11" font-style="italic" lengthAdjust="spacingAndGlyphs" textLength="577" x="26" y="208.6245">ResetField(statusPanel:IStatusPanel, sound:ISoundManager, width:int, height:int, borderLine:int) : void</text><ellipse cx="17" cy="218.2188" fill="#84BE84" rx="3" ry="3" style="stroke: #038048; stroke-width: 1.0;"/>
<text fill="#000000" font-family="sans-serif" font-size="11" font-style="italic" lengthAdjust="spacingAndGlyphs" textLength="66" x="26" y="221.4292">Width() : int</text><ellipse cx="17" cy="231.0234" fill="#84BE84" rx="3" ry="3" style="stroke: #038048; stroke-width: 1.0;"/>
<text fill="#000000" font-family="sans-serif" font-size="11" font-style="italic" lengthAdjust="spacingAndGlyphs" textLength="70" x="26" y="234.2339">Height() : int</text><ellipse cx="17" cy="243.8281" fill="#84BE84" rx="3" ry="3" style="stroke: #038048; stroke-width: 1.0;"/>
<text fill="#000000" font-family="sans-serif" font-size="11" font-style="italic" lengthAdjust="spacingAndGlyphs" textLength="175" x="26" y="247.0386">SetBlocks(blocks:Block[]) : bool</text><ellipse cx="17" cy="256.6328" fill="#84BE84" rx="3" ry="3" style="stroke: #038048; stroke-width: 1.0;"/>
<text fill="#000000" font-family="sans-serif" font-size="11" font-style="italic" lengthAdjust="spacingAndGlyphs" textLength="173" x="26" y="259.8433">IsHit(blocks:Vector2Int[]) : bool</text><ellipse cx="17" cy="269.4375" fill="#84BE84" rx="3" ry="3" style="stroke: #038048; stroke-width: 1.0;"/>
<text fill="#000000" font-family="sans-serif" font-size="11" font-style="italic" lengthAdjust="spacingAndGlyphs" textLength="193" x="26" y="272.6479">ReduceLines(owner:IPlayer) : void</text><ellipse cx="17" cy="282.2422" fill="#84BE84" rx="3" ry="3" style="stroke: #038048; stroke-width: 1.0;"/>
<text fill="#000000" font-family="sans-serif" font-size="11" font-style="italic" lengthAdjust="spacingAndGlyphs" textLength="115" x="26" y="285.4526">GetFieldMap() : int[,]</text><!--MD5=[83b3cf3d23d77c6f1e1b5291a241bc2a]
class MonoBehaviour--><rect fill="#FEFECE" filter="url(#fhajjx0c0heej)" height="48" id="MonoBehaviour" style="stroke: #A80036; stroke-width: 1.5;" width="128" x="243.5" y="8"/><ellipse cx="258.5" cy="24" fill="#ADD1B2" rx="11" ry="11" style="stroke: #A80036; stroke-width: 1.0;"/><path d="M261.4688,29.6406 Q260.8906,29.9375 260.25,30.0781 Q259.6094,30.2344 258.9063,30.2344 Q256.4063,30.2344 255.0781,28.5938 Q253.7656,26.9375 253.7656,23.8125 Q253.7656,20.6875 255.0781,19.0313 Q256.4063,17.375 258.9063,17.375 Q259.6094,17.375 260.25,17.5313 Q260.9063,17.6875 261.4688,17.9844 L261.4688,20.7031 Q260.8438,20.125 260.25,19.8594 Q259.6563,19.5781 259.0313,19.5781 Q257.6875,19.5781 257,20.6563 Q256.3125,21.7188 256.3125,23.8125 Q256.3125,25.9063 257,26.9844 Q257.6875,28.0469 259.0313,28.0469 Q259.6563,28.0469 260.25,27.7813 Q260.8438,27.5 261.4688,26.9219 L261.4688,29.6406 Z "/>
<text fill="#000000" font-family="sans-serif" font-size="12" lengthAdjust="spacingAndGlyphs" textLength="96" x="272.5" y="28.1543">MonoBehaviour</text><line style="stroke: #A80036; stroke-width: 1.5;" x1="244.5" x2="370.5" y1="40" y2="40"/><line style="stroke: #A80036; stroke-width: 1.5;" x1="244.5" x2="370.5" y1="48" y2="48"/><!--MD5=[c2c43118b60cdbd9754d049de1411913]
reverse link MonoBehaviour to AbstractField--><path d="M307.5,76.71 C307.5,88.77 307.5,102.3 307.5,115.9 " fill="none" id="MonoBehaviour&lt;-AbstractField" style="stroke: #A80036; stroke-width: 1.0;"/><polygon fill="none" points="300.5,76.28,307.5,56.28,314.5,76.28,300.5,76.28" style="stroke: #A80036; stroke-width: 1.0;"/><!--MD5=[8b4999a7423b51ab353f2ae01509c86d]
@startuml
abstract class AbstractField {
    + <<const>> NumberOfFramesToStandByNextBlock : int = 30
    + <<const>> NumberOfFramesToSlide : int = 30
    + <<const>> NumberOfFramesToReduce : int = 30
    + {abstract} ResetField(statusPanel:IStatusPanel, sound:ISoundManager, width:int, height:int, borderLine:int) : void
    + {abstract} Width() : int
    + {abstract} Height() : int
    + {abstract} SetBlocks(blocks:Block[]) : bool
    + {abstract} IsHit(blocks:Vector2Int[]) : bool
    + {abstract} ReduceLines(owner:IPlayer) : void
    + {abstract} GetFieldMap() : int[,]
}
MonoBehaviour <|- - AbstractField
@enduml

PlantUML version 1.2020.02(Sun Mar 01 10:22:07 GMT 2020)
(GPL source distribution)
Java Runtime: OpenJDK Runtime Environment
JVM: OpenJDK 64-Bit Server VM
Java Version: 11.0.9+11-Ubuntu-0ubuntu1
Operating System: Linux
Default Encoding: ANSI_X3.4-1968
Language: en
Country: US
--></g></svg>
