<?xml version="1.0" encoding="UTF-8" standalone="no"?><svg xmlns="http://www.w3.org/2000/svg" xmlns:xlink="http://www.w3.org/1999/xlink" contentScriptType="application/ecmascript" contentStyleType="text/css" height="200px" preserveAspectRatio="none" style="width:354px;height:200px;" version="1.1" viewBox="0 0 354 200" width="354px" zoomAndPan="magnify"><defs><filter height="300%" id="fx2lkd5bav8qd" width="300%" x="-1" y="-1"><feGaussianBlur result="blurOut" stdDeviation="2.0"/><feColorMatrix in="blurOut" result="blurOut2" type="matrix" values="0 0 0 0 0 0 0 0 0 0 0 0 0 0 0 0 0 0 .4 0"/><feOffset dx="4.0" dy="4.0" in="blurOut2" result="blurOut3"/><feBlend in="SourceGraphic" in2="blurOut3" mode="normal"/></filter></defs><g><!--MD5=[b5be1ff950ebddaf02f10067d2d07139]
class AbstractStateGameMain--><rect fill="#FEFECE" filter="url(#fx2lkd5bav8qd)" height="73.6094" id="AbstractStateGameMain" style="stroke: #A80036; stroke-width: 1.5;" width="337" x="6" y="116"/><ellipse cx="94.75" cy="132" fill="#A9DCDF" rx="11" ry="11" style="stroke: #A80036; stroke-width: 1.0;"/><path d="M94.8594,127.3438 L93.7031,132.4219 L96.0313,132.4219 L94.8594,127.3438 Z M93.375,125.1094 L96.3594,125.1094 L99.7188,137.5 L97.2656,137.5 L96.5,134.4375 L93.2188,134.4375 L92.4688,137.5 L90.0313,137.5 L93.375,125.1094 Z "/>
<text fill="#000000" font-family="sans-serif" font-size="12" font-style="italic" lengthAdjust="spacingAndGlyphs" textLength="151" x="115.25" y="136.1543">AbstractStateGameMain</text><line style="stroke: #A80036; stroke-width: 1.5;" x1="7" x2="342" y1="148" y2="148"/><line style="stroke: #A80036; stroke-width: 1.5;" x1="7" x2="342" y1="156" y2="156"/><ellipse cx="17" cy="167" fill="#84BE84" rx="3" ry="3" style="stroke: #038048; stroke-width: 1.0;"/>
<text fill="#000000" font-family="sans-serif" font-size="11" font-style="italic" lengthAdjust="spacingAndGlyphs" textLength="311" x="26" y="170.2104">Setup(parent:IGameController, players:IPlayer[]) : void</text><ellipse cx="17" cy="179.8047" fill="#84BE84" rx="3" ry="3" style="stroke: #038048; stroke-width: 1.0;"/>
<text fill="#000000" font-family="sans-serif" font-size="11" font-style="italic" lengthAdjust="spacingAndGlyphs" textLength="221" x="26" y="183.0151">PlayerGameOver(player:IPlayer) : void</text><!--MD5=[83b3cf3d23d77c6f1e1b5291a241bc2a]
class MonoBehaviour--><rect fill="#FEFECE" filter="url(#fx2lkd5bav8qd)" height="48" id="MonoBehaviour" style="stroke: #A80036; stroke-width: 1.5;" width="128" x="110.5" y="8"/><ellipse cx="125.5" cy="24" fill="#ADD1B2" rx="11" ry="11" style="stroke: #A80036; stroke-width: 1.0;"/><path d="M128.4688,29.6406 Q127.8906,29.9375 127.25,30.0781 Q126.6094,30.2344 125.9063,30.2344 Q123.4063,30.2344 122.0781,28.5938 Q120.7656,26.9375 120.7656,23.8125 Q120.7656,20.6875 122.0781,19.0313 Q123.4063,17.375 125.9063,17.375 Q126.6094,17.375 127.25,17.5313 Q127.9063,17.6875 128.4688,17.9844 L128.4688,20.7031 Q127.8438,20.125 127.25,19.8594 Q126.6563,19.5781 126.0313,19.5781 Q124.6875,19.5781 124,20.6563 Q123.3125,21.7188 123.3125,23.8125 Q123.3125,25.9063 124,26.9844 Q124.6875,28.0469 126.0313,28.0469 Q126.6563,28.0469 127.25,27.7813 Q127.8438,27.5 128.4688,26.9219 L128.4688,29.6406 Z "/>
<text fill="#000000" font-family="sans-serif" font-size="12" lengthAdjust="spacingAndGlyphs" textLength="96" x="139.5" y="28.1543">MonoBehaviour</text><line style="stroke: #A80036; stroke-width: 1.5;" x1="111.5" x2="237.5" y1="40" y2="40"/><line style="stroke: #A80036; stroke-width: 1.5;" x1="111.5" x2="237.5" y1="48" y2="48"/><!--MD5=[9afeac4a830a9e52ea4fd7ddcf5dc88c]
reverse link MonoBehaviour to AbstractStateGameMain--><path d="M174.5,76.43 C174.5,89.33 174.5,103.32 174.5,115.71 " fill="none" id="MonoBehaviour&lt;-AbstractStateGameMain" style="stroke: #A80036; stroke-width: 1.0;"/><polygon fill="none" points="167.5,76.23,174.5,56.23,181.5,76.23,167.5,76.23" style="stroke: #A80036; stroke-width: 1.0;"/><!--MD5=[03f06f9b6dfb527f44f9cbb3da08f211]
@startuml
abstract class AbstractStateGameMain {
    + {abstract} Setup(parent:IGameController, players:IPlayer[]) : void
    + {abstract} PlayerGameOver(player:IPlayer) : void
}
MonoBehaviour <|- - AbstractStateGameMain
@enduml

PlantUML version 1.2020.02(Sun Mar 01 10:22:07 GMT 2020)
(GPL source distribution)
Java Runtime: OpenJDK Runtime Environment
JVM: OpenJDK 64-Bit Server VM
Java Version: 11.0.9+11-Ubuntu-0ubuntu1
Operating System: Linux
Default Encoding: ANSI_X3.4-1968
Language: en
Country: US
--></g></svg>
