<?xml version="1.0" encoding="UTF-8" standalone="no"?><svg xmlns="http://www.w3.org/2000/svg" xmlns:xlink="http://www.w3.org/1999/xlink" contentScriptType="application/ecmascript" contentStyleType="text/css" height="213px" preserveAspectRatio="none" style="width:145px;height:213px;" version="1.1" viewBox="0 0 145 213" width="145px" zoomAndPan="magnify"><defs><filter height="300%" id="fkupgofj2i6un" width="300%" x="-1" y="-1"><feGaussianBlur result="blurOut" stdDeviation="2.0"/><feColorMatrix in="blurOut" result="blurOut2" type="matrix" values="0 0 0 0 0 0 0 0 0 0 0 0 0 0 0 0 0 0 .4 0"/><feOffset dx="4.0" dy="4.0" in="blurOut2" result="blurOut3"/><feBlend in="SourceGraphic" in2="blurOut3" mode="normal"/></filter></defs><g><!--MD5=[68a0c021ad4fbab63794e91c3c368f48]
class Block--><rect fill="#FEFECE" filter="url(#fkupgofj2i6un)" height="86.4141" id="Block" style="stroke: #A80036; stroke-width: 1.5;" width="114" x="13" y="116"/><ellipse cx="50.05" cy="132" fill="#ADD1B2" rx="11" ry="11" style="stroke: #A80036; stroke-width: 1.0;"/><path d="M53.0188,137.6406 Q52.4406,137.9375 51.8,138.0781 Q51.1594,138.2344 50.4563,138.2344 Q47.9563,138.2344 46.6281,136.5938 Q45.3156,134.9375 45.3156,131.8125 Q45.3156,128.6875 46.6281,127.0313 Q47.9563,125.375 50.4563,125.375 Q51.1594,125.375 51.8,125.5313 Q52.4563,125.6875 53.0188,125.9844 L53.0188,128.7031 Q52.3938,128.125 51.8,127.8594 Q51.2063,127.5781 50.5813,127.5781 Q49.2375,127.5781 48.55,128.6563 Q47.8625,129.7188 47.8625,131.8125 Q47.8625,133.9063 48.55,134.9844 Q49.2375,136.0469 50.5813,136.0469 Q51.2063,136.0469 51.8,135.7813 Q52.3938,135.5 53.0188,134.9219 L53.0188,137.6406 Z "/>
<text fill="#000000" font-family="sans-serif" font-size="12" lengthAdjust="spacingAndGlyphs" textLength="33" x="68.95" y="136.1543">Block</text><line style="stroke: #A80036; stroke-width: 1.5;" x1="14" x2="126" y1="148" y2="148"/><ellipse cx="24" cy="159" fill="none" rx="3" ry="3" style="stroke: #038048; stroke-width: 1.0;"/>
<text fill="#000000" font-family="sans-serif" font-size="11" lengthAdjust="spacingAndGlyphs" textLength="39" x="33" y="162.2104">Px : int</text><ellipse cx="24" cy="171.8047" fill="none" rx="3" ry="3" style="stroke: #038048; stroke-width: 1.0;"/>
<text fill="#000000" font-family="sans-serif" font-size="11" lengthAdjust="spacingAndGlyphs" textLength="39" x="33" y="175.0151">Py : int</text><line style="stroke: #A80036; stroke-width: 1.5;" x1="14" x2="126" y1="181.6094" y2="181.6094"/><ellipse cx="24" cy="192.6094" fill="#84BE84" rx="3" ry="3" style="stroke: #038048; stroke-width: 1.0;"/>
<text fill="#000000" font-family="sans-serif" font-size="11" lengthAdjust="spacingAndGlyphs" textLength="88" x="33" y="195.8198">Remove() : void</text><!--MD5=[83b3cf3d23d77c6f1e1b5291a241bc2a]
class MonoBehaviour--><rect fill="#FEFECE" filter="url(#fkupgofj2i6un)" height="48" id="MonoBehaviour" style="stroke: #A80036; stroke-width: 1.5;" width="128" x="6" y="8"/><ellipse cx="21" cy="24" fill="#ADD1B2" rx="11" ry="11" style="stroke: #A80036; stroke-width: 1.0;"/><path d="M23.9688,29.6406 Q23.3906,29.9375 22.75,30.0781 Q22.1094,30.2344 21.4063,30.2344 Q18.9063,30.2344 17.5781,28.5938 Q16.2656,26.9375 16.2656,23.8125 Q16.2656,20.6875 17.5781,19.0313 Q18.9063,17.375 21.4063,17.375 Q22.1094,17.375 22.75,17.5313 Q23.4063,17.6875 23.9688,17.9844 L23.9688,20.7031 Q23.3438,20.125 22.75,19.8594 Q22.1563,19.5781 21.5313,19.5781 Q20.1875,19.5781 19.5,20.6563 Q18.8125,21.7188 18.8125,23.8125 Q18.8125,25.9063 19.5,26.9844 Q20.1875,28.0469 21.5313,28.0469 Q22.1563,28.0469 22.75,27.7813 Q23.3438,27.5 23.9688,26.9219 L23.9688,29.6406 Z "/>
<text fill="#000000" font-family="sans-serif" font-size="12" lengthAdjust="spacingAndGlyphs" textLength="96" x="35" y="28.1543">MonoBehaviour</text><line style="stroke: #A80036; stroke-width: 1.5;" x1="7" x2="133" y1="40" y2="40"/><line style="stroke: #A80036; stroke-width: 1.5;" x1="7" x2="133" y1="48" y2="48"/><!--MD5=[385f0f93bb7ca549dd6bd8aae9de1418]
reverse link MonoBehaviour to Block--><path d="M70,76.27 C70,89.12 70,103.17 70,115.94 " fill="none" id="MonoBehaviour&lt;-Block" style="stroke: #A80036; stroke-width: 1.0;"/><polygon fill="none" points="63,76.22,70,56.22,77,76.22,63,76.22" style="stroke: #A80036; stroke-width: 1.0;"/><!--MD5=[9b25c6c36f4a3da30fd56007578b5838]
@startuml
class Block {
    + Px : int
    + Py : int
    + Remove() : void
}
MonoBehaviour <|- - Block
@enduml

PlantUML version 1.2020.02(Sun Mar 01 10:22:07 GMT 2020)
(GPL source distribution)
Java Runtime: OpenJDK Runtime Environment
JVM: OpenJDK 64-Bit Server VM
Java Version: 11.0.9+11-Ubuntu-0ubuntu1
Operating System: Linux
Default Encoding: ANSI_X3.4-1968
Language: en
Country: US
--></g></svg>
