<?xml version="1.0" encoding="UTF-8" standalone="no"?><svg xmlns="http://www.w3.org/2000/svg" xmlns:xlink="http://www.w3.org/1999/xlink" contentScriptType="application/ecmascript" contentStyleType="text/css" height="590px" preserveAspectRatio="none" style="width:955px;height:590px;" version="1.1" viewBox="0 0 955 590" width="955px" zoomAndPan="magnify"><defs><filter height="300%" id="f13ns4fcjpzv1a" width="300%" x="-1" y="-1"><feGaussianBlur result="blurOut" stdDeviation="2.0"/><feColorMatrix in="blurOut" result="blurOut2" type="matrix" values="0 0 0 0 0 0 0 0 0 0 0 0 0 0 0 0 0 0 .4 0"/><feOffset dx="4.0" dy="4.0" in="blurOut2" result="blurOut3"/><feBlend in="SourceGraphic" in2="blurOut3" mode="normal"/></filter></defs><g><!--MD5=[f31abd274b6031e8a029f6b8179e8434]
class BlockSet--><rect fill="#FEFECE" filter="url(#f13ns4fcjpzv1a)" height="355.3125" id="BlockSet" style="stroke: #A80036; stroke-width: 1.5;" width="680" x="112.56" y="116"/><ellipse cx="421.31" cy="132" fill="#ADD1B2" rx="11" ry="11" style="stroke: #A80036; stroke-width: 1.0;"/><path d="M424.2788,137.6406 Q423.7006,137.9375 423.06,138.0781 Q422.4194,138.2344 421.7163,138.2344 Q419.2163,138.2344 417.8881,136.5938 Q416.5756,134.9375 416.5756,131.8125 Q416.5756,128.6875 417.8881,127.0313 Q419.2163,125.375 421.7163,125.375 Q422.4194,125.375 423.06,125.5313 Q423.7163,125.6875 424.2788,125.9844 L424.2788,128.7031 Q423.6538,128.125 423.06,127.8594 Q422.4663,127.5781 421.8413,127.5781 Q420.4975,127.5781 419.81,128.6563 Q419.1225,129.7188 419.1225,131.8125 Q419.1225,133.9063 419.81,134.9844 Q420.4975,136.0469 421.8413,136.0469 Q422.4663,136.0469 423.06,135.7813 Q423.6538,135.5 424.2788,134.9219 L424.2788,137.6406 Z "/>
<text fill="#000000" font-family="sans-serif" font-size="12" lengthAdjust="spacingAndGlyphs" textLength="54" x="441.81" y="136.1543">BlockSet</text><line style="stroke: #A80036; stroke-width: 1.5;" x1="113.56" x2="791.56" y1="148" y2="148"/><rect fill="none" height="6" style="stroke: #C82930; stroke-width: 1.0;" width="6" x="120.56" y="156"/>
<text fill="#000000" font-family="sans-serif" font-size="11" lengthAdjust="spacingAndGlyphs" textLength="76" x="132.56" y="162.2104">_falling : bool</text><rect fill="none" height="6" style="stroke: #C82930; stroke-width: 1.0;" width="6" x="120.56" y="168.8047"/>
<text fill="#000000" font-family="sans-serif" font-size="11" lengthAdjust="spacingAndGlyphs" textLength="74" x="132.56" y="175.0151">_rotStep : int</text><rect fill="none" height="6" style="stroke: #C82930; stroke-width: 1.0;" width="6" x="120.56" y="181.6094"/>
<text fill="#000000" font-family="sans-serif" font-size="11" lengthAdjust="spacingAndGlyphs" textLength="122" x="132.56" y="187.8198">_countWaitFalling : int</text><rect fill="none" height="6" style="stroke: #C82930; stroke-width: 1.0;" width="6" x="120.56" y="194.4141"/>
<text fill="#000000" font-family="sans-serif" font-size="11" lengthAdjust="spacingAndGlyphs" textLength="99" x="132.56" y="200.6245">_countFalling : int</text><rect fill="none" height="6" style="stroke: #C82930; stroke-width: 1.0;" width="6" x="120.56" y="207.2188"/>
<text fill="#000000" font-family="sans-serif" font-size="11" lengthAdjust="spacingAndGlyphs" textLength="86" x="132.56" y="213.4292">_working : bool</text><ellipse cx="123.56" cy="223.0234" fill="none" rx="3" ry="3" style="stroke: #038048; stroke-width: 1.0;"/>
<text fill="#000000" font-family="sans-serif" font-size="11" lengthAdjust="spacingAndGlyphs" textLength="229" x="132.56" y="226.2339">«const» CountWaitFallingLimit : float = 4</text><ellipse cx="123.56" cy="235.8281" fill="none" rx="3" ry="3" style="stroke: #038048; stroke-width: 1.0;"/>
<text fill="#000000" font-family="sans-serif" font-size="11" lengthAdjust="spacingAndGlyphs" textLength="169" x="132.56" y="239.0386">CountFallingLimit : float «get»</text><line style="stroke: #A80036; stroke-width: 1.5;" x1="113.56" x2="791.56" y1="245.6328" y2="245.6328"/><rect fill="#F24D5C" height="6" style="stroke: #C82930; stroke-width: 1.0;" width="6" x="120.56" y="253.6328"/>
<text fill="#000000" font-family="sans-serif" font-size="11" lengthAdjust="spacingAndGlyphs" textLength="112" x="132.56" y="259.8433">FixedUpdate() : void</text><rect fill="#F24D5C" height="6" style="stroke: #C82930; stroke-width: 1.0;" width="6" x="120.56" y="266.4375"/>
<text fill="#000000" font-family="sans-serif" font-size="11" lengthAdjust="spacingAndGlyphs" textLength="111" x="132.56" y="272.6479">UpdateInput() : void</text><rect fill="#F24D5C" height="6" style="stroke: #C82930; stroke-width: 1.0;" width="6" x="120.56" y="279.2422"/>
<text fill="#000000" font-family="sans-serif" font-size="11" lengthAdjust="spacingAndGlyphs" textLength="107" x="132.56" y="285.4526">RotateRight() : void</text><rect fill="#F24D5C" height="6" style="stroke: #C82930; stroke-width: 1.0;" width="6" x="120.56" y="292.0469"/>
<text fill="#000000" font-family="sans-serif" font-size="11" lengthAdjust="spacingAndGlyphs" textLength="100" x="132.56" y="298.2573">RotateLeft() : void</text><rect fill="#F24D5C" height="6" style="stroke: #C82930; stroke-width: 1.0;" width="6" x="120.56" y="304.8516"/>
<text fill="#000000" font-family="sans-serif" font-size="11" lengthAdjust="spacingAndGlyphs" textLength="112" x="132.56" y="311.062">Rotate(dir:int) : void</text><rect fill="#F24D5C" height="6" style="stroke: #C82930; stroke-width: 1.0;" width="6" x="120.56" y="317.6563"/>
<text fill="#000000" font-family="sans-serif" font-size="11" lengthAdjust="spacingAndGlyphs" textLength="136" x="132.56" y="323.8667">ToBlocks() : Vector2Int[]</text><rect fill="#F24D5C" height="6" style="stroke: #C82930; stroke-width: 1.0;" width="6" x="120.56" y="330.4609"/>
<text fill="#000000" font-family="sans-serif" font-size="11" lengthAdjust="spacingAndGlyphs" textLength="204" x="132.56" y="336.6714">RotatePart(p:Vector2Int) : Vector2Int</text><rect fill="#F24D5C" height="6" style="stroke: #C82930; stroke-width: 1.0;" width="6" x="120.56" y="343.2656"/>
<text fill="#000000" font-family="sans-serif" font-size="11" lengthAdjust="spacingAndGlyphs" textLength="101" x="132.56" y="349.4761">MoveRight() : bool</text><rect fill="#F24D5C" height="6" style="stroke: #C82930; stroke-width: 1.0;" width="6" x="120.56" y="356.0703"/>
<text fill="#000000" font-family="sans-serif" font-size="11" lengthAdjust="spacingAndGlyphs" textLength="94" x="132.56" y="362.2808">MoveLeft() : bool</text><rect fill="#F24D5C" height="6" style="stroke: #C82930; stroke-width: 1.0;" width="6" x="120.56" y="368.875"/>
<text fill="#000000" font-family="sans-serif" font-size="11" lengthAdjust="spacingAndGlyphs" textLength="103" x="132.56" y="375.0854">MoveDown() : void</text><rect fill="#F24D5C" height="6" style="stroke: #C82930; stroke-width: 1.0;" width="6" x="120.56" y="381.6797"/>
<text fill="#000000" font-family="sans-serif" font-size="11" lengthAdjust="spacingAndGlyphs" textLength="72" x="132.56" y="387.8901">Move() : void</text><rect fill="#F24D5C" height="6" style="stroke: #C82930; stroke-width: 1.0;" width="6" x="120.56" y="394.4844"/>
<text fill="#000000" font-family="sans-serif" font-size="11" lengthAdjust="spacingAndGlyphs" textLength="150" x="132.56" y="400.6948">PlaceBlock() : IEnumerator</text><rect fill="#F24D5C" height="6" style="stroke: #C82930; stroke-width: 1.0;" width="6" x="120.56" y="407.2891"/>
<text fill="#000000" font-family="sans-serif" font-size="11" lengthAdjust="spacingAndGlyphs" textLength="111" x="132.56" y="413.4995">ShowBlocks() : void</text><rect fill="#F24D5C" height="6" style="stroke: #C82930; stroke-width: 1.0;" width="6" x="120.56" y="420.0938"/>
<text fill="#000000" font-family="sans-serif" font-size="11" lengthAdjust="spacingAndGlyphs" textLength="106" x="132.56" y="426.3042">NeedToFall() : bool</text><ellipse cx="123.56" cy="435.8984" fill="#84BE84" rx="3" ry="3" style="stroke: #038048; stroke-width: 1.0;"/>
<text fill="#000000" font-family="sans-serif" font-size="11" lengthAdjust="spacingAndGlyphs" textLength="654" x="132.56" y="439.1089">«override» Setup(owner:IPlayer, field:AbstractField, input:IInputManager, sound:ISoundManager, fallLevel:int) : void</text><ellipse cx="123.56" cy="448.7031" fill="#84BE84" rx="3" ry="3" style="stroke: #038048; stroke-width: 1.0;"/>
<text fill="#000000" font-family="sans-serif" font-size="11" lengthAdjust="spacingAndGlyphs" textLength="201" x="132.56" y="451.9136">«override» CenterPos() : Vector2Int</text><ellipse cx="123.56" cy="461.5078" fill="#84BE84" rx="3" ry="3" style="stroke: #038048; stroke-width: 1.0;"/>
<text fill="#000000" font-family="sans-serif" font-size="11" lengthAdjust="spacingAndGlyphs" textLength="143" x="132.56" y="464.7183">«override» RotStep() : int</text><!--MD5=[a6107363210efd665be7d2b0bb56cd18]
class AbstractBlockSet--><rect fill="#FEFECE" filter="url(#f13ns4fcjpzv1a)" height="48" id="AbstractBlockSet" style="stroke: #A80036; stroke-width: 1.5;" width="139" x="383.06" y="8"/><ellipse cx="398.06" cy="24" fill="#ADD1B2" rx="11" ry="11" style="stroke: #A80036; stroke-width: 1.0;"/><path d="M401.0288,29.6406 Q400.4506,29.9375 399.81,30.0781 Q399.1694,30.2344 398.4663,30.2344 Q395.9663,30.2344 394.6381,28.5938 Q393.3256,26.9375 393.3256,23.8125 Q393.3256,20.6875 394.6381,19.0313 Q395.9663,17.375 398.4663,17.375 Q399.1694,17.375 399.81,17.5313 Q400.4663,17.6875 401.0288,17.9844 L401.0288,20.7031 Q400.4038,20.125 399.81,19.8594 Q399.2163,19.5781 398.5913,19.5781 Q397.2475,19.5781 396.56,20.6563 Q395.8725,21.7188 395.8725,23.8125 Q395.8725,25.9063 396.56,26.9844 Q397.2475,28.0469 398.5913,28.0469 Q399.2163,28.0469 399.81,27.7813 Q400.4038,27.5 401.0288,26.9219 L401.0288,29.6406 Z "/>
<text fill="#000000" font-family="sans-serif" font-size="12" lengthAdjust="spacingAndGlyphs" textLength="107" x="412.06" y="28.1543">AbstractBlockSet</text><line style="stroke: #A80036; stroke-width: 1.5;" x1="384.06" x2="521.06" y1="40" y2="40"/><line style="stroke: #A80036; stroke-width: 1.5;" x1="384.06" x2="521.06" y1="48" y2="48"/><!--MD5=[1dcb072468b0d7732dfb17a5d7634985]
class AudioSource--><rect fill="#FEFECE" filter="url(#f13ns4fcjpzv1a)" height="48" id="AudioSource" style="stroke: #A80036; stroke-width: 1.5;" width="111" x="20.06" y="531"/><ellipse cx="35.06" cy="547" fill="#ADD1B2" rx="11" ry="11" style="stroke: #A80036; stroke-width: 1.0;"/><path d="M38.0288,552.6406 Q37.4506,552.9375 36.81,553.0781 Q36.1694,553.2344 35.4663,553.2344 Q32.9663,553.2344 31.6381,551.5938 Q30.3256,549.9375 30.3256,546.8125 Q30.3256,543.6875 31.6381,542.0313 Q32.9663,540.375 35.4663,540.375 Q36.1694,540.375 36.81,540.5313 Q37.4663,540.6875 38.0288,540.9844 L38.0288,543.7031 Q37.4038,543.125 36.81,542.8594 Q36.2163,542.5781 35.5913,542.5781 Q34.2475,542.5781 33.56,543.6563 Q32.8725,544.7188 32.8725,546.8125 Q32.8725,548.9063 33.56,549.9844 Q34.2475,551.0469 35.5913,551.0469 Q36.2163,551.0469 36.81,550.7813 Q37.4038,550.5 38.0288,549.9219 L38.0288,552.6406 Z "/>
<text fill="#000000" font-family="sans-serif" font-size="12" lengthAdjust="spacingAndGlyphs" textLength="79" x="49.06" y="551.1543">AudioSource</text><line style="stroke: #A80036; stroke-width: 1.5;" x1="21.06" x2="130.06" y1="563" y2="563"/><line style="stroke: #A80036; stroke-width: 1.5;" x1="21.06" x2="130.06" y1="571" y2="571"/><!--MD5=[68a0c021ad4fbab63794e91c3c368f48]
class Block--><rect fill="#FEFECE" filter="url(#f13ns4fcjpzv1a)" height="48" id="Block" style="stroke: #A80036; stroke-width: 1.5;" width="65" x="166.06" y="531"/><ellipse cx="181.06" cy="547" fill="#ADD1B2" rx="11" ry="11" style="stroke: #A80036; stroke-width: 1.0;"/><path d="M184.0288,552.6406 Q183.4506,552.9375 182.81,553.0781 Q182.1694,553.2344 181.4663,553.2344 Q178.9663,553.2344 177.6381,551.5938 Q176.3256,549.9375 176.3256,546.8125 Q176.3256,543.6875 177.6381,542.0313 Q178.9663,540.375 181.4663,540.375 Q182.1694,540.375 182.81,540.5313 Q183.4663,540.6875 184.0288,540.9844 L184.0288,543.7031 Q183.4038,543.125 182.81,542.8594 Q182.2163,542.5781 181.5913,542.5781 Q180.2475,542.5781 179.56,543.6563 Q178.8725,544.7188 178.8725,546.8125 Q178.8725,548.9063 179.56,549.9844 Q180.2475,551.0469 181.5913,551.0469 Q182.2163,551.0469 182.81,550.7813 Q183.4038,550.5 184.0288,549.9219 L184.0288,552.6406 Z "/>
<text fill="#000000" font-family="sans-serif" font-size="12" lengthAdjust="spacingAndGlyphs" textLength="33" x="195.06" y="551.1543">Block</text><line style="stroke: #A80036; stroke-width: 1.5;" x1="167.06" x2="230.06" y1="563" y2="563"/><line style="stroke: #A80036; stroke-width: 1.5;" x1="167.06" x2="230.06" y1="571" y2="571"/><!--MD5=[1ccf88b84f217b1b30fe294299e2e1d6]
class AbstractField--><rect fill="#FEFECE" filter="url(#f13ns4fcjpzv1a)" height="48" id="AbstractField" style="stroke: #A80036; stroke-width: 1.5;" width="114" x="266.56" y="531"/><ellipse cx="281.56" cy="547" fill="#ADD1B2" rx="11" ry="11" style="stroke: #A80036; stroke-width: 1.0;"/><path d="M284.5288,552.6406 Q283.9506,552.9375 283.31,553.0781 Q282.6694,553.2344 281.9663,553.2344 Q279.4663,553.2344 278.1381,551.5938 Q276.8256,549.9375 276.8256,546.8125 Q276.8256,543.6875 278.1381,542.0313 Q279.4663,540.375 281.9663,540.375 Q282.6694,540.375 283.31,540.5313 Q283.9663,540.6875 284.5288,540.9844 L284.5288,543.7031 Q283.9038,543.125 283.31,542.8594 Q282.7163,542.5781 282.0913,542.5781 Q280.7475,542.5781 280.06,543.6563 Q279.3725,544.7188 279.3725,546.8125 Q279.3725,548.9063 280.06,549.9844 Q280.7475,551.0469 282.0913,551.0469 Q282.7163,551.0469 283.31,550.7813 Q283.9038,550.5 284.5288,549.9219 L284.5288,552.6406 Z "/>
<text fill="#000000" font-family="sans-serif" font-size="12" lengthAdjust="spacingAndGlyphs" textLength="82" x="295.56" y="551.1543">AbstractField</text><line style="stroke: #A80036; stroke-width: 1.5;" x1="267.56" x2="379.56" y1="563" y2="563"/><line style="stroke: #A80036; stroke-width: 1.5;" x1="267.56" x2="379.56" y1="571" y2="571"/><!--MD5=[b18d62399d5bda014f91482f369a9d15]
class IPlayer--><rect fill="#FEFECE" filter="url(#f13ns4fcjpzv1a)" height="48" id="IPlayer" style="stroke: #A80036; stroke-width: 1.5;" width="73" x="416.06" y="531"/><ellipse cx="431.06" cy="547" fill="#ADD1B2" rx="11" ry="11" style="stroke: #A80036; stroke-width: 1.0;"/><path d="M434.0288,552.6406 Q433.4506,552.9375 432.81,553.0781 Q432.1694,553.2344 431.4663,553.2344 Q428.9663,553.2344 427.6381,551.5938 Q426.3256,549.9375 426.3256,546.8125 Q426.3256,543.6875 427.6381,542.0313 Q428.9663,540.375 431.4663,540.375 Q432.1694,540.375 432.81,540.5313 Q433.4663,540.6875 434.0288,540.9844 L434.0288,543.7031 Q433.4038,543.125 432.81,542.8594 Q432.2163,542.5781 431.5913,542.5781 Q430.2475,542.5781 429.56,543.6563 Q428.8725,544.7188 428.8725,546.8125 Q428.8725,548.9063 429.56,549.9844 Q430.2475,551.0469 431.5913,551.0469 Q432.2163,551.0469 432.81,550.7813 Q433.4038,550.5 434.0288,549.9219 L434.0288,552.6406 Z "/>
<text fill="#000000" font-family="sans-serif" font-size="12" lengthAdjust="spacingAndGlyphs" textLength="41" x="445.06" y="551.1543">IPlayer</text><line style="stroke: #A80036; stroke-width: 1.5;" x1="417.06" x2="488.06" y1="563" y2="563"/><line style="stroke: #A80036; stroke-width: 1.5;" x1="417.06" x2="488.06" y1="571" y2="571"/><!--MD5=[6abfa0c410305c5f5b347ec15ab703e6]
class IInputManager--><rect fill="#FEFECE" filter="url(#f13ns4fcjpzv1a)" height="48" id="IInputManager" style="stroke: #A80036; stroke-width: 1.5;" width="122" x="524.56" y="531"/><ellipse cx="539.56" cy="547" fill="#ADD1B2" rx="11" ry="11" style="stroke: #A80036; stroke-width: 1.0;"/><path d="M542.5288,552.6406 Q541.9506,552.9375 541.31,553.0781 Q540.6694,553.2344 539.9663,553.2344 Q537.4663,553.2344 536.1381,551.5938 Q534.8256,549.9375 534.8256,546.8125 Q534.8256,543.6875 536.1381,542.0313 Q537.4663,540.375 539.9663,540.375 Q540.6694,540.375 541.31,540.5313 Q541.9663,540.6875 542.5288,540.9844 L542.5288,543.7031 Q541.9038,543.125 541.31,542.8594 Q540.7163,542.5781 540.0913,542.5781 Q538.7475,542.5781 538.06,543.6563 Q537.3725,544.7188 537.3725,546.8125 Q537.3725,548.9063 538.06,549.9844 Q538.7475,551.0469 540.0913,551.0469 Q540.7163,551.0469 541.31,550.7813 Q541.9038,550.5 542.5288,549.9219 L542.5288,552.6406 Z "/>
<text fill="#000000" font-family="sans-serif" font-size="12" lengthAdjust="spacingAndGlyphs" textLength="90" x="553.56" y="551.1543">IInputManager</text><line style="stroke: #A80036; stroke-width: 1.5;" x1="525.56" x2="645.56" y1="563" y2="563"/><line style="stroke: #A80036; stroke-width: 1.5;" x1="525.56" x2="645.56" y1="571" y2="571"/><!--MD5=[8c9676452f7135a1f2c4480e47e2543f]
class ISoundManager--><rect fill="#FEFECE" filter="url(#f13ns4fcjpzv1a)" height="48" id="ISoundManager" style="stroke: #A80036; stroke-width: 1.5;" width="130" x="681.56" y="531"/><ellipse cx="696.56" cy="547" fill="#ADD1B2" rx="11" ry="11" style="stroke: #A80036; stroke-width: 1.0;"/><path d="M699.5288,552.6406 Q698.9506,552.9375 698.31,553.0781 Q697.6694,553.2344 696.9663,553.2344 Q694.4663,553.2344 693.1381,551.5938 Q691.8256,549.9375 691.8256,546.8125 Q691.8256,543.6875 693.1381,542.0313 Q694.4663,540.375 696.9663,540.375 Q697.6694,540.375 698.31,540.5313 Q698.9663,540.6875 699.5288,540.9844 L699.5288,543.7031 Q698.9038,543.125 698.31,542.8594 Q697.7163,542.5781 697.0913,542.5781 Q695.7475,542.5781 695.06,543.6563 Q694.3725,544.7188 694.3725,546.8125 Q694.3725,548.9063 695.06,549.9844 Q695.7475,551.0469 697.0913,551.0469 Q697.7163,551.0469 698.31,550.7813 Q698.9038,550.5 699.5288,549.9219 L699.5288,552.6406 Z "/>
<text fill="#000000" font-family="sans-serif" font-size="12" lengthAdjust="spacingAndGlyphs" textLength="98" x="710.56" y="551.1543">ISoundManager</text><line style="stroke: #A80036; stroke-width: 1.5;" x1="682.56" x2="810.56" y1="563" y2="563"/><line style="stroke: #A80036; stroke-width: 1.5;" x1="682.56" x2="810.56" y1="571" y2="571"/><!--MD5=[93fe7800e575c20b85b745370e1c4e4b]
class Vector2Int--><rect fill="#FEFECE" filter="url(#f13ns4fcjpzv1a)" height="48" id="Vector2Int" style="stroke: #A80036; stroke-width: 1.5;" width="97" x="847.06" y="531"/><ellipse cx="862.06" cy="547" fill="#ADD1B2" rx="11" ry="11" style="stroke: #A80036; stroke-width: 1.0;"/><path d="M865.0288,552.6406 Q864.4506,552.9375 863.81,553.0781 Q863.1694,553.2344 862.4663,553.2344 Q859.9663,553.2344 858.6381,551.5938 Q857.3256,549.9375 857.3256,546.8125 Q857.3256,543.6875 858.6381,542.0313 Q859.9663,540.375 862.4663,540.375 Q863.1694,540.375 863.81,540.5313 Q864.4663,540.6875 865.0288,540.9844 L865.0288,543.7031 Q864.4038,543.125 863.81,542.8594 Q863.2163,542.5781 862.5913,542.5781 Q861.2475,542.5781 860.56,543.6563 Q859.8725,544.7188 859.8725,546.8125 Q859.8725,548.9063 860.56,549.9844 Q861.2475,551.0469 862.5913,551.0469 Q863.2163,551.0469 863.81,550.7813 Q864.4038,550.5 865.0288,549.9219 L865.0288,552.6406 Z "/>
<text fill="#000000" font-family="sans-serif" font-size="12" lengthAdjust="spacingAndGlyphs" textLength="65" x="876.06" y="551.1543">Vector2Int</text><line style="stroke: #A80036; stroke-width: 1.5;" x1="848.06" x2="943.06" y1="563" y2="563"/><line style="stroke: #A80036; stroke-width: 1.5;" x1="848.06" x2="943.06" y1="571" y2="571"/><!--MD5=[67a9dfbaadb2c6390df89119459fc1f5]
reverse link AbstractBlockSet to BlockSet--><path d="M452.56,76.29 C452.56,88.05 452.56,101.56 452.56,115.96 " fill="none" id="AbstractBlockSet&lt;-BlockSet" style="stroke: #A80036; stroke-width: 1.0;"/><polygon fill="none" points="445.56,76.03,452.56,56.03,459.56,76.03,445.56,76.03" style="stroke: #A80036; stroke-width: 1.0;"/><!--MD5=[e68fcced5ab48b18577e10b4b5d0adbd]
link BlockSet to AudioSource--><path d="M196.14,471 C163.94,493.17 134.79,513.23 113.22,528.08 " fill="none" id="BlockSet-&gt;AudioSource" style="stroke: #A80036; stroke-width: 1.0;"/><polygon fill="#A80036" points="109,530.98,118.6812,529.1703,113.1181,528.1443,114.1441,522.5813,109,530.98" style="stroke: #A80036; stroke-width: 1.0;"/>
<text fill="#000000" font-family="sans-serif" font-size="13" lengthAdjust="spacingAndGlyphs" textLength="88" x="18.294" y="519.9869">_soundCollide</text><!--MD5=[0e83fd895c3b8ace3ce09786931097bc]
link BlockSet to Block--><path d="M279.63,471.18 C258.41,492.85 239.17,512.51 224.76,527.23 " fill="none" id="BlockSet-&gt;Block" style="stroke: #A80036; stroke-width: 1.0;"/><polygon fill="#A80036" points="221.21,530.86,230.3515,527.1948,224.6952,527.2748,224.6152,521.6185,221.21,530.86" style="stroke: #A80036; stroke-width: 1.0;"/>
<text fill="#000000" font-family="sans-serif" font-size="13" lengthAdjust="spacingAndGlyphs" textLength="74" x="143.5328" y="519.8362">_prefabPart</text><!--MD5=[a9648f778f3740b5728c6071aa073536]
link BlockSet to AbstractField--><path d="M364.73,471.18 C354.23,492.3 344.68,511.51 337.43,526.1 " fill="none" id="BlockSet-&gt;AbstractField" style="stroke: #A80036; stroke-width: 1.0;"/><polygon fill="#A80036" points="335.06,530.86,342.6385,524.5699,337.2789,526.3793,335.4694,521.0197,335.06,530.86" style="stroke: #A80036; stroke-width: 1.0;"/>
<text fill="#000000" font-family="sans-serif" font-size="13" lengthAdjust="spacingAndGlyphs" textLength="33" x="300.7788" y="519.8362">_field</text><!--MD5=[82d63ebd64c7b791c9c304faeae034bf]
link BlockSet to IPlayer--><path d="M452.56,471.18 C452.56,492.12 452.56,511.18 452.56,525.71 " fill="none" id="BlockSet-&gt;IPlayer" style="stroke: #A80036; stroke-width: 1.0;"/><polygon fill="#A80036" points="452.56,530.86,456.56,521.86,452.56,525.86,448.56,521.86,452.56,530.86" style="stroke: #A80036; stroke-width: 1.0;"/>
<text fill="#000000" font-family="sans-serif" font-size="13" lengthAdjust="spacingAndGlyphs" textLength="45" x="401.7944" y="519.8362">_owner</text><!--MD5=[a8208aad9cf5249305f791f45338ec39]
link BlockSet to IInputManager--><path d="M543.11,471.18 C553.94,492.3 563.78,511.51 571.26,526.1 " fill="none" id="BlockSet-&gt;IInputManager" style="stroke: #A80036; stroke-width: 1.0;"/><polygon fill="#A80036" points="573.7,530.86,573.1524,521.0264,571.4184,526.4109,566.0339,524.6769,573.7,530.86" style="stroke: #A80036; stroke-width: 1.0;"/>
<text fill="#000000" font-family="sans-serif" font-size="13" lengthAdjust="spacingAndGlyphs" textLength="39" x="526.664" y="519.8362">_input</text><!--MD5=[31fabf4642b3349184c76ce07e68b264]
link BlockSet to ISoundManager--><path d="M652.73,471.18 C677.29,492.85 699.55,512.51 716.23,527.23 " fill="none" id="BlockSet-&gt;ISoundManager" style="stroke: #A80036; stroke-width: 1.0;"/><polygon fill="#A80036" points="720.35,530.86,716.2468,521.9066,716.6004,527.5524,710.9546,527.9059,720.35,530.86" style="stroke: #A80036; stroke-width: 1.0;"/>
<text fill="#000000" font-family="sans-serif" font-size="13" lengthAdjust="spacingAndGlyphs" textLength="46" x="661.7399" y="519.8362">_sound</text><!--MD5=[ae6fa0f744e2f856ab6dcb75c084b4a2]
link BlockSet to Vector2Int--><path d="M753.87,471 C792.03,493.35 826.54,513.57 851.94,528.45 " fill="none" id="BlockSet-&gt;Vector2Int" style="stroke: #A80036; stroke-width: 1.0;"/><polygon fill="#A80036" points="856.26,530.98,850.5179,522.9782,851.9463,528.4518,846.4727,529.8801,856.26,530.98" style="stroke: #A80036; stroke-width: 1.0;"/>
<text fill="#000000" font-family="sans-serif" font-size="13" lengthAdjust="spacingAndGlyphs" textLength="71" x="804.1866" y="519.9252">_centerPos</text><!--MD5=[27f6a1a8717458e7d7af412369a65f57]
@startuml
class BlockSet {
    - _falling : bool
    - _rotStep : int
    - _countWaitFalling : int
    - _countFalling : int
    - _working : bool
    + <<const>> CountWaitFallingLimit : float = 4
    + CountFallingLimit : float <<get>>
    - FixedUpdate() : void
    - UpdateInput() : void
    - RotateRight() : void
    - RotateLeft() : void
    - Rotate(dir:int) : void
    - ToBlocks() : Vector2Int[]
    - RotatePart(p:Vector2Int) : Vector2Int
    - MoveRight() : bool
    - MoveLeft() : bool
    - MoveDown() : void
    - Move() : void
    - PlaceBlock() : IEnumerator
    - ShowBlocks() : void
    - NeedToFall() : bool
    + <<override>> Setup(owner:IPlayer, field:AbstractField, input:IInputManager, sound:ISoundManager, fallLevel:int) : void
    + <<override>> CenterPos() : Vector2Int
    + <<override>> RotStep() : int
}
AbstractBlockSet <|- - BlockSet
BlockSet - -> "_soundCollide" AudioSource
BlockSet - -> "_prefabPart" Block
BlockSet - -> "_field" AbstractField
BlockSet - -> "_owner" IPlayer
BlockSet - -> "_input" IInputManager
BlockSet - -> "_sound" ISoundManager
BlockSet - -> "_centerPos" Vector2Int
@enduml

PlantUML version 1.2020.02(Sun Mar 01 10:22:07 GMT 2020)
(GPL source distribution)
Java Runtime: OpenJDK Runtime Environment
JVM: OpenJDK 64-Bit Server VM
Java Version: 11.0.9+11-Ubuntu-0ubuntu1
Operating System: Linux
Default Encoding: ANSI_X3.4-1968
Language: en
Country: US
--></g></svg>
