<?xml version="1.0" encoding="UTF-8" standalone="no"?><svg xmlns="http://www.w3.org/2000/svg" xmlns:xlink="http://www.w3.org/1999/xlink" contentScriptType="application/ecmascript" contentStyleType="text/css" height="437px" preserveAspectRatio="none" style="width:1010px;height:437px;" version="1.1" viewBox="0 0 1010 437" width="1010px" zoomAndPan="magnify"><defs><filter height="300%" id="f1uv26xxdd78ew" width="300%" x="-1" y="-1"><feGaussianBlur result="blurOut" stdDeviation="2.0"/><feColorMatrix in="blurOut" result="blurOut2" type="matrix" values="0 0 0 0 0 0 0 0 0 0 0 0 0 0 0 0 0 0 .4 0"/><feOffset dx="4.0" dy="4.0" in="blurOut2" result="blurOut3"/><feBlend in="SourceGraphic" in2="blurOut3" mode="normal"/></filter></defs><g><!--MD5=[d9427b671d7d049aff2d6f2fe36a13b3]
class Field--><rect fill="#FEFECE" filter="url(#f1uv26xxdd78ew)" height="201.6563" id="Field" style="stroke: #A80036; stroke-width: 1.5;" width="673" x="6" y="116"/><ellipse cx="323.75" cy="132" fill="#ADD1B2" rx="11" ry="11" style="stroke: #A80036; stroke-width: 1.0;"/><path d="M326.7188,137.6406 Q326.1406,137.9375 325.5,138.0781 Q324.8594,138.2344 324.1563,138.2344 Q321.6563,138.2344 320.3281,136.5938 Q319.0156,134.9375 319.0156,131.8125 Q319.0156,128.6875 320.3281,127.0313 Q321.6563,125.375 324.1563,125.375 Q324.8594,125.375 325.5,125.5313 Q326.1563,125.6875 326.7188,125.9844 L326.7188,128.7031 Q326.0938,128.125 325.5,127.8594 Q324.9063,127.5781 324.2813,127.5781 Q322.9375,127.5781 322.25,128.6563 Q321.5625,129.7188 321.5625,131.8125 Q321.5625,133.9063 322.25,134.9844 Q322.9375,136.0469 324.2813,136.0469 Q324.9063,136.0469 325.5,135.7813 Q326.0938,135.5 326.7188,134.9219 L326.7188,137.6406 Z "/>
<text fill="#000000" font-family="sans-serif" font-size="12" lengthAdjust="spacingAndGlyphs" textLength="29" x="344.25" y="136.1543">Field</text><line style="stroke: #A80036; stroke-width: 1.5;" x1="7" x2="678" y1="148" y2="148"/>
<text fill="#000000" font-family="sans-serif" font-size="11" lengthAdjust="spacingAndGlyphs" textLength="86" x="12" y="162.2104">_width : int = 8</text>
<text fill="#000000" font-family="sans-serif" font-size="11" lengthAdjust="spacingAndGlyphs" textLength="98" x="12" y="175.0151">_height : int = 16</text>
<text fill="#000000" font-family="sans-serif" font-size="11" lengthAdjust="spacingAndGlyphs" textLength="124" x="12" y="187.8198">_borderLine : int = 14</text><line style="stroke: #A80036; stroke-width: 1.5;" x1="7" x2="678" y1="194.4141" y2="194.4141"/><ellipse cx="17" cy="205.4141" fill="#84BE84" rx="3" ry="3" style="stroke: #038048; stroke-width: 1.0;"/>
<text fill="#000000" font-family="sans-serif" font-size="11" lengthAdjust="spacingAndGlyphs" textLength="647" x="26" y="208.6245">«override» ResetField(statusPanel:IStatusPanel, sound:ISoundManager, width:int, height:int, borderLine:int) : void</text><ellipse cx="17" cy="218.2188" fill="#84BE84" rx="3" ry="3" style="stroke: #038048; stroke-width: 1.0;"/>
<text fill="#000000" font-family="sans-serif" font-size="11" lengthAdjust="spacingAndGlyphs" textLength="129" x="26" y="221.4292">«override» Width() : int</text><ellipse cx="17" cy="231.0234" fill="#84BE84" rx="3" ry="3" style="stroke: #038048; stroke-width: 1.0;"/>
<text fill="#000000" font-family="sans-serif" font-size="11" lengthAdjust="spacingAndGlyphs" textLength="135" x="26" y="234.2339">«override» Height() : int</text><ellipse cx="17" cy="243.8281" fill="#84BE84" rx="3" ry="3" style="stroke: #038048; stroke-width: 1.0;"/>
<text fill="#000000" font-family="sans-serif" font-size="11" lengthAdjust="spacingAndGlyphs" textLength="243" x="26" y="247.0386">«override» SetBlocks(blocks:Block[]) : bool</text><ellipse cx="17" cy="256.6328" fill="#84BE84" rx="3" ry="3" style="stroke: #038048; stroke-width: 1.0;"/>
<text fill="#000000" font-family="sans-serif" font-size="11" lengthAdjust="spacingAndGlyphs" textLength="239" x="26" y="259.8433">«override» IsHit(blocks:Vector2Int[]) : bool</text><ellipse cx="17" cy="269.4375" fill="#84BE84" rx="3" ry="3" style="stroke: #038048; stroke-width: 1.0;"/>
<text fill="#000000" font-family="sans-serif" font-size="11" lengthAdjust="spacingAndGlyphs" textLength="115" x="26" y="272.6479">DebugField() : string</text><ellipse cx="17" cy="282.2422" fill="#84BE84" rx="3" ry="3" style="stroke: #038048; stroke-width: 1.0;"/>
<text fill="#000000" font-family="sans-serif" font-size="11" lengthAdjust="spacingAndGlyphs" textLength="256" x="26" y="285.4526">«override» ReduceLines(owner:IPlayer) : void</text><rect fill="#F24D5C" height="6" style="stroke: #C82930; stroke-width: 1.0;" width="6" x="14" y="292.0469"/>
<text fill="#000000" font-family="sans-serif" font-size="11" lengthAdjust="spacingAndGlyphs" textLength="577" x="26" y="298.2573">CoReduceLines(owner:IPlayer, reducedIndex:List&lt;int&gt;, reduceMap:Dictionary&lt;int, int&gt;) : IEnumerator</text><ellipse cx="17" cy="307.8516" fill="#84BE84" rx="3" ry="3" style="stroke: #038048; stroke-width: 1.0;"/>
<text fill="#000000" font-family="sans-serif" font-size="11" lengthAdjust="spacingAndGlyphs" textLength="180" x="26" y="311.062">«override» GetFieldMap() : int[,]</text><!--MD5=[e644022de7dea015dd09463c37421447]
class List`1--><rect fill="#FEFECE" filter="url(#f1uv26xxdd78ew)" height="48" id="List`1" style="stroke: #A80036; stroke-width: 1.5;" width="78" x="714.5" y="193"/><ellipse cx="729.5" cy="209" fill="#ADD1B2" rx="11" ry="11" style="stroke: #A80036; stroke-width: 1.0;"/><path d="M732.4688,214.6406 Q731.8906,214.9375 731.25,215.0781 Q730.6094,215.2344 729.9063,215.2344 Q727.4063,215.2344 726.0781,213.5938 Q724.7656,211.9375 724.7656,208.8125 Q724.7656,205.6875 726.0781,204.0313 Q727.4063,202.375 729.9063,202.375 Q730.6094,202.375 731.25,202.5313 Q731.9063,202.6875 732.4688,202.9844 L732.4688,205.7031 Q731.8438,205.125 731.25,204.8594 Q730.6563,204.5781 730.0313,204.5781 Q728.6875,204.5781 728,205.6563 Q727.3125,206.7188 727.3125,208.8125 Q727.3125,210.9063 728,211.9844 Q728.6875,213.0469 730.0313,213.0469 Q730.6563,213.0469 731.25,212.7813 Q731.8438,212.5 732.4688,211.9219 L732.4688,214.6406 Z "/>
<text fill="#000000" font-family="sans-serif" font-size="12" lengthAdjust="spacingAndGlyphs" textLength="35" x="743.5" y="213.1543">List`1</text><rect fill="#FFFFFF" height="15.9688" style="stroke: #000000; stroke-width: 1.0; stroke-dasharray: 2.0,2.0;" width="9" x="786.5" y="190"/>
<text fill="#000000" font-family="sans-serif" font-size="12" font-style="italic" lengthAdjust="spacingAndGlyphs" textLength="7" x="787.5" y="202.1387">T</text><line style="stroke: #A80036; stroke-width: 1.5;" x1="715.5" x2="791.5" y1="225" y2="225"/><line style="stroke: #A80036; stroke-width: 1.5;" x1="715.5" x2="791.5" y1="233" y2="233"/><!--MD5=[1ccf88b84f217b1b30fe294299e2e1d6]
class AbstractField--><rect fill="#FEFECE" filter="url(#f1uv26xxdd78ew)" height="48" id="AbstractField" style="stroke: #A80036; stroke-width: 1.5;" width="114" x="285.5" y="8"/><ellipse cx="300.5" cy="24" fill="#ADD1B2" rx="11" ry="11" style="stroke: #A80036; stroke-width: 1.0;"/><path d="M303.4688,29.6406 Q302.8906,29.9375 302.25,30.0781 Q301.6094,30.2344 300.9063,30.2344 Q298.4063,30.2344 297.0781,28.5938 Q295.7656,26.9375 295.7656,23.8125 Q295.7656,20.6875 297.0781,19.0313 Q298.4063,17.375 300.9063,17.375 Q301.6094,17.375 302.25,17.5313 Q302.9063,17.6875 303.4688,17.9844 L303.4688,20.7031 Q302.8438,20.125 302.25,19.8594 Q301.6563,19.5781 301.0313,19.5781 Q299.6875,19.5781 299,20.6563 Q298.3125,21.7188 298.3125,23.8125 Q298.3125,25.9063 299,26.9844 Q299.6875,28.0469 301.0313,28.0469 Q301.6563,28.0469 302.25,27.7813 Q302.8438,27.5 303.4688,26.9219 L303.4688,29.6406 Z "/>
<text fill="#000000" font-family="sans-serif" font-size="12" lengthAdjust="spacingAndGlyphs" textLength="82" x="314.5" y="28.1543">AbstractField</text><line style="stroke: #A80036; stroke-width: 1.5;" x1="286.5" x2="398.5" y1="40" y2="40"/><line style="stroke: #A80036; stroke-width: 1.5;" x1="286.5" x2="398.5" y1="48" y2="48"/><!--MD5=[1dcb072468b0d7732dfb17a5d7634985]
class AudioSource--><rect fill="#FEFECE" filter="url(#f1uv26xxdd78ew)" height="48" id="AudioSource" style="stroke: #A80036; stroke-width: 1.5;" width="111" x="65" y="378"/><ellipse cx="80" cy="394" fill="#ADD1B2" rx="11" ry="11" style="stroke: #A80036; stroke-width: 1.0;"/><path d="M82.9688,399.6406 Q82.3906,399.9375 81.75,400.0781 Q81.1094,400.2344 80.4063,400.2344 Q77.9063,400.2344 76.5781,398.5938 Q75.2656,396.9375 75.2656,393.8125 Q75.2656,390.6875 76.5781,389.0313 Q77.9063,387.375 80.4063,387.375 Q81.1094,387.375 81.75,387.5313 Q82.4063,387.6875 82.9688,387.9844 L82.9688,390.7031 Q82.3438,390.125 81.75,389.8594 Q81.1563,389.5781 80.5313,389.5781 Q79.1875,389.5781 78.5,390.6563 Q77.8125,391.7188 77.8125,393.8125 Q77.8125,395.9063 78.5,396.9844 Q79.1875,398.0469 80.5313,398.0469 Q81.1563,398.0469 81.75,397.7813 Q82.3438,397.5 82.9688,396.9219 L82.9688,399.6406 Z "/>
<text fill="#000000" font-family="sans-serif" font-size="12" lengthAdjust="spacingAndGlyphs" textLength="79" x="94" y="398.1543">AudioSource</text><line style="stroke: #A80036; stroke-width: 1.5;" x1="66" x2="175" y1="410" y2="410"/><line style="stroke: #A80036; stroke-width: 1.5;" x1="66" x2="175" y1="418" y2="418"/><!--MD5=[064f7a74fee85463ec1a30143664ee17]
class GameObject--><rect fill="#FEFECE" filter="url(#f1uv26xxdd78ew)" height="48" id="GameObject" style="stroke: #A80036; stroke-width: 1.5;" width="108" x="211.5" y="378"/><ellipse cx="226.5" cy="394" fill="#ADD1B2" rx="11" ry="11" style="stroke: #A80036; stroke-width: 1.0;"/><path d="M229.4688,399.6406 Q228.8906,399.9375 228.25,400.0781 Q227.6094,400.2344 226.9063,400.2344 Q224.4063,400.2344 223.0781,398.5938 Q221.7656,396.9375 221.7656,393.8125 Q221.7656,390.6875 223.0781,389.0313 Q224.4063,387.375 226.9063,387.375 Q227.6094,387.375 228.25,387.5313 Q228.9063,387.6875 229.4688,387.9844 L229.4688,390.7031 Q228.8438,390.125 228.25,389.8594 Q227.6563,389.5781 227.0313,389.5781 Q225.6875,389.5781 225,390.6563 Q224.3125,391.7188 224.3125,393.8125 Q224.3125,395.9063 225,396.9844 Q225.6875,398.0469 227.0313,398.0469 Q227.6563,398.0469 228.25,397.7813 Q228.8438,397.5 229.4688,396.9219 L229.4688,399.6406 Z "/>
<text fill="#000000" font-family="sans-serif" font-size="12" lengthAdjust="spacingAndGlyphs" textLength="76" x="240.5" y="398.1543">GameObject</text><line style="stroke: #A80036; stroke-width: 1.5;" x1="212.5" x2="318.5" y1="410" y2="410"/><line style="stroke: #A80036; stroke-width: 1.5;" x1="212.5" x2="318.5" y1="418" y2="418"/><!--MD5=[8c9676452f7135a1f2c4480e47e2543f]
class ISoundManager--><rect fill="#FEFECE" filter="url(#f1uv26xxdd78ew)" height="48" id="ISoundManager" style="stroke: #A80036; stroke-width: 1.5;" width="130" x="354.5" y="378"/><ellipse cx="369.5" cy="394" fill="#ADD1B2" rx="11" ry="11" style="stroke: #A80036; stroke-width: 1.0;"/><path d="M372.4688,399.6406 Q371.8906,399.9375 371.25,400.0781 Q370.6094,400.2344 369.9063,400.2344 Q367.4063,400.2344 366.0781,398.5938 Q364.7656,396.9375 364.7656,393.8125 Q364.7656,390.6875 366.0781,389.0313 Q367.4063,387.375 369.9063,387.375 Q370.6094,387.375 371.25,387.5313 Q371.9063,387.6875 372.4688,387.9844 L372.4688,390.7031 Q371.8438,390.125 371.25,389.8594 Q370.6563,389.5781 370.0313,389.5781 Q368.6875,389.5781 368,390.6563 Q367.3125,391.7188 367.3125,393.8125 Q367.3125,395.9063 368,396.9844 Q368.6875,398.0469 370.0313,398.0469 Q370.6563,398.0469 371.25,397.7813 Q371.8438,397.5 372.4688,396.9219 L372.4688,399.6406 Z "/>
<text fill="#000000" font-family="sans-serif" font-size="12" lengthAdjust="spacingAndGlyphs" textLength="98" x="383.5" y="398.1543">ISoundManager</text><line style="stroke: #A80036; stroke-width: 1.5;" x1="355.5" x2="483.5" y1="410" y2="410"/><line style="stroke: #A80036; stroke-width: 1.5;" x1="355.5" x2="483.5" y1="418" y2="418"/><!--MD5=[3aa12d24251992f604663c9d4e05f1f1]
class IStatusPanel--><rect fill="#FEFECE" filter="url(#f1uv26xxdd78ew)" height="48" id="IStatusPanel" style="stroke: #A80036; stroke-width: 1.5;" width="111" x="520" y="378"/><ellipse cx="535" cy="394" fill="#ADD1B2" rx="11" ry="11" style="stroke: #A80036; stroke-width: 1.0;"/><path d="M537.9688,399.6406 Q537.3906,399.9375 536.75,400.0781 Q536.1094,400.2344 535.4063,400.2344 Q532.9063,400.2344 531.5781,398.5938 Q530.2656,396.9375 530.2656,393.8125 Q530.2656,390.6875 531.5781,389.0313 Q532.9063,387.375 535.4063,387.375 Q536.1094,387.375 536.75,387.5313 Q537.4063,387.6875 537.9688,387.9844 L537.9688,390.7031 Q537.3438,390.125 536.75,389.8594 Q536.1563,389.5781 535.5313,389.5781 Q534.1875,389.5781 533.5,390.6563 Q532.8125,391.7188 532.8125,393.8125 Q532.8125,395.9063 533.5,396.9844 Q534.1875,398.0469 535.5313,398.0469 Q536.1563,398.0469 536.75,397.7813 Q537.3438,397.5 537.9688,396.9219 L537.9688,399.6406 Z "/>
<text fill="#000000" font-family="sans-serif" font-size="12" lengthAdjust="spacingAndGlyphs" textLength="79" x="549" y="398.1543">IStatusPanel</text><line style="stroke: #A80036; stroke-width: 1.5;" x1="521" x2="630" y1="410" y2="410"/><line style="stroke: #A80036; stroke-width: 1.5;" x1="521" x2="630" y1="418" y2="418"/><!--MD5=[0ecd31cad4a38fa8bdc88507d707631b]
reverse link AbstractField to Field--><path d="M342.5,76.46 C342.5,88.49 342.5,102.06 342.5,115.9 " fill="none" id="AbstractField&lt;-Field" style="stroke: #A80036; stroke-width: 1.0;"/><polygon fill="none" points="335.5,76.18,342.5,56.18,349.5,76.18,335.5,76.18" style="stroke: #A80036; stroke-width: 1.0;"/><!--MD5=[f6063fee5a0e82853d3ff4a5531a2dbb]
link Field to AudioSource--><path d="M221.11,318.07 C195.89,338.86 171.39,359.05 152.88,374.31 " fill="none" id="Field-&gt;AudioSource" style="stroke: #A80036; stroke-width: 1.0;"/><polygon fill="#A80036" points="148.79,377.68,158.2764,375.0328,152.6451,374.496,153.182,368.8646,148.79,377.68" style="stroke: #A80036; stroke-width: 1.0;"/>
<text fill="#000000" font-family="sans-serif" font-size="13" lengthAdjust="spacingAndGlyphs" textLength="88" x="56.9607" y="367.007">_soundPlaced</text><!--MD5=[8388678e5c50a2bb676ba785746beb45]
link Field to GameObject--><path d="M300.4,318.07 C291.94,338.16 283.72,357.69 277.39,372.75 " fill="none" id="Field-&gt;GameObject" style="stroke: #A80036; stroke-width: 1.0;"/><polygon fill="#A80036" points="275.31,377.68,282.4787,370.9265,277.2432,373.0689,275.1009,367.8334,275.31,377.68" style="stroke: #A80036; stroke-width: 1.0;"/>
<text fill="#000000" font-family="sans-serif" font-size="13" lengthAdjust="spacingAndGlyphs" textLength="131" x="293.5725" y="366.9452">_prefabOutsideBlock</text><!--MD5=[737955f6647a93017757b00f1a6c5e74]
link Field to ISoundManager--><path d="M384.6,318.07 C393.06,338.16 401.28,357.69 407.61,372.75 " fill="none" id="Field-&gt;ISoundManager" style="stroke: #A80036; stroke-width: 1.0;"/><polygon fill="#A80036" points="409.69,377.68,409.8991,367.8334,407.7568,373.0689,402.5213,370.9265,409.69,377.68" style="stroke: #A80036; stroke-width: 1.0;"/>
<text fill="#000000" font-family="sans-serif" font-size="13" lengthAdjust="spacingAndGlyphs" textLength="46" x="412.9051" y="367.007">_sound</text><!--MD5=[57016b762eb8f40ac3fe76c0d27271ba]
link Field to IStatusPanel--><path d="M469.91,318.07 C496.38,338.86 522.09,359.05 541.52,374.31 " fill="none" id="Field-&gt;IStatusPanel" style="stroke: #A80036; stroke-width: 1.0;"/><polygon fill="#A80036" points="545.81,377.68,541.203,368.9751,541.8779,374.5915,536.2615,375.2664,545.81,377.68" style="stroke: #A80036; stroke-width: 1.0;"/>
<text fill="#000000" font-family="sans-serif" font-size="13" lengthAdjust="spacingAndGlyphs" textLength="82" x="484.5264" y="366.9452">_statusPanel</text><!--MD5=[91a1f422e9e16e3a85641062997a7b4f]
link Field to List`1--><path d="M691.25,217 C691.25,217 698.35,217 701.32,217 " fill="none" id="Field-List`1" style="stroke: #A80036; stroke-width: 1.0;"/><polygon fill="#A80036" points="714.34,217,705.34,213,709.34,217,705.34,221,714.34,217" style="stroke: #A80036; stroke-width: 1.0;"/><line style="stroke: #A80036; stroke-width: 1.0;" x1="709.34" x2="701.34" y1="217" y2="217"/><polygon fill="#FFFFFF" points="679.25,217,685.25,221,691.25,217,685.25,213,679.25,217" style="stroke: #A80036; stroke-width: 1.0;"/>
<text fill="#000000" font-family="sans-serif" font-size="13" lengthAdjust="spacingAndGlyphs" textLength="197" x="801.8665" y="203.1023">_outsideBlocks&lt;GameObject&gt;</text><!--MD5=[0b82d903f44fb079f5674a8e3c399f86]
@startuml
class Field {
    _width : int = 8
    _height : int = 16
    _borderLine : int = 14
    + <<override>> ResetField(statusPanel:IStatusPanel, sound:ISoundManager, width:int, height:int, borderLine:int) : void
    + <<override>> Width() : int
    + <<override>> Height() : int
    + <<override>> SetBlocks(blocks:Block[]) : bool
    + <<override>> IsHit(blocks:Vector2Int[]) : bool
    + DebugField() : string
    + <<override>> ReduceLines(owner:IPlayer) : void
    - CoReduceLines(owner:IPlayer, reducedIndex:List<int>, reduceMap:Dictionary<int, int>) : IEnumerator
    + <<override>> GetFieldMap() : int[,]
}
class "List`1"<T> {
}
AbstractField <|- - Field
Field - -> "_soundPlaced" AudioSource
Field - -> "_prefabOutsideBlock" GameObject
Field - -> "_sound" ISoundManager
Field - -> "_statusPanel" IStatusPanel
Field o-> "_outsideBlocks<GameObject>" "List`1"
@enduml

PlantUML version 1.2020.02(Sun Mar 01 10:22:07 GMT 2020)
(GPL source distribution)
Java Runtime: OpenJDK Runtime Environment
JVM: OpenJDK 64-Bit Server VM
Java Version: 11.0.9+11-Ubuntu-0ubuntu1
Operating System: Linux
Default Encoding: ANSI_X3.4-1968
Language: en
Country: US
--></g></svg>
