<?xml version="1.0" encoding="UTF-8" standalone="no"?><svg xmlns="http://www.w3.org/2000/svg" xmlns:xlink="http://www.w3.org/1999/xlink" contentScriptType="application/ecmascript" contentStyleType="text/css" height="347px" preserveAspectRatio="none" style="width:830px;height:347px;" version="1.1" viewBox="0 0 830 347" width="830px" zoomAndPan="magnify"><defs><filter height="300%" id="f1ncd05yzqy80v" width="300%" x="-1" y="-1"><feGaussianBlur result="blurOut" stdDeviation="2.0"/><feColorMatrix in="blurOut" result="blurOut2" type="matrix" values="0 0 0 0 0 0 0 0 0 0 0 0 0 0 0 0 0 0 .4 0"/><feOffset dx="4.0" dy="4.0" in="blurOut2" result="blurOut3"/><feBlend in="SourceGraphic" in2="blurOut3" mode="normal"/></filter></defs><g><!--MD5=[82d9c97a467af7c0b2c072e754b85475]
class GameController--><rect fill="#FEFECE" filter="url(#f1ncd05yzqy80v)" height="112.0234" id="GameController" style="stroke: #A80036; stroke-width: 1.5;" width="136" x="346" y="116"/><ellipse cx="364.15" cy="132" fill="#ADD1B2" rx="11" ry="11" style="stroke: #A80036; stroke-width: 1.0;"/><path d="M367.1188,137.6406 Q366.5406,137.9375 365.9,138.0781 Q365.2594,138.2344 364.5563,138.2344 Q362.0563,138.2344 360.7281,136.5938 Q359.4156,134.9375 359.4156,131.8125 Q359.4156,128.6875 360.7281,127.0313 Q362.0563,125.375 364.5563,125.375 Q365.2594,125.375 365.9,125.5313 Q366.5563,125.6875 367.1188,125.9844 L367.1188,128.7031 Q366.4938,128.125 365.9,127.8594 Q365.3063,127.5781 364.6813,127.5781 Q363.3375,127.5781 362.65,128.6563 Q361.9625,129.7188 361.9625,131.8125 Q361.9625,133.9063 362.65,134.9844 Q363.3375,136.0469 364.6813,136.0469 Q365.3063,136.0469 365.9,135.7813 Q366.4938,135.5 367.1188,134.9219 L367.1188,137.6406 Z "/><text fill="#000000" font-family="sans-serif" font-size="12" lengthAdjust="spacingAndGlyphs" textLength="97" x="378.85" y="136.1543">GameController</text><line style="stroke: #A80036; stroke-width: 1.5;" x1="347" x2="481" y1="148" y2="148"/><rect fill="none" height="6" style="stroke: #C82930; stroke-width: 1.0;" width="6" x="354" y="156"/><text fill="#000000" font-family="sans-serif" font-size="11" lengthAdjust="spacingAndGlyphs" textLength="109" x="366" y="162.2104">_fallLevel : int = 16</text><line style="stroke: #A80036; stroke-width: 1.5;" x1="347" x2="481" y1="168.8047" y2="168.8047"/><rect fill="#F24D5C" height="6" style="stroke: #C82930; stroke-width: 1.0;" width="6" x="354" y="176.8047"/><text fill="#000000" font-family="sans-serif" font-size="11" lengthAdjust="spacingAndGlyphs" textLength="71" x="366" y="183.0151">Start() : void</text><ellipse cx="357" cy="192.6094" fill="#84BE84" rx="3" ry="3" style="stroke: #038048; stroke-width: 1.0;"/><text fill="#000000" font-family="sans-serif" font-size="11" lengthAdjust="spacingAndGlyphs" textLength="103" x="366" y="195.8198">BootGame() : void</text><ellipse cx="357" cy="205.4141" fill="#84BE84" rx="3" ry="3" style="stroke: #038048; stroke-width: 1.0;"/><text fill="#000000" font-family="sans-serif" font-size="11" lengthAdjust="spacingAndGlyphs" textLength="98" x="366" y="208.6245">RunGame() : void</text><ellipse cx="357" cy="218.2188" fill="#84BE84" rx="3" ry="3" style="stroke: #038048; stroke-width: 1.0;"/><text fill="#000000" font-family="sans-serif" font-size="11" lengthAdjust="spacingAndGlyphs" textLength="110" x="366" y="221.4292">FinishGame() : void</text><!--MD5=[83b3cf3d23d77c6f1e1b5291a241bc2a]
class MonoBehaviour--><rect fill="#FEFECE" filter="url(#f1ncd05yzqy80v)" height="48" id="MonoBehaviour" style="stroke: #A80036; stroke-width: 1.5;" width="128" x="268" y="8"/><ellipse cx="283" cy="24" fill="#ADD1B2" rx="11" ry="11" style="stroke: #A80036; stroke-width: 1.0;"/><path d="M285.9688,29.6406 Q285.3906,29.9375 284.75,30.0781 Q284.1094,30.2344 283.4063,30.2344 Q280.9063,30.2344 279.5781,28.5938 Q278.2656,26.9375 278.2656,23.8125 Q278.2656,20.6875 279.5781,19.0313 Q280.9063,17.375 283.4063,17.375 Q284.1094,17.375 284.75,17.5313 Q285.4063,17.6875 285.9688,17.9844 L285.9688,20.7031 Q285.3438,20.125 284.75,19.8594 Q284.1563,19.5781 283.5313,19.5781 Q282.1875,19.5781 281.5,20.6563 Q280.8125,21.7188 280.8125,23.8125 Q280.8125,25.9063 281.5,26.9844 Q282.1875,28.0469 283.5313,28.0469 Q284.1563,28.0469 284.75,27.7813 Q285.3438,27.5 285.9688,26.9219 L285.9688,29.6406 Z "/><text fill="#000000" font-family="sans-serif" font-size="12" lengthAdjust="spacingAndGlyphs" textLength="96" x="297" y="28.1543">MonoBehaviour</text><line style="stroke: #A80036; stroke-width: 1.5;" x1="269" x2="395" y1="40" y2="40"/><line style="stroke: #A80036; stroke-width: 1.5;" x1="269" x2="395" y1="48" y2="48"/><!--MD5=[3b9fec7f9d226106b53caed4fa4e6f62]
class IGameController--><rect fill="#FEFECE" filter="url(#f1ncd05yzqy80v)" height="48" id="IGameController" style="stroke: #A80036; stroke-width: 1.5;" width="132" x="431" y="8"/><ellipse cx="446" cy="24" fill="#ADD1B2" rx="11" ry="11" style="stroke: #A80036; stroke-width: 1.0;"/><path d="M448.9688,29.6406 Q448.3906,29.9375 447.75,30.0781 Q447.1094,30.2344 446.4063,30.2344 Q443.9063,30.2344 442.5781,28.5938 Q441.2656,26.9375 441.2656,23.8125 Q441.2656,20.6875 442.5781,19.0313 Q443.9063,17.375 446.4063,17.375 Q447.1094,17.375 447.75,17.5313 Q448.4063,17.6875 448.9688,17.9844 L448.9688,20.7031 Q448.3438,20.125 447.75,19.8594 Q447.1563,19.5781 446.5313,19.5781 Q445.1875,19.5781 444.5,20.6563 Q443.8125,21.7188 443.8125,23.8125 Q443.8125,25.9063 444.5,26.9844 Q445.1875,28.0469 446.5313,28.0469 Q447.1563,28.0469 447.75,27.7813 Q448.3438,27.5 448.9688,26.9219 L448.9688,29.6406 Z "/><text fill="#000000" font-family="sans-serif" font-size="12" lengthAdjust="spacingAndGlyphs" textLength="100" x="460" y="28.1543">IGameController</text><line style="stroke: #A80036; stroke-width: 1.5;" x1="432" x2="562" y1="40" y2="40"/><line style="stroke: #A80036; stroke-width: 1.5;" x1="432" x2="562" y1="48" y2="48"/><!--MD5=[1ccf88b84f217b1b30fe294299e2e1d6]
class AbstractField--><rect fill="#FEFECE" filter="url(#f1ncd05yzqy80v)" height="48" id="AbstractField" style="stroke: #A80036; stroke-width: 1.5;" width="114" x="6" y="288"/><ellipse cx="21" cy="304" fill="#ADD1B2" rx="11" ry="11" style="stroke: #A80036; stroke-width: 1.0;"/><path d="M23.9688,309.6406 Q23.3906,309.9375 22.75,310.0781 Q22.1094,310.2344 21.4063,310.2344 Q18.9063,310.2344 17.5781,308.5938 Q16.2656,306.9375 16.2656,303.8125 Q16.2656,300.6875 17.5781,299.0313 Q18.9063,297.375 21.4063,297.375 Q22.1094,297.375 22.75,297.5313 Q23.4063,297.6875 23.9688,297.9844 L23.9688,300.7031 Q23.3438,300.125 22.75,299.8594 Q22.1563,299.5781 21.5313,299.5781 Q20.1875,299.5781 19.5,300.6563 Q18.8125,301.7188 18.8125,303.8125 Q18.8125,305.9063 19.5,306.9844 Q20.1875,308.0469 21.5313,308.0469 Q22.1563,308.0469 22.75,307.7813 Q23.3438,307.5 23.9688,306.9219 L23.9688,309.6406 Z "/><text fill="#000000" font-family="sans-serif" font-size="12" lengthAdjust="spacingAndGlyphs" textLength="82" x="35" y="308.1543">AbstractField</text><line style="stroke: #A80036; stroke-width: 1.5;" x1="7" x2="119" y1="320" y2="320"/><line style="stroke: #A80036; stroke-width: 1.5;" x1="7" x2="119" y1="328" y2="328"/><!--MD5=[267e49382c186a4233894685f6461bc1]
class UnitySoundManager--><rect fill="#FEFECE" filter="url(#f1ncd05yzqy80v)" height="48" id="UnitySoundManager" style="stroke: #A80036; stroke-width: 1.5;" width="158" x="155" y="288"/><ellipse cx="170" cy="304" fill="#ADD1B2" rx="11" ry="11" style="stroke: #A80036; stroke-width: 1.0;"/><path d="M172.9688,309.6406 Q172.3906,309.9375 171.75,310.0781 Q171.1094,310.2344 170.4063,310.2344 Q167.9063,310.2344 166.5781,308.5938 Q165.2656,306.9375 165.2656,303.8125 Q165.2656,300.6875 166.5781,299.0313 Q167.9063,297.375 170.4063,297.375 Q171.1094,297.375 171.75,297.5313 Q172.4063,297.6875 172.9688,297.9844 L172.9688,300.7031 Q172.3438,300.125 171.75,299.8594 Q171.1563,299.5781 170.5313,299.5781 Q169.1875,299.5781 168.5,300.6563 Q167.8125,301.7188 167.8125,303.8125 Q167.8125,305.9063 168.5,306.9844 Q169.1875,308.0469 170.5313,308.0469 Q171.1563,308.0469 171.75,307.7813 Q172.3438,307.5 172.9688,306.9219 L172.9688,309.6406 Z "/><text fill="#000000" font-family="sans-serif" font-size="12" lengthAdjust="spacingAndGlyphs" textLength="126" x="184" y="308.1543">UnitySoundManager</text><line style="stroke: #A80036; stroke-width: 1.5;" x1="156" x2="312" y1="320" y2="320"/><line style="stroke: #A80036; stroke-width: 1.5;" x1="156" x2="312" y1="328" y2="328"/><!--MD5=[4a39f741ad6768ca388f24f8e4e7f8ee]
class StateGameBoot--><rect fill="#FEFECE" filter="url(#f1ncd05yzqy80v)" height="48" id="StateGameBoot" style="stroke: #A80036; stroke-width: 1.5;" width="131" x="348.5" y="288"/><ellipse cx="363.5" cy="304" fill="#ADD1B2" rx="11" ry="11" style="stroke: #A80036; stroke-width: 1.0;"/><path d="M366.4688,309.6406 Q365.8906,309.9375 365.25,310.0781 Q364.6094,310.2344 363.9063,310.2344 Q361.4063,310.2344 360.0781,308.5938 Q358.7656,306.9375 358.7656,303.8125 Q358.7656,300.6875 360.0781,299.0313 Q361.4063,297.375 363.9063,297.375 Q364.6094,297.375 365.25,297.5313 Q365.9063,297.6875 366.4688,297.9844 L366.4688,300.7031 Q365.8438,300.125 365.25,299.8594 Q364.6563,299.5781 364.0313,299.5781 Q362.6875,299.5781 362,300.6563 Q361.3125,301.7188 361.3125,303.8125 Q361.3125,305.9063 362,306.9844 Q362.6875,308.0469 364.0313,308.0469 Q364.6563,308.0469 365.25,307.7813 Q365.8438,307.5 366.4688,306.9219 L366.4688,309.6406 Z "/><text fill="#000000" font-family="sans-serif" font-size="12" lengthAdjust="spacingAndGlyphs" textLength="99" x="377.5" y="308.1543">StateGameBoot</text><line style="stroke: #A80036; stroke-width: 1.5;" x1="349.5" x2="478.5" y1="320" y2="320"/><line style="stroke: #A80036; stroke-width: 1.5;" x1="349.5" x2="478.5" y1="328" y2="328"/><!--MD5=[3078c6b64450c3e35776cb40b1f331d8]
class StateGameMain--><rect fill="#FEFECE" filter="url(#f1ncd05yzqy80v)" height="48" id="StateGameMain" style="stroke: #A80036; stroke-width: 1.5;" width="131" x="514.5" y="288"/><ellipse cx="529.5" cy="304" fill="#ADD1B2" rx="11" ry="11" style="stroke: #A80036; stroke-width: 1.0;"/><path d="M532.4688,309.6406 Q531.8906,309.9375 531.25,310.0781 Q530.6094,310.2344 529.9063,310.2344 Q527.4063,310.2344 526.0781,308.5938 Q524.7656,306.9375 524.7656,303.8125 Q524.7656,300.6875 526.0781,299.0313 Q527.4063,297.375 529.9063,297.375 Q530.6094,297.375 531.25,297.5313 Q531.9063,297.6875 532.4688,297.9844 L532.4688,300.7031 Q531.8438,300.125 531.25,299.8594 Q530.6563,299.5781 530.0313,299.5781 Q528.6875,299.5781 528,300.6563 Q527.3125,301.7188 527.3125,303.8125 Q527.3125,305.9063 528,306.9844 Q528.6875,308.0469 530.0313,308.0469 Q530.6563,308.0469 531.25,307.7813 Q531.8438,307.5 532.4688,306.9219 L532.4688,309.6406 Z "/><text fill="#000000" font-family="sans-serif" font-size="12" lengthAdjust="spacingAndGlyphs" textLength="99" x="543.5" y="308.1543">StateGameMain</text><line style="stroke: #A80036; stroke-width: 1.5;" x1="515.5" x2="644.5" y1="320" y2="320"/><line style="stroke: #A80036; stroke-width: 1.5;" x1="515.5" x2="644.5" y1="328" y2="328"/><!--MD5=[f432f6a74f838366b59e77c4bae35570]
class StateGameFinish--><rect fill="#FEFECE" filter="url(#f1ncd05yzqy80v)" height="48" id="StateGameFinish" style="stroke: #A80036; stroke-width: 1.5;" width="138" x="681" y="288"/><ellipse cx="696" cy="304" fill="#ADD1B2" rx="11" ry="11" style="stroke: #A80036; stroke-width: 1.0;"/><path d="M698.9688,309.6406 Q698.3906,309.9375 697.75,310.0781 Q697.1094,310.2344 696.4063,310.2344 Q693.9063,310.2344 692.5781,308.5938 Q691.2656,306.9375 691.2656,303.8125 Q691.2656,300.6875 692.5781,299.0313 Q693.9063,297.375 696.4063,297.375 Q697.1094,297.375 697.75,297.5313 Q698.4063,297.6875 698.9688,297.9844 L698.9688,300.7031 Q698.3438,300.125 697.75,299.8594 Q697.1563,299.5781 696.5313,299.5781 Q695.1875,299.5781 694.5,300.6563 Q693.8125,301.7188 693.8125,303.8125 Q693.8125,305.9063 694.5,306.9844 Q695.1875,308.0469 696.5313,308.0469 Q697.1563,308.0469 697.75,307.7813 Q698.3438,307.5 698.9688,306.9219 L698.9688,309.6406 Z "/><text fill="#000000" font-family="sans-serif" font-size="12" lengthAdjust="spacingAndGlyphs" textLength="106" x="710" y="308.1543">StateGameFinish</text><line style="stroke: #A80036; stroke-width: 1.5;" x1="682" x2="818" y1="320" y2="320"/><line style="stroke: #A80036; stroke-width: 1.5;" x1="682" x2="818" y1="328" y2="328"/><!--MD5=[a0305418944ee2d262975993b8fd5dd0]
reverse link MonoBehaviour to GameController--><path d="M356.05,73.47 C363.94,86.76 372.85,101.75 381.28,115.93 " fill="none" id="MonoBehaviour&lt;-GameController" style="stroke: #A80036; stroke-width: 1.0;"/><polygon fill="none" points="349.92,76.87,345.72,56.1,361.96,69.72,349.92,76.87" style="stroke: #A80036; stroke-width: 1.0;"/><!--MD5=[b6416d37facf9f35cf166190fc6ac4f5]
reverse link IGameController to GameController--><path d="M472.66,73.47 C464.67,86.76 455.65,101.75 447.12,115.93 " fill="none" id="IGameController&lt;-GameController" style="stroke: #A80036; stroke-width: 1.0;"/><polygon fill="none" points="466.8,69.63,483.11,56.1,478.8,76.84,466.8,69.63" style="stroke: #A80036; stroke-width: 1.0;"/><!--MD5=[5399c4bbba6fb30a208afb356b492053]
link GameController to AbstractField--><path d="M345.91,199.77 C281.89,224.94 186.88,262.3 124.94,286.65 " fill="none" id="GameController-&gt;AbstractField" style="stroke: #A80036; stroke-width: 1.0;"/><polygon fill="#A80036" points="120.17,288.52,130.0093,288.954,124.8241,286.6926,127.0855,281.5074,120.17,288.52" style="stroke: #A80036; stroke-width: 1.0;"/><text fill="#000000" font-family="sans-serif" font-size="13" lengthAdjust="spacingAndGlyphs" textLength="74" x="115.2408" y="276.8552">_fieldPrefab</text><!--MD5=[7e26fde7f47df8506b4de90409e191a7]
link GameController to UnitySoundManager--><path d="M345.95,225.17 C319.33,245.58 289.99,268.08 268.02,284.92 " fill="none" id="GameController-&gt;UnitySoundManager" style="stroke: #A80036; stroke-width: 1.0;"/><polygon fill="#A80036" points="264.01,287.99,273.5869,285.6914,267.979,284.949,268.7213,279.3411,264.01,287.99" style="stroke: #A80036; stroke-width: 1.0;"/><text fill="#000000" font-family="sans-serif" font-size="13" lengthAdjust="spacingAndGlyphs" textLength="46" x="219.8063" y="276.9995">_sound</text><!--MD5=[e38563cc41c410891622226f747824fb]
link GameController to StateGameBoot--><path d="M414,228.33 C414,246.93 414,266.9 414,282.56 " fill="none" id="GameController-&gt;StateGameBoot" style="stroke: #A80036; stroke-width: 1.0;"/><polygon fill="#A80036" points="414,287.69,418,278.69,414,282.69,410,278.69,414,287.69" style="stroke: #A80036; stroke-width: 1.0;"/><text fill="#000000" font-family="sans-serif" font-size="13" lengthAdjust="spacingAndGlyphs" textLength="36" x="373.6125" y="277.0194">_boot</text><!--MD5=[6bd00c4737e02d8bc49355721041b996]
link GameController to StateGameMain--><path d="M480.56,228.33 C503.71,247.58 528.63,268.29 547.73,284.17 " fill="none" id="GameController-&gt;StateGameMain" style="stroke: #A80036; stroke-width: 1.0;"/><polygon fill="#A80036" points="551.96,287.69,547.6035,278.857,548.1177,284.4905,542.4843,285.0047,551.96,287.69" style="stroke: #A80036; stroke-width: 1.0;"/><text fill="#000000" font-family="sans-serif" font-size="13" lengthAdjust="spacingAndGlyphs" textLength="39" x="501.3721" y="277.0194">_main</text><!--MD5=[34dfe39f7d231245b7bfff5a3df2db11]
link GameController to StateGameFinish--><path d="M482.4,201.09 C543.05,226 630.82,262.05 689.1,285.99 " fill="none" id="GameController-&gt;StateGameFinish" style="stroke: #A80036; stroke-width: 1.0;"/><polygon fill="#A80036" points="693.94,287.98,687.1409,280.8545,689.3166,286.0763,684.0949,288.252,693.94,287.98" style="stroke: #A80036; stroke-width: 1.0;"/><text fill="#000000" font-family="sans-serif" font-size="13" lengthAdjust="spacingAndGlyphs" textLength="40" x="634.4496" y="276.9869">_finish</text><!--MD5=[8d6cbd512a59c2c04cff2255c0f1ad97]
@startuml
class GameController {
    - _fallLevel : int = 16
    - Start() : void
    + BootGame() : void
    + RunGame() : void
    + FinishGame() : void
}
MonoBehaviour <|- - GameController
IGameController <|- - GameController
GameController - -> "_fieldPrefab" AbstractField
GameController - -> "_sound" UnitySoundManager
GameController - -> "_boot" StateGameBoot
GameController - -> "_main" StateGameMain
GameController - -> "_finish" StateGameFinish
@enduml

PlantUML version 1.2020.02(Sun Mar 01 10:22:07 GMT 2020)
(GPL source distribution)
Java Runtime: OpenJDK Runtime Environment
JVM: OpenJDK 64-Bit Server VM
Java Version: 11.0.9+11-Ubuntu-0ubuntu1
Operating System: Linux
Default Encoding: ANSI_X3.4-1968
Language: en
Country: US
--></g></svg>