<?xml version="1.0" encoding="UTF-8" standalone="no"?><svg xmlns="http://www.w3.org/2000/svg" xmlns:xlink="http://www.w3.org/1999/xlink" contentScriptType="application/ecmascript" contentStyleType="text/css" height="277px" preserveAspectRatio="none" style="width:302px;height:277px;" version="1.1" viewBox="0 0 302 277" width="302px" zoomAndPan="magnify"><defs><filter height="300%" id="f1da1ose6s0urb" width="300%" x="-1" y="-1"><feGaussianBlur result="blurOut" stdDeviation="2.0"/><feColorMatrix in="blurOut" result="blurOut2" type="matrix" values="0 0 0 0 0 0 0 0 0 0 0 0 0 0 0 0 0 0 .4 0"/><feOffset dx="4.0" dy="4.0" in="blurOut2" result="blurOut3"/><feBlend in="SourceGraphic" in2="blurOut3" mode="normal"/></filter></defs><g><!--MD5=[313835e2384f4c5003f55ee5fc6febf5]
class InputManager--><rect fill="#FEFECE" filter="url(#f1da1ose6s0urb)" height="150.4375" id="InputManager" style="stroke: #A80036; stroke-width: 1.5;" width="145" x="77.5" y="116"/><ellipse cx="103.75" cy="132" fill="#A9DCDF" rx="11" ry="11" style="stroke: #A80036; stroke-width: 1.0;"/><path d="M103.8594,127.3438 L102.7031,132.4219 L105.0313,132.4219 L103.8594,127.3438 Z M102.375,125.1094 L105.3594,125.1094 L108.7188,137.5 L106.2656,137.5 L105.5,134.4375 L102.2188,134.4375 L101.4688,137.5 L99.0313,137.5 L102.375,125.1094 Z "/><text fill="#000000" font-family="sans-serif" font-size="12" font-style="italic" lengthAdjust="spacingAndGlyphs" textLength="88" x="120.25" y="136.1543">InputManager</text><line style="stroke: #A80036; stroke-width: 1.5;" x1="78.5" x2="221.5" y1="148" y2="148"/><line style="stroke: #A80036; stroke-width: 1.5;" x1="78.5" x2="221.5" y1="156" y2="156"/><ellipse cx="88.5" cy="167" fill="#84BE84" rx="3" ry="3" style="stroke: #038048; stroke-width: 1.0;"/><text fill="#000000" font-family="sans-serif" font-size="11" font-style="italic" lengthAdjust="spacingAndGlyphs" textLength="105" x="97.5" y="170.2104">StartGame() : void</text><ellipse cx="88.5" cy="179.8047" fill="#84BE84" rx="3" ry="3" style="stroke: #038048; stroke-width: 1.0;"/><text fill="#000000" font-family="sans-serif" font-size="11" font-style="italic" lengthAdjust="spacingAndGlyphs" textLength="113" x="97.5" y="183.0151">UpdateState() : void</text><ellipse cx="88.5" cy="192.6094" fill="#84BE84" rx="3" ry="3" style="stroke: #038048; stroke-width: 1.0;"/><text fill="#000000" font-family="sans-serif" font-size="11" font-style="italic" lengthAdjust="spacingAndGlyphs" textLength="110" x="97.5" y="195.8198">FinishGame() : void</text><ellipse cx="88.5" cy="205.4141" fill="#84BE84" rx="3" ry="3" style="stroke: #038048; stroke-width: 1.0;"/><text fill="#000000" font-family="sans-serif" font-size="11" font-style="italic" lengthAdjust="spacingAndGlyphs" textLength="119" x="97.5" y="208.6245">IsRotateRight() : bool</text><ellipse cx="88.5" cy="218.2188" fill="#84BE84" rx="3" ry="3" style="stroke: #038048; stroke-width: 1.0;"/><text fill="#000000" font-family="sans-serif" font-size="11" font-style="italic" lengthAdjust="spacingAndGlyphs" textLength="111" x="97.5" y="221.4292">IsRotateLeft() : bool</text><ellipse cx="88.5" cy="231.0234" fill="#84BE84" rx="3" ry="3" style="stroke: #038048; stroke-width: 1.0;"/><text fill="#000000" font-family="sans-serif" font-size="11" font-style="italic" lengthAdjust="spacingAndGlyphs" textLength="112" x="97.5" y="234.2339">IsMoveRight() : bool</text><ellipse cx="88.5" cy="243.8281" fill="#84BE84" rx="3" ry="3" style="stroke: #038048; stroke-width: 1.0;"/><text fill="#000000" font-family="sans-serif" font-size="11" font-style="italic" lengthAdjust="spacingAndGlyphs" textLength="104" x="97.5" y="247.0386">IsMoveLeft() : bool</text><ellipse cx="88.5" cy="256.6328" fill="#84BE84" rx="3" ry="3" style="stroke: #038048; stroke-width: 1.0;"/><text fill="#000000" font-family="sans-serif" font-size="11" font-style="italic" lengthAdjust="spacingAndGlyphs" textLength="114" x="97.5" y="259.8433">IsMoveDown() : bool</text><!--MD5=[83b3cf3d23d77c6f1e1b5291a241bc2a]
class MonoBehaviour--><rect fill="#FEFECE" filter="url(#f1da1ose6s0urb)" height="48" id="MonoBehaviour" style="stroke: #A80036; stroke-width: 1.5;" width="128" x="6" y="8"/><ellipse cx="21" cy="24" fill="#ADD1B2" rx="11" ry="11" style="stroke: #A80036; stroke-width: 1.0;"/><path d="M23.9688,29.6406 Q23.3906,29.9375 22.75,30.0781 Q22.1094,30.2344 21.4063,30.2344 Q18.9063,30.2344 17.5781,28.5938 Q16.2656,26.9375 16.2656,23.8125 Q16.2656,20.6875 17.5781,19.0313 Q18.9063,17.375 21.4063,17.375 Q22.1094,17.375 22.75,17.5313 Q23.4063,17.6875 23.9688,17.9844 L23.9688,20.7031 Q23.3438,20.125 22.75,19.8594 Q22.1563,19.5781 21.5313,19.5781 Q20.1875,19.5781 19.5,20.6563 Q18.8125,21.7188 18.8125,23.8125 Q18.8125,25.9063 19.5,26.9844 Q20.1875,28.0469 21.5313,28.0469 Q22.1563,28.0469 22.75,27.7813 Q23.3438,27.5 23.9688,26.9219 L23.9688,29.6406 Z "/><text fill="#000000" font-family="sans-serif" font-size="12" lengthAdjust="spacingAndGlyphs" textLength="96" x="35" y="28.1543">MonoBehaviour</text><line style="stroke: #A80036; stroke-width: 1.5;" x1="7" x2="133" y1="40" y2="40"/><line style="stroke: #A80036; stroke-width: 1.5;" x1="7" x2="133" y1="48" y2="48"/><!--MD5=[6abfa0c410305c5f5b347ec15ab703e6]
class IInputManager--><rect fill="#FEFECE" filter="url(#f1da1ose6s0urb)" height="48" id="IInputManager" style="stroke: #A80036; stroke-width: 1.5;" width="122" x="169" y="8"/><ellipse cx="184" cy="24" fill="#ADD1B2" rx="11" ry="11" style="stroke: #A80036; stroke-width: 1.0;"/><path d="M186.9688,29.6406 Q186.3906,29.9375 185.75,30.0781 Q185.1094,30.2344 184.4063,30.2344 Q181.9063,30.2344 180.5781,28.5938 Q179.2656,26.9375 179.2656,23.8125 Q179.2656,20.6875 180.5781,19.0313 Q181.9063,17.375 184.4063,17.375 Q185.1094,17.375 185.75,17.5313 Q186.4063,17.6875 186.9688,17.9844 L186.9688,20.7031 Q186.3438,20.125 185.75,19.8594 Q185.1563,19.5781 184.5313,19.5781 Q183.1875,19.5781 182.5,20.6563 Q181.8125,21.7188 181.8125,23.8125 Q181.8125,25.9063 182.5,26.9844 Q183.1875,28.0469 184.5313,28.0469 Q185.1563,28.0469 185.75,27.7813 Q186.3438,27.5 186.9688,26.9219 L186.9688,29.6406 Z "/><text fill="#000000" font-family="sans-serif" font-size="12" lengthAdjust="spacingAndGlyphs" textLength="90" x="198" y="28.1543">IInputManager</text><line style="stroke: #A80036; stroke-width: 1.5;" x1="170" x2="290" y1="40" y2="40"/><line style="stroke: #A80036; stroke-width: 1.5;" x1="170" x2="290" y1="48" y2="48"/><!--MD5=[b35675c2c560fc21c3c319d702582a63]
reverse link MonoBehaviour to InputManager--><path d="M90.94,74.09 C97.49,86.95 104.93,101.56 112.27,115.96 " fill="none" id="MonoBehaviour&lt;-InputManager" style="stroke: #A80036; stroke-width: 1.0;"/><polygon fill="none" points="84.65,77.16,81.8,56.17,97.12,70.81,84.65,77.16" style="stroke: #A80036; stroke-width: 1.0;"/><!--MD5=[db6ad425c0948dccb49d232b1c21c440]
reverse link IInputManager to InputManager--><path d="M209.06,74.09 C202.51,86.95 195.07,101.56 187.73,115.96 " fill="none" id="IInputManager&lt;-InputManager" style="stroke: #A80036; stroke-width: 1.0;"/><polygon fill="none" points="202.88,70.81,218.2,56.17,215.35,77.16,202.88,70.81" style="stroke: #A80036; stroke-width: 1.0;"/><!--MD5=[2ce6a42cdd7de744211ed7f755bb6333]
@startuml
abstract class InputManager {
    + {abstract} StartGame() : void
    + {abstract} UpdateState() : void
    + {abstract} FinishGame() : void
    + {abstract} IsRotateRight() : bool
    + {abstract} IsRotateLeft() : bool
    + {abstract} IsMoveRight() : bool
    + {abstract} IsMoveLeft() : bool
    + {abstract} IsMoveDown() : bool
}
MonoBehaviour <|- - InputManager
IInputManager <|- - InputManager
@enduml

PlantUML version 1.2020.02(Sun Mar 01 10:22:07 GMT 2020)
(GPL source distribution)
Java Runtime: OpenJDK Runtime Environment
JVM: OpenJDK 64-Bit Server VM
Java Version: 11.0.9+11-Ubuntu-0ubuntu1
Operating System: Linux
Default Encoding: ANSI_X3.4-1968
Language: en
Country: US
--></g></svg>