<?xml version="1.0" encoding="UTF-8" standalone="no"?><svg xmlns="http://www.w3.org/2000/svg" xmlns:xlink="http://www.w3.org/1999/xlink" contentScriptType="application/ecmascript" contentStyleType="text/css" height="181px" preserveAspectRatio="none" style="width:355px;height:181px;" version="1.1" viewBox="0 0 355 181" width="355px" zoomAndPan="magnify"><defs><filter height="300%" id="f1awax00loz8j8" width="300%" x="-1" y="-1"><feGaussianBlur result="blurOut" stdDeviation="2.0"/><feColorMatrix in="blurOut" result="blurOut2" type="matrix" values="0 0 0 0 0 0 0 0 0 0 0 0 0 0 0 0 0 0 .4 0"/><feOffset dx="4.0" dy="4.0" in="blurOut2" result="blurOut3"/><feBlend in="SourceGraphic" in2="blurOut3" mode="normal"/></filter></defs><g><!--MD5=[43b448aa6991420ebb63cd35d4907f6f]
class LevelController--><rect fill="#FEFECE" filter="url(#f1awax00loz8j8)" height="163.2422" id="LevelController" style="stroke: #A80036; stroke-width: 1.5;" width="337" x="7" y="7"/><ellipse cx="125.25" cy="23" fill="#ADD1B2" rx="11" ry="11" style="stroke: #A80036; stroke-width: 1.0;"/><path d="M128.2188,28.6406 Q127.6406,28.9375 127,29.0781 Q126.3594,29.2344 125.6563,29.2344 Q123.1563,29.2344 121.8281,27.5938 Q120.5156,25.9375 120.5156,22.8125 Q120.5156,19.6875 121.8281,18.0313 Q123.1563,16.375 125.6563,16.375 Q126.3594,16.375 127,16.5313 Q127.6563,16.6875 128.2188,16.9844 L128.2188,19.7031 Q127.5938,19.125 127,18.8594 Q126.4063,18.5781 125.7813,18.5781 Q124.4375,18.5781 123.75,19.6563 Q123.0625,20.7188 123.0625,22.8125 Q123.0625,24.9063 123.75,25.9844 Q124.4375,27.0469 125.7813,27.0469 Q126.4063,27.0469 127,26.7813 Q127.5938,26.5 128.2188,25.9219 L128.2188,28.6406 Z "/><text fill="#000000" font-family="sans-serif" font-size="12" lengthAdjust="spacingAndGlyphs" textLength="92" x="145.75" y="27.1543">LevelController</text><line style="stroke: #A80036; stroke-width: 1.5;" x1="8" x2="343" y1="39" y2="39"/><ellipse cx="18" cy="50" fill="none" rx="3" ry="3" style="stroke: #038048; stroke-width: 1.0;"/><text fill="#000000" font-family="sans-serif" font-size="11" lengthAdjust="spacingAndGlyphs" textLength="198" x="27" y="53.2104">«const» MinimumFallLevel : int = 2</text><ellipse cx="18" cy="62.8047" fill="none" rx="3" ry="3" style="stroke: #038048; stroke-width: 1.0;"/><text fill="#000000" font-family="sans-serif" font-size="11" lengthAdjust="spacingAndGlyphs" textLength="311" x="27" y="66.0151">«const» NumberOfPhasesToChangeFallLevel : int = 20</text><rect fill="none" height="6" style="stroke: #C82930; stroke-width: 1.0;" width="6" x="15" y="72.6094"/><text fill="#000000" font-family="sans-serif" font-size="11" lengthAdjust="spacingAndGlyphs" textLength="78" x="27" y="78.8198">_fallLevel : int</text><rect fill="none" height="6" style="stroke: #C82930; stroke-width: 1.0;" width="6" x="15" y="85.4141"/><text fill="#000000" font-family="sans-serif" font-size="11" lengthAdjust="spacingAndGlyphs" textLength="110" x="27" y="91.6245">_initialFallLevel : int</text><rect fill="none" height="6" style="stroke: #C82930; stroke-width: 1.0;" width="6" x="15" y="98.2188"/><text fill="#000000" font-family="sans-serif" font-size="11" lengthAdjust="spacingAndGlyphs" textLength="57" x="27" y="104.4292">_step : int</text><line style="stroke: #A80036; stroke-width: 1.5;" x1="8" x2="343" y1="111.0234" y2="111.0234"/><ellipse cx="18" cy="122.0234" fill="#84BE84" rx="3" ry="3" style="stroke: #038048; stroke-width: 1.0;"/><text fill="#000000" font-family="sans-serif" font-size="11" lengthAdjust="spacingAndGlyphs" textLength="157" x="27" y="125.2339">LevelController(fallLevel:int)</text><ellipse cx="18" cy="134.8281" fill="#84BE84" rx="3" ry="3" style="stroke: #038048; stroke-width: 1.0;"/><text fill="#000000" font-family="sans-serif" font-size="11" lengthAdjust="spacingAndGlyphs" textLength="147" x="27" y="138.0386">CurrentDisplayLevel() : int</text><ellipse cx="18" cy="147.6328" fill="#84BE84" rx="3" ry="3" style="stroke: #038048; stroke-width: 1.0;"/><text fill="#000000" font-family="sans-serif" font-size="11" lengthAdjust="spacingAndGlyphs" textLength="125" x="27" y="150.8433">CurrentFallLevel() : int</text><ellipse cx="18" cy="160.4375" fill="#84BE84" rx="3" ry="3" style="stroke: #038048; stroke-width: 1.0;"/><text fill="#000000" font-family="sans-serif" font-size="11" lengthAdjust="spacingAndGlyphs" textLength="183" x="27" y="163.6479">NextBlockHasBeenPulled() : void</text><!--MD5=[a9bcef3ad2ba0c38a25f5194d484a252]
@startuml
class LevelController {
    + <<const>> MinimumFallLevel : int = 2
    + <<const>> NumberOfPhasesToChangeFallLevel : int = 20
    - _fallLevel : int
    - _initialFallLevel : int
    - _step : int
    + LevelController(fallLevel:int)
    + CurrentDisplayLevel() : int
    + CurrentFallLevel() : int
    + NextBlockHasBeenPulled() : void
}
@enduml

PlantUML version 1.2020.02(Sun Mar 01 10:22:07 GMT 2020)
(GPL source distribution)
Java Runtime: OpenJDK Runtime Environment
JVM: OpenJDK 64-Bit Server VM
Java Version: 11.0.9+11-Ubuntu-0ubuntu1
Operating System: Linux
Default Encoding: ANSI_X3.4-1968
Language: en
Country: US
--></g></svg>