<?xml version="1.0" encoding="UTF-8" standalone="no"?><svg xmlns="http://www.w3.org/2000/svg" xmlns:xlink="http://www.w3.org/1999/xlink" contentScriptType="application/ecmascript" contentStyleType="text/css" height="188px" preserveAspectRatio="none" style="width:287px;height:188px;" version="1.1" viewBox="0 0 287 188" width="287px" zoomAndPan="magnify"><defs><filter height="300%" id="f1wyzmlh0ch1hu" width="300%" x="-1" y="-1"><feGaussianBlur result="blurOut" stdDeviation="2.0"/><feColorMatrix in="blurOut" result="blurOut2" type="matrix" values="0 0 0 0 0 0 0 0 0 0 0 0 0 0 0 0 0 0 .4 0"/><feOffset dx="4.0" dy="4.0" in="blurOut2" result="blurOut3"/><feBlend in="SourceGraphic" in2="blurOut3" mode="normal"/></filter></defs><g><!--MD5=[ffb17199771e0d80d7d4063c2d1087e9]
class PlayerAndStatusPanel--><rect fill="#FEFECE" filter="url(#f1wyzmlh0ch1hu)" height="60.8047" id="PlayerAndStatusPanel" style="stroke: #A80036; stroke-width: 1.5;" width="170" x="6" y="8"/><ellipse cx="21" cy="24" fill="#ADD1B2" rx="11" ry="11" style="stroke: #A80036; stroke-width: 1.0;"/><path d="M23.9688,29.6406 Q23.3906,29.9375 22.75,30.0781 Q22.1094,30.2344 21.4063,30.2344 Q18.9063,30.2344 17.5781,28.5938 Q16.2656,26.9375 16.2656,23.8125 Q16.2656,20.6875 17.5781,19.0313 Q18.9063,17.375 21.4063,17.375 Q22.1094,17.375 22.75,17.5313 Q23.4063,17.6875 23.9688,17.9844 L23.9688,20.7031 Q23.3438,20.125 22.75,19.8594 Q22.1563,19.5781 21.5313,19.5781 Q20.1875,19.5781 19.5,20.6563 Q18.8125,21.7188 18.8125,23.8125 Q18.8125,25.9063 19.5,26.9844 Q20.1875,28.0469 21.5313,28.0469 Q22.1563,28.0469 22.75,27.7813 Q23.3438,27.5 23.9688,26.9219 L23.9688,29.6406 Z "/>
<text fill="#000000" font-family="sans-serif" font-size="12" lengthAdjust="spacingAndGlyphs" textLength="138" x="35" y="28.1543">PlayerAndStatusPanel</text><line style="stroke: #A80036; stroke-width: 1.5;" x1="7" x2="175" y1="40" y2="40"/><line style="stroke: #A80036; stroke-width: 1.5;" x1="7" x2="175" y1="48" y2="48"/><ellipse cx="17" cy="59" fill="#84BE84" rx="3" ry="3" style="stroke: #038048; stroke-width: 1.0;"/>
<text fill="#000000" font-family="sans-serif" font-size="11" lengthAdjust="spacingAndGlyphs" textLength="69" x="26" y="62.2104">Pack() : void</text><!--MD5=[2cb47ba637a0d19583e6199456f6ad0b]
class Player--><rect fill="#FEFECE" filter="url(#f1wyzmlh0ch1hu)" height="48" id="Player" style="stroke: #A80036; stroke-width: 1.5;" width="70" x="56" y="129"/><ellipse cx="71" cy="145" fill="#ADD1B2" rx="11" ry="11" style="stroke: #A80036; stroke-width: 1.0;"/><path d="M73.9688,150.6406 Q73.3906,150.9375 72.75,151.0781 Q72.1094,151.2344 71.4063,151.2344 Q68.9063,151.2344 67.5781,149.5938 Q66.2656,147.9375 66.2656,144.8125 Q66.2656,141.6875 67.5781,140.0313 Q68.9063,138.375 71.4063,138.375 Q72.1094,138.375 72.75,138.5313 Q73.4063,138.6875 73.9688,138.9844 L73.9688,141.7031 Q73.3438,141.125 72.75,140.8594 Q72.1563,140.5781 71.5313,140.5781 Q70.1875,140.5781 69.5,141.6563 Q68.8125,142.7188 68.8125,144.8125 Q68.8125,146.9063 69.5,147.9844 Q70.1875,149.0469 71.5313,149.0469 Q72.1563,149.0469 72.75,148.7813 Q73.3438,148.5 73.9688,147.9219 L73.9688,150.6406 Z "/>
<text fill="#000000" font-family="sans-serif" font-size="12" lengthAdjust="spacingAndGlyphs" textLength="38" x="85" y="149.1543">Player</text><line style="stroke: #A80036; stroke-width: 1.5;" x1="57" x2="125" y1="161" y2="161"/><line style="stroke: #A80036; stroke-width: 1.5;" x1="57" x2="125" y1="169" y2="169"/><!--MD5=[48ba5eb5f0de0a5244422e917b163e97]
class StatusPanel--><rect fill="#FEFECE" filter="url(#f1wyzmlh0ch1hu)" height="48" id="StatusPanel" style="stroke: #A80036; stroke-width: 1.5;" width="108" x="161" y="129"/><ellipse cx="176" cy="145" fill="#ADD1B2" rx="11" ry="11" style="stroke: #A80036; stroke-width: 1.0;"/><path d="M178.9688,150.6406 Q178.3906,150.9375 177.75,151.0781 Q177.1094,151.2344 176.4063,151.2344 Q173.9063,151.2344 172.5781,149.5938 Q171.2656,147.9375 171.2656,144.8125 Q171.2656,141.6875 172.5781,140.0313 Q173.9063,138.375 176.4063,138.375 Q177.1094,138.375 177.75,138.5313 Q178.4063,138.6875 178.9688,138.9844 L178.9688,141.7031 Q178.3438,141.125 177.75,140.8594 Q177.1563,140.5781 176.5313,140.5781 Q175.1875,140.5781 174.5,141.6563 Q173.8125,142.7188 173.8125,144.8125 Q173.8125,146.9063 174.5,147.9844 Q175.1875,149.0469 176.5313,149.0469 Q177.1563,149.0469 177.75,148.7813 Q178.3438,148.5 178.9688,147.9219 L178.9688,150.6406 Z "/>
<text fill="#000000" font-family="sans-serif" font-size="12" lengthAdjust="spacingAndGlyphs" textLength="76" x="190" y="149.1543">StatusPanel</text><line style="stroke: #A80036; stroke-width: 1.5;" x1="162" x2="268" y1="161" y2="161"/><line style="stroke: #A80036; stroke-width: 1.5;" x1="162" x2="268" y1="169" y2="169"/><!--MD5=[74e9b9ab0cb85075a3cedee9453ec510]
link PlayerAndStatusPanel to Player--><path d="M79.62,69.06 C77.75,85.93 77.79,106.98 79.76,123.65 " fill="none" id="PlayerAndStatusPanel-&gt;Player" style="stroke: #A80036; stroke-width: 1.0;"/><polygon fill="#A80036" points="80.43,128.67,83.2126,119.2224,79.7729,123.7134,75.282,120.2737,80.43,128.67" style="stroke: #A80036; stroke-width: 1.0;"/>
<text fill="#000000" font-family="sans-serif" font-size="13" lengthAdjust="spacingAndGlyphs" textLength="46" x="26.2473" y="117.9945">_player</text><!--MD5=[74e9b9ab0cb85075a3cedee9453ec510]
link PlayerAndStatusPanel to Player--><path d="M103.05,69.06 C105.03,85.93 104.98,106.98 102.9,123.65 " fill="none" id="PlayerAndStatusPanel-&gt;Player-1" style="stroke: #A80036; stroke-width: 1.0;"/><polygon fill="#A80036" points="102.19,128.67,107.4125,120.3198,102.8911,123.7194,99.4915,119.198,102.19,128.67" style="stroke: #A80036; stroke-width: 1.0;"/>
<text fill="#000000" font-family="sans-serif" font-size="13" lengthAdjust="spacingAndGlyphs" textLength="93" x="116.1703" y="117.9328">PlayerInstance</text><!--MD5=[d46cd85ac0a773f10ea5f737fc30cb9c]
link PlayerAndStatusPanel to StatusPanel--><path d="M123.58,69.06 C142.66,86.37 166.58,108.07 185.16,124.93 " fill="none" id="PlayerAndStatusPanel-&gt;StatusPanel" style="stroke: #A80036; stroke-width: 1.0;"/><polygon fill="#A80036" points="189.28,128.67,185.3216,119.6516,185.5842,125.3024,179.9334,125.5649,189.28,128.67" style="stroke: #A80036; stroke-width: 1.0;"/>
<text fill="#000000" font-family="sans-serif" font-size="13" lengthAdjust="spacingAndGlyphs" textLength="82" x="193.0045" y="117.9945">_statusPanel</text><!--MD5=[c178c955711e637b09dc2b466ba94d12]
@startuml
class PlayerAndStatusPanel {
    + Pack() : void
}
PlayerAndStatusPanel - -> "_player" Player
PlayerAndStatusPanel - -> "_statusPanel" StatusPanel
PlayerAndStatusPanel - -> "PlayerInstance" Player
@enduml

PlantUML version 1.2020.02(Sun Mar 01 10:22:07 GMT 2020)
(GPL source distribution)
Java Runtime: OpenJDK Runtime Environment
JVM: OpenJDK 64-Bit Server VM
Java Version: 11.0.9+11-Ubuntu-0ubuntu1
Operating System: Linux
Default Encoding: ANSI_X3.4-1968
Language: en
Country: US
--></g></svg>
