<?xml version="1.0" encoding="UTF-8" standalone="no"?><svg xmlns="http://www.w3.org/2000/svg" xmlns:xlink="http://www.w3.org/1999/xlink" contentScriptType="application/ecmascript" contentStyleType="text/css" height="493px" preserveAspectRatio="none" style="width:514px;height:493px;" version="1.1" viewBox="0 0 514 493" width="514px" zoomAndPan="magnify"><defs><filter height="300%" id="fk9n0i1ybzmpf" width="300%" x="-1" y="-1"><feGaussianBlur result="blurOut" stdDeviation="2.0"/><feColorMatrix in="blurOut" result="blurOut2" type="matrix" values="0 0 0 0 0 0 0 0 0 0 0 0 0 0 0 0 0 0 .4 0"/><feOffset dx="4.0" dy="4.0" in="blurOut2" result="blurOut3"/><feBlend in="SourceGraphic" in2="blurOut3" mode="normal"/></filter></defs><g><rect fill="#FFFFFF" filter="url(#fk9n0i1ybzmpf)" height="176.3984" style="stroke: #A80036; stroke-width: 1.0;" width="10" x="130" y="69.4297"/><rect fill="#FFFFFF" filter="url(#fk9n0i1ybzmpf)" height="28" style="stroke: #A80036; stroke-width: 1.0;" width="10" x="135" y="106.5625"/><rect fill="#FFFFFF" filter="url(#fk9n0i1ybzmpf)" height="160.3984" style="stroke: #A80036; stroke-width: 1.0;" width="10" x="130" y="274.9609"/><rect fill="#FFFFFF" filter="url(#fk9n0i1ybzmpf)" height="28" style="stroke: #A80036; stroke-width: 1.0;" width="10" x="135" y="312.0938"/><rect fill="#FFFFFF" filter="url(#fk9n0i1ybzmpf)" height="30" style="stroke: #A80036; stroke-width: 1.0;" width="10" x="323" y="194.8281"/><rect fill="#FFFFFF" filter="url(#fk9n0i1ybzmpf)" height="14" style="stroke: #A80036; stroke-width: 1.0;" width="10" x="425.5" y="400.3594"/><rect fill="#FFFFFF" filter="url(#fk9n0i1ybzmpf)" height="76.2656" style="stroke: #000000; stroke-width: 2.0;" width="306" x="61.5" y="156.5625"/><rect fill="#FFFFFF" filter="url(#fk9n0i1ybzmpf)" height="60.2656" style="stroke: #000000; stroke-width: 2.0;" width="442" x="61.5" y="362.0938"/><line style="stroke: #A80036; stroke-width: 1.0; stroke-dasharray: 5.0,5.0;" x1="134.5" x2="134.5" y1="38.2969" y2="453.3594"/><line style="stroke: #A80036; stroke-width: 1.0; stroke-dasharray: 5.0,5.0;" x1="327.5" x2="327.5" y1="38.2969" y2="453.3594"/><line style="stroke: #A80036; stroke-width: 1.0; stroke-dasharray: 5.0,5.0;" x1="430.5" x2="430.5" y1="38.2969" y2="453.3594"/><rect fill="#FEFECE" filter="url(#fk9n0i1ybzmpf)" height="30.2969" style="stroke: #A80036; stroke-width: 1.5;" width="123" x="71.5" y="3"/>
<text fill="#000000" font-family="sans-serif" font-size="14" lengthAdjust="spacingAndGlyphs" textLength="109" x="78.5" y="22.9951">StateGameMain</text><rect fill="#FEFECE" filter="url(#fk9n0i1ybzmpf)" height="30.2969" style="stroke: #A80036; stroke-width: 1.5;" width="123" x="71.5" y="452.3594"/>
<text fill="#000000" font-family="sans-serif" font-size="14" lengthAdjust="spacingAndGlyphs" textLength="109" x="78.5" y="472.3545">StateGameMain</text><rect fill="#FEFECE" filter="url(#fk9n0i1ybzmpf)" height="30.2969" style="stroke: #A80036; stroke-width: 1.5;" width="55" x="298.5" y="3"/>
<text fill="#000000" font-family="sans-serif" font-size="14" lengthAdjust="spacingAndGlyphs" textLength="41" x="305.5" y="22.9951">Player</text><rect fill="#FEFECE" filter="url(#fk9n0i1ybzmpf)" height="30.2969" style="stroke: #A80036; stroke-width: 1.5;" width="55" x="298.5" y="452.3594"/>
<text fill="#000000" font-family="sans-serif" font-size="14" lengthAdjust="spacingAndGlyphs" textLength="41" x="305.5" y="472.3545">Player</text><rect fill="#FEFECE" filter="url(#fk9n0i1ybzmpf)" height="30.2969" style="stroke: #A80036; stroke-width: 1.5;" width="122" x="367.5" y="3"/>
<text fill="#000000" font-family="sans-serif" font-size="14" lengthAdjust="spacingAndGlyphs" textLength="108" x="374.5" y="22.9951">GameController</text><rect fill="#FEFECE" filter="url(#fk9n0i1ybzmpf)" height="30.2969" style="stroke: #A80036; stroke-width: 1.5;" width="122" x="367.5" y="452.3594"/>
<text fill="#000000" font-family="sans-serif" font-size="14" lengthAdjust="spacingAndGlyphs" textLength="108" x="374.5" y="472.3545">GameController</text><rect fill="#FFFFFF" filter="url(#fk9n0i1ybzmpf)" height="176.3984" style="stroke: #A80036; stroke-width: 1.0;" width="10" x="130" y="69.4297"/><rect fill="#FFFFFF" filter="url(#fk9n0i1ybzmpf)" height="28" style="stroke: #A80036; stroke-width: 1.0;" width="10" x="135" y="106.5625"/><rect fill="#FFFFFF" filter="url(#fk9n0i1ybzmpf)" height="160.3984" style="stroke: #A80036; stroke-width: 1.0;" width="10" x="130" y="274.9609"/><rect fill="#FFFFFF" filter="url(#fk9n0i1ybzmpf)" height="28" style="stroke: #A80036; stroke-width: 1.0;" width="10" x="135" y="312.0938"/><rect fill="#FFFFFF" filter="url(#fk9n0i1ybzmpf)" height="30" style="stroke: #A80036; stroke-width: 1.0;" width="10" x="323" y="194.8281"/><rect fill="#FFFFFF" filter="url(#fk9n0i1ybzmpf)" height="14" style="stroke: #A80036; stroke-width: 1.0;" width="10" x="425.5" y="400.3594"/><polygon fill="#A80036" points="118,65.4297,128,69.4297,118,73.4297,122,69.4297" style="stroke: #A80036; stroke-width: 1.0;"/><line style="stroke: #A80036; stroke-width: 1.0;" x1="3" x2="124" y1="69.4297" y2="69.4297"/>
<text fill="#000000" font-family="sans-serif" font-size="13" lengthAdjust="spacingAndGlyphs" textLength="38" x="10" y="64.3638">Setup</text><line style="stroke: #A80036; stroke-width: 1.0;" x1="145" x2="187" y1="98.5625" y2="98.5625"/><line style="stroke: #A80036; stroke-width: 1.0;" x1="187" x2="187" y1="98.5625" y2="111.5625"/><line style="stroke: #A80036; stroke-width: 1.0;" x1="146" x2="187" y1="111.5625" y2="111.5625"/><polygon fill="#A80036" points="156,107.5625,146,111.5625,156,115.5625,152,111.5625" style="stroke: #A80036; stroke-width: 1.0;"/>
<text fill="#000000" font-family="sans-serif" font-size="13" lengthAdjust="spacingAndGlyphs" textLength="169" x="152" y="93.4966">プレイヤーの一覧を保持する</text><path d="M61.5,156.5625 L138.5,156.5625 L138.5,163.5625 L128.5,173.5625 L61.5,173.5625 L61.5,156.5625 " fill="#EEEEEE" style="stroke: #000000; stroke-width: 1.0;"/><rect fill="none" height="76.2656" style="stroke: #000000; stroke-width: 2.0;" width="306" x="61.5" y="156.5625"/>
<text fill="#000000" font-family="sans-serif" font-size="13" font-weight="bold" lengthAdjust="spacingAndGlyphs" textLength="32" x="76.5" y="169.6294">loop</text>
<text fill="#000000" font-family="sans-serif" font-size="11" font-weight="bold" lengthAdjust="spacingAndGlyphs" textLength="120" x="153.5" y="168.7729">[プレイヤーごとに実行]</text><polygon fill="#A80036" points="311,190.8281,321,194.8281,311,198.8281,315,194.8281" style="stroke: #A80036; stroke-width: 1.0;"/><line style="stroke: #A80036; stroke-width: 1.0;" x1="140" x2="317" y1="194.8281" y2="194.8281"/>
<text fill="#000000" font-family="sans-serif" font-size="13" lengthAdjust="spacingAndGlyphs" textLength="71" x="147" y="189.7622">StartGame</text><polygon fill="#A80036" points="14,241.8281,4,245.8281,14,249.8281,10,245.8281" style="stroke: #A80036; stroke-width: 1.0;"/><line style="stroke: #A80036; stroke-width: 1.0; stroke-dasharray: 2.0,2.0;" x1="8" x2="134" y1="245.8281" y2="245.8281"/><polygon fill="#A80036" points="118,270.9609,128,274.9609,118,278.9609,122,274.9609" style="stroke: #A80036; stroke-width: 1.0;"/><line style="stroke: #A80036; stroke-width: 1.0;" x1="3" x2="124" y1="274.9609" y2="274.9609"/>
<text fill="#000000" font-family="sans-serif" font-size="13" lengthAdjust="spacingAndGlyphs" textLength="108" x="10" y="269.895">PlayerGameOver</text><line style="stroke: #A80036; stroke-width: 1.0;" x1="145" x2="187" y1="304.0938" y2="304.0938"/><line style="stroke: #A80036; stroke-width: 1.0;" x1="187" x2="187" y1="304.0938" y2="317.0938"/><line style="stroke: #A80036; stroke-width: 1.0;" x1="146" x2="187" y1="317.0938" y2="317.0938"/><polygon fill="#A80036" points="156,313.0938,146,317.0938,156,321.0938,152,317.0938" style="stroke: #A80036; stroke-width: 1.0;"/>
<text fill="#000000" font-family="sans-serif" font-size="13" lengthAdjust="spacingAndGlyphs" textLength="169" x="152" y="299.0278">GetNumberOfAlivingPlayer</text><path d="M61.5,362.0938 L131.5,362.0938 L131.5,369.0938 L121.5,379.0938 L61.5,379.0938 L61.5,362.0938 " fill="#EEEEEE" style="stroke: #000000; stroke-width: 1.0;"/><rect fill="none" height="60.2656" style="stroke: #000000; stroke-width: 2.0;" width="442" x="61.5" y="362.0938"/>
<text fill="#000000" font-family="sans-serif" font-size="13" font-weight="bold" lengthAdjust="spacingAndGlyphs" textLength="25" x="76.5" y="375.1606">opt</text>
<text fill="#000000" font-family="sans-serif" font-size="11" font-weight="bold" lengthAdjust="spacingAndGlyphs" textLength="164" x="146.5" y="374.3042">[残りプレイヤーが一人になった]</text><polygon fill="#A80036" points="413.5,396.3594,423.5,400.3594,413.5,404.3594,417.5,400.3594" style="stroke: #A80036; stroke-width: 1.0;"/><line style="stroke: #A80036; stroke-width: 1.0;" x1="140" x2="419.5" y1="400.3594" y2="400.3594"/>
<text fill="#000000" font-family="sans-serif" font-size="13" lengthAdjust="spacingAndGlyphs" textLength="75" x="147" y="395.2935">FinishGame</text><polygon fill="#A80036" points="151,410.3594,141,414.3594,151,418.3594,147,414.3594" style="stroke: #A80036; stroke-width: 1.0;"/><line style="stroke: #A80036; stroke-width: 1.0; stroke-dasharray: 2.0,2.0;" x1="145" x2="429.5" y1="414.3594" y2="414.3594"/><polygon fill="#A80036" points="14,431.3594,4,435.3594,14,439.3594,10,435.3594" style="stroke: #A80036; stroke-width: 1.0;"/><line style="stroke: #A80036; stroke-width: 1.0; stroke-dasharray: 2.0,2.0;" x1="8" x2="134" y1="435.3594" y2="435.3594"/><!--MD5=[db7a166dcd1868b9970f59cf5055e5c3]
@startuml


[-> StateGameMain : Setup
activate StateGameMain
    StateGameMain -> StateGameMain : プレイヤーの一覧を保持する
    activate StateGameMain
    deactivate StateGameMain
    loop プレイヤーごとに実行
        StateGameMain -> Player : StartGame
        activate Player
        deactivate Player
    end
    [<- - StateGameMain
deactivate StateGameMain

[-> StateGameMain : PlayerGameOver
activate StateGameMain
    StateGameMain -> StateGameMain : GetNumberOfAlivingPlayer
    activate StateGameMain
    deactivate StateGameMain
    opt 残りプレイヤーが一人になった
        StateGameMain -> GameController : FinishGame
        activate GameController
            StateGameMain <- - GameController
        deactivate GameController
    end
    [<- - StateGameMain
deactivate StateGameMain

@enduml

PlantUML version 1.2020.02(Sun Mar 01 10:22:07 GMT 2020)
(GPL source distribution)
Java Runtime: OpenJDK Runtime Environment
JVM: OpenJDK 64-Bit Server VM
Java Version: 11.0.9+11-Ubuntu-0ubuntu1
Operating System: Linux
Default Encoding: ANSI_X3.4-1968
Language: en
Country: US
--></g></svg>
