<?xml version="1.0" encoding="UTF-8" standalone="no"?><svg xmlns="http://www.w3.org/2000/svg" xmlns:xlink="http://www.w3.org/1999/xlink" contentScriptType="application/ecmascript" contentStyleType="text/css" height="1511px" preserveAspectRatio="none" style="width:1355px;height:1511px;" version="1.1" viewBox="0 0 1355 1511" width="1355px" zoomAndPan="magnify"><defs><filter height="300%" id="fi8vu8co7gh64" width="300%" x="-1" y="-1"><feGaussianBlur result="blurOut" stdDeviation="2.0"/><feColorMatrix in="blurOut" result="blurOut2" type="matrix" values="0 0 0 0 0 0 0 0 0 0 0 0 0 0 0 0 0 0 .4 0"/><feOffset dx="4.0" dy="4.0" in="blurOut2" result="blurOut3"/><feBlend in="SourceGraphic" in2="blurOut3" mode="normal"/></filter></defs><g><rect fill="#FFFFFF" filter="url(#fi8vu8co7gh64)" height="461.1953" style="stroke: #A80036; stroke-width: 1.0;" width="10" x="178" y="69.4297"/><rect fill="#FFFFFF" filter="url(#fi8vu8co7gh64)" height="28" style="stroke: #A80036; stroke-width: 1.0;" width="10" x="183" y="106.5625"/><rect fill="#FFFFFF" filter="url(#fi8vu8co7gh64)" height="28" style="stroke: #A80036; stroke-width: 1.0;" width="10" x="183" y="178.6953"/><rect fill="#FFFFFF" filter="url(#fi8vu8co7gh64)" height="28" style="stroke: #A80036; stroke-width: 1.0;" width="10" x="183" y="395.3594"/><rect fill="#FFFFFF" filter="url(#fi8vu8co7gh64)" height="86.1328" style="stroke: #A80036; stroke-width: 1.0;" width="10" x="178" y="559.7578"/><rect fill="#FFFFFF" filter="url(#fi8vu8co7gh64)" height="28" style="stroke: #A80036; stroke-width: 1.0;" width="10" x="183" y="596.8906"/><rect fill="#FFFFFF" filter="url(#fi8vu8co7gh64)" height="29.1328" style="stroke: #A80036; stroke-width: 1.0;" width="10" x="178" y="675.0234"/><rect fill="#FFFFFF" filter="url(#fi8vu8co7gh64)" height="100.2656" style="stroke: #A80036; stroke-width: 1.0;" width="10" x="178" y="733.2891"/><rect fill="#FFFFFF" filter="url(#fi8vu8co7gh64)" height="316.9297" style="stroke: #A80036; stroke-width: 1.0;" width="10" x="178" y="862.6875"/><rect fill="#FFFFFF" filter="url(#fi8vu8co7gh64)" height="28" style="stroke: #A80036; stroke-width: 1.0;" width="10" x="183" y="899.8203"/><rect fill="#FFFFFF" filter="url(#fi8vu8co7gh64)" height="129.2656" style="stroke: #A80036; stroke-width: 1.0;" width="10" x="178" y="1208.75"/><rect fill="#FFFFFF" filter="url(#fi8vu8co7gh64)" height="28" style="stroke: #A80036; stroke-width: 1.0;" width="10" x="183" y="1245.8828"/><rect fill="#FFFFFF" filter="url(#fi8vu8co7gh64)" height="86.1328" style="stroke: #A80036; stroke-width: 1.0;" width="10" x="178" y="1367.1484"/><rect fill="#FFFFFF" filter="url(#fi8vu8co7gh64)" height="28" style="stroke: #A80036; stroke-width: 1.0;" width="10" x="183" y="1404.2813"/><rect fill="#FFFFFF" filter="url(#fi8vu8co7gh64)" height="72.2656" style="stroke: #A80036; stroke-width: 1.0;" width="10" x="663" y="242.8281"/><rect fill="#FFFFFF" filter="url(#fi8vu8co7gh64)" height="72.2656" style="stroke: #A80036; stroke-width: 1.0;" width="10" x="663" y="1050.2188"/><rect fill="#FFFFFF" filter="url(#fi8vu8co7gh64)" height="14" style="stroke: #A80036; stroke-width: 1.0;" width="10" x="789.5" y="271.9609"/><rect fill="#FFFFFF" filter="url(#fi8vu8co7gh64)" height="14" style="stroke: #A80036; stroke-width: 1.0;" width="10" x="789.5" y="344.2266"/><rect fill="#FFFFFF" filter="url(#fi8vu8co7gh64)" height="14" style="stroke: #A80036; stroke-width: 1.0;" width="10" x="903" y="459.4922"/><rect fill="#FFFFFF" filter="url(#fi8vu8co7gh64)" height="14" style="stroke: #A80036; stroke-width: 1.0;" width="10" x="903" y="502.625"/><rect fill="#FFFFFF" filter="url(#fi8vu8co7gh64)" height="14" style="stroke: #A80036; stroke-width: 1.0;" width="10" x="903" y="963.9531"/><rect fill="#FFFFFF" filter="url(#fi8vu8co7gh64)" height="14" style="stroke: #A80036; stroke-width: 1.0;" width="10" x="903" y="1007.0859"/><rect fill="#FFFFFF" filter="url(#fi8vu8co7gh64)" height="57.1328" style="stroke: #A80036; stroke-width: 1.0;" width="10" x="1015" y="762.4219"/><rect fill="#FFFFFF" filter="url(#fi8vu8co7gh64)" height="14" style="stroke: #A80036; stroke-width: 1.0;" width="10" x="1167" y="791.5547"/><rect fill="#FFFFFF" filter="url(#fi8vu8co7gh64)" height="14" style="stroke: #A80036; stroke-width: 1.0;" width="10" x="1167" y="1079.3516"/><rect fill="#FFFFFF" filter="url(#fi8vu8co7gh64)" height="14" style="stroke: #A80036; stroke-width: 1.0;" width="10" x="1167" y="1151.6172"/><rect fill="#FFFFFF" filter="url(#fi8vu8co7gh64)" height="14" style="stroke: #A80036; stroke-width: 1.0;" width="10" x="1280" y="1310.0156"/><line style="stroke: #A80036; stroke-width: 1.0; stroke-dasharray: 5.0,5.0;" x1="182.5" x2="182.5" y1="38.2969" y2="1471.2813"/><line style="stroke: #A80036; stroke-width: 1.0; stroke-dasharray: 5.0,5.0;" x1="668" x2="668" y1="38.2969" y2="1471.2813"/><line style="stroke: #A80036; stroke-width: 1.0; stroke-dasharray: 5.0,5.0;" x1="794" x2="794" y1="38.2969" y2="1471.2813"/><line style="stroke: #A80036; stroke-width: 1.0; stroke-dasharray: 5.0,5.0;" x1="908" x2="908" y1="38.2969" y2="1471.2813"/><line style="stroke: #A80036; stroke-width: 1.0; stroke-dasharray: 5.0,5.0;" x1="1020" x2="1020" y1="38.2969" y2="1471.2813"/><line style="stroke: #A80036; stroke-width: 1.0; stroke-dasharray: 5.0,5.0;" x1="1171.5" x2="1171.5" y1="38.2969" y2="1471.2813"/><line style="stroke: #A80036; stroke-width: 1.0; stroke-dasharray: 5.0,5.0;" x1="1284.5" x2="1284.5" y1="38.2969" y2="1471.2813"/><rect fill="#FEFECE" filter="url(#fi8vu8co7gh64)" height="30.2969" style="stroke: #A80036; stroke-width: 1.5;" width="55" x="153.5" y="3"/>
<text fill="#000000" font-family="sans-serif" font-size="14" lengthAdjust="spacingAndGlyphs" textLength="41" x="160.5" y="22.9951">Player</text><rect fill="#FEFECE" filter="url(#fi8vu8co7gh64)" height="30.2969" style="stroke: #A80036; stroke-width: 1.5;" width="55" x="153.5" y="1470.2813"/>
<text fill="#000000" font-family="sans-serif" font-size="14" lengthAdjust="spacingAndGlyphs" textLength="41" x="160.5" y="1490.2764">Player</text><rect fill="#FEFECE" filter="url(#fi8vu8co7gh64)" height="30.2969" style="stroke: #A80036; stroke-width: 1.5;" width="122" x="605" y="3"/>
<text fill="#000000" font-family="sans-serif" font-size="14" lengthAdjust="spacingAndGlyphs" textLength="108" x="612" y="22.9951">MonoBehaviour</text><rect fill="#FEFECE" filter="url(#fi8vu8co7gh64)" height="30.2969" style="stroke: #A80036; stroke-width: 1.5;" width="122" x="605" y="1470.2813"/>
<text fill="#000000" font-family="sans-serif" font-size="14" lengthAdjust="spacingAndGlyphs" textLength="108" x="612" y="1490.2764">MonoBehaviour</text><rect fill="#FEFECE" filter="url(#fi8vu8co7gh64)" height="30.2969" style="stroke: #A80036; stroke-width: 1.5;" width="103" x="741" y="3"/>
<text fill="#000000" font-family="sans-serif" font-size="14" lengthAdjust="spacingAndGlyphs" textLength="89" x="748" y="22.9951">AbstractField</text><rect fill="#FEFECE" filter="url(#fi8vu8co7gh64)" height="30.2969" style="stroke: #A80036; stroke-width: 1.5;" width="103" x="741" y="1470.2813"/>
<text fill="#000000" font-family="sans-serif" font-size="14" lengthAdjust="spacingAndGlyphs" textLength="89" x="748" y="1490.2764">AbstractField</text><rect fill="#FEFECE" filter="url(#fi8vu8co7gh64)" height="30.2969" style="stroke: #A80036; stroke-width: 1.5;" width="96" x="858" y="3"/>
<text fill="#000000" font-family="sans-serif" font-size="14" lengthAdjust="spacingAndGlyphs" textLength="82" x="865" y="22.9951">StatusPanel</text><rect fill="#FEFECE" filter="url(#fi8vu8co7gh64)" height="30.2969" style="stroke: #A80036; stroke-width: 1.5;" width="96" x="858" y="1470.2813"/>
<text fill="#000000" font-family="sans-serif" font-size="14" lengthAdjust="spacingAndGlyphs" textLength="82" x="865" y="1490.2764">StatusPanel</text><rect fill="#FEFECE" filter="url(#fi8vu8co7gh64)" height="30.2969" style="stroke: #A80036; stroke-width: 1.5;" width="100" x="968" y="3"/>
<text fill="#000000" font-family="sans-serif" font-size="14" lengthAdjust="spacingAndGlyphs" textLength="86" x="975" y="22.9951">GameObject</text><rect fill="#FEFECE" filter="url(#fi8vu8co7gh64)" height="30.2969" style="stroke: #A80036; stroke-width: 1.5;" width="100" x="968" y="1470.2813"/>
<text fill="#000000" font-family="sans-serif" font-size="14" lengthAdjust="spacingAndGlyphs" textLength="86" x="975" y="1490.2764">GameObject</text><rect fill="#FEFECE" filter="url(#fi8vu8co7gh64)" height="30.2969" style="stroke: #A80036; stroke-width: 1.5;" width="75" x="1132.5" y="3"/>
<text fill="#000000" font-family="sans-serif" font-size="14" lengthAdjust="spacingAndGlyphs" textLength="61" x="1139.5" y="22.9951">BlockSet</text><rect fill="#FEFECE" filter="url(#fi8vu8co7gh64)" height="30.2969" style="stroke: #A80036; stroke-width: 1.5;" width="75" x="1132.5" y="1470.2813"/>
<text fill="#000000" font-family="sans-serif" font-size="14" lengthAdjust="spacingAndGlyphs" textLength="61" x="1139.5" y="1490.2764">BlockSet</text><rect fill="#FEFECE" filter="url(#fi8vu8co7gh64)" height="30.2969" style="stroke: #A80036; stroke-width: 1.5;" width="123" x="1221.5" y="3"/>
<text fill="#000000" font-family="sans-serif" font-size="14" lengthAdjust="spacingAndGlyphs" textLength="109" x="1228.5" y="22.9951">StateGameMain</text><rect fill="#FEFECE" filter="url(#fi8vu8co7gh64)" height="30.2969" style="stroke: #A80036; stroke-width: 1.5;" width="123" x="1221.5" y="1470.2813"/>
<text fill="#000000" font-family="sans-serif" font-size="14" lengthAdjust="spacingAndGlyphs" textLength="109" x="1228.5" y="1490.2764">StateGameMain</text><rect fill="#FFFFFF" filter="url(#fi8vu8co7gh64)" height="461.1953" style="stroke: #A80036; stroke-width: 1.0;" width="10" x="178" y="69.4297"/><rect fill="#FFFFFF" filter="url(#fi8vu8co7gh64)" height="28" style="stroke: #A80036; stroke-width: 1.0;" width="10" x="183" y="106.5625"/><rect fill="#FFFFFF" filter="url(#fi8vu8co7gh64)" height="28" style="stroke: #A80036; stroke-width: 1.0;" width="10" x="183" y="178.6953"/><rect fill="#FFFFFF" filter="url(#fi8vu8co7gh64)" height="28" style="stroke: #A80036; stroke-width: 1.0;" width="10" x="183" y="395.3594"/><rect fill="#FFFFFF" filter="url(#fi8vu8co7gh64)" height="86.1328" style="stroke: #A80036; stroke-width: 1.0;" width="10" x="178" y="559.7578"/><rect fill="#FFFFFF" filter="url(#fi8vu8co7gh64)" height="28" style="stroke: #A80036; stroke-width: 1.0;" width="10" x="183" y="596.8906"/><rect fill="#FFFFFF" filter="url(#fi8vu8co7gh64)" height="29.1328" style="stroke: #A80036; stroke-width: 1.0;" width="10" x="178" y="675.0234"/><rect fill="#FFFFFF" filter="url(#fi8vu8co7gh64)" height="100.2656" style="stroke: #A80036; stroke-width: 1.0;" width="10" x="178" y="733.2891"/><rect fill="#FFFFFF" filter="url(#fi8vu8co7gh64)" height="316.9297" style="stroke: #A80036; stroke-width: 1.0;" width="10" x="178" y="862.6875"/><rect fill="#FFFFFF" filter="url(#fi8vu8co7gh64)" height="28" style="stroke: #A80036; stroke-width: 1.0;" width="10" x="183" y="899.8203"/><rect fill="#FFFFFF" filter="url(#fi8vu8co7gh64)" height="129.2656" style="stroke: #A80036; stroke-width: 1.0;" width="10" x="178" y="1208.75"/><rect fill="#FFFFFF" filter="url(#fi8vu8co7gh64)" height="28" style="stroke: #A80036; stroke-width: 1.0;" width="10" x="183" y="1245.8828"/><rect fill="#FFFFFF" filter="url(#fi8vu8co7gh64)" height="86.1328" style="stroke: #A80036; stroke-width: 1.0;" width="10" x="178" y="1367.1484"/><rect fill="#FFFFFF" filter="url(#fi8vu8co7gh64)" height="28" style="stroke: #A80036; stroke-width: 1.0;" width="10" x="183" y="1404.2813"/><rect fill="#FFFFFF" filter="url(#fi8vu8co7gh64)" height="72.2656" style="stroke: #A80036; stroke-width: 1.0;" width="10" x="663" y="242.8281"/><rect fill="#FFFFFF" filter="url(#fi8vu8co7gh64)" height="72.2656" style="stroke: #A80036; stroke-width: 1.0;" width="10" x="663" y="1050.2188"/><rect fill="#FFFFFF" filter="url(#fi8vu8co7gh64)" height="14" style="stroke: #A80036; stroke-width: 1.0;" width="10" x="789.5" y="271.9609"/><rect fill="#FFFFFF" filter="url(#fi8vu8co7gh64)" height="14" style="stroke: #A80036; stroke-width: 1.0;" width="10" x="789.5" y="344.2266"/><rect fill="#FFFFFF" filter="url(#fi8vu8co7gh64)" height="14" style="stroke: #A80036; stroke-width: 1.0;" width="10" x="903" y="459.4922"/><rect fill="#FFFFFF" filter="url(#fi8vu8co7gh64)" height="14" style="stroke: #A80036; stroke-width: 1.0;" width="10" x="903" y="502.625"/><rect fill="#FFFFFF" filter="url(#fi8vu8co7gh64)" height="14" style="stroke: #A80036; stroke-width: 1.0;" width="10" x="903" y="963.9531"/><rect fill="#FFFFFF" filter="url(#fi8vu8co7gh64)" height="14" style="stroke: #A80036; stroke-width: 1.0;" width="10" x="903" y="1007.0859"/><rect fill="#FFFFFF" filter="url(#fi8vu8co7gh64)" height="57.1328" style="stroke: #A80036; stroke-width: 1.0;" width="10" x="1015" y="762.4219"/><rect fill="#FFFFFF" filter="url(#fi8vu8co7gh64)" height="14" style="stroke: #A80036; stroke-width: 1.0;" width="10" x="1167" y="791.5547"/><rect fill="#FFFFFF" filter="url(#fi8vu8co7gh64)" height="14" style="stroke: #A80036; stroke-width: 1.0;" width="10" x="1167" y="1079.3516"/><rect fill="#FFFFFF" filter="url(#fi8vu8co7gh64)" height="14" style="stroke: #A80036; stroke-width: 1.0;" width="10" x="1167" y="1151.6172"/><rect fill="#FFFFFF" filter="url(#fi8vu8co7gh64)" height="14" style="stroke: #A80036; stroke-width: 1.0;" width="10" x="1280" y="1310.0156"/><polygon fill="#A80036" points="166,65.4297,176,69.4297,166,73.4297,170,69.4297" style="stroke: #A80036; stroke-width: 1.0;"/><line style="stroke: #A80036; stroke-width: 1.0;" x1="3" x2="172" y1="69.4297" y2="69.4297"/>
<text fill="#000000" font-family="sans-serif" font-size="13" lengthAdjust="spacingAndGlyphs" textLength="38" x="10" y="64.3638">Setup</text><line style="stroke: #A80036; stroke-width: 1.0;" x1="193" x2="235" y1="98.5625" y2="98.5625"/><line style="stroke: #A80036; stroke-width: 1.0;" x1="235" x2="235" y1="98.5625" y2="111.5625"/><line style="stroke: #A80036; stroke-width: 1.0;" x1="194" x2="235" y1="111.5625" y2="111.5625"/><polygon fill="#A80036" points="204,107.5625,194,111.5625,204,115.5625,200,111.5625" style="stroke: #A80036; stroke-width: 1.0;"/>
<text fill="#000000" font-family="sans-serif" font-size="13" lengthAdjust="spacingAndGlyphs" textLength="143" x="200" y="93.4966">生存フラグを有効にする</text><line style="stroke: #A80036; stroke-width: 1.0;" x1="193" x2="235" y1="170.6953" y2="170.6953"/><line style="stroke: #A80036; stroke-width: 1.0;" x1="235" x2="235" y1="170.6953" y2="183.6953"/><line style="stroke: #A80036; stroke-width: 1.0;" x1="194" x2="235" y1="183.6953" y2="183.6953"/><polygon fill="#A80036" points="204,179.6953,194,183.6953,204,187.6953,200,183.6953" style="stroke: #A80036; stroke-width: 1.0;"/>
<text fill="#000000" font-family="sans-serif" font-size="13" lengthAdjust="spacingAndGlyphs" textLength="182" x="200" y="165.6294">ブロック群の選択肢を保持する</text><polygon fill="#A80036" points="651,238.8281,661,242.8281,651,246.8281,655,242.8281" style="stroke: #A80036; stroke-width: 1.0;"/><line style="stroke: #A80036; stroke-width: 1.0;" x1="188" x2="657" y1="242.8281" y2="242.8281"/>
<text fill="#000000" font-family="sans-serif" font-size="13" lengthAdjust="spacingAndGlyphs" textLength="68" x="195" y="237.7622">Instantiate</text><polygon fill="#A80036" points="777.5,267.9609,787.5,271.9609,777.5,275.9609,781.5,271.9609" style="stroke: #A80036; stroke-width: 1.0;"/><line style="stroke: #A80036; stroke-width: 1.0;" x1="673" x2="783.5" y1="271.9609" y2="271.9609"/>
<text fill="#000000" font-family="sans-serif" font-size="13" lengthAdjust="spacingAndGlyphs" textLength="41" x="680" y="266.895">create</text><polygon fill="#A80036" points="684,281.9609,674,285.9609,684,289.9609,680,285.9609" style="stroke: #A80036; stroke-width: 1.0;"/><line style="stroke: #A80036; stroke-width: 1.0; stroke-dasharray: 2.0,2.0;" x1="678" x2="793.5" y1="285.9609" y2="285.9609"/><polygon fill="#A80036" points="199,311.0938,189,315.0938,199,319.0938,195,315.0938" style="stroke: #A80036; stroke-width: 1.0;"/><line style="stroke: #A80036; stroke-width: 1.0; stroke-dasharray: 2.0,2.0;" x1="193" x2="667" y1="315.0938" y2="315.0938"/>
<text fill="#000000" font-family="sans-serif" font-size="13" lengthAdjust="spacingAndGlyphs" textLength="451" x="205" y="310.0278">生成されたAbstractField クラスのインスタンスを_currentBlock に保持する</text><polygon fill="#A80036" points="777.5,340.2266,787.5,344.2266,777.5,348.2266,781.5,344.2266" style="stroke: #A80036; stroke-width: 1.0;"/><line style="stroke: #A80036; stroke-width: 1.0;" x1="188" x2="783.5" y1="344.2266" y2="344.2266"/>
<text fill="#000000" font-family="sans-serif" font-size="13" lengthAdjust="spacingAndGlyphs" textLength="65" x="195" y="339.1606">ResetField</text><polygon fill="#A80036" points="199,354.2266,189,358.2266,199,362.2266,195,358.2266" style="stroke: #A80036; stroke-width: 1.0;"/><line style="stroke: #A80036; stroke-width: 1.0; stroke-dasharray: 2.0,2.0;" x1="193" x2="793.5" y1="358.2266" y2="358.2266"/><line style="stroke: #A80036; stroke-width: 1.0;" x1="193" x2="235" y1="387.3594" y2="387.3594"/><line style="stroke: #A80036; stroke-width: 1.0;" x1="235" x2="235" y1="387.3594" y2="400.3594"/><line style="stroke: #A80036; stroke-width: 1.0;" x1="194" x2="235" y1="400.3594" y2="400.3594"/><polygon fill="#A80036" points="204,396.3594,194,400.3594,204,404.3594,200,400.3594" style="stroke: #A80036; stroke-width: 1.0;"/>
<text fill="#000000" font-family="sans-serif" font-size="13" lengthAdjust="spacingAndGlyphs" textLength="362" x="200" y="382.2935">_blockSetOptions からブロックの発生予定リストを生成する</text><polygon fill="#A80036" points="891,455.4922,901,459.4922,891,463.4922,895,459.4922" style="stroke: #A80036; stroke-width: 1.0;"/><line style="stroke: #A80036; stroke-width: 1.0;" x1="188" x2="897" y1="459.4922" y2="459.4922"/>
<text fill="#000000" font-family="sans-serif" font-size="13" lengthAdjust="spacingAndGlyphs" textLength="122" x="195" y="454.4263">UpdateReservation</text><polygon fill="#A80036" points="199,469.4922,189,473.4922,199,477.4922,195,473.4922" style="stroke: #A80036; stroke-width: 1.0;"/><line style="stroke: #A80036; stroke-width: 1.0; stroke-dasharray: 2.0,2.0;" x1="193" x2="907" y1="473.4922" y2="473.4922"/><polygon fill="#A80036" points="891,498.625,901,502.625,891,506.625,895,502.625" style="stroke: #A80036; stroke-width: 1.0;"/><line style="stroke: #A80036; stroke-width: 1.0;" x1="188" x2="897" y1="502.625" y2="502.625"/>
<text fill="#000000" font-family="sans-serif" font-size="13" lengthAdjust="spacingAndGlyphs" textLength="80" x="195" y="497.5591">UpdateLevel</text><polygon fill="#A80036" points="199,512.625,189,516.625,199,520.625,195,516.625" style="stroke: #A80036; stroke-width: 1.0;"/><line style="stroke: #A80036; stroke-width: 1.0; stroke-dasharray: 2.0,2.0;" x1="193" x2="907" y1="516.625" y2="516.625"/><polygon fill="#A80036" points="14,526.625,4,530.625,14,534.625,10,530.625" style="stroke: #A80036; stroke-width: 1.0;"/><line style="stroke: #A80036; stroke-width: 1.0; stroke-dasharray: 2.0,2.0;" x1="8" x2="182" y1="530.625" y2="530.625"/><polygon fill="#A80036" points="166,555.7578,176,559.7578,166,563.7578,170,559.7578" style="stroke: #A80036; stroke-width: 1.0;"/><line style="stroke: #A80036; stroke-width: 1.0;" x1="3" x2="172" y1="559.7578" y2="559.7578"/>
<text fill="#000000" font-family="sans-serif" font-size="13" lengthAdjust="spacingAndGlyphs" textLength="71" x="10" y="554.6919">StartGame</text><line style="stroke: #A80036; stroke-width: 1.0;" x1="193" x2="235" y1="588.8906" y2="588.8906"/><line style="stroke: #A80036; stroke-width: 1.0;" x1="235" x2="235" y1="588.8906" y2="601.8906"/><line style="stroke: #A80036; stroke-width: 1.0;" x1="194" x2="235" y1="601.8906" y2="601.8906"/><polygon fill="#A80036" points="204,597.8906,194,601.8906,204,605.8906,200,601.8906" style="stroke: #A80036; stroke-width: 1.0;"/>
<text fill="#000000" font-family="sans-serif" font-size="13" lengthAdjust="spacingAndGlyphs" textLength="86" x="200" y="583.8247">PullNextBlock</text><polygon fill="#A80036" points="14,641.8906,4,645.8906,14,649.8906,10,645.8906" style="stroke: #A80036; stroke-width: 1.0;"/><line style="stroke: #A80036; stroke-width: 1.0; stroke-dasharray: 2.0,2.0;" x1="8" x2="182" y1="645.8906" y2="645.8906"/><polygon fill="#A80036" points="166,671.0234,176,675.0234,166,679.0234,170,675.0234" style="stroke: #A80036; stroke-width: 1.0;"/><line style="stroke: #A80036; stroke-width: 1.0;" x1="3" x2="172" y1="675.0234" y2="675.0234"/>
<text fill="#000000" font-family="sans-serif" font-size="13" lengthAdjust="spacingAndGlyphs" textLength="40" x="10" y="669.9575">IsAlive</text><polygon fill="#A80036" points="14,700.1563,4,704.1563,14,708.1563,10,704.1563" style="stroke: #A80036; stroke-width: 1.0;"/><line style="stroke: #A80036; stroke-width: 1.0; stroke-dasharray: 2.0,2.0;" x1="8" x2="182" y1="704.1563" y2="704.1563"/>
<text fill="#000000" font-family="sans-serif" font-size="13" lengthAdjust="spacingAndGlyphs" textLength="65" x="20" y="699.0903">生存フラグ</text><polygon fill="#A80036" points="166,729.2891,176,733.2891,166,737.2891,170,733.2891" style="stroke: #A80036; stroke-width: 1.0;"/><line style="stroke: #A80036; stroke-width: 1.0;" x1="3" x2="172" y1="733.2891" y2="733.2891"/>
<text fill="#000000" font-family="sans-serif" font-size="13" lengthAdjust="spacingAndGlyphs" textLength="156" x="10" y="728.2231">BlockSetHasBeenPlaced</text><polygon fill="#A80036" points="1003,758.4219,1013,762.4219,1003,766.4219,1007,762.4219" style="stroke: #A80036; stroke-width: 1.0;"/><line style="stroke: #A80036; stroke-width: 1.0;" x1="188" x2="1009" y1="762.4219" y2="762.4219"/>
<text fill="#000000" font-family="sans-serif" font-size="13" lengthAdjust="spacingAndGlyphs" textLength="50" x="195" y="757.356">Destroy</text><polygon fill="#A80036" points="1155,787.5547,1165,791.5547,1155,795.5547,1159,791.5547" style="stroke: #A80036; stroke-width: 1.0;"/><line style="stroke: #A80036; stroke-width: 1.0;" x1="1025" x2="1161" y1="791.5547" y2="791.5547"/>
<text fill="#000000" font-family="sans-serif" font-size="13" lengthAdjust="spacingAndGlyphs" textLength="123" x="1032" y="786.4888">GameObject を削除</text><polygon fill="#A80036" points="1036,801.5547,1026,805.5547,1036,809.5547,1032,805.5547" style="stroke: #A80036; stroke-width: 1.0;"/><line style="stroke: #A80036; stroke-width: 1.0; stroke-dasharray: 2.0,2.0;" x1="1030" x2="1171" y1="805.5547" y2="805.5547"/><polygon fill="#A80036" points="199,815.5547,189,819.5547,199,823.5547,195,819.5547" style="stroke: #A80036; stroke-width: 1.0;"/><line style="stroke: #A80036; stroke-width: 1.0; stroke-dasharray: 2.0,2.0;" x1="193" x2="1019" y1="819.5547" y2="819.5547"/><polygon fill="#A80036" points="14,829.5547,4,833.5547,14,837.5547,10,833.5547" style="stroke: #A80036; stroke-width: 1.0;"/><line style="stroke: #A80036; stroke-width: 1.0; stroke-dasharray: 2.0,2.0;" x1="8" x2="182" y1="833.5547" y2="833.5547"/><polygon fill="#A80036" points="166,858.6875,176,862.6875,166,866.6875,170,862.6875" style="stroke: #A80036; stroke-width: 1.0;"/><line style="stroke: #A80036; stroke-width: 1.0;" x1="3" x2="172" y1="862.6875" y2="862.6875"/>
<text fill="#000000" font-family="sans-serif" font-size="13" lengthAdjust="spacingAndGlyphs" textLength="86" x="10" y="857.6216">PullNextBlock</text><line style="stroke: #A80036; stroke-width: 1.0;" x1="193" x2="235" y1="891.8203" y2="891.8203"/><line style="stroke: #A80036; stroke-width: 1.0;" x1="235" x2="235" y1="891.8203" y2="904.8203"/><line style="stroke: #A80036; stroke-width: 1.0;" x1="194" x2="235" y1="904.8203" y2="904.8203"/><polygon fill="#A80036" points="204,900.8203,194,904.8203,204,908.8203,200,904.8203" style="stroke: #A80036; stroke-width: 1.0;"/>
<text fill="#000000" font-family="sans-serif" font-size="13" lengthAdjust="spacingAndGlyphs" textLength="362" x="200" y="886.7544">_blockSetOptions からブロックの発生予定リストを生成する</text><polygon fill="#A80036" points="891,959.9531,901,963.9531,891,967.9531,895,963.9531" style="stroke: #A80036; stroke-width: 1.0;"/><line style="stroke: #A80036; stroke-width: 1.0;" x1="188" x2="897" y1="963.9531" y2="963.9531"/>
<text fill="#000000" font-family="sans-serif" font-size="13" lengthAdjust="spacingAndGlyphs" textLength="122" x="195" y="958.8872">UpdateReservation</text><polygon fill="#A80036" points="199,973.9531,189,977.9531,199,981.9531,195,977.9531" style="stroke: #A80036; stroke-width: 1.0;"/><line style="stroke: #A80036; stroke-width: 1.0; stroke-dasharray: 2.0,2.0;" x1="193" x2="907" y1="977.9531" y2="977.9531"/><polygon fill="#A80036" points="891,1003.0859,901,1007.0859,891,1011.0859,895,1007.0859" style="stroke: #A80036; stroke-width: 1.0;"/><line style="stroke: #A80036; stroke-width: 1.0;" x1="188" x2="897" y1="1007.0859" y2="1007.0859"/>
<text fill="#000000" font-family="sans-serif" font-size="13" lengthAdjust="spacingAndGlyphs" textLength="80" x="195" y="1002.02">UpdateLevel</text><polygon fill="#A80036" points="199,1017.0859,189,1021.0859,199,1025.0859,195,1021.0859" style="stroke: #A80036; stroke-width: 1.0;"/><line style="stroke: #A80036; stroke-width: 1.0; stroke-dasharray: 2.0,2.0;" x1="193" x2="907" y1="1021.0859" y2="1021.0859"/><polygon fill="#A80036" points="651,1046.2188,661,1050.2188,651,1054.2188,655,1050.2188" style="stroke: #A80036; stroke-width: 1.0;"/><line style="stroke: #A80036; stroke-width: 1.0;" x1="188" x2="657" y1="1050.2188" y2="1050.2188"/>
<text fill="#000000" font-family="sans-serif" font-size="13" lengthAdjust="spacingAndGlyphs" textLength="68" x="195" y="1045.1528">Instantiate</text><polygon fill="#A80036" points="1155,1075.3516,1165,1079.3516,1155,1083.3516,1159,1079.3516" style="stroke: #A80036; stroke-width: 1.0;"/><line style="stroke: #A80036; stroke-width: 1.0;" x1="673" x2="1161" y1="1079.3516" y2="1079.3516"/>
<text fill="#000000" font-family="sans-serif" font-size="13" lengthAdjust="spacingAndGlyphs" textLength="41" x="680" y="1074.2856">create</text><polygon fill="#A80036" points="684,1089.3516,674,1093.3516,684,1097.3516,680,1093.3516" style="stroke: #A80036; stroke-width: 1.0;"/><line style="stroke: #A80036; stroke-width: 1.0; stroke-dasharray: 2.0,2.0;" x1="678" x2="1171" y1="1093.3516" y2="1093.3516"/><polygon fill="#A80036" points="199,1118.4844,189,1122.4844,199,1126.4844,195,1122.4844" style="stroke: #A80036; stroke-width: 1.0;"/><line style="stroke: #A80036; stroke-width: 1.0; stroke-dasharray: 2.0,2.0;" x1="193" x2="667" y1="1122.4844" y2="1122.4844"/>
<text fill="#000000" font-family="sans-serif" font-size="13" lengthAdjust="spacingAndGlyphs" textLength="424" x="205" y="1117.4185">生成されたBlockSet クラスのインスタンスを_currentBlock に保持する</text><polygon fill="#A80036" points="1155,1147.6172,1165,1151.6172,1155,1155.6172,1159,1151.6172" style="stroke: #A80036; stroke-width: 1.0;"/><line style="stroke: #A80036; stroke-width: 1.0;" x1="188" x2="1161" y1="1151.6172" y2="1151.6172"/>
<text fill="#000000" font-family="sans-serif" font-size="13" lengthAdjust="spacingAndGlyphs" textLength="38" x="195" y="1146.5513">Setup</text><polygon fill="#A80036" points="199,1161.6172,189,1165.6172,199,1169.6172,195,1165.6172" style="stroke: #A80036; stroke-width: 1.0;"/><line style="stroke: #A80036; stroke-width: 1.0; stroke-dasharray: 2.0,2.0;" x1="193" x2="1171" y1="1165.6172" y2="1165.6172"/><polygon fill="#A80036" points="14,1175.6172,4,1179.6172,14,1183.6172,10,1179.6172" style="stroke: #A80036; stroke-width: 1.0;"/><line style="stroke: #A80036; stroke-width: 1.0; stroke-dasharray: 2.0,2.0;" x1="8" x2="182" y1="1179.6172" y2="1179.6172"/><polygon fill="#A80036" points="166,1204.75,176,1208.75,166,1212.75,170,1208.75" style="stroke: #A80036; stroke-width: 1.0;"/><line style="stroke: #A80036; stroke-width: 1.0;" x1="3" x2="172" y1="1208.75" y2="1208.75"/>
<text fill="#000000" font-family="sans-serif" font-size="13" lengthAdjust="spacingAndGlyphs" textLength="34" x="10" y="1203.6841">Dead</text><line style="stroke: #A80036; stroke-width: 1.0;" x1="193" x2="235" y1="1237.8828" y2="1237.8828"/><line style="stroke: #A80036; stroke-width: 1.0;" x1="235" x2="235" y1="1237.8828" y2="1250.8828"/><line style="stroke: #A80036; stroke-width: 1.0;" x1="194" x2="235" y1="1250.8828" y2="1250.8828"/><polygon fill="#A80036" points="204,1246.8828,194,1250.8828,204,1254.8828,200,1250.8828" style="stroke: #A80036; stroke-width: 1.0;"/>
<text fill="#000000" font-family="sans-serif" font-size="13" lengthAdjust="spacingAndGlyphs" textLength="143" x="200" y="1232.8169">生存フラグを無効にする</text><polygon fill="#A80036" points="1268,1306.0156,1278,1310.0156,1268,1314.0156,1272,1310.0156" style="stroke: #A80036; stroke-width: 1.0;"/><line style="stroke: #A80036; stroke-width: 1.0;" x1="188" x2="1274" y1="1310.0156" y2="1310.0156"/>
<text fill="#000000" font-family="sans-serif" font-size="13" lengthAdjust="spacingAndGlyphs" textLength="108" x="195" y="1304.9497">PlayerGameOver</text><polygon fill="#A80036" points="199,1320.0156,189,1324.0156,199,1328.0156,195,1324.0156" style="stroke: #A80036; stroke-width: 1.0;"/><line style="stroke: #A80036; stroke-width: 1.0; stroke-dasharray: 2.0,2.0;" x1="193" x2="1284" y1="1324.0156" y2="1324.0156"/><polygon fill="#A80036" points="14,1334.0156,4,1338.0156,14,1342.0156,10,1338.0156" style="stroke: #A80036; stroke-width: 1.0;"/><line style="stroke: #A80036; stroke-width: 1.0; stroke-dasharray: 2.0,2.0;" x1="8" x2="182" y1="1338.0156" y2="1338.0156"/><polygon fill="#A80036" points="166,1363.1484,176,1367.1484,166,1371.1484,170,1367.1484" style="stroke: #A80036; stroke-width: 1.0;"/><line style="stroke: #A80036; stroke-width: 1.0;" x1="3" x2="172" y1="1367.1484" y2="1367.1484"/>
<text fill="#000000" font-family="sans-serif" font-size="13" lengthAdjust="spacingAndGlyphs" textLength="99" x="10" y="1362.0825">SetStatusPanel</text><line style="stroke: #A80036; stroke-width: 1.0;" x1="193" x2="235" y1="1396.2813" y2="1396.2813"/><line style="stroke: #A80036; stroke-width: 1.0;" x1="235" x2="235" y1="1396.2813" y2="1409.2813"/><line style="stroke: #A80036; stroke-width: 1.0;" x1="194" x2="235" y1="1409.2813" y2="1409.2813"/><polygon fill="#A80036" points="204,1405.2813,194,1409.2813,204,1413.2813,200,1409.2813" style="stroke: #A80036; stroke-width: 1.0;"/>
<text fill="#000000" font-family="sans-serif" font-size="13" lengthAdjust="spacingAndGlyphs" textLength="182" x="200" y="1391.2153">ステータスパネルを関連付ける</text><polygon fill="#A80036" points="14,1449.2813,4,1453.2813,14,1457.2813,10,1453.2813" style="stroke: #A80036; stroke-width: 1.0;"/><line style="stroke: #A80036; stroke-width: 1.0; stroke-dasharray: 2.0,2.0;" x1="8" x2="182" y1="1453.2813" y2="1453.2813"/><!--MD5=[cf972a4e84f6895b15469561b90a1cd7]
@startuml


[-> Player : Setup
activate Player
    Player -> Player : 生存フラグを有効にする
    activate Player
    deactivate Player
    Player -> Player : ブロック群の選択肢を保持する
    activate Player
    deactivate Player
    Player -> MonoBehaviour : Instantiate
    activate MonoBehaviour
        MonoBehaviour -> AbstractField : create
        activate AbstractField
            MonoBehaviour <- - AbstractField
        deactivate AbstractField
        Player <- - MonoBehaviour : 生成されたAbstractField クラスのインスタンスを_currentBlock に保持する
    deactivate MonoBehaviour
    Player -> AbstractField : ResetField
    activate AbstractField
        Player <- - AbstractField
    deactivate AbstractField
    Player -> Player : _blockSetOptions からブロックの発生予定リストを生成する
    activate Player
    deactivate Player
    Player -> StatusPanel : UpdateReservation
    activate StatusPanel
        Player <- - StatusPanel
    deactivate StatusPanel
    Player -> StatusPanel : UpdateLevel
    activate StatusPanel
        Player <- - StatusPanel
    deactivate StatusPanel
    [<- - Player
deactivate Player

[-> Player : StartGame
activate Player
    Player -> Player : PullNextBlock
    activate Player
    deactivate Player
    [<- - Player
deactivate Player

[-> Player : IsAlive
activate Player
    [<- - Player : 生存フラグ
deactivate Player

[-> Player : BlockSetHasBeenPlaced
activate Player
    Player -> GameObject : Destroy
    activate GameObject
        GameObject -> BlockSet : GameObject を削除
        activate BlockSet
            GameObject <- - BlockSet
        deactivate BlockSet
        Player <- - GameObject
    deactivate GameObject
    [<- - Player
deactivate Player

[-> Player : PullNextBlock
activate Player
    Player -> Player : _blockSetOptions からブロックの発生予定リストを生成する
    activate Player
    deactivate Player
    Player -> StatusPanel : UpdateReservation
    activate StatusPanel
        Player <- - StatusPanel
    deactivate StatusPanel
    Player -> StatusPanel : UpdateLevel
    activate StatusPanel
        Player <- - StatusPanel
    deactivate StatusPanel
    Player -> MonoBehaviour : Instantiate
    activate MonoBehaviour
        MonoBehaviour -> BlockSet : create
        activate BlockSet
            MonoBehaviour <- - BlockSet
        deactivate BlockSet
        Player <- - MonoBehaviour : 生成されたBlockSet クラスのインスタンスを_currentBlock に保持する
    deactivate MonoBehaviour
    Player -> BlockSet : Setup
    activate BlockSet
        Player <- - BlockSet
    deactivate BlockSet
    [<- - Player
deactivate Player

[-> Player : Dead
activate Player
    Player -> Player : 生存フラグを無効にする
    activate Player
    deactivate Player
    Player -> StateGameMain : PlayerGameOver
    activate StateGameMain
        Player <- - StateGameMain
    deactivate StateGameMain
    [<- - Player
deactivate Player

[-> Player : SetStatusPanel
activate Player
    Player -> Player : ステータスパネルを関連付ける
    activate Player
    deactivate Player
    [<- - Player
deactivate Player

@enduml

PlantUML version 1.2020.02(Sun Mar 01 10:22:07 GMT 2020)
(GPL source distribution)
Java Runtime: OpenJDK Runtime Environment
JVM: OpenJDK 64-Bit Server VM
Java Version: 11.0.9+11-Ubuntu-0ubuntu1
Operating System: Linux
Default Encoding: ANSI_X3.4-1968
Language: en
Country: US
--></g></svg>
