<?xml version="1.0" encoding="UTF-8" standalone="no"?><svg xmlns="http://www.w3.org/2000/svg" xmlns:xlink="http://www.w3.org/1999/xlink" contentScriptType="application/ecmascript" contentStyleType="text/css" height="411px" preserveAspectRatio="none" style="width:314px;height:411px;" version="1.1" viewBox="0 0 314 411" width="314px" zoomAndPan="magnify"><defs><filter height="300%" id="f2aaqfvvrn8ns" width="300%" x="-1" y="-1"><feGaussianBlur result="blurOut" stdDeviation="2.0"/><feColorMatrix in="blurOut" result="blurOut2" type="matrix" values="0 0 0 0 0 0 0 0 0 0 0 0 0 0 0 0 0 0 .4 0"/><feOffset dx="4.0" dy="4.0" in="blurOut2" result="blurOut3"/><feBlend in="SourceGraphic" in2="blurOut3" mode="normal"/></filter></defs><g><!--MD5=[48ba5eb5f0de0a5244422e917b163e97]
class StatusPanel--><rect fill="#FEFECE" filter="url(#f2aaqfvvrn8ns)" height="176.0469" id="StatusPanel" style="stroke: #A80036; stroke-width: 1.5;" width="297" x="6" y="116"/><ellipse cx="112.25" cy="132" fill="#ADD1B2" rx="11" ry="11" style="stroke: #A80036; stroke-width: 1.0;"/><path d="M115.2188,137.6406 Q114.6406,137.9375 114,138.0781 Q113.3594,138.2344 112.6563,138.2344 Q110.1563,138.2344 108.8281,136.5938 Q107.5156,134.9375 107.5156,131.8125 Q107.5156,128.6875 108.8281,127.0313 Q110.1563,125.375 112.6563,125.375 Q113.3594,125.375 114,125.5313 Q114.6563,125.6875 115.2188,125.9844 L115.2188,128.7031 Q114.5938,128.125 114,127.8594 Q113.4063,127.5781 112.7813,127.5781 Q111.4375,127.5781 110.75,128.6563 Q110.0625,129.7188 110.0625,131.8125 Q110.0625,133.9063 110.75,134.9844 Q111.4375,136.0469 112.7813,136.0469 Q113.4063,136.0469 114,135.7813 Q114.5938,135.5 115.2188,134.9219 L115.2188,137.6406 Z "/>
<text fill="#000000" font-family="sans-serif" font-size="12" lengthAdjust="spacingAndGlyphs" textLength="76" x="132.75" y="136.1543">StatusPanel</text><line style="stroke: #A80036; stroke-width: 1.5;" x1="7" x2="302" y1="148" y2="148"/><rect fill="none" height="6" style="stroke: #C82930; stroke-width: 1.0;" width="6" x="14" y="156"/>
<text fill="#000000" font-family="sans-serif" font-size="11" lengthAdjust="spacingAndGlyphs" textLength="106" x="26" y="162.2104">_currentScore : int</text><rect fill="none" height="6" style="stroke: #C82930; stroke-width: 1.0;" width="6" x="14" y="168.8047"/>
<text fill="#000000" font-family="sans-serif" font-size="11" lengthAdjust="spacingAndGlyphs" textLength="102" x="26" y="175.0151">_currentLevel : int</text><line style="stroke: #A80036; stroke-width: 1.5;" x1="7" x2="302" y1="181.6094" y2="181.6094"/><ellipse cx="17" cy="192.6094" fill="#84BE84" rx="3" ry="3" style="stroke: #038048; stroke-width: 1.0;"/>
<text fill="#000000" font-family="sans-serif" font-size="11" lengthAdjust="spacingAndGlyphs" textLength="67" x="26" y="195.8198">Score() : int</text><ellipse cx="17" cy="205.4141" fill="#84BE84" rx="3" ry="3" style="stroke: #038048; stroke-width: 1.0;"/>
<text fill="#000000" font-family="sans-serif" font-size="11" lengthAdjust="spacingAndGlyphs" textLength="63" x="26" y="208.6245">Level() : int</text><ellipse cx="17" cy="218.2188" fill="#84BE84" rx="3" ry="3" style="stroke: #038048; stroke-width: 1.0;"/>
<text fill="#000000" font-family="sans-serif" font-size="11" lengthAdjust="spacingAndGlyphs" textLength="117" x="26" y="221.4292">Next(id:int) : (int, int)</text><rect fill="#F24D5C" height="6" style="stroke: #C82930; stroke-width: 1.0;" width="6" x="14" y="228.0234"/>
<text fill="#000000" font-family="sans-serif" font-size="11" lengthAdjust="spacingAndGlyphs" textLength="146" x="26" y="234.2339">UpdateScoreLabel() : void</text><ellipse cx="17" cy="243.8281" fill="#84BE84" rx="3" ry="3" style="stroke: #038048; stroke-width: 1.0;"/>
<text fill="#000000" font-family="sans-serif" font-size="11" lengthAdjust="spacingAndGlyphs" textLength="108" x="26" y="247.0386">ResetScore() : void</text><ellipse cx="17" cy="256.6328" fill="#84BE84" rx="3" ry="3" style="stroke: #038048; stroke-width: 1.0;"/>
<text fill="#000000" font-family="sans-serif" font-size="11" lengthAdjust="spacingAndGlyphs" textLength="202" x="26" y="259.8433">AddScore(numberOfLines:int) : void</text><ellipse cx="17" cy="269.4375" fill="#84BE84" rx="3" ry="3" style="stroke: #038048; stroke-width: 1.0;"/>
<text fill="#000000" font-family="sans-serif" font-size="11" lengthAdjust="spacingAndGlyphs" textLength="271" x="26" y="272.6479">UpdateReservation(reservation:List&lt;int&gt;) : void</text><ellipse cx="17" cy="282.2422" fill="#84BE84" rx="3" ry="3" style="stroke: #038048; stroke-width: 1.0;"/>
<text fill="#000000" font-family="sans-serif" font-size="11" lengthAdjust="spacingAndGlyphs" textLength="156" x="26" y="285.4526">UpdateLevel(level:int) : void</text><!--MD5=[83b3cf3d23d77c6f1e1b5291a241bc2a]
class MonoBehaviour--><rect fill="#FEFECE" filter="url(#f2aaqfvvrn8ns)" height="48" id="MonoBehaviour" style="stroke: #A80036; stroke-width: 1.5;" width="128" x="13.5" y="8"/><ellipse cx="28.5" cy="24" fill="#ADD1B2" rx="11" ry="11" style="stroke: #A80036; stroke-width: 1.0;"/><path d="M31.4688,29.6406 Q30.8906,29.9375 30.25,30.0781 Q29.6094,30.2344 28.9063,30.2344 Q26.4063,30.2344 25.0781,28.5938 Q23.7656,26.9375 23.7656,23.8125 Q23.7656,20.6875 25.0781,19.0313 Q26.4063,17.375 28.9063,17.375 Q29.6094,17.375 30.25,17.5313 Q30.9063,17.6875 31.4688,17.9844 L31.4688,20.7031 Q30.8438,20.125 30.25,19.8594 Q29.6563,19.5781 29.0313,19.5781 Q27.6875,19.5781 27,20.6563 Q26.3125,21.7188 26.3125,23.8125 Q26.3125,25.9063 27,26.9844 Q27.6875,28.0469 29.0313,28.0469 Q29.6563,28.0469 30.25,27.7813 Q30.8438,27.5 31.4688,26.9219 L31.4688,29.6406 Z "/>
<text fill="#000000" font-family="sans-serif" font-size="12" lengthAdjust="spacingAndGlyphs" textLength="96" x="42.5" y="28.1543">MonoBehaviour</text><line style="stroke: #A80036; stroke-width: 1.5;" x1="14.5" x2="140.5" y1="40" y2="40"/><line style="stroke: #A80036; stroke-width: 1.5;" x1="14.5" x2="140.5" y1="48" y2="48"/><!--MD5=[3aa12d24251992f604663c9d4e05f1f1]
class IStatusPanel--><rect fill="#FEFECE" filter="url(#f2aaqfvvrn8ns)" height="48" id="IStatusPanel" style="stroke: #A80036; stroke-width: 1.5;" width="111" x="177" y="8"/><ellipse cx="192" cy="24" fill="#ADD1B2" rx="11" ry="11" style="stroke: #A80036; stroke-width: 1.0;"/><path d="M194.9688,29.6406 Q194.3906,29.9375 193.75,30.0781 Q193.1094,30.2344 192.4063,30.2344 Q189.9063,30.2344 188.5781,28.5938 Q187.2656,26.9375 187.2656,23.8125 Q187.2656,20.6875 188.5781,19.0313 Q189.9063,17.375 192.4063,17.375 Q193.1094,17.375 193.75,17.5313 Q194.4063,17.6875 194.9688,17.9844 L194.9688,20.7031 Q194.3438,20.125 193.75,19.8594 Q193.1563,19.5781 192.5313,19.5781 Q191.1875,19.5781 190.5,20.6563 Q189.8125,21.7188 189.8125,23.8125 Q189.8125,25.9063 190.5,26.9844 Q191.1875,28.0469 192.5313,28.0469 Q193.1563,28.0469 193.75,27.7813 Q194.3438,27.5 194.9688,26.9219 L194.9688,29.6406 Z "/>
<text fill="#000000" font-family="sans-serif" font-size="12" lengthAdjust="spacingAndGlyphs" textLength="79" x="206" y="28.1543">IStatusPanel</text><line style="stroke: #A80036; stroke-width: 1.5;" x1="178" x2="287" y1="40" y2="40"/><line style="stroke: #A80036; stroke-width: 1.5;" x1="178" x2="287" y1="48" y2="48"/><!--MD5=[02a8746eb15ecbb4566dafa16ea4db73]
class Text--><rect fill="#FEFECE" filter="url(#f2aaqfvvrn8ns)" height="48" id="Text" style="stroke: #A80036; stroke-width: 1.5;" width="58" x="125.5" y="352"/><ellipse cx="140.5" cy="368" fill="#ADD1B2" rx="11" ry="11" style="stroke: #A80036; stroke-width: 1.0;"/><path d="M143.4688,373.6406 Q142.8906,373.9375 142.25,374.0781 Q141.6094,374.2344 140.9063,374.2344 Q138.4063,374.2344 137.0781,372.5938 Q135.7656,370.9375 135.7656,367.8125 Q135.7656,364.6875 137.0781,363.0313 Q138.4063,361.375 140.9063,361.375 Q141.6094,361.375 142.25,361.5313 Q142.9063,361.6875 143.4688,361.9844 L143.4688,364.7031 Q142.8438,364.125 142.25,363.8594 Q141.6563,363.5781 141.0313,363.5781 Q139.6875,363.5781 139,364.6563 Q138.3125,365.7188 138.3125,367.8125 Q138.3125,369.9063 139,370.9844 Q139.6875,372.0469 141.0313,372.0469 Q141.6563,372.0469 142.25,371.7813 Q142.8438,371.5 143.4688,370.9219 L143.4688,373.6406 Z "/>
<text fill="#000000" font-family="sans-serif" font-size="12" lengthAdjust="spacingAndGlyphs" textLength="26" x="154.5" y="372.1543">Text</text><line style="stroke: #A80036; stroke-width: 1.5;" x1="126.5" x2="182.5" y1="384" y2="384"/><line style="stroke: #A80036; stroke-width: 1.5;" x1="126.5" x2="182.5" y1="392" y2="392"/><!--MD5=[2c673bbf8bb482c5998098dbedf12634]
reverse link MonoBehaviour to StatusPanel--><path d="M96.47,74.88 C102.14,87.4 108.58,101.61 115.05,115.9 " fill="none" id="MonoBehaviour&lt;-StatusPanel" style="stroke: #A80036; stroke-width: 1.0;"/><polygon fill="none" points="89.92,77.39,88.05,56.28,102.67,71.61,89.92,77.39" style="stroke: #A80036; stroke-width: 1.0;"/><!--MD5=[6df222e60f72c5e5beb469636757468a]
reverse link IStatusPanel to StatusPanel--><path d="M213.28,74.88 C207.54,87.4 201.02,101.61 194.46,115.9 " fill="none" id="IStatusPanel&lt;-StatusPanel" style="stroke: #A80036; stroke-width: 1.0;"/><polygon fill="none" points="207.12,71.54,221.82,56.28,219.84,77.38,207.12,71.54" style="stroke: #A80036; stroke-width: 1.0;"/><!--MD5=[72cd29f9908b09500ee106f59d0014c6]
link StatusPanel to Text--><path d="M141.75,292.49 C141.83,312.05 142.81,331.44 144.69,346.5 " fill="none" id="StatusPanel-&gt;Text" style="stroke: #A80036; stroke-width: 1.0;"/><polygon fill="#A80036" points="145.42,351.85,148.1758,342.3946,144.7489,346.8952,140.2482,343.4683,145.42,351.85" style="stroke: #A80036; stroke-width: 1.0;"/>
<text fill="#000000" font-family="sans-serif" font-size="13" lengthAdjust="spacingAndGlyphs" textLength="76" x="57.3558" y="340.8236">_scoreLabel</text><!--MD5=[72cd29f9908b09500ee106f59d0014c6]
link StatusPanel to Text--><path d="M167.99,292.49 C167.91,312.22 166.86,331.78 164.84,346.9 " fill="none" id="StatusPanel-&gt;Text-1" style="stroke: #A80036; stroke-width: 1.0;"/><polygon fill="#A80036" points="164.11,351.85,169.3527,343.5125,164.8231,346.9011,161.4345,342.3715,164.11,351.85" style="stroke: #A80036; stroke-width: 1.0;"/>
<text fill="#000000" font-family="sans-serif" font-size="13" lengthAdjust="spacingAndGlyphs" textLength="70" x="175.5413" y="340.8236">_levelLabel</text><!--MD5=[c64795d9241543c83cfcbe3888f24bf9]
@startuml
class StatusPanel {
    - _currentScore : int
    - _currentLevel : int
    + Score() : int
    + Level() : int
    + Next(id:int) : (int, int)
    - UpdateScoreLabel() : void
    + ResetScore() : void
    + AddScore(numberOfLines:int) : void
    + UpdateReservation(reservation:List<int>) : void
    + UpdateLevel(level:int) : void
}
MonoBehaviour <|- - StatusPanel
IStatusPanel <|- - StatusPanel
StatusPanel - -> "_scoreLabel" Text
StatusPanel - -> "_levelLabel" Text
@enduml

PlantUML version 1.2020.02(Sun Mar 01 10:22:07 GMT 2020)
(GPL source distribution)
Java Runtime: OpenJDK Runtime Environment
JVM: OpenJDK 64-Bit Server VM
Java Version: 11.0.9+11-Ubuntu-0ubuntu1
Operating System: Linux
Default Encoding: ANSI_X3.4-1968
Language: en
Country: US
--></g></svg>
