<?xml version="1.0" encoding="UTF-8" standalone="no"?><svg xmlns="http://www.w3.org/2000/svg" xmlns:xlink="http://www.w3.org/1999/xlink" contentScriptType="application/ecmascript" contentStyleType="text/css" height="321px" preserveAspectRatio="none" style="width:418px;height:321px;" version="1.1" viewBox="0 0 418 321" width="418px" zoomAndPan="magnify"><defs><filter height="300%" id="f1fu8c07wxpsqh" width="300%" x="-1" y="-1"><feGaussianBlur result="blurOut" stdDeviation="2.0"/><feColorMatrix in="blurOut" result="blurOut2" type="matrix" values="0 0 0 0 0 0 0 0 0 0 0 0 0 0 0 0 0 0 .4 0"/><feOffset dx="4.0" dy="4.0" in="blurOut2" result="blurOut3"/><feBlend in="SourceGraphic" in2="blurOut3" mode="normal"/></filter></defs><g><!--MD5=[3078c6b64450c3e35776cb40b1f331d8]
class StateGameMain--><rect fill="#FEFECE" filter="url(#f1fu8c07wxpsqh)" height="86.4141" id="StateGameMain" style="stroke: #A80036; stroke-width: 1.5;" width="401" x="6" y="116"/><ellipse cx="152.75" cy="132" fill="#ADD1B2" rx="11" ry="11" style="stroke: #A80036; stroke-width: 1.0;"/><path d="M155.7188,137.6406 Q155.1406,137.9375 154.5,138.0781 Q153.8594,138.2344 153.1563,138.2344 Q150.6563,138.2344 149.3281,136.5938 Q148.0156,134.9375 148.0156,131.8125 Q148.0156,128.6875 149.3281,127.0313 Q150.6563,125.375 153.1563,125.375 Q153.8594,125.375 154.5,125.5313 Q155.1563,125.6875 155.7188,125.9844 L155.7188,128.7031 Q155.0938,128.125 154.5,127.8594 Q153.9063,127.5781 153.2813,127.5781 Q151.9375,127.5781 151.25,128.6563 Q150.5625,129.7188 150.5625,131.8125 Q150.5625,133.9063 151.25,134.9844 Q151.9375,136.0469 153.2813,136.0469 Q153.9063,136.0469 154.5,135.7813 Q155.0938,135.5 155.7188,134.9219 L155.7188,137.6406 Z "/>
<text fill="#000000" font-family="sans-serif" font-size="12" lengthAdjust="spacingAndGlyphs" textLength="99" x="173.25" y="136.1543">StateGameMain</text><line style="stroke: #A80036; stroke-width: 1.5;" x1="7" x2="406" y1="148" y2="148"/><line style="stroke: #A80036; stroke-width: 1.5;" x1="7" x2="406" y1="156" y2="156"/><ellipse cx="17" cy="167" fill="#84BE84" rx="3" ry="3" style="stroke: #038048; stroke-width: 1.0;"/>
<text fill="#000000" font-family="sans-serif" font-size="11" lengthAdjust="spacingAndGlyphs" textLength="375" x="26" y="170.2104">«override» Setup(parent:IGameController, players:IPlayer[]) : void</text><ellipse cx="17" cy="179.8047" fill="#84BE84" rx="3" ry="3" style="stroke: #038048; stroke-width: 1.0;"/>
<text fill="#000000" font-family="sans-serif" font-size="11" lengthAdjust="spacingAndGlyphs" textLength="281" x="26" y="183.0151">«override» PlayerGameOver(player:IPlayer) : void</text><rect fill="#F24D5C" height="6" style="stroke: #C82930; stroke-width: 1.0;" width="6" x="14" y="189.6094"/>
<text fill="#000000" font-family="sans-serif" font-size="11" lengthAdjust="spacingAndGlyphs" textLength="183" x="26" y="195.8198">GetNumberOfAlivingPlayer() : int</text><!--MD5=[b5be1ff950ebddaf02f10067d2d07139]
class AbstractStateGameMain--><rect fill="#FEFECE" filter="url(#f1fu8c07wxpsqh)" height="48" id="AbstractStateGameMain" style="stroke: #A80036; stroke-width: 1.5;" width="184" x="114.5" y="8"/><ellipse cx="129.5" cy="24" fill="#ADD1B2" rx="11" ry="11" style="stroke: #A80036; stroke-width: 1.0;"/><path d="M132.4688,29.6406 Q131.8906,29.9375 131.25,30.0781 Q130.6094,30.2344 129.9063,30.2344 Q127.4063,30.2344 126.0781,28.5938 Q124.7656,26.9375 124.7656,23.8125 Q124.7656,20.6875 126.0781,19.0313 Q127.4063,17.375 129.9063,17.375 Q130.6094,17.375 131.25,17.5313 Q131.9063,17.6875 132.4688,17.9844 L132.4688,20.7031 Q131.8438,20.125 131.25,19.8594 Q130.6563,19.5781 130.0313,19.5781 Q128.6875,19.5781 128,20.6563 Q127.3125,21.7188 127.3125,23.8125 Q127.3125,25.9063 128,26.9844 Q128.6875,28.0469 130.0313,28.0469 Q130.6563,28.0469 131.25,27.7813 Q131.8438,27.5 132.4688,26.9219 L132.4688,29.6406 Z "/>
<text fill="#000000" font-family="sans-serif" font-size="12" lengthAdjust="spacingAndGlyphs" textLength="152" x="143.5" y="28.1543">AbstractStateGameMain</text><line style="stroke: #A80036; stroke-width: 1.5;" x1="115.5" x2="297.5" y1="40" y2="40"/><line style="stroke: #A80036; stroke-width: 1.5;" x1="115.5" x2="297.5" y1="48" y2="48"/><!--MD5=[3b9fec7f9d226106b53caed4fa4e6f62]
class IGameController--><rect fill="#FEFECE" filter="url(#f1fu8c07wxpsqh)" height="48" id="IGameController" style="stroke: #A80036; stroke-width: 1.5;" width="132" x="140.5" y="262"/><ellipse cx="155.5" cy="278" fill="#ADD1B2" rx="11" ry="11" style="stroke: #A80036; stroke-width: 1.0;"/><path d="M158.4688,283.6406 Q157.8906,283.9375 157.25,284.0781 Q156.6094,284.2344 155.9063,284.2344 Q153.4063,284.2344 152.0781,282.5938 Q150.7656,280.9375 150.7656,277.8125 Q150.7656,274.6875 152.0781,273.0313 Q153.4063,271.375 155.9063,271.375 Q156.6094,271.375 157.25,271.5313 Q157.9063,271.6875 158.4688,271.9844 L158.4688,274.7031 Q157.8438,274.125 157.25,273.8594 Q156.6563,273.5781 156.0313,273.5781 Q154.6875,273.5781 154,274.6563 Q153.3125,275.7188 153.3125,277.8125 Q153.3125,279.9063 154,280.9844 Q154.6875,282.0469 156.0313,282.0469 Q156.6563,282.0469 157.25,281.7813 Q157.8438,281.5 158.4688,280.9219 L158.4688,283.6406 Z "/>
<text fill="#000000" font-family="sans-serif" font-size="12" lengthAdjust="spacingAndGlyphs" textLength="100" x="169.5" y="282.1543">IGameController</text><line style="stroke: #A80036; stroke-width: 1.5;" x1="141.5" x2="271.5" y1="294" y2="294"/><line style="stroke: #A80036; stroke-width: 1.5;" x1="141.5" x2="271.5" y1="302" y2="302"/><!--MD5=[0b33c2ca924e731b9091df26b1ef1c5c]
reverse link AbstractStateGameMain to StateGameMain--><path d="M206.5,76.27 C206.5,89.12 206.5,103.17 206.5,115.94 " fill="none" id="AbstractStateGameMain&lt;-StateGameMain" style="stroke: #A80036; stroke-width: 1.0;"/><polygon fill="none" points="199.5,76.22,206.5,56.22,213.5,76.22,199.5,76.22" style="stroke: #A80036; stroke-width: 1.0;"/><!--MD5=[b1d9b1f2e61e42536433328c1de11ebd]
link StateGameMain to IGameController--><path d="M206.5,202.32 C206.5,220.14 206.5,240.41 206.5,256.42 " fill="none" id="StateGameMain-&gt;IGameController" style="stroke: #A80036; stroke-width: 1.0;"/><polygon fill="#A80036" points="206.5,261.67,210.5,252.67,206.5,256.67,202.5,252.67,206.5,261.67" style="stroke: #A80036; stroke-width: 1.0;"/>
<text fill="#000000" font-family="sans-serif" font-size="13" lengthAdjust="spacingAndGlyphs" textLength="49" x="151.5281" y="250.9945">_parent</text><!--MD5=[82767023b0a3cf094cf4b9224a8db002]
@startuml
class StateGameMain {
    + <<override>> Setup(parent:IGameController, players:IPlayer[]) : void
    + <<override>> PlayerGameOver(player:IPlayer) : void
    - GetNumberOfAlivingPlayer() : int
}
AbstractStateGameMain <|- - StateGameMain
StateGameMain - -> "_parent" IGameController
@enduml

PlantUML version 1.2020.02(Sun Mar 01 10:22:07 GMT 2020)
(GPL source distribution)
Java Runtime: OpenJDK Runtime Environment
JVM: OpenJDK 64-Bit Server VM
Java Version: 11.0.9+11-Ubuntu-0ubuntu1
Operating System: Linux
Default Encoding: ANSI_X3.4-1968
Language: en
Country: US
--></g></svg>
