<?xml version="1.0" encoding="UTF-8" standalone="no"?><svg xmlns="http://www.w3.org/2000/svg" xmlns:xlink="http://www.w3.org/1999/xlink" contentScriptType="application/ecmascript" contentStyleType="text/css" height="334px" preserveAspectRatio="none" style="width:951px;height:334px;" version="1.1" viewBox="0 0 951 334" width="951px" zoomAndPan="magnify"><defs><filter height="300%" id="fc0kf6j8o44qv" width="300%" x="-1" y="-1"><feGaussianBlur result="blurOut" stdDeviation="2.0"/><feColorMatrix in="blurOut" result="blurOut2" type="matrix" values="0 0 0 0 0 0 0 0 0 0 0 0 0 0 0 0 0 0 .4 0"/><feOffset dx="4.0" dy="4.0" in="blurOut2" result="blurOut3"/><feBlend in="SourceGraphic" in2="blurOut3" mode="normal"/></filter></defs><g><!--MD5=[4a39f741ad6768ca388f24f8e4e7f8ee]
class StateGameBoot--><rect fill="#FEFECE" filter="url(#fc0kf6j8o44qv)" height="99.2188" id="StateGameBoot" style="stroke: #A80036; stroke-width: 1.5;" width="934" x="6" y="116"/><ellipse cx="419.25" cy="132" fill="#ADD1B2" rx="11" ry="11" style="stroke: #A80036; stroke-width: 1.0;"/><path d="M422.2188,137.6406 Q421.6406,137.9375 421,138.0781 Q420.3594,138.2344 419.6563,138.2344 Q417.1563,138.2344 415.8281,136.5938 Q414.5156,134.9375 414.5156,131.8125 Q414.5156,128.6875 415.8281,127.0313 Q417.1563,125.375 419.6563,125.375 Q420.3594,125.375 421,125.5313 Q421.6563,125.6875 422.2188,125.9844 L422.2188,128.7031 Q421.5938,128.125 421,127.8594 Q420.4063,127.5781 419.7813,127.5781 Q418.4375,127.5781 417.75,128.6563 Q417.0625,129.7188 417.0625,131.8125 Q417.0625,133.9063 417.75,134.9844 Q418.4375,136.0469 419.7813,136.0469 Q420.4063,136.0469 421,135.7813 Q421.5938,135.5 422.2188,134.9219 L422.2188,137.6406 Z "/>
<text fill="#000000" font-family="sans-serif" font-size="12" lengthAdjust="spacingAndGlyphs" textLength="99" x="439.75" y="136.1543">StateGameBoot</text><line style="stroke: #A80036; stroke-width: 1.5;" x1="7" x2="939" y1="148" y2="148"/>
<text fill="#000000" font-family="sans-serif" font-size="11" lengthAdjust="spacingAndGlyphs" textLength="85" x="26" y="162.2104">_countMax : int</text><ellipse cx="17" cy="171.8047" fill="none" rx="3" ry="3" style="stroke: #038048; stroke-width: 1.0;"/>
<text fill="#000000" font-family="sans-serif" font-size="11" lengthAdjust="spacingAndGlyphs" textLength="117" x="26" y="175.0151">CountMax : int «get»</text><line style="stroke: #A80036; stroke-width: 1.5;" x1="7" x2="939" y1="181.6094" y2="181.6094"/><ellipse cx="17" cy="192.6094" fill="#84BE84" rx="3" ry="3" style="stroke: #038048; stroke-width: 1.0;"/>
<text fill="#000000" font-family="sans-serif" font-size="11" lengthAdjust="spacingAndGlyphs" textLength="908" x="26" y="195.8198">Setup(parent:IGameController, fieldPrefab:AbstractField, players:IPlayer[], blockSetPrefabOptions:AbstractBlockSet[], sound:ISoundManager, fallLevel:int) : void</text><rect fill="#F24D5C" height="6" style="stroke: #C82930; stroke-width: 1.0;" width="6" x="14" y="202.4141"/>
<text fill="#000000" font-family="sans-serif" font-size="11" lengthAdjust="spacingAndGlyphs" textLength="126" x="26" y="208.6245">CoRun() : IEnumerator</text><!--MD5=[83b3cf3d23d77c6f1e1b5291a241bc2a]
class MonoBehaviour--><rect fill="#FEFECE" filter="url(#fc0kf6j8o44qv)" height="48" id="MonoBehaviour" style="stroke: #A80036; stroke-width: 1.5;" width="128" x="409" y="8"/><ellipse cx="424" cy="24" fill="#ADD1B2" rx="11" ry="11" style="stroke: #A80036; stroke-width: 1.0;"/><path d="M426.9688,29.6406 Q426.3906,29.9375 425.75,30.0781 Q425.1094,30.2344 424.4063,30.2344 Q421.9063,30.2344 420.5781,28.5938 Q419.2656,26.9375 419.2656,23.8125 Q419.2656,20.6875 420.5781,19.0313 Q421.9063,17.375 424.4063,17.375 Q425.1094,17.375 425.75,17.5313 Q426.4063,17.6875 426.9688,17.9844 L426.9688,20.7031 Q426.3438,20.125 425.75,19.8594 Q425.1563,19.5781 424.5313,19.5781 Q423.1875,19.5781 422.5,20.6563 Q421.8125,21.7188 421.8125,23.8125 Q421.8125,25.9063 422.5,26.9844 Q423.1875,28.0469 424.5313,28.0469 Q425.1563,28.0469 425.75,27.7813 Q426.3438,27.5 426.9688,26.9219 L426.9688,29.6406 Z "/>
<text fill="#000000" font-family="sans-serif" font-size="12" lengthAdjust="spacingAndGlyphs" textLength="96" x="438" y="28.1543">MonoBehaviour</text><line style="stroke: #A80036; stroke-width: 1.5;" x1="410" x2="536" y1="40" y2="40"/><line style="stroke: #A80036; stroke-width: 1.5;" x1="410" x2="536" y1="48" y2="48"/><!--MD5=[02a8746eb15ecbb4566dafa16ea4db73]
class Text--><rect fill="#FEFECE" filter="url(#fc0kf6j8o44qv)" height="48" id="Text" style="stroke: #A80036; stroke-width: 1.5;" width="58" x="379" y="275"/><ellipse cx="394" cy="291" fill="#ADD1B2" rx="11" ry="11" style="stroke: #A80036; stroke-width: 1.0;"/><path d="M396.9688,296.6406 Q396.3906,296.9375 395.75,297.0781 Q395.1094,297.2344 394.4063,297.2344 Q391.9063,297.2344 390.5781,295.5938 Q389.2656,293.9375 389.2656,290.8125 Q389.2656,287.6875 390.5781,286.0313 Q391.9063,284.375 394.4063,284.375 Q395.1094,284.375 395.75,284.5313 Q396.4063,284.6875 396.9688,284.9844 L396.9688,287.7031 Q396.3438,287.125 395.75,286.8594 Q395.1563,286.5781 394.5313,286.5781 Q393.1875,286.5781 392.5,287.6563 Q391.8125,288.7188 391.8125,290.8125 Q391.8125,292.9063 392.5,293.9844 Q393.1875,295.0469 394.5313,295.0469 Q395.1563,295.0469 395.75,294.7813 Q396.3438,294.5 396.9688,293.9219 L396.9688,296.6406 Z "/>
<text fill="#000000" font-family="sans-serif" font-size="12" lengthAdjust="spacingAndGlyphs" textLength="26" x="408" y="295.1543">Text</text><line style="stroke: #A80036; stroke-width: 1.5;" x1="380" x2="436" y1="307" y2="307"/><line style="stroke: #A80036; stroke-width: 1.5;" x1="380" x2="436" y1="315" y2="315"/><!--MD5=[3b9fec7f9d226106b53caed4fa4e6f62]
class IGameController--><rect fill="#FEFECE" filter="url(#fc0kf6j8o44qv)" height="48" id="IGameController" style="stroke: #A80036; stroke-width: 1.5;" width="132" x="472" y="275"/><ellipse cx="487" cy="291" fill="#ADD1B2" rx="11" ry="11" style="stroke: #A80036; stroke-width: 1.0;"/><path d="M489.9688,296.6406 Q489.3906,296.9375 488.75,297.0781 Q488.1094,297.2344 487.4063,297.2344 Q484.9063,297.2344 483.5781,295.5938 Q482.2656,293.9375 482.2656,290.8125 Q482.2656,287.6875 483.5781,286.0313 Q484.9063,284.375 487.4063,284.375 Q488.1094,284.375 488.75,284.5313 Q489.4063,284.6875 489.9688,284.9844 L489.9688,287.7031 Q489.3438,287.125 488.75,286.8594 Q488.1563,286.5781 487.5313,286.5781 Q486.1875,286.5781 485.5,287.6563 Q484.8125,288.7188 484.8125,290.8125 Q484.8125,292.9063 485.5,293.9844 Q486.1875,295.0469 487.5313,295.0469 Q488.1563,295.0469 488.75,294.7813 Q489.3438,294.5 489.9688,293.9219 L489.9688,296.6406 Z "/>
<text fill="#000000" font-family="sans-serif" font-size="12" lengthAdjust="spacingAndGlyphs" textLength="100" x="501" y="295.1543">IGameController</text><line style="stroke: #A80036; stroke-width: 1.5;" x1="473" x2="603" y1="307" y2="307"/><line style="stroke: #A80036; stroke-width: 1.5;" x1="473" x2="603" y1="315" y2="315"/><!--MD5=[e9bcff3babe564dcb1ad57dd77d089aa]
reverse link MonoBehaviour to StateGameBoot--><path d="M473,76.51 C473,89.14 473,103.01 473,115.93 " fill="none" id="MonoBehaviour&lt;-StateGameBoot" style="stroke: #A80036; stroke-width: 1.0;"/><polygon fill="none" points="466,76.21,473,56.21,480,76.21,466,76.21" style="stroke: #A80036; stroke-width: 1.0;"/><!--MD5=[1cf2d4ae5222d2b5cea58b0db8a5859d]
link StateGameBoot to Text--><path d="M448.98,215.09 C439.8,233.66 429.66,254.18 421.76,270.17 " fill="none" id="StateGameBoot-&gt;Text" style="stroke: #A80036; stroke-width: 1.0;"/><polygon fill="#A80036" points="419.38,274.98,426.9585,268.6899,421.5989,270.4993,419.7894,265.1397,419.38,274.98" style="stroke: #A80036; stroke-width: 1.0;"/>
<text fill="#000000" font-family="sans-serif" font-size="13" lengthAdjust="spacingAndGlyphs" textLength="56" x="359.1211" y="263.9869">_counter</text><!--MD5=[59baf517d6cfcd7e2a923e6b666f3912]
link StateGameBoot to IGameController--><path d="M497.02,215.09 C506.2,233.66 516.34,254.18 524.24,270.17 " fill="none" id="StateGameBoot-&gt;IGameController" style="stroke: #A80036; stroke-width: 1.0;"/><polygon fill="#A80036" points="526.62,274.98,526.2106,265.1397,524.4011,270.4993,519.0415,268.6899,526.62,274.98" style="stroke: #A80036; stroke-width: 1.0;"/>
<text fill="#000000" font-family="sans-serif" font-size="13" lengthAdjust="spacingAndGlyphs" textLength="49" x="468.4258" y="263.9869">_parent</text><!--MD5=[ad699c8fbe7a47c4cbb025ffe6a4498c]
@startuml
class StateGameBoot {
    _countMax : int
    + CountMax : int <<get>>
    + Setup(parent:IGameController, fieldPrefab:AbstractField, players:IPlayer[], blockSetPrefabOptions:AbstractBlockSet[], sound:ISoundManager, fallLevel:int) : void
    - CoRun() : IEnumerator
}
MonoBehaviour <|- - StateGameBoot
StateGameBoot - -> "_counter" Text
StateGameBoot - -> "_parent" IGameController
@enduml

PlantUML version 1.2020.02(Sun Mar 01 10:22:07 GMT 2020)
(GPL source distribution)
Java Runtime: OpenJDK Runtime Environment
JVM: OpenJDK 64-Bit Server VM
Java Version: 11.0.9+11-Ubuntu-0ubuntu1
Operating System: Linux
Default Encoding: ANSI_X3.4-1968
Language: en
Country: US
--></g></svg>
