<?xml version="1.0" encoding="UTF-8" standalone="no"?><svg xmlns="http://www.w3.org/2000/svg" xmlns:xlink="http://www.w3.org/1999/xlink" contentScriptType="application/ecmascript" contentStyleType="text/css" height="369px" preserveAspectRatio="none" style="width:210px;height:369px;" version="1.1" viewBox="0 0 210 369" width="210px" zoomAndPan="magnify"><defs><filter height="300%" id="f18ksdbpqyvnmh" width="300%" x="-1" y="-1"><feGaussianBlur result="blurOut" stdDeviation="2.0"/><feColorMatrix in="blurOut" result="blurOut2" type="matrix" values="0 0 0 0 0 0 0 0 0 0 0 0 0 0 0 0 0 0 .4 0"/><feOffset dx="4.0" dy="4.0" in="blurOut2" result="blurOut3"/><feBlend in="SourceGraphic" in2="blurOut3" mode="normal"/></filter></defs><g><ellipse cx="129.5" cy="18" fill="#000000" filter="url(#f18ksdbpqyvnmh)" rx="10" ry="10" style="stroke: none; stroke-width: 1.0;"/><rect fill="#FEFECE" filter="url(#f18ksdbpqyvnmh)" height="50.2656" rx="12.5" ry="12.5" style="stroke: #A80036; stroke-width: 1.5;" width="130" x="64.5" y="88"/><line style="stroke: #A80036; stroke-width: 1.5;" x1="64.5" x2="194.5" y1="114.2969" y2="114.2969"/>
<text fill="#000000" font-family="sans-serif" font-size="14" lengthAdjust="spacingAndGlyphs" textLength="110" x="74.5" y="105.9951">StateGameBoot</text>
<text fill="#000000" font-family="sans-serif" font-size="12" lengthAdjust="spacingAndGlyphs" textLength="89" x="69.5" y="130.4355">this is a string</text><rect fill="#FEFECE" filter="url(#f18ksdbpqyvnmh)" height="50" rx="12.5" ry="12.5" style="stroke: #A80036; stroke-width: 1.5;" width="129" x="6" y="198"/><line style="stroke: #A80036; stroke-width: 1.5;" x1="6" x2="135" y1="224.2969" y2="224.2969"/>
<text fill="#000000" font-family="sans-serif" font-size="14" lengthAdjust="spacingAndGlyphs" textLength="109" x="16" y="215.9951">StateGameMain</text><rect fill="#FEFECE" filter="url(#f18ksdbpqyvnmh)" height="50" rx="12.5" ry="12.5" style="stroke: #A80036; stroke-width: 1.5;" width="137" x="61" y="308"/><line style="stroke: #A80036; stroke-width: 1.5;" x1="61" x2="198" y1="334.2969" y2="334.2969"/>
<text fill="#000000" font-family="sans-serif" font-size="14" lengthAdjust="spacingAndGlyphs" textLength="117" x="71" y="325.9951">StateGameFinish</text><!--MD5=[34d73ca85f83d1850dd50c0ed25160d1]
link *start to StateGameBoot--><path d="M129.5,28.26 C129.5,40.86 129.5,63.98 129.5,82.74 " fill="none" id="*start-&gt;StateGameBoot" style="stroke: #A80036; stroke-width: 1.0;"/><polygon fill="#A80036" points="129.5,87.91,133.5,78.91,129.5,82.91,125.5,78.91,129.5,87.91" style="stroke: #A80036; stroke-width: 1.0;"/><!--MD5=[896508b743f16f039bd909a53d2e3906]
link StateGameBoot to StateGameMain--><path d="M116.26,138.24 C107.38,154.5 95.64,175.99 86.27,193.13 " fill="none" id="StateGameBoot-&gt;StateGameMain" style="stroke: #A80036; stroke-width: 1.0;"/><polygon fill="#A80036" points="83.7,197.84,91.5144,191.8454,86.0892,193.4478,84.4869,188.0226,83.7,197.84" style="stroke: #A80036; stroke-width: 1.0;"/><!--MD5=[533757d1d8c5c20b87fdb7c73e162626]
link StateGameMain to StateGameFinish--><path d="M83.74,248.24 C92.62,264.5 104.36,285.99 113.73,303.13 " fill="none" id="StateGameMain-&gt;StateGameFinish" style="stroke: #A80036; stroke-width: 1.0;"/><polygon fill="#A80036" points="116.3,307.84,115.5131,298.0226,113.9108,303.4478,108.4856,301.8454,116.3,307.84" style="stroke: #A80036; stroke-width: 1.0;"/><!--MD5=[2abc147c6aa19a9f3c39e5d627c4e937]
link StateGameFinish to StateGameBoot--><path d="M138,307.73 C143.35,291.14 149.74,268.53 152.5,248 C155.46,225.98 155.46,220.02 152.5,198 C150,179.39 144.51,159.08 139.53,143.09 " fill="none" id="StateGameFinish-&gt;StateGameBoot" style="stroke: #A80036; stroke-width: 1.0;"/><polygon fill="#A80036" points="138,138.27,136.8832,148.0553,139.4995,143.0399,144.515,145.6561,138,138.27" style="stroke: #A80036; stroke-width: 1.0;"/><!--MD5=[eb4411ecf705421f9c2145af973206f9]
@startuml
[*] - -> StateGameBoot
StateGameBoot - -> StateGameMain
StateGameMain - -> StateGameFinish
StateGameFinish - -> StateGameBoot

StateGameBoot : this is a string

@enduml

PlantUML version 1.2020.02(Sun Mar 01 10:22:07 GMT 2020)
(GPL source distribution)
Java Runtime: OpenJDK Runtime Environment
JVM: OpenJDK 64-Bit Server VM
Java Version: 11.0.9+11-Ubuntu-0ubuntu1
Operating System: Linux
Default Encoding: ANSI_X3.4-1968
Language: en
Country: US
--></g></svg>
