<?xml version="1.0" encoding="UTF-8" standalone="no"?><svg xmlns="http://www.w3.org/2000/svg" xmlns:xlink="http://www.w3.org/1999/xlink" contentScriptType="application/ecmascript" contentStyleType="text/css" height="379px" preserveAspectRatio="none" style="width:272px;height:379px;" version="1.1" viewBox="0 0 272 379" width="272px" zoomAndPan="magnify"><defs><filter height="300%" id="f75pot3sfzim" width="300%" x="-1" y="-1"><feGaussianBlur result="blurOut" stdDeviation="2.0"/><feColorMatrix in="blurOut" result="blurOut2" type="matrix" values="0 0 0 0 0 0 0 0 0 0 0 0 0 0 0 0 0 0 .4 0"/><feOffset dx="4.0" dy="4.0" in="blurOut2" result="blurOut3"/><feBlend in="SourceGraphic" in2="blurOut3" mode="normal"/></filter></defs><g><!--MD5=[972f7ff682aeccdbd90e798a3f605d71]
class UnityKeyInputManager--><rect fill="#FEFECE" filter="url(#f75pot3sfzim)" height="252.875" id="UnityKeyInputManager" style="stroke: #A80036; stroke-width: 1.5;" width="255" x="6" y="116"/><ellipse cx="59.75" cy="132" fill="#ADD1B2" rx="11" ry="11" style="stroke: #A80036; stroke-width: 1.0;"/><path d="M62.7188,137.6406 Q62.1406,137.9375 61.5,138.0781 Q60.8594,138.2344 60.1563,138.2344 Q57.6563,138.2344 56.3281,136.5938 Q55.0156,134.9375 55.0156,131.8125 Q55.0156,128.6875 56.3281,127.0313 Q57.6563,125.375 60.1563,125.375 Q60.8594,125.375 61.5,125.5313 Q62.1563,125.6875 62.7188,125.9844 L62.7188,128.7031 Q62.0938,128.125 61.5,127.8594 Q60.9063,127.5781 60.2813,127.5781 Q58.9375,127.5781 58.25,128.6563 Q57.5625,129.7188 57.5625,131.8125 Q57.5625,133.9063 58.25,134.9844 Q58.9375,136.0469 60.2813,136.0469 Q60.9063,136.0469 61.5,135.7813 Q62.0938,135.5 62.7188,134.9219 L62.7188,137.6406 Z "/><text fill="#000000" font-family="sans-serif" font-size="12" lengthAdjust="spacingAndGlyphs" textLength="139" x="80.25" y="136.1543">UnityKeyInputManager</text><line style="stroke: #A80036; stroke-width: 1.5;" x1="7" x2="260" y1="148" y2="148"/><rect fill="none" height="6" style="stroke: #C82930; stroke-width: 1.0;" width="6" x="14" y="156"/><text fill="#000000" font-family="sans-serif" font-size="11" lengthAdjust="spacingAndGlyphs" textLength="218" x="26" y="162.2104">«const» _maxKeepTime : float = 0.20f</text><rect fill="none" height="6" style="stroke: #C82930; stroke-width: 1.0;" width="6" x="14" y="168.8047"/><text fill="#000000" font-family="sans-serif" font-size="11" lengthAdjust="spacingAndGlyphs" textLength="229" x="26" y="175.0151">«const» _maxRepeatTime : float = 0.05f</text><rect fill="none" height="6" style="stroke: #C82930; stroke-width: 1.0;" width="6" x="14" y="181.6094"/><text fill="#000000" font-family="sans-serif" font-size="11" lengthAdjust="spacingAndGlyphs" textLength="159" x="26" y="187.8198">_suspendTime : float = 0.0f</text><rect fill="none" height="6" style="stroke: #C82930; stroke-width: 1.0;" width="6" x="14" y="194.4141"/><text fill="#000000" font-family="sans-serif" font-size="11" lengthAdjust="spacingAndGlyphs" textLength="93" x="26" y="200.6245">_repeat : int = 0</text><rect fill="none" height="6" style="stroke: #C82930; stroke-width: 1.0;" width="6" x="14" y="207.2188"/><text fill="#000000" font-family="sans-serif" font-size="11" lengthAdjust="spacingAndGlyphs" textLength="89" x="26" y="213.4292">_leftMove : bool</text><rect fill="none" height="6" style="stroke: #C82930; stroke-width: 1.0;" width="6" x="14" y="220.0234"/><text fill="#000000" font-family="sans-serif" font-size="11" lengthAdjust="spacingAndGlyphs" textLength="97" x="26" y="226.2339">_rightMove : bool</text><rect fill="none" height="6" style="stroke: #C82930; stroke-width: 1.0;" width="6" x="14" y="232.8281"/><text fill="#000000" font-family="sans-serif" font-size="11" lengthAdjust="spacingAndGlyphs" textLength="96" x="26" y="239.0386">_leftRotate : bool</text><rect fill="none" height="6" style="stroke: #C82930; stroke-width: 1.0;" width="6" x="14" y="245.6328"/><text fill="#000000" font-family="sans-serif" font-size="11" lengthAdjust="spacingAndGlyphs" textLength="104" x="26" y="251.8433">_rightRotate : bool</text><line style="stroke: #A80036; stroke-width: 1.5;" x1="7" x2="260" y1="258.4375" y2="258.4375"/><ellipse cx="17" cy="269.4375" fill="#84BE84" rx="3" ry="3" style="stroke: #038048; stroke-width: 1.0;"/><text fill="#000000" font-family="sans-serif" font-size="11" lengthAdjust="spacingAndGlyphs" textLength="170" x="26" y="272.6479">«override» StartGame() : void</text><ellipse cx="17" cy="282.2422" fill="#84BE84" rx="3" ry="3" style="stroke: #038048; stroke-width: 1.0;"/><text fill="#000000" font-family="sans-serif" font-size="11" lengthAdjust="spacingAndGlyphs" textLength="178" x="26" y="285.4526">«override» UpdateState() : void</text><ellipse cx="17" cy="295.0469" fill="#84BE84" rx="3" ry="3" style="stroke: #038048; stroke-width: 1.0;"/><text fill="#000000" font-family="sans-serif" font-size="11" lengthAdjust="spacingAndGlyphs" textLength="175" x="26" y="298.2573">«override» FinishGame() : void</text><ellipse cx="17" cy="307.8516" fill="#84BE84" rx="3" ry="3" style="stroke: #038048; stroke-width: 1.0;"/><text fill="#000000" font-family="sans-serif" font-size="11" lengthAdjust="spacingAndGlyphs" textLength="179" x="26" y="311.062">«override» IsMoveDown() : bool</text><ellipse cx="17" cy="320.6563" fill="#84BE84" rx="3" ry="3" style="stroke: #038048; stroke-width: 1.0;"/><text fill="#000000" font-family="sans-serif" font-size="11" lengthAdjust="spacingAndGlyphs" textLength="169" x="26" y="323.8667">«override» IsMoveLeft() : bool</text><ellipse cx="17" cy="333.4609" fill="#84BE84" rx="3" ry="3" style="stroke: #038048; stroke-width: 1.0;"/><text fill="#000000" font-family="sans-serif" font-size="11" lengthAdjust="spacingAndGlyphs" textLength="176" x="26" y="336.6714">«override» IsMoveRight() : bool</text><ellipse cx="17" cy="346.2656" fill="#84BE84" rx="3" ry="3" style="stroke: #038048; stroke-width: 1.0;"/><text fill="#000000" font-family="sans-serif" font-size="11" lengthAdjust="spacingAndGlyphs" textLength="176" x="26" y="349.4761">«override» IsRotateLeft() : bool</text><ellipse cx="17" cy="359.0703" fill="#84BE84" rx="3" ry="3" style="stroke: #038048; stroke-width: 1.0;"/><text fill="#000000" font-family="sans-serif" font-size="11" lengthAdjust="spacingAndGlyphs" textLength="183" x="26" y="362.2808">«override» IsRotateRight() : bool</text><!--MD5=[313835e2384f4c5003f55ee5fc6febf5]
class InputManager--><rect fill="#FEFECE" filter="url(#f75pot3sfzim)" height="48" id="InputManager" style="stroke: #A80036; stroke-width: 1.5;" width="119" x="74" y="8"/><ellipse cx="89" cy="24" fill="#ADD1B2" rx="11" ry="11" style="stroke: #A80036; stroke-width: 1.0;"/><path d="M91.9688,29.6406 Q91.3906,29.9375 90.75,30.0781 Q90.1094,30.2344 89.4063,30.2344 Q86.9063,30.2344 85.5781,28.5938 Q84.2656,26.9375 84.2656,23.8125 Q84.2656,20.6875 85.5781,19.0313 Q86.9063,17.375 89.4063,17.375 Q90.1094,17.375 90.75,17.5313 Q91.4063,17.6875 91.9688,17.9844 L91.9688,20.7031 Q91.3438,20.125 90.75,19.8594 Q90.1563,19.5781 89.5313,19.5781 Q88.1875,19.5781 87.5,20.6563 Q86.8125,21.7188 86.8125,23.8125 Q86.8125,25.9063 87.5,26.9844 Q88.1875,28.0469 89.5313,28.0469 Q90.1563,28.0469 90.75,27.7813 Q91.3438,27.5 91.9688,26.9219 L91.9688,29.6406 Z "/><text fill="#000000" font-family="sans-serif" font-size="12" lengthAdjust="spacingAndGlyphs" textLength="87" x="103" y="28.1543">InputManager</text><line style="stroke: #A80036; stroke-width: 1.5;" x1="75" x2="192" y1="40" y2="40"/><line style="stroke: #A80036; stroke-width: 1.5;" x1="75" x2="192" y1="48" y2="48"/><!--MD5=[6e9551e646f92cfc3b3bb53b6a9f9655]
reverse link InputManager to UnityKeyInputManager--><path d="M133.5,76.21 C133.5,88.18 133.5,101.81 133.5,115.99 " fill="none" id="InputManager&lt;-UnityKeyInputManager" style="stroke: #A80036; stroke-width: 1.0;"/><polygon fill="none" points="126.5,76.11,133.5,56.11,140.5,76.11,126.5,76.11" style="stroke: #A80036; stroke-width: 1.0;"/><!--MD5=[9ea347184884696c75b435d8c5a06418]
@startuml
class UnityKeyInputManager {
    - <<const>> _maxKeepTime : float = 0.20f
    - <<const>> _maxRepeatTime : float = 0.05f
    - _suspendTime : float = 0.0f
    - _repeat : int = 0
    - _leftMove : bool
    - _rightMove : bool
    - _leftRotate : bool
    - _rightRotate : bool
    + <<override>> StartGame() : void
    + <<override>> UpdateState() : void
    + <<override>> FinishGame() : void
    + <<override>> IsMoveDown() : bool
    + <<override>> IsMoveLeft() : bool
    + <<override>> IsMoveRight() : bool
    + <<override>> IsRotateLeft() : bool
    + <<override>> IsRotateRight() : bool
}
InputManager <|- - UnityKeyInputManager
@enduml

PlantUML version 1.2020.02(Sun Mar 01 10:22:07 GMT 2020)
(GPL source distribution)
Java Runtime: OpenJDK Runtime Environment
JVM: OpenJDK 64-Bit Server VM
Java Version: 11.0.9+11-Ubuntu-0ubuntu1
Operating System: Linux
Default Encoding: ANSI_X3.4-1968
Language: en
Country: US
--></g></svg>