<?xml version="1.0" encoding="UTF-8" standalone="no"?><svg xmlns="http://www.w3.org/2000/svg" xmlns:xlink="http://www.w3.org/1999/xlink" contentScriptType="application/ecmascript" contentStyleType="text/css" height="200px" preserveAspectRatio="none" style="width:310px;height:200px;" version="1.1" viewBox="0 0 310 200" width="310px" zoomAndPan="magnify"><defs><filter height="300%" id="fyx3k9rs23fri" width="300%" x="-1" y="-1"><feGaussianBlur result="blurOut" stdDeviation="2.0"/><feColorMatrix in="blurOut" result="blurOut2" type="matrix" values="0 0 0 0 0 0 0 0 0 0 0 0 0 0 0 0 0 0 .4 0"/><feOffset dx="4.0" dy="4.0" in="blurOut2" result="blurOut3"/><feBlend in="SourceGraphic" in2="blurOut3" mode="normal"/></filter></defs><g><!--MD5=[267e49382c186a4233894685f6461bc1]
class UnitySoundManager--><rect fill="#FEFECE" filter="url(#fyx3k9rs23fri)" height="73.6094" id="UnitySoundManager" style="stroke: #A80036; stroke-width: 1.5;" width="205" x="49.5" y="116"/><ellipse cx="85.65" cy="132" fill="#ADD1B2" rx="11" ry="11" style="stroke: #A80036; stroke-width: 1.0;"/><path d="M88.6188,137.6406 Q88.0406,137.9375 87.4,138.0781 Q86.7594,138.2344 86.0563,138.2344 Q83.5563,138.2344 82.2281,136.5938 Q80.9156,134.9375 80.9156,131.8125 Q80.9156,128.6875 82.2281,127.0313 Q83.5563,125.375 86.0563,125.375 Q86.7594,125.375 87.4,125.5313 Q88.0563,125.6875 88.6188,125.9844 L88.6188,128.7031 Q87.9938,128.125 87.4,127.8594 Q86.8063,127.5781 86.1813,127.5781 Q84.8375,127.5781 84.15,128.6563 Q83.4625,129.7188 83.4625,131.8125 Q83.4625,133.9063 84.15,134.9844 Q84.8375,136.0469 86.1813,136.0469 Q86.8063,136.0469 87.4,135.7813 Q87.9938,135.5 88.6188,134.9219 L88.6188,137.6406 Z "/>
<text fill="#000000" font-family="sans-serif" font-size="12" lengthAdjust="spacingAndGlyphs" textLength="126" x="104.35" y="136.1543">UnitySoundManager</text><line style="stroke: #A80036; stroke-width: 1.5;" x1="50.5" x2="253.5" y1="148" y2="148"/><line style="stroke: #A80036; stroke-width: 1.5;" x1="50.5" x2="253.5" y1="156" y2="156"/><ellipse cx="60.5" cy="167" fill="#84BE84" rx="3" ry="3" style="stroke: #038048; stroke-width: 1.0;"/>
<text fill="#000000" font-family="sans-serif" font-size="11" lengthAdjust="spacingAndGlyphs" textLength="176" x="69.5" y="170.2104">Play(sound:AudioSource) : void</text><ellipse cx="60.5" cy="179.8047" fill="#84BE84" rx="3" ry="3" style="stroke: #038048; stroke-width: 1.0;"/>
<text fill="#000000" font-family="sans-serif" font-size="11" lengthAdjust="spacingAndGlyphs" textLength="179" x="69.5" y="183.0151">Stop(sound:AudioSource) : void</text><!--MD5=[83b3cf3d23d77c6f1e1b5291a241bc2a]
class MonoBehaviour--><rect fill="#FEFECE" filter="url(#fyx3k9rs23fri)" height="48" id="MonoBehaviour" style="stroke: #A80036; stroke-width: 1.5;" width="128" x="6" y="8"/><ellipse cx="21" cy="24" fill="#ADD1B2" rx="11" ry="11" style="stroke: #A80036; stroke-width: 1.0;"/><path d="M23.9688,29.6406 Q23.3906,29.9375 22.75,30.0781 Q22.1094,30.2344 21.4063,30.2344 Q18.9063,30.2344 17.5781,28.5938 Q16.2656,26.9375 16.2656,23.8125 Q16.2656,20.6875 17.5781,19.0313 Q18.9063,17.375 21.4063,17.375 Q22.1094,17.375 22.75,17.5313 Q23.4063,17.6875 23.9688,17.9844 L23.9688,20.7031 Q23.3438,20.125 22.75,19.8594 Q22.1563,19.5781 21.5313,19.5781 Q20.1875,19.5781 19.5,20.6563 Q18.8125,21.7188 18.8125,23.8125 Q18.8125,25.9063 19.5,26.9844 Q20.1875,28.0469 21.5313,28.0469 Q22.1563,28.0469 22.75,27.7813 Q23.3438,27.5 23.9688,26.9219 L23.9688,29.6406 Z "/>
<text fill="#000000" font-family="sans-serif" font-size="12" lengthAdjust="spacingAndGlyphs" textLength="96" x="35" y="28.1543">MonoBehaviour</text><line style="stroke: #A80036; stroke-width: 1.5;" x1="7" x2="133" y1="40" y2="40"/><line style="stroke: #A80036; stroke-width: 1.5;" x1="7" x2="133" y1="48" y2="48"/><!--MD5=[8c9676452f7135a1f2c4480e47e2543f]
class ISoundManager--><rect fill="#FEFECE" filter="url(#fyx3k9rs23fri)" height="48" id="ISoundManager" style="stroke: #A80036; stroke-width: 1.5;" width="130" x="169" y="8"/><ellipse cx="184" cy="24" fill="#ADD1B2" rx="11" ry="11" style="stroke: #A80036; stroke-width: 1.0;"/><path d="M186.9688,29.6406 Q186.3906,29.9375 185.75,30.0781 Q185.1094,30.2344 184.4063,30.2344 Q181.9063,30.2344 180.5781,28.5938 Q179.2656,26.9375 179.2656,23.8125 Q179.2656,20.6875 180.5781,19.0313 Q181.9063,17.375 184.4063,17.375 Q185.1094,17.375 185.75,17.5313 Q186.4063,17.6875 186.9688,17.9844 L186.9688,20.7031 Q186.3438,20.125 185.75,19.8594 Q185.1563,19.5781 184.5313,19.5781 Q183.1875,19.5781 182.5,20.6563 Q181.8125,21.7188 181.8125,23.8125 Q181.8125,25.9063 182.5,26.9844 Q183.1875,28.0469 184.5313,28.0469 Q185.1563,28.0469 185.75,27.7813 Q186.3438,27.5 186.9688,26.9219 L186.9688,29.6406 Z "/>
<text fill="#000000" font-family="sans-serif" font-size="12" lengthAdjust="spacingAndGlyphs" textLength="98" x="198" y="28.1543">ISoundManager</text><line style="stroke: #A80036; stroke-width: 1.5;" x1="170" x2="298" y1="40" y2="40"/><line style="stroke: #A80036; stroke-width: 1.5;" x1="170" x2="298" y1="48" y2="48"/><!--MD5=[1284f4a2fc38329cbd2cd6c2bad85e0e]
reverse link MonoBehaviour to UnitySoundManager--><path d="M97.67,73.16 C107.16,86.93 117.73,102.26 127,115.71 " fill="none" id="MonoBehaviour&lt;-UnitySoundManager" style="stroke: #A80036; stroke-width: 1.0;"/><polygon fill="none" points="91.59,76.67,86.01,56.23,103.12,68.72,91.59,76.67" style="stroke: #A80036; stroke-width: 1.0;"/><!--MD5=[709bd21119fafdf2f20984bf8627fc0c]
reverse link ISoundManager to UnitySoundManager--><path d="M206.33,73.16 C196.84,86.93 186.27,102.26 177,115.71 " fill="none" id="ISoundManager&lt;-UnitySoundManager" style="stroke: #A80036; stroke-width: 1.0;"/><polygon fill="none" points="200.88,68.72,217.99,56.23,212.41,76.67,200.88,68.72" style="stroke: #A80036; stroke-width: 1.0;"/><!--MD5=[b9982b9cd2acda8cb5bab6225c206b09]
@startuml
class UnitySoundManager {
    + Play(sound:AudioSource) : void
    + Stop(sound:AudioSource) : void
}
MonoBehaviour <|- - UnitySoundManager
ISoundManager <|- - UnitySoundManager
@enduml

PlantUML version 1.2020.02(Sun Mar 01 10:22:07 GMT 2020)
(GPL source distribution)
Java Runtime: OpenJDK Runtime Environment
JVM: OpenJDK 64-Bit Server VM
Java Version: 11.0.9+11-Ubuntu-0ubuntu1
Operating System: Linux
Default Encoding: ANSI_X3.4-1968
Language: en
Country: US
--></g></svg>
